%TF.GenerationSoftware,Altium Limited,Altium Designer,18.1.11 (251)*%
G04 Layer_Color=8388736*
%FSLAX26Y26*%
%MOIN*%
%TF.FileFunction,Soldermask,Top*%
%TF.Part,Single*%
G01*
G75*
%TA.AperFunction,ComponentPad*%
%ADD48O,0.181165X0.092583*%
%ADD49O,0.092583X0.181165*%
%ADD50O,0.102425X0.200850*%
%TA.AperFunction,NonConductor*%
%ADD53R,0.018967X0.033465*%
%TA.AperFunction,Conductor*%
%ADD54C,0.092240*%
%ADD55C,0.017500*%
%TA.AperFunction,ConnectorPad*%
%ADD56R,0.222000X0.146000*%
%ADD57R,0.044000X0.020000*%
%ADD58R,0.204000X0.094000*%
%TA.AperFunction,SMDPad,CuDef*%
%ADD59R,0.204000X0.094000*%
%ADD60R,0.057150X0.065024*%
%ADD61R,0.065024X0.057150*%
%ADD62R,0.039748X0.046480*%
%ADD63R,0.029000X0.031559*%
%ADD64R,0.057150X0.078803*%
%ADD65R,0.031559X0.029000*%
%ADD66R,0.074866X0.025654*%
%ADD67R,0.104394X0.113055*%
%ADD68R,0.027622X0.013842*%
%ADD69R,0.021000X0.059000*%
%ADD70R,0.120000X0.073000*%
%ADD71R,0.026047X0.075260*%
%ADD72R,0.047307X0.047307*%
%ADD73R,0.047307X0.047307*%
%ADD74R,0.034000X0.014000*%
%ADD75R,0.014000X0.034000*%
%ADD76R,0.070142X0.070142*%
G04:AMPARAMS|DCode=77|XSize=65.024mil|YSize=27.622mil|CornerRadius=2.945mil|HoleSize=0mil|Usage=FLASHONLY|Rotation=0.000|XOffset=0mil|YOffset=0mil|HoleType=Round|Shape=RoundedRectangle|*
%AMROUNDEDRECTD77*
21,1,0.065024,0.021732,0,0,0.0*
21,1,0.059134,0.027622,0,0,0.0*
1,1,0.005890,0.029567,-0.010866*
1,1,0.005890,-0.029567,-0.010866*
1,1,0.005890,-0.029567,0.010866*
1,1,0.005890,0.029567,0.010866*
%
%ADD77ROUNDEDRECTD77*%
G36*
X806937Y564713D02*
X807028Y564714D01*
X807133Y564694D01*
X807239Y564684D01*
X807326Y564657D01*
X807415Y564640D01*
X807514Y564600D01*
X807616Y564569D01*
X807696Y564526D01*
X807780Y564492D01*
X807870Y564433D01*
X807963Y564384D01*
X808033Y564326D01*
X808110Y564276D01*
X808185Y564201D01*
X808268Y564134D01*
X808326Y564063D01*
X808390Y563999D01*
X808450Y563912D01*
X808518Y563829D01*
X808561Y563749D01*
X808612Y563673D01*
X808653Y563575D01*
X808703Y563482D01*
X808730Y563395D01*
X808765Y563311D01*
X808787Y563206D01*
X808818Y563105D01*
X808827Y563014D01*
X808845Y562925D01*
X808956Y561879D01*
X809200Y561194D01*
X809608Y560588D01*
X810239Y560007D01*
X811156Y559452D01*
X812389Y558952D01*
X813944Y558537D01*
X815814Y558228D01*
X817994Y558037D01*
X820519Y557971D01*
X820688Y557950D01*
X820859Y557934D01*
X820884Y557926D01*
X820910Y557923D01*
X821073Y557869D01*
X821236Y557819D01*
X821259Y557807D01*
X821284Y557798D01*
X821433Y557714D01*
X821583Y557634D01*
X821604Y557617D01*
X821626Y557604D01*
X821756Y557492D01*
X821888Y557384D01*
X821904Y557364D01*
X821924Y557346D01*
X822030Y557210D01*
X822138Y557079D01*
X822150Y557056D01*
X822166Y557035D01*
X822243Y556882D01*
X822323Y556732D01*
X822331Y556706D01*
X822343Y556683D01*
X822388Y556518D01*
X822438Y556355D01*
X822440Y556329D01*
X822447Y556303D01*
X822460Y556132D01*
X822476Y555962D01*
Y542462D01*
X822460Y542293D01*
X822447Y542122D01*
X822440Y542096D01*
X822438Y542070D01*
X822388Y541907D01*
X822343Y541742D01*
X822331Y541719D01*
X822323Y541693D01*
X822242Y541541D01*
X822166Y541390D01*
X822150Y541370D01*
X822138Y541346D01*
X822029Y541214D01*
X821924Y541079D01*
X821904Y541062D01*
X821888Y541041D01*
X821756Y540933D01*
X821626Y540821D01*
X821604Y540808D01*
X821583Y540792D01*
X821433Y540711D01*
X821284Y540626D01*
X821259Y540618D01*
X821236Y540606D01*
X821073Y540556D01*
X820910Y540502D01*
X820884Y540499D01*
X820859Y540491D01*
X820688Y540475D01*
X820519Y540453D01*
X817994Y540388D01*
X815814Y540197D01*
X813944Y539888D01*
X812389Y539473D01*
X811155Y538973D01*
X810239Y538418D01*
X809608Y537837D01*
X809200Y537231D01*
X808956Y536546D01*
X808845Y535500D01*
X808827Y535411D01*
X808818Y535320D01*
X808787Y535219D01*
X808765Y535114D01*
X808730Y535030D01*
X808703Y534943D01*
X808653Y534850D01*
X808612Y534752D01*
X808561Y534676D01*
X808518Y534596D01*
X808450Y534513D01*
X808390Y534426D01*
X808326Y534362D01*
X808268Y534291D01*
X808185Y534224D01*
X808110Y534149D01*
X808033Y534099D01*
X807963Y534042D01*
X807870Y533991D01*
X807780Y533933D01*
X807696Y533899D01*
X807616Y533856D01*
X807514Y533825D01*
X807415Y533785D01*
X807326Y533768D01*
X807239Y533741D01*
X807133Y533731D01*
X807029Y533711D01*
X806937Y533712D01*
X806847Y533703D01*
X806741Y533713D01*
X806635Y533714D01*
X806545Y533732D01*
X806455Y533741D01*
X806353Y533772D01*
X806249Y533794D01*
X806164Y533830D01*
X806078Y533856D01*
X805984Y533906D01*
X805886Y533947D01*
X805811Y533999D01*
X805730Y534042D01*
X805648Y534109D01*
X805560Y534169D01*
X805496Y534233D01*
X805426Y534291D01*
X805358Y534374D01*
X805284Y534449D01*
X805233Y534526D01*
X805176Y534596D01*
X805126Y534689D01*
X805067Y534779D01*
X805033Y534863D01*
X804990Y534943D01*
X804959Y535045D01*
X804919Y535144D01*
X804902Y535233D01*
X804876Y535320D01*
X804865Y535426D01*
X804845Y535531D01*
X804846Y535622D01*
X804837Y535712D01*
Y562712D01*
X804846Y562803D01*
X804845Y562894D01*
X804865Y562999D01*
X804876Y563105D01*
X804902Y563192D01*
X804919Y563281D01*
X804959Y563380D01*
X804990Y563482D01*
X805033Y563562D01*
X805067Y563646D01*
X805126Y563736D01*
X805176Y563829D01*
X805233Y563899D01*
X805284Y563976D01*
X805358Y564051D01*
X805426Y564134D01*
X805496Y564192D01*
X805560Y564256D01*
X805648Y564316D01*
X805730Y564384D01*
X805811Y564426D01*
X805886Y564478D01*
X805984Y564519D01*
X806078Y564569D01*
X806164Y564596D01*
X806249Y564631D01*
X806353Y564653D01*
X806455Y564684D01*
X806545Y564692D01*
X806635Y564711D01*
X806741Y564712D01*
X806847Y564722D01*
X806937Y564713D01*
D02*
G37*
G36*
X1858268Y314961D02*
X1860236Y312992D01*
X1860236Y295276D01*
X1875984Y295276D01*
X1877953Y293307D01*
Y202756D01*
X1875984Y200787D01*
X1860236D01*
X1860236Y183071D01*
X1858268Y181103D01*
X1852362Y181103D01*
X1850394Y183071D01*
X1850394Y200787D01*
X1840551D01*
Y183071D01*
X1838583Y181103D01*
X1832677Y181103D01*
X1830709Y183071D01*
X1830709Y200787D01*
X1814961D01*
X1812992Y202756D01*
X1812992Y293307D01*
X1814961Y295276D01*
X1830709Y295276D01*
Y312992D01*
X1832677Y314961D01*
X1838583Y314961D01*
X1838583Y314961D01*
X1840551Y312992D01*
Y295276D01*
X1850394D01*
X1850394Y312992D01*
X1852362Y314961D01*
X1858268Y314961D01*
X1858268Y314961D01*
D02*
G37*
D48*
X2551181Y381890D02*
D03*
D49*
X2669291Y196850D02*
D03*
D50*
X2433071D02*
D03*
D53*
X2926540Y602362D02*
D03*
D54*
X922901D02*
G03*
X859611Y576146I0J-89506D01*
G01*
X922901Y602362D02*
X2888780D01*
D55*
X837590Y554125D02*
G03*
X837598Y554134I-11873J11890D01*
G01*
X825717Y549212D02*
G03*
X837590Y554125I0J16803D01*
G01*
X837598Y554134D02*
X859611Y576146D01*
X837590Y554125D02*
X837598Y554134D01*
X794587Y549212D02*
X825717D01*
D56*
X2883126Y690112D02*
D03*
Y514568D02*
D03*
D57*
X2972126Y602362D02*
D03*
D58*
X100000Y538386D02*
D03*
D59*
X624606Y60000D02*
D03*
X396260Y727402D02*
D03*
D60*
X2060039Y464567D02*
D03*
X2138780D02*
D03*
X2077756Y114173D02*
D03*
X2156496D02*
D03*
D61*
X2286417Y328740D02*
D03*
Y250000D02*
D03*
D62*
X954331Y717520D02*
D03*
X892126Y717520D02*
D03*
X1084252D02*
D03*
X1022047Y717520D02*
D03*
D63*
X914075Y505906D02*
D03*
X952067D02*
D03*
X835335D02*
D03*
X873327D02*
D03*
X549902Y624016D02*
D03*
X587894D02*
D03*
X717224Y438976D02*
D03*
X755216D02*
D03*
X755217Y624016D02*
D03*
X717224D02*
D03*
X587894Y438976D02*
D03*
X549902D02*
D03*
X1710040Y239173D02*
D03*
X1748032Y239173D02*
D03*
X350689Y466535D02*
D03*
X312697D02*
D03*
X312697Y509842D02*
D03*
X350689D02*
D03*
X429429Y466535D02*
D03*
X391437D02*
D03*
X234154Y553149D02*
D03*
X272146D02*
D03*
X508563Y509842D02*
D03*
X546555D02*
D03*
X391457D02*
D03*
X429449D02*
D03*
X312697Y553149D02*
D03*
X350689D02*
D03*
X470571D02*
D03*
X508563D02*
D03*
X429449D02*
D03*
X391457D02*
D03*
X715846Y232284D02*
D03*
X677854D02*
D03*
X952067Y462599D02*
D03*
X914075D02*
D03*
X873327D02*
D03*
X835335D02*
D03*
X794587Y505905D02*
D03*
X756595D02*
D03*
Y549212D02*
D03*
X794587D02*
D03*
X756595Y232284D02*
D03*
X794587D02*
D03*
X912697Y419291D02*
D03*
X874705D02*
D03*
D64*
X1845473Y120079D02*
D03*
X1719488D02*
D03*
X1719488Y375984D02*
D03*
X1845472D02*
D03*
D65*
X1943898Y181791D02*
D03*
X1943898Y219784D02*
D03*
X1987205D02*
D03*
Y181792D02*
D03*
X1943898Y314272D02*
D03*
X1943898Y276279D02*
D03*
X1987205Y314272D02*
D03*
Y276279D02*
D03*
X2030512Y276280D02*
D03*
X2030512Y314272D02*
D03*
Y197540D02*
D03*
X2030512Y235532D02*
D03*
X629921Y638484D02*
D03*
Y676476D02*
D03*
X673228Y638484D02*
D03*
Y676476D02*
D03*
X661417Y426181D02*
D03*
Y388189D02*
D03*
D66*
X2277559Y464567D02*
D03*
X2372047Y501968D02*
D03*
X2372047Y427165D02*
D03*
D67*
X1334646Y173425D02*
D03*
Y426969D02*
D03*
X1555118Y173425D02*
D03*
Y426969D02*
D03*
D68*
X1900591Y287402D02*
D03*
Y267717D02*
D03*
Y248032D02*
D03*
X1900591Y228346D02*
D03*
X1900591Y208661D02*
D03*
X1790354D02*
D03*
Y228346D02*
D03*
X1790354Y248032D02*
D03*
X1790355Y267717D02*
D03*
Y287402D02*
D03*
D69*
X2079701Y203370D02*
D03*
X2105301D02*
D03*
X2130901D02*
D03*
X2156501D02*
D03*
X2182101D02*
D03*
X2207701D02*
D03*
Y375370D02*
D03*
X2182101D02*
D03*
X2156501D02*
D03*
X2130901D02*
D03*
X2105301D02*
D03*
X2079701D02*
D03*
D70*
X2143701Y289370D02*
D03*
D71*
X717323Y688976D02*
D03*
X751181D02*
D03*
X587795D02*
D03*
X553937D02*
D03*
Y374016D02*
D03*
X587795D02*
D03*
X751181D02*
D03*
X717323D02*
D03*
D72*
X1152559Y252953D02*
D03*
Y323819D02*
D03*
D73*
X866142Y109252D02*
D03*
X937008D02*
D03*
D74*
X593575Y561024D02*
D03*
Y541333D02*
D03*
Y521644D02*
D03*
Y501954D02*
D03*
X709575D02*
D03*
Y521644D02*
D03*
Y541333D02*
D03*
Y561024D02*
D03*
D75*
X622040Y473488D02*
D03*
X641730D02*
D03*
X661420D02*
D03*
X681110D02*
D03*
Y589489D02*
D03*
X661420D02*
D03*
X641730D02*
D03*
X622040D02*
D03*
D76*
X651575Y531489D02*
D03*
D77*
X857284Y333858D02*
D03*
Y283858D02*
D03*
Y233858D02*
D03*
Y183858D02*
D03*
X1069882D02*
D03*
Y233858D02*
D03*
Y283858D02*
D03*
Y333858D02*
D03*
%TF.MD5,a0f2b6017d83e5a877e2f5ad1ff2cde4*%
M02*
