%TF.GenerationSoftware,Altium Limited,Altium Designer,18.1.11 (251)*%
G04 Layer_Color=32896*
%FSLAX26Y26*%
%MOIN*%
%TF.FileFunction,Legend,Bot*%
%TF.Part,Single*%
G01*
G75*
%TA.AperFunction,NonConductor*%
%ADD47C,0.008000*%
G36*
X1996063Y719378D02*
X1959010Y680795D01*
X1957917Y670412D01*
X1955622Y645164D01*
X1953764Y627020D01*
X1993440Y586251D01*
X1990707Y583628D01*
X1953436Y621883D01*
X1951250Y598383D01*
X1950048D01*
Y589421D01*
X1941741D01*
Y598383D01*
X1916055D01*
X1915072Y596634D01*
X1913869Y594886D01*
X1912011Y592918D01*
X1909607Y591279D01*
X1906874Y590404D01*
X1904251Y590076D01*
X1901518Y590186D01*
X1899551Y590732D01*
X1897256Y591716D01*
X1895288Y592918D01*
X1893758Y594448D01*
X1892228Y596634D01*
X1891135Y599039D01*
X1890479Y601334D01*
X1890261Y603192D01*
X1890479Y605488D01*
X1890807Y607236D01*
X1891463Y608876D01*
X1892447Y610734D01*
X1893540Y612264D01*
X1895070Y613685D01*
X1896709Y614778D01*
X1898239Y615543D01*
X1898021Y617511D01*
X1865340Y583628D01*
X1862608Y586360D01*
X1897693Y622648D01*
X1894851Y654345D01*
X1892884Y677298D01*
X1882391D01*
Y692053D01*
X1885123D01*
X1858564Y719378D01*
X1861296Y722001D01*
X1886326Y696207D01*
Y698065D01*
X1885779Y698502D01*
X1885123Y698939D01*
X1884468Y699595D01*
X1883812Y700360D01*
X1883484Y701344D01*
X1883156Y702218D01*
X1883047Y703311D01*
X1883265Y704732D01*
X1883593Y705497D01*
X1884577Y707027D01*
X1885670Y708011D01*
X1887091Y708667D01*
X1888621Y708885D01*
X1890151Y708667D01*
X1891463Y708120D01*
X1892556Y707465D01*
X1893102Y706809D01*
X1894086Y707683D01*
X1895726Y708776D01*
X1897693Y709760D01*
X1900535Y710853D01*
X1903595Y711727D01*
X1906656Y712383D01*
X1909935Y712930D01*
X1912558Y713258D01*
Y716537D01*
X1933543D01*
Y713695D01*
X1935183D01*
X1937915Y713367D01*
X1940757Y713039D01*
X1943490Y712602D01*
Y714351D01*
X1952562D01*
Y710088D01*
X1953655Y709541D01*
X1955075Y708885D01*
X1956715Y707902D01*
X1958027Y707027D01*
X1959229Y705934D01*
X1960103Y705169D01*
X1960650Y704404D01*
X1961087Y703530D01*
X1960868Y702000D01*
X1966115D01*
Y695332D01*
X1960322D01*
X1959447Y686698D01*
X1993331Y722001D01*
X1996063Y719378D01*
D02*
G37*
G36*
X1743689Y707793D02*
X1745219Y707574D01*
X1746750Y707137D01*
X1747952Y706809D01*
X1749045Y706372D01*
X1749810Y705934D01*
X1750247Y705716D01*
X1750466Y705606D01*
X1751012Y705279D01*
X1751450Y705060D01*
X1751668Y704841D01*
X1752761Y703967D01*
X1753745Y703093D01*
X1754619Y702109D01*
X1755384Y701235D01*
X1755931Y700469D01*
X1756368Y699814D01*
X1756587Y699376D01*
X1756696Y699267D01*
X1822604Y585049D01*
X1822713D01*
X1822822Y584939D01*
Y584830D01*
Y584721D01*
X1823260Y583846D01*
X1823697Y583081D01*
X1823806Y582644D01*
X1823916Y582425D01*
X1824025Y582207D01*
X1824134Y581879D01*
X1824353Y581114D01*
X1824462Y580458D01*
X1824571Y580239D01*
Y580130D01*
X1824899Y577835D01*
X1824790Y575649D01*
X1824571Y573572D01*
X1824025Y571823D01*
X1823588Y570402D01*
X1823041Y569309D01*
X1822932Y568872D01*
X1822713Y568544D01*
X1822604Y568435D01*
Y568326D01*
Y568216D01*
X1822167Y567451D01*
X1821729Y566795D01*
X1821292Y566358D01*
X1821183Y566140D01*
X1820637Y565484D01*
X1820090Y564937D01*
X1819653Y564500D01*
X1819434Y564391D01*
X1818450Y563516D01*
X1817467Y562861D01*
X1815499Y561658D01*
X1813532Y560893D01*
X1811783Y560347D01*
X1810144Y560019D01*
X1808832Y559910D01*
X1808395Y559800D01*
X1675705D01*
X1674612Y559910D01*
X1673737Y560019D01*
X1673300Y560128D01*
X1673191D01*
X1672535Y560237D01*
X1671661Y560456D01*
X1671005Y560565D01*
X1670896Y560675D01*
X1670786D01*
X1668600Y561549D01*
X1666742Y562751D01*
X1665103Y563954D01*
X1663791Y565265D01*
X1662698Y566468D01*
X1662042Y567451D01*
X1661496Y568107D01*
X1661386Y568216D01*
Y568326D01*
X1661277D01*
X1660731Y569309D01*
X1660403Y570074D01*
X1660293Y570512D01*
X1660184Y570621D01*
X1659856Y571605D01*
X1659638Y572370D01*
X1659528Y572807D01*
Y573026D01*
X1659310Y574228D01*
X1659200Y575430D01*
Y577726D01*
X1659528Y579802D01*
X1659966Y581660D01*
X1660512Y583191D01*
X1660949Y584393D01*
X1661168Y584830D01*
X1661386Y585158D01*
X1661496Y585267D01*
Y585376D01*
X1727404Y699595D01*
X1727950Y700360D01*
X1728387Y701016D01*
X1728715Y701453D01*
X1728824Y701672D01*
X1729371Y702218D01*
X1729918Y702765D01*
X1730355Y703202D01*
X1730464Y703420D01*
X1730573D01*
X1732431Y704951D01*
X1734399Y706044D01*
X1736257Y706809D01*
X1738006Y707355D01*
X1739645Y707683D01*
X1740848Y707793D01*
X1741285Y707902D01*
X1741940D01*
X1743689Y707793D01*
D02*
G37*
G36*
X1988084Y553352D02*
Y552805D01*
Y552040D01*
Y551275D01*
Y550400D01*
Y549635D01*
Y549089D01*
Y548980D01*
Y548870D01*
Y545263D01*
Y543515D01*
Y541875D01*
Y540563D01*
Y539471D01*
Y539033D01*
Y538705D01*
Y538596D01*
Y538487D01*
Y536410D01*
Y534552D01*
Y532803D01*
Y531273D01*
Y529961D01*
Y529087D01*
Y528431D01*
Y528322D01*
Y528213D01*
Y526682D01*
Y525589D01*
Y524715D01*
Y524168D01*
Y523841D01*
Y523731D01*
Y523622D01*
X1868619D01*
Y523841D01*
Y524387D01*
Y525043D01*
Y525917D01*
Y526792D01*
Y527447D01*
Y527994D01*
Y528213D01*
Y531819D01*
Y533568D01*
Y535098D01*
Y536519D01*
Y537503D01*
Y537940D01*
Y538268D01*
Y538378D01*
Y538487D01*
Y540563D01*
Y542531D01*
Y544280D01*
Y545810D01*
Y547121D01*
Y548105D01*
Y548652D01*
Y548870D01*
Y549745D01*
Y550400D01*
Y551603D01*
Y552477D01*
Y553024D01*
Y553352D01*
Y553461D01*
Y553570D01*
X1988084D01*
Y553352D01*
D02*
G37*
%LPC*%
G36*
X1929609Y712820D02*
X1916274D01*
Y710634D01*
X1929609D01*
Y712820D01*
D02*
G37*
G36*
X1933543Y709760D02*
Y706809D01*
X1912558D01*
Y709323D01*
X1908186Y708667D01*
X1904251Y707683D01*
X1900972Y706809D01*
X1898349Y705606D01*
X1896272Y704404D01*
X1894742Y702983D01*
Y702000D01*
X1943490D01*
Y708448D01*
X1940539Y708995D01*
X1937260Y709432D01*
X1933543Y709760D01*
D02*
G37*
G36*
X1948845Y710634D02*
X1947315D01*
Y705606D01*
X1948736D01*
X1948845Y710634D01*
D02*
G37*
G36*
X1952562Y705716D02*
Y702000D01*
X1957043D01*
X1957152Y702655D01*
X1956059Y703748D01*
X1954638Y704732D01*
X1952562Y705716D01*
D02*
G37*
G36*
X1889168Y705060D02*
X1888840D01*
X1888184Y704951D01*
X1887747Y704732D01*
X1887310Y704514D01*
X1887091Y704186D01*
X1886872Y703530D01*
Y703311D01*
Y703202D01*
X1886982Y702546D01*
X1887200Y702109D01*
X1887528Y701781D01*
X1887856Y701562D01*
X1888512Y701344D01*
X1888840D01*
X1889495Y701453D01*
X1889933Y701672D01*
X1890261Y701890D01*
X1890479Y702327D01*
X1890698Y702874D01*
Y703093D01*
Y703202D01*
X1890589Y703858D01*
X1890370Y704295D01*
X1890151Y704623D01*
X1889714Y704841D01*
X1889168Y705060D01*
D02*
G37*
G36*
X1893540Y688337D02*
X1886216D01*
Y681123D01*
X1893540D01*
Y688337D01*
D02*
G37*
G36*
X1930155Y671833D02*
X1910481D01*
Y670630D01*
X1930155D01*
Y671833D01*
D02*
G37*
G36*
X1956496Y695332D02*
X1895288D01*
X1895616Y692053D01*
X1897256D01*
Y685058D01*
X1906437Y675658D01*
X1933981D01*
Y666914D01*
X1914962D01*
X1927641Y653798D01*
X1955294Y682544D01*
X1956496Y695332D01*
D02*
G37*
G36*
X1954748Y676423D02*
X1930264Y651066D01*
X1950376Y630408D01*
X1954748Y676423D01*
D02*
G37*
G36*
X1897256Y679593D02*
Y677298D01*
X1896819D01*
X1901191Y626364D01*
X1925018Y651066D01*
X1909607Y666914D01*
X1906437D01*
Y670084D01*
X1897256Y679593D01*
D02*
G37*
G36*
X1927641Y648333D02*
X1901628Y621336D01*
X1902065Y616636D01*
X1903814Y616746D01*
X1905781Y616636D01*
X1908186Y615981D01*
X1910481Y614778D01*
X1912230Y613576D01*
X1913869Y611936D01*
X1915290Y609860D01*
X1916493Y607236D01*
X1917039Y604285D01*
X1916930Y602318D01*
X1947752D01*
X1949938Y625380D01*
X1927641Y648333D01*
D02*
G37*
G36*
X1904360Y610078D02*
X1903705D01*
X1902502Y609969D01*
X1901518Y609750D01*
X1900644Y609423D01*
X1899879Y609095D01*
X1899223Y608548D01*
X1898786Y608002D01*
X1897912Y606799D01*
X1897474Y605488D01*
X1897256Y604504D01*
X1897147Y604067D01*
Y603739D01*
Y603520D01*
Y603411D01*
X1897256Y602209D01*
X1897474Y601225D01*
X1897802Y600351D01*
X1898130Y599586D01*
X1898677Y599039D01*
X1899223Y598492D01*
X1900426Y597727D01*
X1901628Y597181D01*
X1902721Y596962D01*
X1903049Y596853D01*
X1903705D01*
X1904907Y596962D01*
X1905890Y597181D01*
X1906765Y597509D01*
X1907530Y597837D01*
X1908186Y598383D01*
X1908732Y598930D01*
X1909497Y600132D01*
X1910044Y601334D01*
X1910263Y602427D01*
X1910372Y602755D01*
Y603083D01*
Y603302D01*
Y603411D01*
X1910263Y604613D01*
X1910044Y605597D01*
X1909716Y606471D01*
X1909279Y607236D01*
X1908842Y607892D01*
X1908295Y608439D01*
X1906984Y609204D01*
X1905781Y609750D01*
X1904688Y609969D01*
X1904360Y610078D01*
D02*
G37*
G36*
X1946332Y598492D02*
X1945457D01*
Y593137D01*
X1946332D01*
Y598492D01*
D02*
G37*
%LPD*%
G36*
X1905235Y607674D02*
X1906328Y607236D01*
X1907093Y606471D01*
X1907639Y605706D01*
X1907967Y604832D01*
X1908076Y604067D01*
X1908186Y603630D01*
Y603411D01*
X1907967Y601990D01*
X1907530Y600897D01*
X1906765Y600132D01*
X1905890Y599586D01*
X1905125Y599258D01*
X1904360Y599148D01*
X1903923Y599039D01*
X1903705D01*
X1902284Y599258D01*
X1901191Y599695D01*
X1900426Y600460D01*
X1899879Y601225D01*
X1899551Y601990D01*
X1899442Y602755D01*
X1899332Y603192D01*
Y603411D01*
X1899551Y604941D01*
X1899988Y606034D01*
X1900753Y606799D01*
X1901518Y607346D01*
X1902284Y607674D01*
X1903049Y607783D01*
X1903486Y607892D01*
X1903705D01*
X1905235Y607674D01*
D02*
G37*
%LPC*%
G36*
X1903814Y604067D02*
X1903705D01*
X1903267Y603957D01*
X1903158Y603739D01*
X1903049Y603520D01*
Y603411D01*
X1903158Y603083D01*
X1903377Y602865D01*
X1903595Y602755D01*
X1903705D01*
X1904032Y602865D01*
X1904251Y603083D01*
X1904360Y603302D01*
Y603411D01*
X1904251Y603848D01*
X1904032Y603957D01*
X1903814Y604067D01*
D02*
G37*
G36*
X1742378Y696753D02*
X1741940D01*
Y696644D01*
X1740629Y696535D01*
X1739536Y696316D01*
X1738443Y695879D01*
X1737569Y695442D01*
X1736803Y695004D01*
X1736257Y694567D01*
X1735929Y694349D01*
X1735820Y694239D01*
X1735273Y693693D01*
X1735055Y693474D01*
X1734945Y693365D01*
X1734617Y692928D01*
X1734399Y692490D01*
X1734180Y692272D01*
Y692163D01*
X1734071D01*
X1712648Y655001D01*
X1719971Y651940D01*
X1721174Y651503D01*
X1722266Y651175D01*
X1723360Y650957D01*
X1724343Y650847D01*
X1725218Y650738D01*
X1725983Y650629D01*
X1729043D01*
X1730245Y650738D01*
X1732103D01*
X1732869Y650847D01*
X1735055D01*
X1735710Y650957D01*
X1736148D01*
X1736585Y651066D01*
X1738989D01*
X1741066Y650957D01*
X1742924Y650738D01*
X1744564Y650410D01*
X1745875Y650191D01*
X1746859Y649864D01*
X1747515Y649754D01*
X1747624Y649645D01*
X1747733D01*
X1749482Y648989D01*
X1751231Y648115D01*
X1752980Y647131D01*
X1754619Y646147D01*
X1755931Y645273D01*
X1757024Y644508D01*
X1757461Y644289D01*
X1757789Y644071D01*
X1757898Y643852D01*
X1758008D01*
X1758335Y643633D01*
X1758773Y643415D01*
X1759756Y642759D01*
X1760303Y642431D01*
X1760631Y642212D01*
X1760959Y642103D01*
X1761068Y641994D01*
X1761833Y641447D01*
X1762161Y641338D01*
X1762270Y641229D01*
X1762926Y640901D01*
X1763035Y640792D01*
X1763145Y640682D01*
X1764675Y639699D01*
X1765768Y638933D01*
X1766205Y638606D01*
X1766533Y638387D01*
X1766642Y638168D01*
X1766752D01*
X1767517Y637513D01*
X1768172Y636966D01*
X1768719Y636529D01*
X1769047Y636092D01*
X1769593Y635545D01*
X1769812Y635327D01*
X1779540Y640901D01*
X1749919Y692053D01*
X1749045Y693256D01*
X1748280Y694239D01*
X1747515Y694895D01*
X1747406Y695004D01*
X1747296Y695114D01*
X1747187D01*
X1747078Y695223D01*
X1746859Y695332D01*
X1746750Y695442D01*
X1746640D01*
X1745766Y695879D01*
X1745001Y696207D01*
X1743471Y696644D01*
X1742815D01*
X1742378Y696753D01*
D02*
G37*
G36*
X1711446Y652815D02*
X1698876Y631064D01*
X1699423Y630627D01*
X1699969Y630189D01*
X1700407Y629752D01*
X1700516Y629643D01*
X1701609Y628441D01*
X1702483Y627238D01*
X1702811Y626692D01*
X1703139Y626364D01*
X1703248Y626036D01*
X1703358Y625927D01*
X1703686Y625271D01*
X1704013Y624506D01*
X1704560Y623085D01*
X1704888Y622429D01*
X1704997Y621883D01*
X1705216Y621555D01*
Y621446D01*
X1705653Y620352D01*
X1705981Y619478D01*
X1706309Y618713D01*
X1706637Y618167D01*
X1706855Y617729D01*
X1707074Y617401D01*
X1707183Y617292D01*
Y617183D01*
X1707620Y616636D01*
X1707948Y616199D01*
X1708276Y615871D01*
X1708385Y615762D01*
X1709041Y614997D01*
X1709478Y614450D01*
X1709806Y614122D01*
X1709916Y614013D01*
X1711009Y612920D01*
X1712102Y611936D01*
X1714069Y610297D01*
X1715927Y608985D01*
X1717457Y608111D01*
X1718660Y607346D01*
X1719643Y607018D01*
X1720190Y606799D01*
X1720408Y606690D01*
X1767735Y634015D01*
X1766861Y634889D01*
X1766096Y635654D01*
X1765549Y636092D01*
X1765331Y636201D01*
X1764019Y637185D01*
X1762926Y637950D01*
X1762489Y638278D01*
X1762161Y638496D01*
X1761942Y638715D01*
X1761833D01*
X1761287Y639043D01*
X1760849Y639261D01*
X1760194Y639589D01*
X1759975Y639808D01*
X1759866D01*
X1759101Y640354D01*
X1758335Y640682D01*
X1757789Y641120D01*
X1757352Y641338D01*
X1756805Y641775D01*
X1756587Y641885D01*
X1754619Y643306D01*
X1752761Y644399D01*
X1751122Y645382D01*
X1749701Y646147D01*
X1748608Y646694D01*
X1747733Y647022D01*
X1747187Y647240D01*
X1746968Y647350D01*
X1745329Y647787D01*
X1743580Y648115D01*
X1741940Y648333D01*
X1740301Y648443D01*
X1738880Y648552D01*
X1735164D01*
X1734617Y648443D01*
X1733524D01*
X1730901Y648224D01*
X1729590D01*
X1728497Y648115D01*
X1726201D01*
X1724780Y648224D01*
X1723469Y648443D01*
X1722266Y648661D01*
X1721283Y648989D01*
X1720408Y649317D01*
X1719643Y649536D01*
X1719206Y649645D01*
X1719097Y649754D01*
X1711446Y652815D01*
D02*
G37*
G36*
X1745329Y612702D02*
X1739427Y609313D01*
X1740848Y608330D01*
X1742159Y607236D01*
X1742706Y606799D01*
X1743143Y606471D01*
X1743471Y606253D01*
X1743580Y606144D01*
X1744017Y606909D01*
X1744454Y607674D01*
X1744782Y608330D01*
X1744892Y608439D01*
Y608548D01*
X1745001Y608876D01*
X1745110Y608985D01*
Y609095D01*
X1745329Y609750D01*
X1745438Y610406D01*
X1745547Y610843D01*
Y611062D01*
Y611499D01*
X1745438Y612046D01*
X1745329Y612483D01*
Y612702D01*
D02*
G37*
G36*
X1751777Y616418D02*
X1747515Y614013D01*
X1747843Y612811D01*
X1747952Y611827D01*
X1748061Y611171D01*
Y611062D01*
Y610953D01*
X1747952Y609860D01*
X1747733Y608876D01*
X1747515Y608330D01*
X1747406Y608220D01*
Y608111D01*
X1747296Y607783D01*
X1747187Y607674D01*
X1747078Y607564D01*
X1746750Y606799D01*
X1746422Y606253D01*
X1745875Y605269D01*
X1745547Y604832D01*
X1745438Y604613D01*
X1746968Y603192D01*
X1748280Y601990D01*
X1748826Y601444D01*
X1749154Y601006D01*
X1749373Y600788D01*
X1749482Y600678D01*
X1749810Y600351D01*
X1749919Y600241D01*
X1750138Y599913D01*
X1750247Y599804D01*
X1751012Y601116D01*
X1751559Y602099D01*
X1751887Y602755D01*
X1751996Y602865D01*
Y602974D01*
X1752215Y603520D01*
X1752324Y603848D01*
X1752433Y603957D01*
X1752543Y604395D01*
X1752652Y604613D01*
Y604832D01*
X1752870Y605925D01*
X1752980Y607018D01*
Y607564D01*
Y608002D01*
Y608220D01*
Y608330D01*
Y608548D01*
Y608985D01*
Y609532D01*
Y610297D01*
Y610953D01*
Y611609D01*
Y612046D01*
Y612155D01*
Y613139D01*
X1752870Y613904D01*
X1752761Y614341D01*
Y614560D01*
X1752433Y615325D01*
X1752105Y615871D01*
X1751887Y616308D01*
X1751777Y616418D01*
D02*
G37*
G36*
X1757570Y619697D02*
X1753854Y617620D01*
X1754401Y616855D01*
X1754838Y616090D01*
X1755056Y615434D01*
X1755166Y615325D01*
Y615215D01*
X1755384Y614232D01*
X1755494Y613248D01*
Y612811D01*
Y612483D01*
Y612264D01*
Y612155D01*
Y611390D01*
Y610843D01*
Y610406D01*
Y610188D01*
Y609423D01*
Y608876D01*
Y608439D01*
Y608220D01*
Y607236D01*
X1755384Y606471D01*
Y605816D01*
X1755275Y605269D01*
X1755166Y604832D01*
Y604504D01*
X1755056Y604395D01*
Y604285D01*
Y604176D01*
X1754838Y603520D01*
X1754729Y603192D01*
Y603083D01*
Y602974D01*
X1754510Y602646D01*
X1754291Y602209D01*
X1754182Y602099D01*
Y601990D01*
X1753417Y600351D01*
X1752652Y599039D01*
X1752324Y598492D01*
X1752105Y598055D01*
X1751996Y597837D01*
X1751887Y597727D01*
X1752870Y596088D01*
X1753636Y594667D01*
X1753964Y594120D01*
X1754073Y593683D01*
X1754291Y593465D01*
Y593355D01*
X1754729Y593683D01*
X1755166Y593902D01*
X1755494Y594120D01*
X1755712Y594230D01*
X1756477Y594667D01*
X1756915Y594995D01*
X1757133Y595213D01*
X1757243Y595323D01*
X1757461Y595541D01*
X1757680Y595760D01*
X1758008Y595869D01*
X1758117Y595979D01*
X1758445Y596197D01*
X1758663Y596307D01*
X1758773Y596416D01*
X1758554D01*
X1758773Y596525D01*
X1759101Y596634D01*
X1759319Y596853D01*
X1759428D01*
Y596962D01*
X1759538Y597072D01*
Y597181D01*
Y597399D01*
Y597618D01*
Y599258D01*
X1759428Y600788D01*
X1759319Y601334D01*
Y601771D01*
X1759210Y602099D01*
Y602209D01*
X1759101Y602865D01*
X1759210Y603630D01*
X1759538Y605378D01*
X1759756Y606253D01*
X1759975Y606909D01*
X1760084Y607346D01*
X1760194Y607564D01*
X1760631Y608876D01*
X1760849Y609860D01*
X1761068Y610734D01*
X1761177Y611390D01*
Y611936D01*
Y612264D01*
Y612374D01*
Y612483D01*
X1761068Y612920D01*
X1760849Y613357D01*
X1760412Y614341D01*
X1760084Y614778D01*
X1759866Y615106D01*
X1759756Y615325D01*
X1759647Y615434D01*
X1759101Y616418D01*
X1758554Y617183D01*
X1758226Y617948D01*
X1757898Y618604D01*
X1757789Y619041D01*
X1757680Y619369D01*
X1757570Y619587D01*
Y619697D01*
D02*
G37*
G36*
X1730683Y597946D02*
X1730573D01*
X1730245Y597837D01*
X1729808Y597509D01*
X1729371Y597072D01*
X1728824Y596634D01*
X1728387Y596197D01*
X1728059Y595760D01*
X1727841Y595432D01*
X1727732Y595323D01*
X1727622Y595213D01*
Y595104D01*
X1727513D01*
X1727404Y594995D01*
X1727076Y594558D01*
X1726966Y594120D01*
Y593793D01*
Y593683D01*
X1727076Y593137D01*
X1727185Y592481D01*
X1727294Y591825D01*
X1727404Y591716D01*
Y591607D01*
Y591497D01*
X1727513D01*
X1727732Y591279D01*
X1728059Y591169D01*
X1728934Y590951D01*
X1729699Y590841D01*
X1730027D01*
X1731666Y590951D01*
X1732431Y591060D01*
X1733087Y591169D01*
X1733634Y591279D01*
X1734071Y591388D01*
X1734290Y591497D01*
X1734399D01*
X1735055Y591716D01*
X1735601Y592044D01*
X1735929Y592153D01*
X1736038Y592262D01*
X1735929Y592372D01*
Y592481D01*
X1735820Y592809D01*
X1735710Y592918D01*
X1734836Y594339D01*
X1734071Y595323D01*
X1733415Y595979D01*
X1733306Y596197D01*
X1733197D01*
X1732431Y596744D01*
X1731557Y597290D01*
X1730901Y597727D01*
X1730683Y597946D01*
D02*
G37*
G36*
X1772326Y628331D02*
X1759866Y621118D01*
X1759975Y620462D01*
X1760084Y619806D01*
X1760740Y618385D01*
X1761068Y617729D01*
X1761287Y617292D01*
X1761505Y616964D01*
X1761614Y616855D01*
X1762161Y615981D01*
X1762707Y615215D01*
X1763035Y614560D01*
X1763254Y614013D01*
X1763473Y613576D01*
X1763582Y613248D01*
X1763691Y613029D01*
Y612920D01*
Y612155D01*
X1763582Y611171D01*
X1763145Y609095D01*
X1762926Y608220D01*
X1762707Y607455D01*
X1762598Y606909D01*
X1762489Y606690D01*
X1762161Y605597D01*
X1761833Y604723D01*
X1761724Y604067D01*
X1761614Y603520D01*
Y603192D01*
Y602974D01*
Y602755D01*
X1761942Y600788D01*
X1762052Y599913D01*
Y599148D01*
Y598492D01*
X1761942Y597946D01*
Y597618D01*
Y597509D01*
Y596962D01*
Y596853D01*
Y596744D01*
X1761833Y596307D01*
Y596197D01*
Y596088D01*
X1761614Y595432D01*
X1761505Y594995D01*
X1761396Y594886D01*
Y594776D01*
X1761287Y594230D01*
X1761177Y593902D01*
X1761068Y593355D01*
X1760959Y593137D01*
X1760631Y591934D01*
X1760303Y590951D01*
X1759866Y589202D01*
X1759538Y587781D01*
X1759319Y586688D01*
X1759210Y585923D01*
X1759101Y585376D01*
Y585158D01*
Y585049D01*
X1759210Y584284D01*
X1759538Y583518D01*
X1760194Y582425D01*
X1760522Y581988D01*
X1760849Y581660D01*
X1761068Y581442D01*
X1761177Y581332D01*
X1761287Y581223D01*
X1761505Y581114D01*
X1761614Y581005D01*
X1761724Y580895D01*
Y581223D01*
Y581551D01*
Y581879D01*
Y581988D01*
Y582535D01*
Y582972D01*
X1761833Y583191D01*
Y583300D01*
X1762161Y584065D01*
X1762489Y584830D01*
X1762817Y585376D01*
X1762926Y585486D01*
Y585595D01*
X1763145Y585814D01*
X1763363Y586142D01*
X1763473Y586360D01*
X1763582Y586470D01*
X1764347Y587562D01*
X1765112Y588328D01*
X1765986Y588983D01*
X1766752Y589311D01*
X1767407Y589530D01*
X1767954Y589749D01*
X1768938D01*
X1769375Y589639D01*
X1769703Y589530D01*
X1769812D01*
X1770031Y589421D01*
X1770140D01*
X1770468Y590295D01*
X1770796Y591169D01*
X1771124Y591825D01*
X1771233Y592044D01*
Y592153D01*
X1771998Y593793D01*
X1772435Y595104D01*
X1772654Y595651D01*
X1772763Y596088D01*
X1772872Y596307D01*
Y596416D01*
X1773091Y597181D01*
X1773310Y598055D01*
X1773638Y599804D01*
X1773747Y600569D01*
Y601225D01*
X1773856Y601662D01*
Y601771D01*
X1774075Y603192D01*
X1774184Y604504D01*
X1774403Y605597D01*
X1774512Y606471D01*
X1774621Y607127D01*
X1774730Y607564D01*
X1774840Y607892D01*
Y608002D01*
Y608220D01*
X1775058Y608876D01*
X1775277Y609641D01*
X1775386Y610297D01*
X1775496Y610406D01*
Y610515D01*
X1775933Y612264D01*
X1776261Y613685D01*
X1776479Y614888D01*
X1776589Y615871D01*
Y616527D01*
Y617073D01*
X1776479Y617292D01*
Y617401D01*
X1776261Y617948D01*
X1776042Y618604D01*
X1775496Y620025D01*
X1775168Y620680D01*
X1774949Y621227D01*
X1774840Y621664D01*
X1774730Y621773D01*
X1774075Y623194D01*
X1773528Y624506D01*
X1773091Y625599D01*
X1772763Y626583D01*
X1772544Y627348D01*
X1772435Y627894D01*
X1772326Y628222D01*
Y628331D01*
D02*
G37*
G36*
X1737131Y608002D02*
X1728059Y602755D01*
X1728497Y602318D01*
X1729043Y601881D01*
X1730355Y601006D01*
X1730901Y600569D01*
X1731338Y600351D01*
X1731666Y600132D01*
X1731776Y600023D01*
X1732541Y599476D01*
X1733197Y599039D01*
X1733634Y598711D01*
X1734071Y598492D01*
X1734508Y598165D01*
X1734617Y598055D01*
X1735929Y596744D01*
X1737022Y595432D01*
X1737350Y594886D01*
X1737678Y594448D01*
X1737787Y594120D01*
X1737896Y594011D01*
X1738334Y593028D01*
X1738661Y592372D01*
X1738880Y591934D01*
Y591825D01*
X1739099Y591169D01*
X1739208Y590841D01*
Y590732D01*
X1739973Y591060D01*
X1740520Y591169D01*
X1740957Y591279D01*
X1741066D01*
X1741613Y591388D01*
X1741940Y591497D01*
X1742159Y591607D01*
X1742268D01*
X1743799Y591716D01*
X1745329Y591607D01*
X1746094Y591497D01*
X1746531D01*
X1746968Y591388D01*
X1747078D01*
X1747515Y591279D01*
X1747843Y591169D01*
X1747952Y591060D01*
X1748498D01*
X1748717Y590951D01*
X1749045Y590841D01*
X1749154Y590732D01*
X1750466Y590186D01*
X1751559Y589639D01*
X1752215Y589093D01*
X1752324Y588983D01*
X1752433Y588874D01*
X1752652Y588546D01*
X1752870Y588109D01*
X1752980Y587781D01*
X1753089Y587672D01*
X1752980Y588655D01*
X1752870Y589749D01*
X1752215Y591716D01*
X1751340Y593574D01*
X1750357Y595323D01*
X1749373Y596853D01*
X1748498Y598055D01*
X1748171Y598492D01*
X1747843Y598820D01*
X1747733Y598930D01*
X1747624Y599039D01*
X1745766Y601006D01*
X1744892Y601881D01*
X1744017Y602537D01*
X1743361Y603192D01*
X1742815Y603630D01*
X1742378Y603957D01*
X1742268Y604067D01*
X1740192Y605706D01*
X1739317Y606362D01*
X1738552Y606909D01*
X1738006Y607346D01*
X1737569Y607783D01*
X1737241Y607892D01*
X1737131Y608002D01*
D02*
G37*
G36*
X1736913Y589858D02*
X1736366Y589639D01*
X1735820Y589421D01*
X1735382Y589311D01*
X1735164Y589202D01*
X1734836Y589093D01*
X1734399Y588983D01*
X1734071Y588874D01*
X1733962D01*
X1733634Y588328D01*
X1733415Y587781D01*
X1733197Y586907D01*
Y586142D01*
X1733306Y586032D01*
Y585923D01*
X1733415Y585704D01*
Y585486D01*
X1733524Y585376D01*
X1733743Y584939D01*
X1733852Y584721D01*
X1733962Y584611D01*
X1734617Y584174D01*
X1735382Y583956D01*
X1736148D01*
X1737241Y584065D01*
X1738115Y584502D01*
X1738661Y584830D01*
X1738880Y584939D01*
X1738006Y586470D01*
X1737459Y587672D01*
X1737350Y588218D01*
X1737241Y588546D01*
X1737131Y588765D01*
Y588874D01*
X1737022Y589311D01*
X1736913Y589639D01*
Y589749D01*
Y589858D01*
D02*
G37*
G36*
X1743361Y590514D02*
X1742596D01*
X1741831Y590295D01*
X1741175Y590186D01*
X1740192Y589858D01*
X1739645Y589530D01*
X1739427Y589421D01*
X1739536Y588874D01*
X1739864Y588218D01*
X1740629Y586797D01*
X1740957Y586251D01*
X1741285Y585704D01*
X1741503Y585376D01*
X1741613Y585267D01*
X1742268Y584393D01*
X1742924Y583628D01*
X1743471Y582972D01*
X1743908Y582535D01*
X1744236Y582207D01*
X1744454Y581988D01*
X1744673Y581770D01*
X1745438Y581332D01*
X1745875Y581005D01*
X1746094Y580895D01*
X1746203D01*
X1746750Y580677D01*
X1747187Y580567D01*
X1747624D01*
X1748498Y580458D01*
X1749701D01*
X1750575Y580677D01*
X1751012Y580895D01*
X1751340Y581114D01*
X1751450Y581223D01*
X1752215Y582207D01*
X1752652Y583300D01*
X1752761Y583737D01*
X1752870Y584174D01*
X1752980Y584393D01*
Y584502D01*
X1752870Y585049D01*
X1752761Y585376D01*
X1752652Y585595D01*
Y585704D01*
X1752433Y586360D01*
X1752105Y586907D01*
X1751996Y587344D01*
X1751777Y587562D01*
X1751668Y587890D01*
X1751559Y588000D01*
X1750685Y588655D01*
X1749810Y589202D01*
X1749154Y589530D01*
X1748936Y589639D01*
X1748498D01*
X1748171Y589749D01*
X1748061Y589858D01*
X1747733D01*
X1747515Y589967D01*
X1747406D01*
X1746531Y590186D01*
X1745438Y590295D01*
X1744564Y590404D01*
X1743799D01*
X1743361Y590514D01*
D02*
G37*
G36*
X1769047Y588546D02*
X1768500D01*
X1767626Y588437D01*
X1766861Y588109D01*
X1766205Y587672D01*
X1765659Y587235D01*
X1765221Y586797D01*
X1764784Y586360D01*
X1764675Y586032D01*
X1764566Y585923D01*
X1764347Y585486D01*
X1764238Y585267D01*
X1764019Y584939D01*
X1763910Y584830D01*
X1763473Y584174D01*
X1763254Y583628D01*
X1763035Y583191D01*
Y582972D01*
X1762926Y582753D01*
Y582425D01*
Y582097D01*
Y581988D01*
Y581332D01*
X1763035Y581114D01*
Y581005D01*
Y580677D01*
Y580458D01*
Y580349D01*
X1763254Y580239D01*
X1763582Y580130D01*
X1764128D01*
X1764675Y580239D01*
X1765221Y580458D01*
X1765986Y580895D01*
X1766533Y581442D01*
X1766752Y581551D01*
Y581660D01*
X1767189Y582316D01*
X1767735Y583191D01*
X1768172Y584065D01*
X1768610Y585158D01*
X1768938Y586032D01*
X1769265Y586797D01*
X1769375Y587344D01*
X1769484Y587562D01*
X1769703Y588328D01*
X1769593D01*
X1769484Y588437D01*
X1769047Y588546D01*
D02*
G37*
G36*
X1783147Y634562D02*
X1774621Y629643D01*
X1774840Y628550D01*
X1775168Y627457D01*
X1775496Y626255D01*
X1775933Y625162D01*
X1776261Y624178D01*
X1776589Y623413D01*
X1776807Y622976D01*
X1776917Y622757D01*
X1777354Y621664D01*
X1777791Y620790D01*
X1778119Y619915D01*
X1778337Y619260D01*
X1778556Y618713D01*
X1778665Y618385D01*
X1778775Y618167D01*
Y618057D01*
X1778993Y617073D01*
Y615762D01*
X1778884Y614450D01*
X1778665Y613139D01*
X1778337Y611827D01*
X1778119Y610843D01*
X1778009Y610406D01*
Y610078D01*
X1777900Y609969D01*
Y609860D01*
X1777572Y608876D01*
X1777463Y608220D01*
X1777354Y607783D01*
Y607674D01*
X1777244Y607455D01*
X1777026Y606690D01*
X1776917Y605706D01*
X1776589Y603739D01*
X1776479Y602865D01*
X1776370Y602099D01*
X1776261Y601662D01*
Y601444D01*
X1776042Y600023D01*
X1775823Y598711D01*
X1775714Y597727D01*
X1775496Y596962D01*
X1775386Y596416D01*
X1775277Y595979D01*
X1775168Y595760D01*
Y595651D01*
X1774949Y595104D01*
X1774730Y594339D01*
X1774184Y592918D01*
X1773965Y592262D01*
X1773747Y591716D01*
X1773528Y591388D01*
Y591279D01*
X1773091Y590186D01*
X1772763Y589421D01*
X1772544Y588765D01*
X1772326Y588328D01*
X1772217Y588109D01*
X1772107Y587890D01*
Y587781D01*
X1771998Y587672D01*
X1771889Y587344D01*
X1771779Y586907D01*
Y586797D01*
X1771124Y585049D01*
X1770577Y583737D01*
X1770031Y582535D01*
X1769593Y581660D01*
X1769156Y580895D01*
X1768828Y580458D01*
X1768719Y580239D01*
X1768610Y580130D01*
X1767954Y579365D01*
X1767189Y578818D01*
X1766533Y578381D01*
X1765768Y578163D01*
X1765221Y577944D01*
X1764784Y577835D01*
X1764456Y577726D01*
X1763473D01*
X1762598Y577944D01*
X1762052Y578053D01*
X1761942Y578163D01*
X1761833D01*
X1761068Y578491D01*
X1760412Y578928D01*
X1759866Y579365D01*
X1759647Y579474D01*
X1758773Y580349D01*
X1758008Y581223D01*
X1757461Y582207D01*
X1757133Y583081D01*
X1756915Y583737D01*
X1756805Y584393D01*
X1756696Y584830D01*
Y584939D01*
Y585814D01*
X1756915Y587016D01*
X1757243Y588328D01*
X1757570Y589749D01*
X1757898Y590951D01*
X1758117Y592044D01*
X1758226Y592481D01*
X1758335Y592809D01*
X1758445Y592918D01*
Y593028D01*
X1758008Y592809D01*
X1757461Y592481D01*
X1757024Y592262D01*
X1756915Y592153D01*
X1756368Y591825D01*
X1755931Y591497D01*
X1755603Y591279D01*
X1755384Y591060D01*
X1755166Y590951D01*
Y590841D01*
X1755494Y589530D01*
X1755603Y588437D01*
Y588000D01*
Y587672D01*
Y587453D01*
Y587344D01*
Y587016D01*
Y586907D01*
Y586797D01*
Y586688D01*
X1755494Y584939D01*
X1755166Y583518D01*
X1754838Y582207D01*
X1754291Y581223D01*
X1753854Y580458D01*
X1753526Y579912D01*
X1753198Y579584D01*
X1753089Y579474D01*
X1752105Y578818D01*
X1751122Y578381D01*
X1750685Y578272D01*
X1750357Y578163D01*
X1750138Y578053D01*
X1747406D01*
X1746531Y578272D01*
X1745766Y578491D01*
X1745329Y578600D01*
X1745110Y578709D01*
X1744345Y579146D01*
X1743689Y579474D01*
X1743361Y579802D01*
X1743252Y579912D01*
X1742159Y580895D01*
X1741285Y581879D01*
X1740848Y582316D01*
X1740520Y582644D01*
X1740410Y582863D01*
X1740301Y582972D01*
X1739645Y582535D01*
X1738989Y582097D01*
X1737678Y581660D01*
X1737131Y581551D01*
X1736694Y581442D01*
X1735382D01*
X1734617Y581551D01*
X1733852Y581879D01*
X1733306Y582097D01*
X1732869Y582425D01*
X1732541Y582753D01*
X1732322Y582863D01*
X1732213Y582972D01*
Y582863D01*
X1732103Y582972D01*
X1731994Y583191D01*
X1731885Y583300D01*
X1731666Y583628D01*
X1731448Y583956D01*
X1731229Y584174D01*
Y584284D01*
X1731120Y584830D01*
X1731011Y585158D01*
X1730901Y585267D01*
Y585376D01*
X1730792Y586470D01*
Y587453D01*
X1730901Y587890D01*
Y588109D01*
X1731011Y588328D01*
Y588437D01*
X1729918D01*
X1728824Y588546D01*
X1727841Y588655D01*
X1727185Y588874D01*
X1726529Y589202D01*
X1726092Y589530D01*
X1725764Y589749D01*
X1725545Y589858D01*
Y589967D01*
X1725327Y590295D01*
X1725218Y590514D01*
X1725108Y590732D01*
X1724780Y591825D01*
X1724562Y592809D01*
X1724453Y593355D01*
Y593574D01*
X1724671Y594776D01*
X1724999Y595760D01*
X1725327Y596416D01*
X1725545Y596525D01*
Y596634D01*
X1725655Y596853D01*
X1725764Y596962D01*
X1726857Y598055D01*
X1727732Y598820D01*
X1728169Y599258D01*
X1728387Y599367D01*
X1727404Y600132D01*
X1726639Y600788D01*
X1726092Y601225D01*
X1725873Y601444D01*
X1674175Y571495D01*
X1674940Y570949D01*
X1675705Y570621D01*
X1676361Y570402D01*
X1676470Y570293D01*
X1676798D01*
X1677235Y570184D01*
X1677672Y570074D01*
X1677781Y569965D01*
X1679202D01*
Y569856D01*
X1804569D01*
X1805881Y569965D01*
X1807083Y570184D01*
X1808176Y570621D01*
X1809160Y571058D01*
X1809925Y571495D01*
X1810472Y571933D01*
X1810800Y572151D01*
X1810909Y572260D01*
X1811346Y572698D01*
X1811565Y573026D01*
X1811783Y573135D01*
Y573244D01*
X1812111Y573681D01*
X1812330Y574009D01*
X1812548Y574337D01*
Y574447D01*
X1812658D01*
X1813204Y575539D01*
X1813532Y576633D01*
X1813641Y577726D01*
X1813751Y578709D01*
Y579584D01*
Y580239D01*
X1813641Y580677D01*
Y580786D01*
X1813532Y581332D01*
X1813423Y581770D01*
X1813313Y581988D01*
Y582097D01*
X1813204Y582425D01*
X1812986Y582863D01*
X1812876Y583191D01*
X1812767Y583300D01*
X1812658Y583409D01*
Y583518D01*
X1783147Y634562D01*
D02*
G37*
G36*
X1697674Y628987D02*
X1697565D01*
X1671442Y583737D01*
Y583628D01*
X1670786Y582316D01*
X1670458Y581114D01*
X1670240Y580567D01*
Y580130D01*
X1670130Y579912D01*
Y579802D01*
X1670240D01*
X1670130Y579256D01*
Y579146D01*
Y579037D01*
Y578381D01*
Y577944D01*
X1670240Y577726D01*
Y577616D01*
X1717676Y605160D01*
X1716036Y606034D01*
X1714397Y607127D01*
X1712867Y608330D01*
X1711336Y609423D01*
X1710134Y610515D01*
X1709150Y611390D01*
X1708495Y612046D01*
X1708385Y612155D01*
X1708276Y612264D01*
X1707620Y612920D01*
X1707074Y613467D01*
X1706637Y613904D01*
X1706418Y614122D01*
X1705981Y614669D01*
X1705653Y615325D01*
X1705325Y615762D01*
X1705216Y615871D01*
X1704778Y616527D01*
X1704451Y617292D01*
X1703686Y618822D01*
X1703467Y619478D01*
X1703248Y620025D01*
X1703030Y620462D01*
Y620571D01*
X1702592Y621555D01*
X1702265Y622429D01*
X1701937Y623194D01*
X1701609Y623741D01*
X1701390Y624178D01*
X1701281Y624506D01*
X1701172Y624725D01*
X1700734Y625490D01*
X1700188Y626145D01*
X1699423Y627129D01*
X1698986Y627676D01*
X1698767Y627894D01*
X1698002Y628659D01*
X1697783Y628878D01*
X1697674Y628987D01*
D02*
G37*
%LPD*%
D47*
X1123807Y722680D02*
X1130471Y729345D01*
X1143800D01*
X1150465Y722680D01*
Y716016D01*
X1143800Y709351D01*
X1130471D01*
X1123807Y702687D01*
Y696022D01*
X1130471Y689358D01*
X1143800D01*
X1150465Y696022D01*
X1110477Y729345D02*
X1097149D01*
X1103813D01*
Y689358D01*
X1110477D01*
X1097149D01*
X1050497Y722680D02*
X1057161Y729345D01*
X1070490D01*
X1077155Y722680D01*
Y696022D01*
X1070490Y689358D01*
X1057161D01*
X1050497Y696022D01*
Y709351D01*
X1063826D01*
X1037168Y689358D02*
Y729345D01*
X1010510Y689358D01*
Y729345D01*
X997181Y689358D02*
Y716016D01*
X983852Y729345D01*
X970523Y716016D01*
Y689358D01*
Y709351D01*
X997181D01*
X957194Y729345D02*
Y689358D01*
X930536D01*
X877219Y729345D02*
X863890D01*
X870555D01*
Y689358D01*
X877219D01*
X863890D01*
X843897D02*
Y729345D01*
X817239Y689358D01*
Y729345D01*
X803910Y689358D02*
Y729345D01*
X783916D01*
X777252Y722680D01*
Y709351D01*
X783916Y702687D01*
X803910D01*
X763923Y729345D02*
Y696022D01*
X757258Y689358D01*
X743929D01*
X737265Y696022D01*
Y729345D01*
X723936D02*
X697278D01*
X710606D01*
Y689358D01*
X1150465Y622173D02*
Y662160D01*
X1137136Y648831D01*
X1123807Y662160D01*
Y622173D01*
X1110477D02*
Y648831D01*
X1097149Y662160D01*
X1083820Y648831D01*
Y622173D01*
Y642167D01*
X1110477D01*
X1070490Y662160D02*
X1043832Y622173D01*
Y662160D02*
X1070490Y622173D01*
X1030503Y662160D02*
X1017174D01*
X1023839D01*
Y622173D01*
X1030503D01*
X1017174D01*
X997181D02*
Y662160D01*
X983852Y648831D01*
X970523Y662160D01*
Y622173D01*
X957194Y662160D02*
Y628838D01*
X950529Y622173D01*
X937200D01*
X930536Y628838D01*
Y662160D01*
X917207Y622173D02*
Y662160D01*
X903878Y648831D01*
X890548Y662160D01*
Y622173D01*
X837232Y642167D02*
X810574D01*
X823903Y655496D02*
Y628838D01*
X797245Y622173D02*
X770587Y648831D01*
X757258Y642167D02*
X730600D01*
X677284Y655496D02*
X670619Y662160D01*
X657290D01*
X650626Y655496D01*
Y648831D01*
X657290Y642167D01*
X663955D01*
X657290D01*
X650626Y635502D01*
Y628838D01*
X657290Y622173D01*
X670619D01*
X677284Y628838D01*
X637297Y655496D02*
X630632Y662160D01*
X617303D01*
X610639Y655496D01*
Y628838D01*
X617303Y622173D01*
X630632D01*
X637297Y628838D01*
Y655496D01*
X557323Y662160D02*
Y635502D01*
X543994Y622173D01*
X530665Y635502D01*
Y662160D01*
X2818772Y735506D02*
Y695519D01*
X2798778D01*
X2792114Y702183D01*
Y708847D01*
X2798778Y715512D01*
X2818772D01*
X2798778D01*
X2792114Y722177D01*
Y728841D01*
X2798778Y735506D01*
X2818772D01*
X2778785D02*
Y702183D01*
X2772120Y695519D01*
X2758791D01*
X2752127Y702183D01*
Y735506D01*
X2712140D02*
X2738798D01*
Y715512D01*
X2725468D01*
X2738798D01*
Y695519D01*
X2698810Y728841D02*
X2692146Y735506D01*
X2678817D01*
X2672152Y728841D01*
Y722177D01*
X2678817Y715512D01*
X2672152Y708847D01*
Y702183D01*
X2678817Y695519D01*
X2692146D01*
X2698810Y702183D01*
Y708847D01*
X2692146Y715512D01*
X2698810Y722177D01*
Y728841D01*
X2692146Y715512D02*
X2678817D01*
X2658823Y728841D02*
X2652159Y735506D01*
X2638830D01*
X2632165Y728841D01*
Y702183D01*
X2638830Y695519D01*
X2652159D01*
X2658823Y702183D01*
Y728841D01*
X2592178Y695519D02*
X2618836D01*
X2592178Y722177D01*
Y728841D01*
X2598843Y735506D01*
X2612172D01*
X2618836Y728841D01*
X2538862Y695519D02*
Y722177D01*
X2525533Y735506D01*
X2512204Y722177D01*
Y695519D01*
Y715512D01*
X2538862D01*
X2472217Y728841D02*
X2478881Y735506D01*
X2492210D01*
X2498875Y728841D01*
Y702183D01*
X2492210Y695519D01*
X2478881D01*
X2472217Y702183D01*
X2458888Y735506D02*
X2432230D01*
X2445559D01*
Y695519D01*
X2418901Y735506D02*
X2405572D01*
X2412236D01*
Y695519D01*
X2418901D01*
X2405572D01*
X2385578Y735506D02*
Y708847D01*
X2372249Y695519D01*
X2358920Y708847D01*
Y735506D01*
X2318933D02*
X2345591D01*
Y695519D01*
X2318933D01*
X2345591Y715512D02*
X2332262D01*
X2265617Y695519D02*
Y735506D01*
X2245623D01*
X2238959Y728841D01*
Y715512D01*
X2245623Y708847D01*
X2265617D01*
X2225630Y695519D02*
Y735506D01*
X2205636D01*
X2198972Y728841D01*
Y715512D01*
X2205636Y708847D01*
X2225630D01*
X2212301D02*
X2198972Y695519D01*
X2165649Y735506D02*
X2178978D01*
X2185643Y728841D01*
Y702183D01*
X2178978Y695519D01*
X2165649D01*
X2158985Y702183D01*
Y728841D01*
X2165649Y735506D01*
X2145655D02*
Y695519D01*
X2125662D01*
X2118997Y702183D01*
Y708847D01*
X2125662Y715512D01*
X2145655D01*
X2125662D01*
X2118997Y722177D01*
Y728841D01*
X2125662Y735506D01*
X2145655D01*
X2079010D02*
X2105668D01*
Y695519D01*
X2079010D01*
X2105668Y715512D02*
X2092339D01*
X2818772Y628334D02*
Y668321D01*
X2798778D01*
X2792114Y661657D01*
Y648327D01*
X2798778Y641663D01*
X2818772D01*
X2778785Y628334D02*
Y668321D01*
X2758791D01*
X2752127Y661657D01*
Y648327D01*
X2758791Y641663D01*
X2778785D01*
X2765456D02*
X2752127Y628334D01*
X2718804Y668321D02*
X2732133D01*
X2738798Y661657D01*
Y634999D01*
X2732133Y628334D01*
X2718804D01*
X2712140Y634999D01*
Y661657D01*
X2718804Y668321D01*
X2698810D02*
X2672152D01*
X2685481D01*
Y628334D01*
X2638830Y668321D02*
X2652159D01*
X2658823Y661657D01*
Y634999D01*
X2652159Y628334D01*
X2638830D01*
X2632165Y634999D01*
Y661657D01*
X2638830Y668321D01*
X2552191Y628334D02*
X2578849D01*
X2552191Y654992D01*
Y661657D01*
X2558856Y668321D01*
X2572185D01*
X2578849Y661657D01*
X2792114Y601137D02*
X2805443D01*
X2798778D01*
Y567814D01*
X2805443Y561149D01*
X2812107D01*
X2818772Y567814D01*
X2778785Y561149D02*
Y587808D01*
X2765456Y601137D01*
X2752127Y587808D01*
Y561149D01*
Y581143D01*
X2778785D01*
X2738798Y561149D02*
Y601137D01*
X2725468Y587808D01*
X2712140Y601137D01*
Y561149D01*
X2672152Y601137D02*
X2698810D01*
Y561149D01*
X2672152D01*
X2698810Y581143D02*
X2685481D01*
X2632165Y594472D02*
X2638830Y601137D01*
X2652159D01*
X2658823Y594472D01*
Y587808D01*
X2652159Y581143D01*
X2638830D01*
X2632165Y574479D01*
Y567814D01*
X2638830Y561149D01*
X2652159D01*
X2658823Y567814D01*
X2578849Y601137D02*
Y561149D01*
X2565520Y574479D01*
X2552191Y561149D01*
Y601137D01*
X2538862D02*
X2525533D01*
X2532198D01*
Y561149D01*
X2538862D01*
X2525533D01*
X2505539Y601137D02*
Y561149D01*
X2478881D01*
X2438894Y594472D02*
X2445559Y601137D01*
X2458888D01*
X2465552Y594472D01*
Y587808D01*
X2458888Y581143D01*
X2445559D01*
X2438894Y574479D01*
Y567814D01*
X2445559Y561149D01*
X2458888D01*
X2465552Y567814D01*
X2405572Y601137D02*
X2418901D01*
X2425565Y594472D01*
Y567814D01*
X2418901Y561149D01*
X2405572D01*
X2398907Y567814D01*
Y594472D01*
X2405572Y601137D01*
X2385578Y561149D02*
Y601137D01*
X2358920Y561149D01*
Y601137D01*
X2278946Y561149D02*
X2305604D01*
X2278946Y587808D01*
Y594472D01*
X2285610Y601137D01*
X2298939D01*
X2305604Y594472D01*
X2265617D02*
X2258952Y601137D01*
X2245623D01*
X2238959Y594472D01*
Y567814D01*
X2245623Y561149D01*
X2258952D01*
X2265617Y567814D01*
Y594472D01*
X2198972Y561149D02*
X2225630D01*
X2198972Y587808D01*
Y594472D01*
X2205636Y601137D01*
X2218965D01*
X2225630Y594472D01*
X2185643D02*
X2178978Y601137D01*
X2165649D01*
X2158985Y594472D01*
Y587808D01*
X2165649Y581143D01*
X2172314D01*
X2165649D01*
X2158985Y574479D01*
Y567814D01*
X2165649Y561149D01*
X2178978D01*
X2185643Y567814D01*
X2314835Y308085D02*
Y268098D01*
X2294841D01*
X2288177Y274762D01*
Y301421D01*
X2294841Y308085D01*
X2314835D01*
X2248189Y301421D02*
X2254854Y308085D01*
X2268183D01*
X2274847Y301421D01*
Y274762D01*
X2268183Y268098D01*
X2254854D01*
X2248189Y274762D01*
X2194873Y268098D02*
Y308085D01*
X2174880D01*
X2168215Y301421D01*
Y288091D01*
X2174880Y281427D01*
X2194873D01*
X2134893Y308085D02*
X2148222D01*
X2154886Y301421D01*
Y274762D01*
X2148222Y268098D01*
X2134893D01*
X2128228Y274762D01*
Y301421D01*
X2134893Y308085D01*
X2114899D02*
Y268098D01*
X2101570Y281427D01*
X2088241Y268098D01*
Y308085D01*
X2048254D02*
X2074912D01*
Y268098D01*
X2048254D01*
X2074912Y288091D02*
X2061583D01*
X2034925Y268098D02*
Y308085D01*
X2014931D01*
X2008267Y301421D01*
Y288091D01*
X2014931Y281427D01*
X2034925D01*
X2021596D02*
X2008267Y268098D01*
X2314835Y200913D02*
Y240900D01*
X2301506Y227571D01*
X2288177Y240900D01*
Y200913D01*
X2274847D02*
Y227571D01*
X2261519Y240900D01*
X2248189Y227571D01*
Y200913D01*
Y220907D01*
X2274847D01*
X2234860Y240900D02*
X2208202Y200913D01*
Y240900D02*
X2234860Y200913D01*
X2194873Y240900D02*
X2181544D01*
X2188209D01*
Y200913D01*
X2194873D01*
X2181544D01*
X2161551D02*
Y240900D01*
X2148222Y227571D01*
X2134893Y240900D01*
Y200913D01*
X2121564Y240900D02*
Y207578D01*
X2114899Y200913D01*
X2101570D01*
X2094906Y207578D01*
Y240900D01*
X2081577Y200913D02*
Y240900D01*
X2068247Y227571D01*
X2054919Y240900D01*
Y200913D01*
X2001602Y234236D02*
X1994938Y240900D01*
X1981609D01*
X1974944Y234236D01*
Y227571D01*
X1981609Y220907D01*
X1988273D01*
X1981609D01*
X1974944Y214242D01*
Y207578D01*
X1981609Y200913D01*
X1994938D01*
X2001602Y207578D01*
X1934957Y200913D02*
X1961615D01*
X1934957Y227571D01*
Y234236D01*
X1941622Y240900D01*
X1954951D01*
X1961615Y234236D01*
X1881641Y240900D02*
Y214242D01*
X1868312Y200913D01*
X1854983Y214242D01*
Y240900D01*
%TF.MD5,189bd688500ab31300ead092b51ebb18*%
M02*
