M48
;Layer_Color=9474304
;FILE_FORMAT=2:5
INCH,LZ
;TYPE=PLATED
T1F00S00C0.01000
%
T01
X0031399Y0036518
X0034225Y0034082
X0037009Y0031298
X0039793Y0028514
X0042577Y002573
X004536Y0022947
X0048144Y0020163
X0045079Y0031496
Y0035433
X0041142Y0035433
X005315Y0031791
X0056102
X0059055
X0062008
X0064961
X0072342Y0035433
X0072244Y0011811
X0068307
X006437
X0060433
X0056496
X0053712Y0014595
X0050928Y0017379
X0076673Y0010925
X0080512Y0007185
X0079921Y0002756
X0075984
X0083858
X0087795
X0091732
X0095669
X0099606
X0103543
X010748
X0111417
X0115354
X0119291
X0123228
X0127165
X0131102
X0135039
X0138976
X0142913
X014685
X0150787
X0154724
X0158661
X0162598
X0166535
X0170472
X0174409
X0178346
X0182283
X018622
X0190157
X0194094
X0198031
X0201968
X0200886Y0009055
Y0011811
X019813
Y0009055
X0190748Y0026181
Y0030118
X0177756Y0022441
X0172638
X0166339Y0020079
X016332
X0160302
X0157283
X0150689Y0030118
X0146161Y0030125
X0144882Y0013189
X0142126
Y0010433
X0144882
X0109153Y0021457
X0112894Y0025295
Y0032382
X0109153Y0036122
X009124Y0010925
X0087598Y0007185
X0205905Y0002756
X0209842
X0213779
X0217716
X0221653
X022559
X0229527
X0233464
X0237401
X0241338
X0245275
X0249212
X0253149
X0257086
X0261023
X026496
X0268897
X0272834
Y0006693
Y001063
Y0014567
Y0018504
Y0022441
Y0026378
Y0030315
Y0034252
Y0038189
Y0042126
X0273091Y0056835
X0268091
X0263091
X0258091
Y0063636
X0263091
X0268091
X0273091
X0248355Y0062862
X0242355
X0236355
X0230355
X0224355
X0218355
X0212355
X0206355
X0208637Y0057611
X0214637
X0220637
X0226637
X0232637
X0238637
X0244637
X0250637
X0248259Y0075984
X0244322
X0240385
X0236449
X0232511
X0228574
X0224637
X0220701
X0216763
X0212826
X0208889
X0204952
X0201015
X0197078
X0193141
X0189204
X0185267
X018133
X0177393
X0173456
X0169519
X0165582
X0161645
X0157708
X0153771
X0149834
X0145897
X014196
X0138023
X0134087
X0130149
X0126213
X0122275
X0118339
X0114401
X0110465
X0106527
X0102591
X0098654
X0094717
X009078
X0086843
X0082906
X0078969
X0075032
X0071095
X0072866Y0070866
Y0066929
Y0062992
X0086355Y0062862
X0092355
X0098355
X0104355
X0110355
X0116355
X0122355
X0128355
X0134355
X0140355
X0146355
X0152355
X0158355
X0164355
X0170355
X0176355
X0182355
X0188355
X0194355
X0200355
X0202637Y0057611
X0196637
X0190637
X0184637
X0178637
X0172637
X0166637
X0160637
X0154637
X0148637
X0142637
X0136637
X0130637
X0124637
X0118637
X0112637
X0106637
X0100637
X0094637
X0088637
X0091929Y004626
X0087992Y0041929
X0072342Y0043307
Y003937
X0059055Y0053149
X005328Y0047374
X005315Y0074803
X0056102
X0059055
X0062008
X0064961
X0061221Y0070276
X0105709Y0069784
X0114173Y0042815
X0142127Y0046949
X0144882
X0144882Y0049705
X0142126
X0157283Y0039764
X0160302
X016332
X0166339
X0172638Y0037795
X0177756
X0192421Y0050295
X0195177
Y0053051
X019252
X0045079Y0043307
X0041142Y0043307
X0037205Y0043307
X0033268Y0043307
X0037205Y003937
X0041142Y003937
X0045079Y003937
Y0062992
Y0066929
Y0070866
Y0074803
M30
