%TF.GenerationSoftware,Altium Limited,Altium Designer,18.1.11 (251)*%
G04 Layer_Color=8421504*
%FSLAX26Y26*%
%MOIN*%
%TF.FileFunction,Paste,Top*%
%TF.Part,Single*%
G01*
G75*
%TA.AperFunction,SMDPad,CuDef*%
%ADD11R,0.087008X0.092520*%
%ADD12R,0.053150X0.061024*%
%ADD13R,0.027559X0.025000*%
%ADD16R,0.035433X0.055118*%
%ADD17R,0.035433X0.043307*%
%ADD20R,0.061024X0.053150*%
%ADD21R,0.035748X0.042480*%
%ADD22R,0.025000X0.027559*%
%ADD23R,0.070866X0.021654*%
%ADD25R,0.023622X0.009842*%
%ADD26R,0.017000X0.055000*%
%ADD28R,0.022047X0.071260*%
%ADD29R,0.043307X0.043307*%
%ADD30R,0.043307X0.043307*%
%ADD31R,0.030000X0.010000*%
%ADD32R,0.010000X0.030000*%
%ADD33R,0.066142X0.066142*%
G04:AMPARAMS|DCode=34|XSize=61.024mil|YSize=23.622mil|CornerRadius=0.945mil|HoleSize=0mil|Usage=FLASHONLY|Rotation=0.000|XOffset=0mil|YOffset=0mil|HoleType=Round|Shape=RoundedRectangle|*
%AMROUNDEDRECTD34*
21,1,0.061024,0.021732,0,0,0.0*
21,1,0.059134,0.023622,0,0,0.0*
1,1,0.001890,0.029567,-0.010866*
1,1,0.001890,-0.029567,-0.010866*
1,1,0.001890,-0.029567,0.010866*
1,1,0.001890,0.029567,0.010866*
%
%ADD34ROUNDEDRECTD34*%
G36*
X1497047Y368110D02*
X1499016Y366142D01*
Y356693D01*
X1497047Y354724D01*
X1491142D01*
X1489173Y356693D01*
Y366142D01*
X1491142Y368110D01*
X1497047Y368110D01*
X1497047Y368110D01*
D02*
G37*
G36*
X1477362D02*
X1479331Y366142D01*
Y356693D01*
X1477362Y354724D01*
X1471457D01*
X1469488Y356693D01*
Y366142D01*
X1471457Y368110D01*
X1477362Y368110D01*
X1477362Y368110D01*
D02*
G37*
G36*
X1513779Y344882D02*
X1513779Y307087D01*
X1511811Y305118D01*
X1456693Y305118D01*
X1454724Y307087D01*
Y344882D01*
X1456693Y346850D01*
X1511811Y346850D01*
X1513779Y344882D01*
D02*
G37*
G36*
Y295276D02*
Y257480D01*
X1511811Y255512D01*
X1456693D01*
X1454724Y257480D01*
X1454724Y295276D01*
X1456693Y297244D01*
X1511811Y297244D01*
X1513779Y295276D01*
D02*
G37*
G36*
X1961543Y250933D02*
X1911417D01*
Y312059D01*
X1961543D01*
Y250933D01*
D02*
G37*
G36*
X1903543D02*
X1853417D01*
Y312059D01*
X1903543D01*
Y250933D01*
D02*
G37*
G36*
X1497047Y247638D02*
X1499015Y245669D01*
Y236221D01*
X1497047Y234252D01*
X1491142Y234252D01*
X1489173Y236221D01*
Y245669D01*
X1491141Y247638D01*
X1497047Y247638D01*
D02*
G37*
G36*
X1477362D02*
X1479331Y245669D01*
Y236221D01*
X1477362Y234252D01*
X1471457Y234252D01*
X1469488Y236220D01*
X1469488Y245669D01*
X1471457Y247638D01*
X1477362Y247638D01*
D02*
G37*
D11*
X1625394Y135827D02*
D03*
X1748622D02*
D03*
Y466535D02*
D03*
X1625394D02*
D03*
D12*
X1435039Y179134D02*
D03*
X1513780D02*
D03*
Y423228D02*
D03*
X1435039D02*
D03*
X1860236Y456693D02*
D03*
X1938976D02*
D03*
X1860236Y106299D02*
D03*
X1938976D02*
D03*
D13*
X267716Y550493D02*
D03*
Y512500D02*
D03*
X354331Y550493D02*
D03*
Y512500D02*
D03*
X311024D02*
D03*
Y550493D02*
D03*
X1582677Y234941D02*
D03*
X1582677Y272933D02*
D03*
X1625984D02*
D03*
Y234941D02*
D03*
X1582677Y367421D02*
D03*
X1582677Y329429D02*
D03*
X1625984Y367421D02*
D03*
Y329429D02*
D03*
X1669291Y329429D02*
D03*
X1669291Y367421D02*
D03*
Y250689D02*
D03*
X1669291Y288681D02*
D03*
X224409Y512500D02*
D03*
Y550492D02*
D03*
X484252Y550493D02*
D03*
Y512500D02*
D03*
X440945D02*
D03*
Y550493D02*
D03*
X397638Y512500D02*
D03*
Y550493D02*
D03*
X568898Y638484D02*
D03*
Y676476D02*
D03*
X612205Y638484D02*
D03*
Y676476D02*
D03*
X600394Y426181D02*
D03*
Y388189D02*
D03*
D16*
X976378Y472441D02*
D03*
D17*
X1106299Y427165D02*
D03*
Y517717D02*
D03*
D20*
X2050197Y320866D02*
D03*
Y242126D02*
D03*
D21*
X893307Y697835D02*
D03*
X831102Y697835D02*
D03*
X1023228D02*
D03*
X961024Y697835D02*
D03*
D22*
X774311Y505906D02*
D03*
X812303D02*
D03*
X488878Y624016D02*
D03*
X526870D02*
D03*
X656201Y438976D02*
D03*
X694193D02*
D03*
X694193Y624016D02*
D03*
X656201D02*
D03*
X526870Y438976D02*
D03*
X488878D02*
D03*
X1348819Y301181D02*
D03*
X1386811Y301181D02*
D03*
X351673Y635827D02*
D03*
X313681D02*
D03*
Y592520D02*
D03*
X351673D02*
D03*
X695571Y188976D02*
D03*
X733563D02*
D03*
X891043Y462599D02*
D03*
X853051D02*
D03*
X812303D02*
D03*
X774311D02*
D03*
X733563Y505906D02*
D03*
X695571D02*
D03*
Y549213D02*
D03*
X733563D02*
D03*
X695571Y232284D02*
D03*
X733563D02*
D03*
X851673Y419291D02*
D03*
X813681D02*
D03*
D23*
X2041339Y464567D02*
D03*
X2135827Y501969D02*
D03*
X2135827Y427165D02*
D03*
D25*
X1539370Y340551D02*
D03*
Y320866D02*
D03*
Y301181D02*
D03*
X1539370Y281496D02*
D03*
X1539370Y261811D02*
D03*
X1429134D02*
D03*
Y281496D02*
D03*
X1429134Y301181D02*
D03*
X1429134Y320866D02*
D03*
Y340551D02*
D03*
D26*
X1843480Y195496D02*
D03*
X1869080D02*
D03*
X1894680D02*
D03*
X1920280D02*
D03*
X1945880D02*
D03*
X1971480D02*
D03*
Y367496D02*
D03*
X1945880D02*
D03*
X1920280D02*
D03*
X1894680D02*
D03*
X1869080D02*
D03*
X1843480D02*
D03*
D28*
X656299Y688976D02*
D03*
X690158D02*
D03*
X526772Y688977D02*
D03*
X492913D02*
D03*
Y374016D02*
D03*
X526772D02*
D03*
X690158D02*
D03*
X656299D02*
D03*
D29*
X1091535Y252953D02*
D03*
Y323819D02*
D03*
D30*
X805118Y109252D02*
D03*
X875984D02*
D03*
D31*
X532551Y561024D02*
D03*
Y541334D02*
D03*
Y521644D02*
D03*
Y501954D02*
D03*
X648551D02*
D03*
Y521644D02*
D03*
Y541334D02*
D03*
Y561024D02*
D03*
D32*
X561016Y473489D02*
D03*
X580706D02*
D03*
X600396D02*
D03*
X620086D02*
D03*
Y589489D02*
D03*
X600396D02*
D03*
X580706D02*
D03*
X561016D02*
D03*
D33*
X590551Y531489D02*
D03*
D34*
X796260Y333858D02*
D03*
Y283858D02*
D03*
Y233858D02*
D03*
Y183858D02*
D03*
X1008858D02*
D03*
Y233858D02*
D03*
Y283858D02*
D03*
Y333858D02*
D03*
%TF.MD5,42bc6fd69891d4068eb5e693c4d3036e*%
M02*
