%TF.GenerationSoftware,Altium Limited,Altium Designer,18.1.11 (251)*%
G04 Layer_Physical_Order=2*
G04 Layer_Color=16440176*
%FSLAX26Y26*%
%MOIN*%
%TF.FileFunction,Copper,L2,Inr,Signal*%
%TF.Part,Single*%
G01*
G75*
%TA.AperFunction,ComponentPad*%
%ADD42O,0.177165X0.088583*%
%ADD43O,0.088583X0.177165*%
%ADD44O,0.098425X0.196850*%
%TA.AperFunction,ViaPad*%
%ADD46C,0.010000*%
G36*
X2740612Y649606D02*
X2755905D01*
Y555118D01*
X2740612D01*
Y15293D01*
X549742D01*
Y106299D01*
X548578Y112152D01*
X545263Y117114D01*
X289370Y373006D01*
X289370Y460630D01*
X525417Y460630D01*
X526942Y459611D01*
X532795Y458446D01*
X538648Y459611D01*
X540173Y460630D01*
X557480D01*
X557480Y575787D01*
X513779D01*
Y610236D01*
X438976D01*
Y683071D01*
X253482D01*
Y772108D01*
X524392D01*
X525643Y762161D01*
X520682Y758846D01*
X517366Y753884D01*
X516202Y748032D01*
X517366Y742179D01*
X520682Y737217D01*
X525643Y733902D01*
X531496Y732738D01*
X537349Y733902D01*
X542311Y737217D01*
X550209D01*
X555171Y733902D01*
X561024Y732738D01*
X566876Y733902D01*
X571838Y737217D01*
X579737D01*
X584699Y733902D01*
X590551Y732738D01*
X596404Y733902D01*
X601366Y737217D01*
X609265D01*
X614226Y733902D01*
X620079Y732738D01*
X625932Y733902D01*
X630893Y737217D01*
X638792D01*
X643754Y733902D01*
X649606Y732738D01*
X655459Y733902D01*
X660421Y737217D01*
X663736Y742179D01*
X664900Y748032D01*
X663736Y753884D01*
X660421Y758846D01*
X655459Y762161D01*
X656711Y772108D01*
X2740612Y772108D01*
Y649606D01*
D02*
G37*
%LPC*%
G36*
X612205Y718050D02*
X606352Y716886D01*
X601390Y713570D01*
X598075Y708609D01*
X596911Y702756D01*
X598075Y696903D01*
X601390Y691942D01*
X606352Y688626D01*
X612205Y687462D01*
X618057Y688626D01*
X623019Y691942D01*
X626334Y696903D01*
X627499Y702756D01*
X626334Y708609D01*
X623019Y713570D01*
X618057Y716886D01*
X612205Y718050D01*
D02*
G37*
G36*
X1057087Y713129D02*
X1051234Y711965D01*
X1046272Y708649D01*
X1042957Y703688D01*
X1041793Y697835D01*
X1042957Y691982D01*
X1046272Y687020D01*
X1051234Y683705D01*
X1057087Y682541D01*
X1062939Y683705D01*
X1067901Y687020D01*
X1071216Y691982D01*
X1072380Y697835D01*
X1071216Y703688D01*
X1067901Y708649D01*
X1062939Y711965D01*
X1057087Y713129D01*
D02*
G37*
G36*
X1951772Y545806D02*
X1945919Y544641D01*
X1940957Y541326D01*
X1936011D01*
X1931050Y544641D01*
X1925197Y545806D01*
X1919344Y544641D01*
X1914382Y541326D01*
X1911067Y536365D01*
X1909903Y530512D01*
X1911067Y524659D01*
X1911262Y524367D01*
X1913398Y513767D01*
X1910083Y508805D01*
X1908919Y502953D01*
X1910083Y497100D01*
X1913398Y492138D01*
X1918360Y488823D01*
X1924213Y487659D01*
X1930065Y488823D01*
X1930812Y489322D01*
X1937992Y491315D01*
X1945172Y489322D01*
X1945919Y488823D01*
X1951772Y487659D01*
X1957624Y488823D01*
X1962586Y492138D01*
X1965901Y497100D01*
X1967066Y502953D01*
X1965901Y508805D01*
X1965402Y509552D01*
X1963409Y516732D01*
X1965402Y523912D01*
X1965901Y524659D01*
X1967066Y530512D01*
X1965901Y536365D01*
X1962586Y541326D01*
X1957624Y544641D01*
X1951772Y545806D01*
D02*
G37*
G36*
X1448819Y512341D02*
X1442966Y511177D01*
X1442219Y510678D01*
X1435039Y508685D01*
X1427859Y510678D01*
X1427113Y511177D01*
X1421260Y512341D01*
X1415407Y511177D01*
X1410446Y507862D01*
X1407130Y502900D01*
X1405966Y497047D01*
X1407130Y491195D01*
X1407631Y490445D01*
X1410450Y480303D01*
X1407135Y475341D01*
X1405971Y469488D01*
X1407135Y463635D01*
X1410450Y458674D01*
X1415412Y455358D01*
X1421265Y454194D01*
X1427118Y455358D01*
X1427861Y455855D01*
X1435042Y457851D01*
X1442223Y455855D01*
X1442966Y455358D01*
X1448819Y454194D01*
X1454672Y455358D01*
X1459633Y458674D01*
X1462949Y463635D01*
X1464113Y469488D01*
X1462949Y475341D01*
X1462450Y476088D01*
X1460457Y483268D01*
X1462450Y490448D01*
X1462949Y491195D01*
X1464113Y497047D01*
X1462949Y502900D01*
X1459633Y507862D01*
X1454672Y511177D01*
X1448819Y512341D01*
D02*
G37*
G36*
X1663386Y412932D02*
X1657533Y411767D01*
X1652571Y408452D01*
X1644016D01*
X1639055Y411767D01*
X1633202Y412932D01*
X1627349Y411767D01*
X1622388Y408452D01*
X1613833D01*
X1608871Y411767D01*
X1603018Y412932D01*
X1597166Y411767D01*
X1592204Y408452D01*
X1583649D01*
X1578687Y411767D01*
X1572835Y412932D01*
X1566982Y411767D01*
X1562020Y408452D01*
X1558705Y403490D01*
X1557541Y397638D01*
X1558705Y391785D01*
X1562020Y386823D01*
X1566982Y383508D01*
X1572835Y382344D01*
X1578687Y383508D01*
X1583649Y386823D01*
X1592204D01*
X1597166Y383508D01*
X1603018Y382344D01*
X1608871Y383508D01*
X1613833Y386823D01*
X1622388D01*
X1627349Y383508D01*
X1633202Y382344D01*
X1639055Y383508D01*
X1644016Y386823D01*
X1652571D01*
X1657533Y383508D01*
X1663386Y382344D01*
X1669238Y383508D01*
X1674200Y386823D01*
X1677515Y391785D01*
X1678680Y397638D01*
X1677515Y403490D01*
X1674200Y408452D01*
X1669238Y411767D01*
X1663386Y412932D01*
D02*
G37*
G36*
X879921Y434585D02*
X874069Y433421D01*
X869107Y430106D01*
X865792Y425144D01*
X864627Y419291D01*
X865792Y413439D01*
X869107Y408477D01*
X874069Y405162D01*
X879921Y403998D01*
X885774Y405162D01*
X890736Y408477D01*
X894051Y413439D01*
X895215Y419291D01*
X894051Y425144D01*
X890736Y430106D01*
X885774Y433421D01*
X879921Y434585D01*
D02*
G37*
G36*
X2359252Y434632D02*
X2319960D01*
Y386890D01*
X2411336D01*
X2410197Y395541D01*
X2404928Y408261D01*
X2396547Y419185D01*
X2385623Y427566D01*
X2372903Y432835D01*
X2359252Y434632D01*
D02*
G37*
G36*
X2309960D02*
X2270669D01*
X2257018Y432835D01*
X2244298Y427566D01*
X2233375Y419185D01*
X2224993Y408261D01*
X2219724Y395541D01*
X2218585Y386890D01*
X2309960D01*
Y434632D01*
D02*
G37*
G36*
X1091535Y376514D02*
X1085683Y375350D01*
X1080721Y372035D01*
X1077406Y367073D01*
X1076242Y361221D01*
X1077406Y355368D01*
X1080721Y350406D01*
X1085683Y347091D01*
X1091535Y345927D01*
X1097388Y347091D01*
X1102350Y350406D01*
X1105665Y355368D01*
X1106829Y361221D01*
X1105665Y367073D01*
X1102350Y372035D01*
X1097388Y375350D01*
X1091535Y376514D01*
D02*
G37*
G36*
X2411336Y376890D02*
X2319960D01*
Y329147D01*
X2359252D01*
X2372903Y330945D01*
X2385623Y336214D01*
X2396547Y344595D01*
X2404928Y355519D01*
X2410197Y368239D01*
X2411336Y376890D01*
D02*
G37*
G36*
X2309960D02*
X2218585D01*
X2219724Y368239D01*
X2224993Y355519D01*
X2233375Y344595D01*
X2244298Y336214D01*
X2257018Y330945D01*
X2270669Y329147D01*
X2309960D01*
Y376890D01*
D02*
G37*
G36*
X649606Y333207D02*
X643754Y332043D01*
X638792Y328728D01*
X630893D01*
X625932Y332043D01*
X620079Y333207D01*
X614226Y332043D01*
X609264Y328728D01*
X601366D01*
X596404Y332043D01*
X590551Y333207D01*
X584699Y332043D01*
X579737Y328728D01*
X571838D01*
X566876Y332043D01*
X561024Y333207D01*
X555171Y332043D01*
X550209Y328728D01*
X542310D01*
X537349Y332043D01*
X531496Y333207D01*
X525643Y332043D01*
X520682Y328728D01*
X517366Y323766D01*
X516202Y317913D01*
X517366Y312061D01*
X520682Y307099D01*
X525643Y303784D01*
X531496Y302620D01*
X537349Y303784D01*
X542311Y307099D01*
X550209D01*
X555171Y303784D01*
X561024Y302620D01*
X566876Y303784D01*
X571838Y307099D01*
X579737D01*
X584699Y303784D01*
X590551Y302620D01*
X596404Y303784D01*
X601366Y307099D01*
X609265D01*
X614226Y303784D01*
X620079Y302620D01*
X625932Y303784D01*
X630893Y307099D01*
X638792D01*
X643754Y303784D01*
X649606Y302620D01*
X655459Y303784D01*
X660421Y307099D01*
X663736Y312061D01*
X664900Y317913D01*
X663736Y323766D01*
X660421Y328728D01*
X655459Y332043D01*
X649606Y333207D01*
D02*
G37*
G36*
X1128937Y339113D02*
X1123084Y337949D01*
X1118123Y334633D01*
X1114807Y329672D01*
X1113643Y323819D01*
X1114807Y317966D01*
X1118123Y313005D01*
X1123084Y309689D01*
X1128937Y308525D01*
X1134790Y309689D01*
X1139751Y313005D01*
X1143067Y317966D01*
X1144231Y323819D01*
X1143067Y329672D01*
X1139751Y334633D01*
X1134790Y337949D01*
X1128937Y339113D01*
D02*
G37*
G36*
X1663386Y216081D02*
X1657533Y214917D01*
X1652571Y211602D01*
X1644016D01*
X1639055Y214917D01*
X1633202Y216081D01*
X1627349Y214917D01*
X1622388Y211602D01*
X1613833D01*
X1608871Y214917D01*
X1603018Y216081D01*
X1597166Y214917D01*
X1592204Y211602D01*
X1583649D01*
X1578687Y214917D01*
X1572835Y216081D01*
X1566982Y214917D01*
X1562020Y211602D01*
X1558705Y206640D01*
X1557541Y200787D01*
X1558705Y194935D01*
X1562020Y189973D01*
X1566982Y186658D01*
X1572835Y185494D01*
X1578687Y186658D01*
X1583649Y189973D01*
X1592204D01*
X1597166Y186658D01*
X1603018Y185494D01*
X1608871Y186658D01*
X1613833Y189973D01*
X1622388D01*
X1627349Y186658D01*
X1633202Y185494D01*
X1639055Y186658D01*
X1644016Y189973D01*
X1652571D01*
X1657533Y186658D01*
X1663386Y185494D01*
X1669238Y186658D01*
X1674200Y189973D01*
X1677515Y194935D01*
X1678680Y200787D01*
X1677515Y206640D01*
X1674200Y211602D01*
X1669238Y214917D01*
X1663386Y216081D01*
D02*
G37*
G36*
X2438071Y293226D02*
Y201851D01*
X2485813D01*
Y241142D01*
X2484016Y254793D01*
X2478747Y267513D01*
X2470365Y278437D01*
X2459442Y286818D01*
X2446722Y292087D01*
X2438071Y293226D01*
D02*
G37*
G36*
X2428071D02*
X2419420Y292087D01*
X2406700Y286818D01*
X2395776Y278437D01*
X2387395Y267513D01*
X2382126Y254793D01*
X2380328Y241142D01*
Y201851D01*
X2428071D01*
Y293226D01*
D02*
G37*
G36*
X1448819Y147184D02*
X1442966Y146019D01*
X1442223Y145523D01*
X1435042Y143528D01*
X1427861Y145523D01*
X1427117Y146019D01*
X1421264Y147184D01*
X1415412Y146019D01*
X1410450Y142704D01*
X1407135Y137743D01*
X1405971Y131890D01*
X1407135Y126037D01*
X1407634Y125290D01*
X1409627Y118110D01*
X1407634Y110930D01*
X1407135Y110183D01*
X1405971Y104331D01*
X1407135Y98478D01*
X1410450Y93516D01*
X1415412Y90201D01*
X1421264Y89037D01*
X1427117Y90201D01*
X1427861Y90698D01*
X1435042Y92693D01*
X1442223Y90698D01*
X1442966Y90201D01*
X1448819Y89037D01*
X1454672Y90201D01*
X1459633Y93516D01*
X1462949Y98478D01*
X1464113Y104331D01*
X1462949Y110183D01*
X1462450Y110930D01*
X1460457Y118110D01*
X1462450Y125290D01*
X1462949Y126037D01*
X1464113Y131890D01*
X1462949Y137743D01*
X1459633Y142704D01*
X1454672Y146019D01*
X1448819Y147184D01*
D02*
G37*
G36*
X2008858Y133399D02*
X2003006Y132235D01*
X1998044Y128920D01*
X1992113D01*
X1987152Y132235D01*
X1981299Y133399D01*
X1975447Y132235D01*
X1970485Y128920D01*
X1967169Y123958D01*
X1966005Y118106D01*
X1967169Y112253D01*
X1967668Y111506D01*
X1969662Y104326D01*
X1967668Y97146D01*
X1967169Y96399D01*
X1966005Y90546D01*
X1967169Y84694D01*
X1970485Y79732D01*
X1975447Y76417D01*
X1981299Y75252D01*
X1987152Y76417D01*
X1987901Y76917D01*
X1998044Y79737D01*
X2003006Y76421D01*
X2008858Y75257D01*
X2014711Y76421D01*
X2019673Y79737D01*
X2022988Y84698D01*
X2024152Y90551D01*
X2022988Y96404D01*
X2022491Y97147D01*
X2020496Y104328D01*
X2022491Y111509D01*
X2022988Y112253D01*
X2024152Y118106D01*
X2022988Y123958D01*
X2019673Y128920D01*
X2014711Y132235D01*
X2008858Y133399D01*
D02*
G37*
G36*
X2485813Y191851D02*
X2438071D01*
Y100475D01*
X2446722Y101614D01*
X2459442Y106883D01*
X2470365Y115264D01*
X2478747Y126188D01*
X2484016Y138908D01*
X2485813Y152559D01*
Y191851D01*
D02*
G37*
G36*
X2428071D02*
X2380328D01*
Y152559D01*
X2382126Y138908D01*
X2387395Y126188D01*
X2395776Y115264D01*
X2406700Y106883D01*
X2419420Y101614D01*
X2428071Y100475D01*
Y191851D01*
D02*
G37*
G36*
X766732Y124546D02*
X760880Y123382D01*
X755918Y120067D01*
X752602Y115105D01*
X751438Y109252D01*
X752602Y103399D01*
X755918Y98438D01*
X760880Y95122D01*
X766732Y93958D01*
X772585Y95122D01*
X777547Y98438D01*
X780862Y103399D01*
X782026Y109252D01*
X780862Y115105D01*
X777547Y120067D01*
X772585Y123382D01*
X766732Y124546D01*
D02*
G37*
G36*
X2196850Y303769D02*
X2181915Y301803D01*
X2167997Y296038D01*
X2156046Y286868D01*
X2146875Y274916D01*
X2141110Y260999D01*
X2139144Y246063D01*
Y147638D01*
X2141110Y132702D01*
X2146875Y118785D01*
X2156046Y106833D01*
X2167997Y97663D01*
X2181915Y91898D01*
X2196850Y89932D01*
X2211786Y91898D01*
X2225704Y97663D01*
X2237655Y106833D01*
X2246825Y118785D01*
X2252590Y132702D01*
X2254557Y147638D01*
Y246063D01*
X2252590Y260999D01*
X2246825Y274916D01*
X2237655Y286868D01*
X2225704Y296038D01*
X2211786Y301803D01*
X2196850Y303769D01*
D02*
G37*
G36*
X805118Y87144D02*
X799265Y85980D01*
X794304Y82665D01*
X790988Y77703D01*
X789824Y71850D01*
X790988Y65998D01*
X794304Y61036D01*
X799265Y57721D01*
X805118Y56557D01*
X810971Y57721D01*
X815933Y61036D01*
X819248Y65998D01*
X820412Y71850D01*
X819248Y77703D01*
X815933Y82665D01*
X810971Y85980D01*
X805118Y87144D01*
D02*
G37*
%LPD*%
D42*
X2314961Y381890D02*
D03*
D43*
X2433071Y196851D02*
D03*
D44*
X2196850D02*
D03*
D46*
X759843Y27559D02*
D03*
X2630906Y568346D02*
D03*
X1777559Y224409D02*
D03*
X1726378D02*
D03*
X1777559Y377953D02*
D03*
X1726378D02*
D03*
X1448819Y469488D02*
D03*
X1448819Y497047D02*
D03*
X1421265Y469488D02*
D03*
X1421260Y497047D02*
D03*
X1421264Y104331D02*
D03*
X1448819D02*
D03*
X1421264Y131890D02*
D03*
X1448819D02*
D03*
X2008858Y90551D02*
D03*
X1951772Y530512D02*
D03*
X1925197D02*
D03*
X1951772Y502953D02*
D03*
X1924213D02*
D03*
X1663386Y200787D02*
D03*
X1633202D02*
D03*
X1603018D02*
D03*
X1572835D02*
D03*
X1663386Y397638D02*
D03*
X1633202D02*
D03*
X1603018D02*
D03*
X1572835D02*
D03*
X2008858Y118106D02*
D03*
X1981299Y90546D02*
D03*
Y118106D02*
D03*
X728661Y669291D02*
D03*
X450787Y314961D02*
D03*
X531496Y748032D02*
D03*
X411418Y354331D02*
D03*
X372048Y393701D02*
D03*
X332678Y433071D02*
D03*
X372048Y433071D02*
D03*
X411418Y433071D02*
D03*
X313991Y365176D02*
D03*
X411418Y393701D02*
D03*
X450788Y433071D02*
D03*
X2728342Y421259D02*
D03*
Y303149D02*
D03*
Y342519D02*
D03*
Y381889D02*
D03*
Y263779D02*
D03*
Y106299D02*
D03*
Y145669D02*
D03*
Y185039D02*
D03*
Y224409D02*
D03*
Y66929D02*
D03*
X2610232Y27559D02*
D03*
X2649602D02*
D03*
X2688972D02*
D03*
X2728342D02*
D03*
X2570862D02*
D03*
X799213D02*
D03*
X838583D02*
D03*
X877953D02*
D03*
X917323D02*
D03*
X956693D02*
D03*
X996063D02*
D03*
X1192913D02*
D03*
X1153543D02*
D03*
X1114173D02*
D03*
X1074803D02*
D03*
X1035433D02*
D03*
X1389762D02*
D03*
X1429132D02*
D03*
X1350393D02*
D03*
X1311023D02*
D03*
X1271653D02*
D03*
X1232283D02*
D03*
X1704722D02*
D03*
X1744092D02*
D03*
X1783462D02*
D03*
X1822832D02*
D03*
X1862202D02*
D03*
X1665352D02*
D03*
X1625982D02*
D03*
X1586612D02*
D03*
X1547242D02*
D03*
X1507872D02*
D03*
X1468502D02*
D03*
X2137792D02*
D03*
X2177162D02*
D03*
X2216532D02*
D03*
X2255902D02*
D03*
X2295272D02*
D03*
X2098422D02*
D03*
X2059052D02*
D03*
X2019682D02*
D03*
X1980312D02*
D03*
X1940942D02*
D03*
X1901572D02*
D03*
X2334642D02*
D03*
X2374012D02*
D03*
X2531492D02*
D03*
X2492122D02*
D03*
X2452752D02*
D03*
X2413382D02*
D03*
X2364485Y759842D02*
D03*
X2403854D02*
D03*
X2443224D02*
D03*
X2482595D02*
D03*
X2325115D02*
D03*
X2285744D02*
D03*
X1852675D02*
D03*
X1892044D02*
D03*
X1931415D02*
D03*
X1970784D02*
D03*
X2010155D02*
D03*
X2049524D02*
D03*
X2246374D02*
D03*
X2207005D02*
D03*
X2167635D02*
D03*
X2128265D02*
D03*
X2088894D02*
D03*
X1419604D02*
D03*
X1458975D02*
D03*
X1498344D02*
D03*
X1537715D02*
D03*
X1577084D02*
D03*
X1616455D02*
D03*
X1813304D02*
D03*
X1773935D02*
D03*
X1734564D02*
D03*
X1695195D02*
D03*
X1655824D02*
D03*
X1183385D02*
D03*
X1222755D02*
D03*
X1262125D02*
D03*
X1301495D02*
D03*
X1340865D02*
D03*
X1380235D02*
D03*
X986535D02*
D03*
X1025905D02*
D03*
X1065275D02*
D03*
X1104645D02*
D03*
X1144015D02*
D03*
X947165D02*
D03*
X907795D02*
D03*
X868425D02*
D03*
X829055D02*
D03*
X789685D02*
D03*
X450787Y629921D02*
D03*
X722441Y118110D02*
D03*
X649606Y317913D02*
D03*
X531496D02*
D03*
X561024D02*
D03*
X590551D02*
D03*
X620079D02*
D03*
X649606Y748032D02*
D03*
X561024D02*
D03*
X590551D02*
D03*
X620079D02*
D03*
X2730905Y568346D02*
D03*
X2680905D02*
D03*
X2580906D02*
D03*
Y636362D02*
D03*
X2630906D02*
D03*
X2680905D02*
D03*
X2730905D02*
D03*
X886370Y576108D02*
D03*
X946370D02*
D03*
X1006370D02*
D03*
X1066370D02*
D03*
X1126370D02*
D03*
X1186370D02*
D03*
X1246370D02*
D03*
X1306370D02*
D03*
X1366370D02*
D03*
X1426370D02*
D03*
X1486370D02*
D03*
X1546370D02*
D03*
X1606370D02*
D03*
X1666370D02*
D03*
X1726370D02*
D03*
X1786370D02*
D03*
X1846370D02*
D03*
X1906370D02*
D03*
X1966370D02*
D03*
X2026370D02*
D03*
X2086370D02*
D03*
X2146370D02*
D03*
X2206370D02*
D03*
X2266370D02*
D03*
X2326370D02*
D03*
X2386370D02*
D03*
X2446370D02*
D03*
X2506370D02*
D03*
X2483554Y628617D02*
D03*
X2423554D02*
D03*
X2363554D02*
D03*
X2303554D02*
D03*
X2243554D02*
D03*
X2183554D02*
D03*
X2123554D02*
D03*
X2063554D02*
D03*
X2003554D02*
D03*
X1943554D02*
D03*
X1883554D02*
D03*
X1823554D02*
D03*
X1763554D02*
D03*
X1703554D02*
D03*
X1643554D02*
D03*
X1583554D02*
D03*
X1523554D02*
D03*
X1463554D02*
D03*
X1403554D02*
D03*
X1343554D02*
D03*
X1283554D02*
D03*
X1223554D02*
D03*
X1163554D02*
D03*
X1103554D02*
D03*
X1043554D02*
D03*
X983554D02*
D03*
X923554D02*
D03*
X863554D02*
D03*
X1057087Y697835D02*
D03*
X1907480Y301181D02*
D03*
X1461614Y301255D02*
D03*
X1506889Y301181D02*
D03*
X1907480Y261811D02*
D03*
X723425Y393701D02*
D03*
Y354331D02*
D03*
X879921Y419291D02*
D03*
X1141732Y428150D02*
D03*
X710945Y759842D02*
D03*
X750315D02*
D03*
X1091535Y361221D02*
D03*
X1128937Y323819D02*
D03*
X766732Y109252D02*
D03*
X805118Y71850D02*
D03*
X875984D02*
D03*
X912402Y109252D02*
D03*
X342250Y340821D02*
D03*
X370089Y312982D02*
D03*
X397927Y285144D02*
D03*
X425766Y257305D02*
D03*
X453605Y229466D02*
D03*
X481444Y201627D02*
D03*
X509283Y173788D02*
D03*
X537122Y145949D02*
D03*
X1091535Y214567D02*
D03*
X1128937Y252953D02*
D03*
X919291Y462599D02*
D03*
X590551Y531489D02*
D03*
X450787Y354331D02*
D03*
X612205Y702756D02*
D03*
X532795Y473740D02*
D03*
X683071Y118110D02*
D03*
X643701D02*
D03*
X604331D02*
D03*
X450787Y393701D02*
D03*
X564961Y118110D02*
D03*
X450787Y669291D02*
D03*
Y748032D02*
D03*
X723425Y433071D02*
D03*
X450787Y708661D02*
D03*
X728661Y629921D02*
D03*
Y708661D02*
D03*
%TF.MD5,4d03d34f96b1d240d0085b9a5f58b9e5*%
M02*
