%TF.GenerationSoftware,Altium Limited,Altium Designer,18.1.11 (251)*%
G04 Layer_Physical_Order=1*
G04 Layer_Color=255*
%FSLAX26Y26*%
%MOIN*%
%TF.FileFunction,Copper,L1,Top,Signal*%
%TF.Part,Single*%
G01*
G75*
%TA.AperFunction,Conductor*%
%ADD10C,0.013500*%
%TA.AperFunction,SMDPad,CuDef*%
%ADD11R,0.087008X0.092520*%
%ADD12R,0.053150X0.061024*%
%ADD13R,0.027559X0.025000*%
%TA.AperFunction,ConnectorPad*%
%ADD14R,0.200000X0.090000*%
%TA.AperFunction,SMDPad,CuDef*%
%ADD15R,0.200000X0.090000*%
%ADD16R,0.035433X0.055118*%
%ADD17R,0.035433X0.043307*%
%TA.AperFunction,ConnectorPad*%
%ADD18R,0.218000X0.142000*%
%ADD19R,0.040000X0.016000*%
%TA.AperFunction,SMDPad,CuDef*%
%ADD20R,0.061024X0.053150*%
%ADD21R,0.035748X0.042480*%
%ADD22R,0.025000X0.027559*%
%ADD23R,0.070866X0.021654*%
%TA.AperFunction,SMDPad,SMDef*%
%ADD24R,0.064961X0.094488*%
%TA.AperFunction,SMDPad,CuDef*%
%ADD25R,0.023622X0.009842*%
%ADD26R,0.017000X0.055000*%
%ADD27R,0.116000X0.069000*%
%ADD28R,0.022047X0.071260*%
%ADD29R,0.043307X0.043307*%
%ADD30R,0.043307X0.043307*%
%ADD31R,0.030000X0.010000*%
%ADD32R,0.010000X0.030000*%
%ADD33R,0.066142X0.066142*%
G04:AMPARAMS|DCode=34|XSize=61.024mil|YSize=23.622mil|CornerRadius=0.945mil|HoleSize=0mil|Usage=FLASHONLY|Rotation=0.000|XOffset=0mil|YOffset=0mil|HoleType=Round|Shape=RoundedRectangle|*
%AMROUNDEDRECTD34*
21,1,0.061024,0.021732,0,0,0.0*
21,1,0.059134,0.023622,0,0,0.0*
1,1,0.001890,0.029567,-0.010866*
1,1,0.001890,-0.029567,-0.010866*
1,1,0.001890,-0.029567,0.010866*
1,1,0.001890,0.029567,0.010866*
%
%ADD34ROUNDEDRECTD34*%
%TA.AperFunction,Conductor*%
%ADD35C,0.010000*%
%ADD36C,0.007874*%
%ADD37C,0.015748*%
%ADD38C,0.019685*%
%ADD39C,0.008000*%
%TA.AperFunction,NonConductor*%
%ADD40C,0.007874*%
%TA.AperFunction,Conductor*%
%ADD41R,0.047244X0.029182*%
%TA.AperFunction,ComponentPad*%
%ADD42O,0.177165X0.088583*%
%ADD43O,0.088583X0.177165*%
%ADD44O,0.098425X0.196850*%
%TA.AperFunction,ViaPad*%
%ADD45C,0.018000*%
G36*
X616218Y696329D02*
X618505D01*
X618068Y695853D01*
X617677Y695326D01*
X617332Y694749D01*
X617033Y694121D01*
X616780Y693443D01*
X616573Y692714D01*
X616569Y692698D01*
X616845Y691660D01*
X617205Y690766D01*
X617645Y690036D01*
X618165Y689467D01*
X618765Y689061D01*
X619445Y688818D01*
X620205Y688736D01*
X604205D01*
X604965Y688818D01*
X605645Y689061D01*
X606245Y689467D01*
X606765Y690036D01*
X607205Y690766D01*
X607565Y691660D01*
X607840Y692698D01*
X607837Y692714D01*
X607630Y693443D01*
X607377Y694121D01*
X607078Y694749D01*
X606733Y695326D01*
X606342Y695853D01*
X605905Y696329D01*
X608191D01*
X608205Y696856D01*
X616205D01*
X616218Y696329D01*
D02*
G37*
G36*
X320807Y682442D02*
X320138Y682206D01*
X319547Y681812D01*
X319035Y681261D01*
X318602Y680553D01*
X318248Y679687D01*
X317972Y678663D01*
X317776Y677482D01*
X317657Y676143D01*
X317618Y674647D01*
X309744D01*
X309705Y676143D01*
X309587Y677482D01*
X309390Y678663D01*
X309114Y679687D01*
X308760Y680553D01*
X308327Y681261D01*
X307815Y681812D01*
X307224Y682206D01*
X306555Y682442D01*
X305807Y682521D01*
X321555D01*
X320807Y682442D01*
D02*
G37*
G36*
X317657Y655865D02*
X317776Y654526D01*
X317972Y653345D01*
X318248Y652321D01*
X318602Y651455D01*
X319035Y650746D01*
X319547Y650195D01*
X320138Y649802D01*
X320807Y649565D01*
X321555Y649487D01*
X305807D01*
X306555Y649565D01*
X307224Y649802D01*
X307815Y650195D01*
X308327Y650746D01*
X308760Y651455D01*
X309114Y652321D01*
X309390Y653345D01*
X309587Y654526D01*
X309705Y655865D01*
X309744Y657361D01*
X317618D01*
X317657Y655865D01*
D02*
G37*
G36*
X2529905Y762108D02*
Y695112D01*
X2646906D01*
Y685112D01*
X2529905D01*
Y619440D01*
X861878D01*
Y619441D01*
X845204Y618129D01*
X828941Y614224D01*
X813489Y607824D01*
X799229Y599085D01*
X786511Y588223D01*
X786511Y588223D01*
X764760Y566472D01*
X764694Y566500D01*
X764693Y566500D01*
X763068Y566519D01*
X757159Y566900D01*
X754940Y567067D01*
X754778Y567587D01*
X753843Y568709D01*
X753033Y569922D01*
X752580Y570225D01*
X752231Y570643D01*
X750938Y571322D01*
X749725Y572132D01*
X749191Y572239D01*
X748708Y572492D01*
X747254Y572624D01*
X745823Y572909D01*
X745289Y572802D01*
X744746Y572851D01*
X743353Y572417D01*
X741921Y572132D01*
X741468Y571830D01*
X740948Y571668D01*
X739827Y570733D01*
X738614Y569922D01*
X738311Y569469D01*
X737892Y569120D01*
X737825Y568992D01*
X716071D01*
Y570992D01*
X679487D01*
X679487Y772108D01*
X689487Y772108D01*
X2521146Y772108D01*
X2529905Y762108D01*
D02*
G37*
G36*
X358799Y622208D02*
X358130Y621968D01*
X357539Y621568D01*
X357027Y621009D01*
X356594Y620289D01*
X356240Y619410D01*
X355964Y618371D01*
X355768Y617172D01*
X355650Y615813D01*
X355610Y614294D01*
X347736D01*
X347697Y615813D01*
X347579Y617172D01*
X347382Y618371D01*
X347106Y619410D01*
X346752Y620289D01*
X346319Y621009D01*
X345807Y621568D01*
X345216Y621968D01*
X344547Y622208D01*
X343799Y622288D01*
X359547D01*
X358799Y622208D01*
D02*
G37*
G36*
X503583Y772108D02*
X503584Y610236D01*
X438976D01*
X438976Y683071D01*
X253482Y683071D01*
Y772108D01*
X493583D01*
X503583Y772108D01*
D02*
G37*
G36*
X355650Y612535D02*
X355768Y611176D01*
X355964Y609977D01*
X356240Y608937D01*
X356594Y608058D01*
X357027Y607339D01*
X357539Y606779D01*
X358130Y606379D01*
X358799Y606139D01*
X359547Y606060D01*
X343799D01*
X344547Y606139D01*
X345216Y606379D01*
X345807Y606779D01*
X346319Y607339D01*
X346752Y608058D01*
X347106Y608937D01*
X347382Y609977D01*
X347579Y611176D01*
X347697Y612535D01*
X347736Y614054D01*
X355610D01*
X355650Y612535D01*
D02*
G37*
G36*
X625984Y574803D02*
X596457D01*
Y651575D01*
X625984D01*
Y574803D01*
D02*
G37*
G36*
X584646D02*
X555118D01*
Y651575D01*
X584646D01*
Y574803D01*
D02*
G37*
G36*
X361457Y578782D02*
X360787Y578546D01*
X360197Y578152D01*
X359685Y577601D01*
X359252Y576892D01*
X358898Y576026D01*
X358622Y575002D01*
X358425Y573821D01*
X358307Y572483D01*
X358268Y570987D01*
X350394D01*
X350354Y572483D01*
X350236Y573821D01*
X350039Y575002D01*
X349764Y576026D01*
X349409Y576892D01*
X348976Y577601D01*
X348465Y578152D01*
X347874Y578546D01*
X347205Y578782D01*
X346457Y578861D01*
X362205D01*
X361457Y578782D01*
D02*
G37*
G36*
X318150D02*
X317480Y578546D01*
X316890Y578152D01*
X316378Y577601D01*
X315945Y576892D01*
X315591Y576026D01*
X315315Y575002D01*
X315118Y573821D01*
X315000Y572483D01*
X314961Y570987D01*
X307087D01*
X307047Y572483D01*
X306929Y573821D01*
X306732Y575002D01*
X306457Y576026D01*
X306102Y576892D01*
X305669Y577601D01*
X305158Y578152D01*
X304567Y578546D01*
X303898Y578782D01*
X303150Y578861D01*
X318898D01*
X318150Y578782D01*
D02*
G37*
G36*
X358307Y569228D02*
X358425Y567869D01*
X358622Y566670D01*
X358898Y565630D01*
X359252Y564751D01*
X359685Y564032D01*
X360197Y563472D01*
X360787Y563072D01*
X361457Y562832D01*
X362205Y562753D01*
X346457D01*
X347205Y562832D01*
X347874Y563072D01*
X348465Y563472D01*
X348976Y564032D01*
X349409Y564751D01*
X349764Y565630D01*
X350039Y566670D01*
X350236Y567869D01*
X350354Y569228D01*
X350394Y570747D01*
X358268D01*
X358307Y569228D01*
D02*
G37*
G36*
X315000D02*
X315118Y567869D01*
X315315Y566670D01*
X315591Y565630D01*
X315945Y564751D01*
X316378Y564032D01*
X316890Y563472D01*
X317480Y563072D01*
X318150Y562832D01*
X318898Y562753D01*
X303150D01*
X303898Y562832D01*
X304567Y563072D01*
X305158Y563472D01*
X305669Y564032D01*
X306102Y564751D01*
X306457Y565630D01*
X306732Y566670D01*
X306929Y567869D01*
X307047Y569228D01*
X307087Y570747D01*
X314961D01*
X315000Y569228D01*
D02*
G37*
G36*
X669291Y556102D02*
X633858D01*
Y568588D01*
X635404Y570901D01*
X636180Y574803D01*
Y651575D01*
X635404Y655477D01*
X633984Y657602D01*
Y696976D01*
X632329D01*
X629157Y700842D01*
X629538Y702756D01*
X628218Y709389D01*
X624461Y715012D01*
X618838Y718770D01*
X612205Y720089D01*
X605572Y718770D01*
X599948Y715012D01*
X596191Y709389D01*
X594872Y702756D01*
X595253Y700842D01*
X592081Y696976D01*
X573898D01*
Y676476D01*
X568898D01*
Y671476D01*
X547118D01*
Y657602D01*
X545698Y655477D01*
X544922Y651575D01*
Y574803D01*
X545698Y570901D01*
X547244Y568588D01*
Y556102D01*
X513779D01*
X513779Y772108D01*
X669291D01*
X669291Y556102D01*
D02*
G37*
G36*
X470592Y542619D02*
X470514Y543367D01*
X470277Y544036D01*
X469884Y544626D01*
X469333Y545138D01*
X468624Y545571D01*
X467758Y545926D01*
X466734Y546201D01*
X465553Y546398D01*
X464214Y546516D01*
X462718Y546556D01*
Y554430D01*
X464214Y554469D01*
X465553Y554587D01*
X466734Y554784D01*
X467758Y555059D01*
X468624Y555414D01*
X469333Y555847D01*
X469884Y556359D01*
X470277Y556949D01*
X470514Y557619D01*
X470592Y558367D01*
Y542619D01*
D02*
G37*
G36*
X454683Y557619D02*
X454919Y556949D01*
X455313Y556359D01*
X455864Y555847D01*
X456573Y555414D01*
X457439Y555059D01*
X458463Y554784D01*
X459644Y554587D01*
X460982Y554469D01*
X462478Y554430D01*
Y546556D01*
X460982Y546516D01*
X459644Y546398D01*
X458463Y546201D01*
X457439Y545926D01*
X456573Y545571D01*
X455864Y545138D01*
X455313Y544626D01*
X454919Y544036D01*
X454683Y543367D01*
X454604Y542619D01*
Y558367D01*
X454683Y557619D01*
D02*
G37*
G36*
X383978Y542619D02*
X383900Y543367D01*
X383663Y544036D01*
X383270Y544626D01*
X382719Y545138D01*
X382010Y545571D01*
X381144Y545926D01*
X380120Y546201D01*
X378939Y546398D01*
X377600Y546516D01*
X376104Y546556D01*
Y554430D01*
X377600Y554469D01*
X378939Y554587D01*
X380120Y554784D01*
X381144Y555059D01*
X382010Y555414D01*
X382719Y555847D01*
X383270Y556359D01*
X383663Y556949D01*
X383900Y557619D01*
X383978Y558367D01*
Y542619D01*
D02*
G37*
G36*
X368069Y557619D02*
X368305Y556949D01*
X368699Y556359D01*
X369250Y555847D01*
X369959Y555414D01*
X370825Y555059D01*
X371849Y554784D01*
X373030Y554587D01*
X374368Y554469D01*
X375864Y554430D01*
Y546556D01*
X374368Y546516D01*
X373030Y546398D01*
X371849Y546201D01*
X370825Y545926D01*
X369959Y545571D01*
X369250Y545138D01*
X368699Y544626D01*
X368305Y544036D01*
X368069Y543367D01*
X367990Y542619D01*
Y558367D01*
X368069Y557619D01*
D02*
G37*
G36*
X297364Y542619D02*
X297285Y543367D01*
X297049Y544036D01*
X296655Y544626D01*
X296104Y545138D01*
X295396Y545571D01*
X294529Y545926D01*
X293506Y546201D01*
X292325Y546398D01*
X290986Y546516D01*
X289490Y546556D01*
Y554430D01*
X290986Y554469D01*
X292325Y554587D01*
X293506Y554784D01*
X294529Y555059D01*
X295396Y555414D01*
X296104Y555847D01*
X296655Y556359D01*
X297049Y556949D01*
X297285Y557619D01*
X297364Y558367D01*
Y542619D01*
D02*
G37*
G36*
X281336Y557619D02*
X281576Y556949D01*
X281976Y556359D01*
X282535Y555847D01*
X283255Y555414D01*
X284134Y555059D01*
X285173Y554784D01*
X286372Y554587D01*
X287731Y554469D01*
X289250Y554430D01*
Y546556D01*
X287731Y546516D01*
X286372Y546398D01*
X285173Y546201D01*
X284134Y545926D01*
X283255Y545571D01*
X282535Y545138D01*
X281976Y544626D01*
X281576Y544036D01*
X281336Y543367D01*
X281256Y542619D01*
Y558367D01*
X281336Y557619D01*
D02*
G37*
G36*
X254057Y542619D02*
X253978Y543366D01*
X253742Y544036D01*
X253348Y544626D01*
X252797Y545138D01*
X252089Y545571D01*
X251222Y545926D01*
X250199Y546201D01*
X249018Y546398D01*
X247679Y546516D01*
X246183Y546556D01*
Y554429D01*
X247679Y554469D01*
X249018Y554587D01*
X250199Y554784D01*
X251222Y555059D01*
X252089Y555414D01*
X252797Y555847D01*
X253348Y556359D01*
X253742Y556949D01*
X253978Y557619D01*
X254057Y558366D01*
Y542619D01*
D02*
G37*
G36*
X238148Y557619D02*
X238384Y556949D01*
X238778Y556359D01*
X239329Y555847D01*
X240037Y555414D01*
X240904Y555059D01*
X241927Y554784D01*
X243108Y554587D01*
X244447Y554469D01*
X245943Y554429D01*
Y546556D01*
X244447Y546516D01*
X243108Y546398D01*
X241927Y546201D01*
X240904Y545926D01*
X240037Y545571D01*
X239329Y545138D01*
X238778Y544626D01*
X238384Y544036D01*
X238148Y543366D01*
X238069Y542619D01*
Y558366D01*
X238148Y557619D01*
D02*
G37*
G36*
X497879Y548460D02*
X498125Y547790D01*
X498529Y547200D01*
X499091Y546688D01*
X499811Y546255D01*
X500690Y545900D01*
X501726Y545625D01*
X502921Y545428D01*
X504274Y545310D01*
X505785Y545271D01*
Y537397D01*
X497911Y538113D01*
X497791Y549208D01*
X497879Y548460D01*
D02*
G37*
G36*
X663510Y546034D02*
X663746Y545874D01*
X664140Y545733D01*
X664691Y545610D01*
X665400Y545506D01*
X667289Y545356D01*
X671305Y545271D01*
Y537397D01*
X669809Y537387D01*
X664691Y537057D01*
X664140Y536934D01*
X663746Y536793D01*
X663510Y536633D01*
X663431Y536454D01*
Y546214D01*
X663510Y546034D01*
D02*
G37*
G36*
X517671Y536454D02*
X517592Y536633D01*
X517356Y536793D01*
X516962Y536934D01*
X516411Y537057D01*
X515703Y537161D01*
X513813Y537312D01*
X509797Y537397D01*
Y545271D01*
X511293Y545280D01*
X516411Y545610D01*
X516962Y545733D01*
X517356Y545874D01*
X517592Y546034D01*
X517671Y546214D01*
Y536454D01*
D02*
G37*
G36*
X745959Y561430D02*
X746368Y560283D01*
X747049Y559270D01*
X748002Y558393D01*
X749228Y557650D01*
X750726Y557043D01*
X752497Y556570D01*
X754540Y556233D01*
X756855Y556030D01*
X759443Y555963D01*
Y542463D01*
X756855Y542395D01*
X754540Y542193D01*
X752497Y541855D01*
X750726Y541383D01*
X749228Y540775D01*
X748002Y540033D01*
X747049Y539155D01*
X746368Y538143D01*
X745959Y536995D01*
X745823Y535713D01*
Y562713D01*
X745959Y561430D01*
D02*
G37*
G36*
X683191Y535553D02*
X683112Y535903D01*
X682876Y536217D01*
X682482Y536493D01*
X681931Y536733D01*
X681222Y536936D01*
X680356Y537102D01*
X679333Y537231D01*
X676813Y537378D01*
X675317Y537397D01*
Y545271D01*
X676830Y545310D01*
X678184Y545428D01*
X679379Y545625D01*
X680417Y545900D01*
X681295Y546255D01*
X682015Y546688D01*
X682577Y547200D01*
X682980Y547790D01*
X683225Y548460D01*
X683311Y549208D01*
X683191Y535553D01*
D02*
G37*
G36*
X703012Y535474D02*
X702342Y535238D01*
X701752Y534844D01*
X701240Y534293D01*
X700807Y533585D01*
X700453Y532718D01*
X700177Y531695D01*
X699980Y530514D01*
X699862Y529175D01*
X699823Y527679D01*
X691949D01*
X691909Y529175D01*
X691791Y530514D01*
X691594Y531695D01*
X691319Y532718D01*
X690965Y533585D01*
X690531Y534293D01*
X690020Y534844D01*
X689429Y535238D01*
X688760Y535474D01*
X688012Y535553D01*
X703760D01*
X703012Y535474D01*
D02*
G37*
G36*
X699862Y525943D02*
X699980Y524604D01*
X700177Y523423D01*
X700453Y522400D01*
X700807Y521534D01*
X701240Y520825D01*
X701752Y520274D01*
X702342Y519880D01*
X703012Y519644D01*
X703760Y519565D01*
X688012D01*
X688760Y519644D01*
X689429Y519880D01*
X690020Y520274D01*
X690531Y520825D01*
X690965Y521534D01*
X691319Y522400D01*
X691594Y523423D01*
X691791Y524604D01*
X691909Y525943D01*
X691949Y527439D01*
X699823D01*
X699862Y525943D01*
D02*
G37*
G36*
X517671Y516764D02*
X517592Y516943D01*
X517356Y517103D01*
X516962Y517245D01*
X516411Y517367D01*
X515703Y517471D01*
X513813Y517622D01*
X509797Y517707D01*
Y525581D01*
X511293Y525590D01*
X516411Y525920D01*
X516962Y526043D01*
X517356Y526184D01*
X517592Y526344D01*
X517671Y526524D01*
Y516764D01*
D02*
G37*
G36*
X210870Y504626D02*
X210790Y505374D01*
X210550Y506044D01*
X210150Y506634D01*
X209591Y507146D01*
X208871Y507579D01*
X207992Y507933D01*
X206953Y508209D01*
X205754Y508406D01*
X205315Y508444D01*
X204876Y508406D01*
X203677Y508209D01*
X202638Y507933D01*
X201758Y507579D01*
X201039Y507146D01*
X200480Y506634D01*
X200080Y506044D01*
X199840Y505374D01*
X199760Y504626D01*
Y520374D01*
X199840Y519626D01*
X200080Y518957D01*
X200480Y518366D01*
X201039Y517855D01*
X201758Y517422D01*
X202638Y517067D01*
X203677Y516792D01*
X204876Y516595D01*
X205315Y516557D01*
X205754Y516595D01*
X206953Y516792D01*
X207992Y517067D01*
X208871Y517422D01*
X209591Y517855D01*
X210150Y518366D01*
X210550Y518957D01*
X210790Y519626D01*
X210870Y520374D01*
Y504626D01*
D02*
G37*
G36*
X505785Y517707D02*
X504274Y517667D01*
X502921Y517549D01*
X501726Y517352D01*
X500690Y517077D01*
X499811Y516722D01*
X499091Y516289D01*
X498529Y515778D01*
X498125Y515187D01*
X497879Y514518D01*
X497791Y513770D01*
X497911Y524880D01*
X497990Y525013D01*
X498226Y525133D01*
X498620Y525237D01*
X499171Y525328D01*
X499880Y525405D01*
X502951Y525553D01*
X505785Y525581D01*
Y517707D01*
D02*
G37*
G36*
X1088823Y509843D02*
X1088743Y510591D01*
X1088503Y511260D01*
X1088103Y511851D01*
X1087544Y512362D01*
X1086824Y512795D01*
X1085945Y513150D01*
X1084906Y513425D01*
X1083707Y513622D01*
X1082348Y513740D01*
X1080829Y513780D01*
Y521654D01*
X1082348Y521693D01*
X1083707Y521811D01*
X1084906Y522008D01*
X1085945Y522284D01*
X1086824Y522638D01*
X1087544Y523071D01*
X1088103Y523583D01*
X1088503Y524173D01*
X1088743Y524843D01*
X1088823Y525591D01*
Y509843D01*
D02*
G37*
G36*
X427405Y504626D02*
X427325Y505374D01*
X427086Y506044D01*
X426686Y506634D01*
X426126Y507146D01*
X425407Y507579D01*
X424528Y507933D01*
X423488Y508209D01*
X422289Y508406D01*
X420930Y508524D01*
X419411Y508563D01*
Y516437D01*
X420930Y516477D01*
X422289Y516595D01*
X423488Y516792D01*
X424528Y517067D01*
X425407Y517422D01*
X426126Y517855D01*
X426686Y518366D01*
X427086Y518957D01*
X427325Y519626D01*
X427405Y520374D01*
Y504626D01*
D02*
G37*
G36*
X411257Y519626D02*
X411497Y518957D01*
X411897Y518366D01*
X412456Y517855D01*
X413176Y517422D01*
X414055Y517067D01*
X415094Y516792D01*
X416293Y516595D01*
X417652Y516477D01*
X419171Y516437D01*
Y508563D01*
X417652Y508524D01*
X416293Y508406D01*
X415094Y508209D01*
X414055Y507933D01*
X413176Y507579D01*
X412456Y507146D01*
X411897Y506634D01*
X411497Y506044D01*
X411257Y505374D01*
X411177Y504626D01*
Y520374D01*
X411257Y519626D01*
D02*
G37*
G36*
X340791Y504626D02*
X340711Y505374D01*
X340471Y506044D01*
X340072Y506634D01*
X339512Y507146D01*
X338793Y507579D01*
X337913Y507933D01*
X336874Y508209D01*
X335675Y508406D01*
X334316Y508524D01*
X332797Y508563D01*
Y516437D01*
X334316Y516477D01*
X335675Y516595D01*
X336874Y516792D01*
X337913Y517067D01*
X338793Y517422D01*
X339512Y517855D01*
X340072Y518366D01*
X340471Y518957D01*
X340711Y519626D01*
X340791Y520374D01*
Y504626D01*
D02*
G37*
G36*
X324643Y519626D02*
X324883Y518957D01*
X325283Y518366D01*
X325842Y517855D01*
X326562Y517422D01*
X327441Y517067D01*
X328480Y516792D01*
X329679Y516595D01*
X331038Y516477D01*
X332557Y516437D01*
Y508563D01*
X331038Y508524D01*
X329679Y508406D01*
X328480Y508209D01*
X327441Y507933D01*
X326562Y507579D01*
X325842Y507146D01*
X325283Y506634D01*
X324883Y506044D01*
X324643Y505374D01*
X324563Y504626D01*
Y520374D01*
X324643Y519626D01*
D02*
G37*
G36*
X824643Y513032D02*
X824883Y512362D01*
X825283Y511772D01*
X825842Y511260D01*
X826562Y510827D01*
X827441Y510473D01*
X828480Y510197D01*
X829679Y510000D01*
X831038Y509882D01*
X832557Y509843D01*
Y501969D01*
X831038Y501929D01*
X829679Y501811D01*
X828480Y501614D01*
X827441Y501339D01*
X826562Y500985D01*
X825842Y500551D01*
X825283Y500040D01*
X824883Y499449D01*
X824643Y498780D01*
X824563Y498032D01*
Y513780D01*
X824643Y513032D01*
D02*
G37*
G36*
X762051Y498031D02*
X761971Y498779D01*
X761731Y499449D01*
X761332Y500039D01*
X760772Y500551D01*
X760053Y500984D01*
X759173Y501339D01*
X758134Y501614D01*
X756935Y501811D01*
X755576Y501929D01*
X754057Y501969D01*
Y509842D01*
X755576Y509882D01*
X756935Y510000D01*
X758134Y510197D01*
X759173Y510472D01*
X760053Y510827D01*
X760772Y511260D01*
X761332Y511772D01*
X761731Y512362D01*
X761971Y513032D01*
X762051Y513779D01*
Y498031D01*
D02*
G37*
G36*
X745903Y513032D02*
X746143Y512362D01*
X746543Y511772D01*
X747102Y511260D01*
X747822Y510827D01*
X748701Y510472D01*
X749740Y510197D01*
X750939Y510000D01*
X752298Y509882D01*
X753817Y509842D01*
Y501969D01*
X752298Y501929D01*
X750939Y501811D01*
X749740Y501614D01*
X748701Y501339D01*
X747822Y500984D01*
X747102Y500551D01*
X746543Y500039D01*
X746143Y499449D01*
X745903Y498779D01*
X745823Y498031D01*
Y513779D01*
X745903Y513032D01*
D02*
G37*
G36*
X274842Y500161D02*
X274173Y499921D01*
X273583Y499521D01*
X273071Y498961D01*
X272638Y498242D01*
X272283Y497363D01*
X272008Y496323D01*
X271811Y495124D01*
X271693Y493765D01*
X271654Y492246D01*
X263779D01*
X263740Y493765D01*
X263622Y495124D01*
X263425Y496323D01*
X263150Y497363D01*
X262795Y498242D01*
X262362Y498961D01*
X261850Y499521D01*
X261260Y499921D01*
X260591Y500161D01*
X259842Y500240D01*
X275591D01*
X274842Y500161D01*
D02*
G37*
G36*
X540035Y497112D02*
X539355Y496869D01*
X538755Y496463D01*
X538235Y495894D01*
X537795Y495164D01*
X537435Y494270D01*
X537155Y493215D01*
X536955Y491997D01*
X536835Y490616D01*
X536795Y489074D01*
X528795D01*
X528755Y490616D01*
X528635Y491997D01*
X528435Y493215D01*
X528155Y494270D01*
X527795Y495164D01*
X527355Y495894D01*
X526835Y496463D01*
X526235Y496869D01*
X525555Y497112D01*
X524795Y497194D01*
X540795D01*
X540035Y497112D01*
D02*
G37*
G36*
X861878Y585284D02*
X2529905D01*
Y519568D01*
X2646906D01*
Y514568D01*
X2651906D01*
Y435568D01*
X2740612D01*
Y15293D01*
X549742D01*
Y106299D01*
X548578Y112152D01*
X545263Y117114D01*
X289370Y373006D01*
Y401808D01*
X298609Y405635D01*
X480567Y223678D01*
X484515Y221039D01*
X489173Y220113D01*
X675071D01*
Y167197D01*
X728563D01*
Y188976D01*
X738563D01*
Y167197D01*
X747678D01*
Y59055D01*
X748454Y55153D01*
X750664Y51846D01*
X753972Y49635D01*
X757874Y48859D01*
X826772D01*
X830673Y49635D01*
X833981Y51846D01*
X836192Y55153D01*
X836968Y59055D01*
Y195866D01*
X836192Y199768D01*
X833981Y203076D01*
X831365Y204824D01*
X830470Y209081D01*
X830684Y215480D01*
X832276Y216543D01*
X834253Y219502D01*
X834947Y222992D01*
Y244725D01*
X834253Y248215D01*
X832276Y251173D01*
X829317Y253150D01*
X825827Y253845D01*
X766693D01*
X764063Y253321D01*
X754063Y254063D01*
X754063Y254063D01*
X675071D01*
Y244454D01*
X494214D01*
X289370Y449299D01*
Y460630D01*
X503584Y460630D01*
Y299213D01*
X504360Y295311D01*
X506570Y292003D01*
X509878Y289793D01*
X513779Y289017D01*
X669291D01*
X673193Y289793D01*
X676501Y292003D01*
X678711Y295311D01*
X679487Y299213D01*
Y484126D01*
X753811D01*
Y440819D01*
X762140D01*
Y397348D01*
X742058Y377266D01*
X739420Y373318D01*
X738494Y368660D01*
Y290089D01*
X739420Y285431D01*
X742058Y281482D01*
X748288Y275252D01*
X752237Y272614D01*
X756894Y271688D01*
X757832D01*
X758267Y269502D01*
X760244Y266543D01*
X763203Y264566D01*
X766693Y263872D01*
X825827D01*
X829317Y264566D01*
X832276Y266543D01*
X834253Y269502D01*
X834947Y272992D01*
Y294724D01*
X834253Y298215D01*
X832276Y301173D01*
X829317Y303150D01*
X825827Y303845D01*
X778324D01*
X775481Y308858D01*
X778324Y313872D01*
X825827D01*
X829317Y314566D01*
X832276Y316543D01*
X834253Y319502D01*
X834947Y322992D01*
Y334396D01*
X844947Y338538D01*
X958278Y225207D01*
X962247Y222555D01*
X966929Y221623D01*
X970444D01*
X970865Y219502D01*
X972842Y216543D01*
X975801Y214566D01*
X979291Y213872D01*
X1038425D01*
X1041915Y214566D01*
X1044874Y216543D01*
X1046851Y219502D01*
X1047545Y222992D01*
Y244725D01*
X1046851Y248215D01*
X1044874Y251173D01*
X1043510Y252085D01*
X1043338Y259400D01*
X1044111Y262795D01*
X1046580Y264444D01*
X1048790Y267752D01*
X1049566Y271654D01*
Y291970D01*
X1139764D01*
X1143666Y292746D01*
X1146973Y294956D01*
X1149184Y298264D01*
X1149960Y302166D01*
Y370079D01*
X1149184Y373981D01*
X1146973Y377288D01*
X1143666Y379498D01*
X1139764Y380275D01*
X978346Y380275D01*
X974445Y379499D01*
X971137Y377288D01*
X968927Y373981D01*
X968151Y370079D01*
Y271654D01*
X968927Y267752D01*
X969503Y266889D01*
X967691Y258008D01*
X961134Y256957D01*
X830579Y387512D01*
X834721Y397512D01*
X872173D01*
Y397512D01*
X880300Y402034D01*
X886554Y403278D01*
X892178Y407035D01*
X895935Y412658D01*
X897254Y419291D01*
X895935Y425925D01*
X892664Y430819D01*
X893508Y434537D01*
X896302Y440819D01*
X911543D01*
Y457599D01*
X891043D01*
Y467599D01*
X911543D01*
Y483787D01*
X919032Y490440D01*
X945638Y463835D01*
X949586Y461197D01*
X950662Y460983D01*
Y436882D01*
X1002095D01*
Y460270D01*
X1013378D01*
X1018036Y461197D01*
X1021984Y463835D01*
X1063695Y505546D01*
X1080583D01*
Y488063D01*
X1132016D01*
Y547370D01*
X1080583D01*
Y529888D01*
X1058654D01*
X1053996Y528961D01*
X1050047Y526323D01*
X1012095Y488370D01*
X1002095Y492512D01*
Y508000D01*
X950662D01*
Y506301D01*
X941423Y502474D01*
X929385Y514512D01*
X925437Y517150D01*
X920779Y518077D01*
X832803D01*
Y527685D01*
X785658D01*
X783234Y533094D01*
X782889Y537685D01*
X788135Y541710D01*
X788642Y542049D01*
X810663Y564070D01*
X811002Y564577D01*
X821540Y573226D01*
X834093Y579935D01*
X847713Y584067D01*
X861280Y585403D01*
X861878Y585284D01*
D02*
G37*
G36*
X781437Y492168D02*
X780768Y491931D01*
X780177Y491538D01*
X779665Y490986D01*
X779232Y490278D01*
X778878Y489412D01*
X778602Y488388D01*
X778405Y487207D01*
X778287Y485868D01*
X778248Y484372D01*
X770374D01*
X770335Y485868D01*
X770216Y487207D01*
X770020Y488388D01*
X769744Y489412D01*
X769390Y490278D01*
X768957Y490986D01*
X768445Y491538D01*
X767854Y491931D01*
X767185Y492168D01*
X766437Y492246D01*
X782185D01*
X781437Y492168D01*
D02*
G37*
G36*
X536818Y486272D02*
X536887Y485391D01*
X537002Y484562D01*
X537163Y483782D01*
X537370Y483053D01*
X537623Y482375D01*
X537922Y481748D01*
X538267Y481170D01*
X538658Y480644D01*
X539095Y480168D01*
X526495D01*
X526932Y480644D01*
X527323Y481170D01*
X527668Y481748D01*
X527967Y482375D01*
X528220Y483053D01*
X528427Y483782D01*
X528588Y484562D01*
X528703Y485391D01*
X528772Y486272D01*
X528795Y487202D01*
X536795D01*
X536818Y486272D01*
D02*
G37*
G36*
X778287Y482613D02*
X778405Y481254D01*
X778602Y480055D01*
X778878Y479016D01*
X779232Y478137D01*
X779665Y477417D01*
X780177Y476858D01*
X780768Y476458D01*
X781437Y476218D01*
X782185Y476138D01*
X766437D01*
X767185Y476218D01*
X767854Y476458D01*
X768445Y476858D01*
X768957Y477417D01*
X769390Y478137D01*
X769744Y479016D01*
X770020Y480055D01*
X770216Y481254D01*
X770335Y482613D01*
X770374Y484132D01*
X778248D01*
X778287Y482613D01*
D02*
G37*
G36*
X958902Y467903D02*
X958855Y468017D01*
X958715Y468120D01*
X958482Y468210D01*
X958156Y468288D01*
X957737Y468354D01*
X956619Y468450D01*
X955129Y468498D01*
X954244Y468504D01*
Y476378D01*
X955129Y476384D01*
X958156Y476594D01*
X958482Y476672D01*
X958715Y476762D01*
X958855Y476865D01*
X958902Y476979D01*
Y467903D01*
D02*
G37*
G36*
X994053Y479567D02*
X994289Y478898D01*
X994683Y478307D01*
X995234Y477795D01*
X995943Y477362D01*
X996809Y477008D01*
X997833Y476732D01*
X999014Y476536D01*
X1000352Y476417D01*
X1001848Y476378D01*
Y468504D01*
X1000352Y468465D01*
X999014Y468346D01*
X997833Y468150D01*
X996809Y467874D01*
X995943Y467520D01*
X995234Y467087D01*
X994683Y466575D01*
X994289Y465984D01*
X994053Y465315D01*
X993975Y464567D01*
Y480315D01*
X994053Y479567D01*
D02*
G37*
G36*
X605097Y458530D02*
X604937Y458294D01*
X604795Y457900D01*
X604673Y457349D01*
X604569Y456640D01*
X604418Y454750D01*
X604333Y450735D01*
X596459D01*
X596450Y452231D01*
X596120Y457349D01*
X595997Y457900D01*
X595856Y458294D01*
X595695Y458530D01*
X595516Y458609D01*
X605276D01*
X605097Y458530D01*
D02*
G37*
G36*
X860177Y448860D02*
X859508Y448624D01*
X858917Y448230D01*
X858405Y447679D01*
X857972Y446971D01*
X857618Y446104D01*
X857342Y445081D01*
X857146Y443900D01*
X857028Y442561D01*
X856988Y441065D01*
X849114D01*
X849075Y442561D01*
X848957Y443900D01*
X848760Y445081D01*
X848484Y446104D01*
X848130Y446971D01*
X847697Y447679D01*
X847185Y448230D01*
X846595Y448624D01*
X845925Y448860D01*
X845177Y448939D01*
X860925D01*
X860177Y448860D01*
D02*
G37*
G36*
X781437D02*
X780768Y448624D01*
X780177Y448230D01*
X779665Y447679D01*
X779232Y446971D01*
X778878Y446104D01*
X778602Y445081D01*
X778405Y443900D01*
X778287Y442561D01*
X778248Y441065D01*
X770374D01*
X770335Y442561D01*
X770216Y443900D01*
X770020Y445081D01*
X769744Y446104D01*
X769390Y446971D01*
X768957Y447679D01*
X768445Y448230D01*
X767854Y448624D01*
X767185Y448860D01*
X766437Y448939D01*
X782185D01*
X781437Y448860D01*
D02*
G37*
G36*
X604373Y444916D02*
X604491Y443557D01*
X604688Y442358D01*
X604963Y441319D01*
X605317Y440440D01*
X605750Y439720D01*
X606262Y439161D01*
X606853Y438761D01*
X607522Y438521D01*
X608270Y438441D01*
X592522D01*
X593270Y438521D01*
X593939Y438761D01*
X594530Y439161D01*
X595042Y439720D01*
X595475Y440440D01*
X595829Y441319D01*
X596105Y442358D01*
X596302Y443557D01*
X596420Y444916D01*
X596459Y446435D01*
X604333D01*
X604373Y444916D01*
D02*
G37*
G36*
X857028Y439329D02*
X857146Y437990D01*
X857342Y436809D01*
X857618Y435786D01*
X857972Y434920D01*
X858405Y434211D01*
X858917Y433660D01*
X859508Y433266D01*
X860177Y433030D01*
X860925Y432951D01*
X845177D01*
X845925Y433030D01*
X846595Y433266D01*
X847185Y433660D01*
X847697Y434211D01*
X848130Y434920D01*
X848484Y435786D01*
X848760Y436809D01*
X848957Y437990D01*
X849075Y439329D01*
X849114Y440825D01*
X856988D01*
X857028Y439329D01*
D02*
G37*
G36*
X820921Y448859D02*
X820241Y448619D01*
X819641Y448219D01*
X819121Y447659D01*
X818681Y446939D01*
X818321Y446059D01*
X818041Y445019D01*
X817841Y443819D01*
X817721Y442459D01*
X817681Y440945D01*
X817721Y439431D01*
X817841Y438071D01*
X818041Y436871D01*
X818321Y435831D01*
X818681Y434951D01*
X819121Y434231D01*
X819641Y433671D01*
X820241Y433271D01*
X820921Y433031D01*
X821681Y432951D01*
X805681D01*
X806441Y433031D01*
X807121Y433271D01*
X807721Y433671D01*
X808241Y434231D01*
X808681Y434951D01*
X809041Y435831D01*
X809321Y436871D01*
X809521Y438071D01*
X809641Y439431D01*
X809681Y440945D01*
X809641Y442459D01*
X809521Y443819D01*
X809321Y445019D01*
X809041Y446059D01*
X808681Y446939D01*
X808241Y447659D01*
X807721Y448219D01*
X807121Y448619D01*
X806441Y448859D01*
X805681Y448939D01*
X821681D01*
X820921Y448859D01*
D02*
G37*
G36*
X864013Y426418D02*
X864253Y425748D01*
X864653Y425158D01*
X865212Y424646D01*
X865932Y424213D01*
X866811Y423858D01*
X867850Y423583D01*
X868874Y423415D01*
X869059Y423441D01*
X869838Y423607D01*
X870569Y423819D01*
X871252Y424079D01*
X871885Y424386D01*
X872470Y424741D01*
X873006Y425142D01*
X873494Y425591D01*
Y412991D01*
X873006Y413440D01*
X872470Y413842D01*
X871885Y414197D01*
X871252Y414504D01*
X870569Y414764D01*
X869838Y414976D01*
X869059Y415142D01*
X868874Y415168D01*
X867850Y415000D01*
X866811Y414725D01*
X865932Y414370D01*
X865212Y413937D01*
X864653Y413425D01*
X864253Y412835D01*
X864013Y412166D01*
X863933Y411418D01*
Y427166D01*
X864013Y426418D01*
D02*
G37*
G36*
X820921Y405671D02*
X820241Y405427D01*
X819641Y405021D01*
X819121Y404453D01*
X818681Y403722D01*
X818321Y402829D01*
X818041Y401773D01*
X817841Y400555D01*
X817721Y399175D01*
X817681Y397632D01*
X809681D01*
X809641Y399175D01*
X809521Y400555D01*
X809321Y401773D01*
X809041Y402829D01*
X808681Y403722D01*
X808241Y404453D01*
X807721Y405021D01*
X807121Y405427D01*
X806441Y405671D01*
X805681Y405752D01*
X821681D01*
X820921Y405671D01*
D02*
G37*
G36*
X669291Y299213D02*
X513779D01*
Y462600D01*
X518779Y464117D01*
X520539Y461484D01*
X526162Y457727D01*
X532795Y456407D01*
X539428Y457727D01*
X545052Y461484D01*
X548809Y467107D01*
X550128Y473740D01*
X548809Y480373D01*
X546806Y483370D01*
X549600Y488189D01*
X587396D01*
Y450489D01*
X584517Y446681D01*
X578614D01*
Y405681D01*
Y393189D01*
X600394D01*
X622173D01*
Y405681D01*
Y446681D01*
X616275D01*
X613396Y450489D01*
Y488189D01*
X633858D01*
Y526575D01*
X669291D01*
Y299213D01*
D02*
G37*
G36*
X765920Y275984D02*
X765840Y276732D01*
X765600Y277402D01*
X765201Y277992D01*
X764641Y278504D01*
X763922Y278937D01*
X763042Y279291D01*
X762003Y279567D01*
X760804Y279764D01*
X759445Y279882D01*
X757926Y279921D01*
Y287795D01*
X759445Y287835D01*
X760804Y287953D01*
X762003Y288150D01*
X763042Y288425D01*
X763922Y288780D01*
X764641Y289213D01*
X765201Y289724D01*
X765600Y290315D01*
X765840Y290984D01*
X765920Y291732D01*
Y275984D01*
D02*
G37*
G36*
X1139764Y370079D02*
Y302166D01*
X1039370D01*
Y271654D01*
X978346D01*
Y370079D01*
X1139764Y370079D01*
D02*
G37*
G36*
X978519Y225858D02*
X978437Y226618D01*
X978194Y227298D01*
X977788Y227898D01*
X977219Y228418D01*
X976489Y228858D01*
X975595Y229218D01*
X974540Y229498D01*
X973322Y229698D01*
X971941Y229818D01*
X970399Y229858D01*
Y237858D01*
X971941Y237898D01*
X973322Y238018D01*
X974540Y238218D01*
X975595Y238498D01*
X976489Y238858D01*
X977219Y239298D01*
X977788Y239818D01*
X978194Y240418D01*
X978437Y241098D01*
X978519Y241858D01*
Y225858D01*
D02*
G37*
G36*
X765920Y224410D02*
X765840Y225158D01*
X765600Y225827D01*
X765201Y226417D01*
X764641Y226929D01*
X763922Y227362D01*
X763042Y227717D01*
X762003Y227992D01*
X760804Y228189D01*
X759445Y228307D01*
X757926Y228347D01*
Y236221D01*
X759445Y236260D01*
X760804Y236378D01*
X762003Y236575D01*
X763042Y236851D01*
X763922Y237205D01*
X764641Y237638D01*
X765201Y238150D01*
X765600Y238740D01*
X765840Y239410D01*
X765920Y240158D01*
Y224410D01*
D02*
G37*
G36*
X745903Y239410D02*
X746143Y238740D01*
X746543Y238150D01*
X747102Y237638D01*
X747822Y237205D01*
X748701Y236851D01*
X749740Y236575D01*
X750939Y236378D01*
X752298Y236260D01*
X753817Y236221D01*
Y228347D01*
X752298Y228307D01*
X750939Y228189D01*
X749740Y227992D01*
X748701Y227717D01*
X747822Y227362D01*
X747102Y226929D01*
X746543Y226417D01*
X746143Y225827D01*
X745903Y225158D01*
X745823Y224410D01*
Y240158D01*
X745903Y239410D01*
D02*
G37*
G36*
X683311Y224410D02*
X683231Y225158D01*
X682991Y225827D01*
X682591Y226417D01*
X682032Y226929D01*
X681312Y227362D01*
X680433Y227717D01*
X679394Y227992D01*
X678195Y228189D01*
X676836Y228307D01*
X675317Y228347D01*
Y236221D01*
X676836Y236260D01*
X678195Y236378D01*
X679394Y236575D01*
X680433Y236851D01*
X681312Y237205D01*
X682032Y237638D01*
X682591Y238150D01*
X682991Y238740D01*
X683231Y239410D01*
X683311Y240158D01*
Y224410D01*
D02*
G37*
G36*
X702697Y218545D02*
X702028Y218309D01*
X701437Y217915D01*
X700925Y217364D01*
X700492Y216656D01*
X700138Y215790D01*
X699862Y214766D01*
X699665Y213585D01*
X699547Y212246D01*
X699508Y210750D01*
X691634D01*
X691595Y212246D01*
X691476Y213585D01*
X691280Y214766D01*
X691004Y215790D01*
X690650Y216656D01*
X690217Y217364D01*
X689705Y217915D01*
X689114Y218309D01*
X688445Y218545D01*
X687697Y218624D01*
X703445D01*
X702697Y218545D01*
D02*
G37*
G36*
X699547Y208991D02*
X699665Y207632D01*
X699862Y206433D01*
X700138Y205394D01*
X700492Y204514D01*
X700925Y203795D01*
X701437Y203236D01*
X702028Y202836D01*
X702697Y202596D01*
X703445Y202516D01*
X687697D01*
X688445Y202596D01*
X689114Y202836D01*
X689705Y203236D01*
X690217Y203795D01*
X690650Y204514D01*
X691004Y205394D01*
X691280Y206433D01*
X691476Y207632D01*
X691595Y208991D01*
X691634Y210510D01*
X699508D01*
X699547Y208991D01*
D02*
G37*
G36*
X826772Y59055D02*
X757874D01*
Y195866D01*
X826772D01*
Y59055D01*
D02*
G37*
%LPC*%
G36*
X986898Y727075D02*
X935150D01*
Y710006D01*
X919181D01*
Y727075D01*
X867433D01*
Y668595D01*
X919181D01*
Y685664D01*
X935150D01*
Y668595D01*
X986898D01*
Y727075D01*
D02*
G37*
G36*
X856976Y727075D02*
X836102D01*
Y702835D01*
X856976D01*
Y727075D01*
D02*
G37*
G36*
X826102D02*
X805228D01*
Y702835D01*
X826102D01*
Y727075D01*
D02*
G37*
G36*
X1049102D02*
X997354D01*
Y668595D01*
X1049102D01*
Y671894D01*
X1057087Y680502D01*
X1063720Y681821D01*
X1069343Y685578D01*
X1073100Y691202D01*
X1074420Y697835D01*
X1073100Y704468D01*
X1069343Y710091D01*
X1063720Y713848D01*
X1057087Y715168D01*
X1049102Y723776D01*
Y727075D01*
D02*
G37*
G36*
X856976Y692835D02*
X836102D01*
Y668595D01*
X856976D01*
Y692835D01*
D02*
G37*
G36*
X826102D02*
X805228D01*
Y668595D01*
X826102D01*
Y692835D01*
D02*
G37*
%LPD*%
G36*
X943390Y689961D02*
X943310Y690709D01*
X943070Y691378D01*
X942670Y691969D01*
X942111Y692480D01*
X941391Y692913D01*
X940512Y693268D01*
X939472Y693543D01*
X938273Y693740D01*
X936914Y693858D01*
X935396Y693898D01*
Y701772D01*
X936914Y701811D01*
X938273Y701929D01*
X939472Y702126D01*
X940512Y702402D01*
X941391Y702756D01*
X942111Y703189D01*
X942670Y703701D01*
X943070Y704291D01*
X943310Y704961D01*
X943390Y705709D01*
Y689961D01*
D02*
G37*
G36*
X911021Y704961D02*
X911261Y704291D01*
X911660Y703701D01*
X912220Y703189D01*
X912939Y702756D01*
X913819Y702402D01*
X914858Y702126D01*
X916057Y701929D01*
X917416Y701811D01*
X918935Y701772D01*
Y693898D01*
X917416Y693858D01*
X916057Y693740D01*
X914858Y693543D01*
X913819Y693268D01*
X912939Y692913D01*
X912220Y692480D01*
X911660Y691969D01*
X911261Y691378D01*
X911021Y690709D01*
X910941Y689961D01*
Y705709D01*
X911021Y704961D01*
D02*
G37*
G36*
X1040944Y705075D02*
X1041187Y704395D01*
X1041593Y703795D01*
X1042161Y703275D01*
X1042892Y702835D01*
X1043785Y702475D01*
X1044841Y702195D01*
X1045998Y702005D01*
X1046265Y702042D01*
X1047045Y702203D01*
X1047773Y702410D01*
X1048452Y702663D01*
X1049079Y702962D01*
X1049657Y703307D01*
X1050183Y703698D01*
X1050659Y704135D01*
Y691535D01*
X1050183Y691972D01*
X1049657Y692363D01*
X1049079Y692708D01*
X1048452Y693007D01*
X1047773Y693260D01*
X1047045Y693467D01*
X1046265Y693628D01*
X1045998Y693665D01*
X1044841Y693475D01*
X1043785Y693195D01*
X1042892Y692835D01*
X1042161Y692395D01*
X1041593Y691875D01*
X1041187Y691275D01*
X1040944Y690595D01*
X1040862Y689835D01*
Y705835D01*
X1040944Y705075D01*
D02*
G37*
%LPC*%
G36*
X563898Y696976D02*
X547118D01*
Y681476D01*
X563898D01*
Y696976D01*
D02*
G37*
G36*
X2641906Y509568D02*
X2529905D01*
Y435568D01*
X2641906D01*
Y509568D01*
D02*
G37*
G36*
X1132016Y456819D02*
X1111299D01*
Y432165D01*
X1132016D01*
Y456819D01*
D02*
G37*
G36*
X1101299D02*
X1080583D01*
Y432165D01*
X1101299D01*
Y456819D01*
D02*
G37*
G36*
X1132016Y422165D02*
X1111299D01*
Y397512D01*
X1132016D01*
Y422165D01*
D02*
G37*
G36*
X1101299D02*
X1080583D01*
Y397512D01*
X1101299D01*
Y422165D01*
D02*
G37*
G36*
X2359252Y434632D02*
X2319960D01*
Y386890D01*
X2411336D01*
X2410197Y395541D01*
X2404928Y408261D01*
X2396547Y419185D01*
X2385623Y427566D01*
X2372903Y432835D01*
X2359252Y434632D01*
D02*
G37*
G36*
X2309960D02*
X2270669D01*
X2257018Y432835D01*
X2244298Y427566D01*
X2233375Y419185D01*
X2224993Y408261D01*
X2219724Y395541D01*
X2218585Y386890D01*
X2309960D01*
Y434632D01*
D02*
G37*
G36*
X2411336Y376890D02*
X2319960D01*
Y329147D01*
X2359252D01*
X2372903Y330945D01*
X2385623Y336214D01*
X2396547Y344595D01*
X2404928Y355519D01*
X2410197Y368239D01*
X2411336Y376890D01*
D02*
G37*
G36*
X2309960D02*
X2218585D01*
X2219724Y368239D01*
X2224993Y355519D01*
X2233375Y344595D01*
X2244298Y336214D01*
X2257018Y330945D01*
X2270669Y329147D01*
X2309960D01*
Y376890D01*
D02*
G37*
G36*
X1461614Y522007D02*
X1408465D01*
X1404563Y521231D01*
X1401255Y519021D01*
X1399045Y515713D01*
X1398269Y511811D01*
Y322961D01*
X1369319D01*
Y322961D01*
X1353819D01*
Y301181D01*
Y279402D01*
X1366311D01*
Y279401D01*
X1392876D01*
X1397956Y272182D01*
X1398800Y269401D01*
X1398269Y266732D01*
Y90551D01*
X1399045Y86649D01*
X1401255Y83342D01*
X1404563Y81131D01*
X1408465Y80355D01*
X1462598D01*
X1466500Y81131D01*
X1469808Y83342D01*
X1472018Y86649D01*
X1472794Y90551D01*
Y230315D01*
X1472018Y234217D01*
X1471995Y234252D01*
X1471457D01*
X1469488Y236220D01*
Y237738D01*
X1466500Y239735D01*
X1462598Y240511D01*
X1451141D01*
Y253937D01*
X1469488D01*
Y253937D01*
X1453740D01*
X1451771Y255905D01*
Y274817D01*
X1451692Y275039D01*
X1451292Y275630D01*
X1450733Y276142D01*
X1450013Y276575D01*
X1449134Y276929D01*
X1448094Y277205D01*
X1446895Y277401D01*
X1446000Y277479D01*
X1442085Y277248D01*
X1441534Y277135D01*
X1441140Y277006D01*
X1440903Y276859D01*
X1440825Y276695D01*
Y286297D01*
X1440903Y286133D01*
X1441140Y285986D01*
X1441534Y285856D01*
X1442085Y285744D01*
X1442793Y285649D01*
X1444683Y285511D01*
X1445742Y285490D01*
X1446895Y285591D01*
X1448094Y285787D01*
X1449134Y286063D01*
X1450013Y286417D01*
X1450733Y286850D01*
X1451292Y287362D01*
X1451692Y287953D01*
X1451771Y288175D01*
X1451772Y346457D01*
X1453740Y348425D01*
X1451141D01*
Y361851D01*
X1461614D01*
X1465516Y362627D01*
X1468824Y364838D01*
X1469488Y365832D01*
Y366142D01*
X1470112Y366765D01*
X1471034Y368145D01*
X1471810Y372047D01*
Y511811D01*
X1471034Y515713D01*
X1468824Y519021D01*
X1465516Y521231D01*
X1461614Y522007D01*
D02*
G37*
G36*
X1343819Y322961D02*
X1328319D01*
Y306181D01*
X1343819D01*
Y322961D01*
D02*
G37*
G36*
Y296181D02*
X1328319D01*
Y279402D01*
X1343819D01*
Y296181D01*
D02*
G37*
G36*
X1489173Y253937D02*
X1479331D01*
Y253937D01*
X1489173D01*
Y253937D01*
D02*
G37*
G36*
X2438071Y293226D02*
Y201851D01*
X2485813D01*
Y241142D01*
X2484016Y254793D01*
X2478747Y267513D01*
X2470365Y278437D01*
X2459442Y286818D01*
X2446722Y292087D01*
X2438071Y293226D01*
D02*
G37*
G36*
X2428071D02*
X2419420Y292087D01*
X2406700Y286818D01*
X2395776Y278437D01*
X2387395Y267513D01*
X2382126Y254793D01*
X2380328Y241142D01*
Y201851D01*
X2428071D01*
Y293226D01*
D02*
G37*
G36*
X1038425Y203845D02*
X979291D01*
X975801Y203150D01*
X972842Y201173D01*
X970865Y198215D01*
X970171Y194725D01*
Y172992D01*
X970865Y169502D01*
X972842Y166543D01*
X975801Y164566D01*
X979291Y163872D01*
X1038425D01*
X1041915Y164566D01*
X1044874Y166543D01*
X1046851Y169502D01*
X1047545Y172992D01*
Y194725D01*
X1046851Y198215D01*
X1044874Y201173D01*
X1041915Y203150D01*
X1038425Y203845D01*
D02*
G37*
G36*
X2485813Y191851D02*
X2438071D01*
Y100475D01*
X2446722Y101614D01*
X2459442Y106883D01*
X2470365Y115264D01*
X2478747Y126188D01*
X2484016Y138908D01*
X2485813Y152559D01*
Y191851D01*
D02*
G37*
G36*
X2428071D02*
X2380328D01*
Y152559D01*
X2382126Y138908D01*
X2387395Y126188D01*
X2395776Y115264D01*
X2406700Y106883D01*
X2419420Y101614D01*
X2428071Y100475D01*
Y191851D01*
D02*
G37*
G36*
X1965551Y553503D02*
X1912401D01*
X1908500Y552727D01*
X1905192Y550517D01*
X1902982Y547209D01*
X1902206Y543307D01*
Y426181D01*
X1894680Y421697D01*
X1888487Y420465D01*
X1883236Y416956D01*
X1879727Y411705D01*
X1878495Y405512D01*
Y402996D01*
X1878180D01*
Y331996D01*
X1927796D01*
Y323996D01*
X1928572Y320094D01*
X1930782Y316787D01*
X1934090Y314576D01*
X1937992Y313800D01*
X1963284D01*
Y294291D01*
X1964061Y290389D01*
X1966271Y287082D01*
X1966316Y287052D01*
X1966501Y286545D01*
Y276447D01*
X1966316Y275940D01*
X1966271Y275910D01*
X1964061Y272603D01*
X1963284Y268701D01*
Y249192D01*
X1937992D01*
X1934090Y248416D01*
X1930782Y246206D01*
X1928572Y242898D01*
X1927796Y238996D01*
Y230996D01*
X1903780D01*
Y159996D01*
X1904095D01*
Y142379D01*
X1902982Y140713D01*
X1902206Y136811D01*
X1902206Y75787D01*
X1902982Y71886D01*
X1904401Y69761D01*
Y67787D01*
X1906375D01*
X1908500Y66368D01*
X1912402Y65591D01*
X2023622D01*
X2027524Y66368D01*
X2030832Y68578D01*
X2033042Y71886D01*
X2033818Y75787D01*
X2033818Y136811D01*
X2033042Y140713D01*
X2030832Y144020D01*
X2027524Y146231D01*
X2023622Y147007D01*
X1936465D01*
Y148743D01*
X1945946Y158111D01*
X1978761D01*
X1979331Y158111D01*
X1979341Y158113D01*
X1979591Y158163D01*
X1979854Y158124D01*
X1982749Y158791D01*
X1983233Y158887D01*
X1983267Y158910D01*
X1987980Y159996D01*
Y161131D01*
X2080198Y205001D01*
X2090017Y199304D01*
X2090198Y198168D01*
Y90551D01*
X2090974Y86649D01*
X2093184Y83342D01*
X2096492Y81131D01*
X2100394Y80355D01*
X2261811D01*
X2265713Y81131D01*
X2269021Y83342D01*
X2271231Y86649D01*
X2272007Y90551D01*
Y303150D01*
X2271231Y307051D01*
X2269021Y310359D01*
X2265713Y312569D01*
X2261811Y313346D01*
X2199172D01*
Y437008D01*
X2198396Y440910D01*
X2196186Y444217D01*
X2192878Y446428D01*
X2188976Y447204D01*
X2100394D01*
X2096492Y446428D01*
X2095840Y445992D01*
X2092394Y445992D01*
X2084772Y451733D01*
X2084772Y454805D01*
Y473394D01*
X2084772Y477401D01*
X2092394Y483142D01*
X2093437Y483142D01*
X2099912Y483142D01*
X2179260D01*
Y520795D01*
X2092394D01*
Y493142D01*
X2092394Y489134D01*
X2084771Y483394D01*
X2083728Y483394D01*
X2077254Y483394D01*
X1997906D01*
Y482759D01*
X1975747D01*
Y543307D01*
X1974971Y547209D01*
X1972761Y550517D01*
X1969453Y552727D01*
X1965551Y553503D01*
D02*
G37*
G36*
X1675197Y535787D02*
X1561024D01*
X1557122Y535010D01*
X1553814Y532800D01*
X1551604Y529492D01*
X1550828Y525591D01*
Y392086D01*
X1527559D01*
X1523657Y391310D01*
X1520349Y389099D01*
X1518139Y385792D01*
X1517363Y381890D01*
Y348425D01*
X1514764D01*
X1516732Y346457D01*
Y255905D01*
X1514764Y253937D01*
X1499016D01*
Y253937D01*
X1517363D01*
Y220472D01*
X1518139Y216571D01*
X1520349Y213263D01*
X1523657Y211053D01*
X1527559Y210276D01*
X1550828D01*
Y76772D01*
X1551604Y72870D01*
X1553814Y69562D01*
X1557122Y67352D01*
X1561024Y66576D01*
X1675197Y66576D01*
X1679099Y67352D01*
X1682406Y69562D01*
X1684617Y72870D01*
X1685393Y76772D01*
Y230189D01*
X1691071D01*
Y236941D01*
X1691154Y237065D01*
X1692133Y238295D01*
X1692252Y238708D01*
X1692491Y239066D01*
X1692797Y240608D01*
X1693231Y242118D01*
X1693183Y242546D01*
X1693267Y242968D01*
Y268181D01*
X1692491Y272083D01*
X1691071Y274208D01*
Y290233D01*
X1692491Y292358D01*
X1693267Y296260D01*
Y306102D01*
X1692491Y310004D01*
X1691481Y311516D01*
X1692491Y313027D01*
X1693267Y316929D01*
Y341535D01*
X1692491Y345437D01*
X1691071Y347562D01*
Y349929D01*
X1691071D01*
Y362421D01*
X1669291D01*
Y372421D01*
X1691071D01*
Y387921D01*
X1685393D01*
Y525591D01*
X1684617Y529492D01*
X1682406Y532800D01*
X1679099Y535010D01*
X1675197Y535787D01*
D02*
G37*
%LPD*%
G36*
X1461614Y372047D02*
X1440945D01*
Y348425D01*
X1440945D01*
Y315945D01*
X1408465D01*
Y511811D01*
X1461614D01*
Y372047D01*
D02*
G37*
G36*
X1417443Y296380D02*
X1417364Y296544D01*
X1417128Y296691D01*
X1416734Y296821D01*
X1416183Y296933D01*
X1415474Y297028D01*
X1413584Y297166D01*
X1409569Y297244D01*
Y305118D01*
X1411065Y305127D01*
X1416183Y305429D01*
X1416734Y305542D01*
X1417128Y305671D01*
X1417364Y305818D01*
X1417443Y305982D01*
Y296380D01*
D02*
G37*
G36*
X1399151Y308307D02*
X1399391Y307638D01*
X1399791Y307047D01*
X1400350Y306536D01*
X1401070Y306103D01*
X1401949Y305748D01*
X1402988Y305473D01*
X1404187Y305276D01*
X1405546Y305158D01*
X1407065Y305118D01*
Y297244D01*
X1405546Y297205D01*
X1404187Y297087D01*
X1402988Y296890D01*
X1401949Y296614D01*
X1401070Y296260D01*
X1400350Y295827D01*
X1399791Y295315D01*
X1399391Y294724D01*
X1399151Y294055D01*
X1399071Y293307D01*
Y309055D01*
X1399151Y308307D01*
D02*
G37*
G36*
X1440945Y253937D02*
X1440945D01*
Y230315D01*
X1462598D01*
Y90551D01*
X1408465D01*
Y266732D01*
X1440945D01*
Y253937D01*
D02*
G37*
G36*
X2006026Y453860D02*
X2005829Y454024D01*
X2005238Y454171D01*
X2004254Y454301D01*
X2001104Y454509D01*
X1986341Y454724D01*
Y474409D01*
X2006026Y475274D01*
Y453860D01*
D02*
G37*
G36*
X1965551Y482263D02*
X1966103Y480709D01*
X1967093Y479232D01*
X1968480Y477953D01*
X1970262Y476870D01*
X1972441Y475984D01*
X1975015Y475295D01*
X1977986Y474803D01*
X1981353Y474508D01*
X1985116Y474409D01*
Y454724D01*
X1981353Y454626D01*
X1977986Y454331D01*
X1975015Y453839D01*
X1972441Y453150D01*
X1970262Y452264D01*
X1968480Y451181D01*
X1967093Y449902D01*
X1966103Y448425D01*
X1965551Y446871D01*
Y426181D01*
X1934326D01*
X1933194Y425774D01*
X1932013Y424976D01*
X1930989Y423863D01*
X1930123Y422434D01*
X1929414Y420689D01*
X1928863Y418629D01*
X1928469Y416253D01*
X1928233Y413561D01*
X1928155Y410592D01*
X1928660Y394876D01*
X1911900D01*
X1911996Y395034D01*
X1912082Y395506D01*
X1912158Y396293D01*
X1912325Y400546D01*
X1912406Y410624D01*
X1912407D01*
X1912521Y426181D01*
X1912401D01*
Y543307D01*
X1965551D01*
Y482263D01*
D02*
G37*
G36*
X1903060Y394876D02*
X1886300D01*
X1886396Y394983D01*
X1886483Y395302D01*
X1886558Y395833D01*
X1886624Y396578D01*
X1886786Y401683D01*
X1886806Y405512D01*
X1902554D01*
X1903060Y394876D01*
D02*
G37*
G36*
X1979331Y394685D02*
X2080709Y346457D01*
X2080709Y294291D01*
X1973480Y294291D01*
Y323996D01*
X1937992D01*
X1937992Y391153D01*
X1941527Y394689D01*
X1979331Y394685D01*
D02*
G37*
G36*
X2080709Y216535D02*
X1979331Y168307D01*
X1937992D01*
X1937992Y238996D01*
X1973480D01*
Y268701D01*
X2080709Y268701D01*
X2080709Y216535D01*
D02*
G37*
G36*
X2188976Y303150D02*
X2261811D01*
Y90551D01*
X2100394D01*
Y437008D01*
X2188976D01*
Y303150D01*
D02*
G37*
G36*
X1928564Y167959D02*
X1928478Y167486D01*
X1928402Y166699D01*
X1928235Y162447D01*
X1928155Y152422D01*
X1928233Y149431D01*
X1928469Y146739D01*
X1928863Y144363D01*
X1929414Y142303D01*
X1930123Y140558D01*
X1930989Y139129D01*
X1932013Y138016D01*
X1933194Y137219D01*
X1934327Y136811D01*
X2023622D01*
X2023622Y75787D01*
X1912402D01*
X1912401Y136811D01*
X1912521D01*
X1912407Y152368D01*
X1912406D01*
X1911900Y168116D01*
X1928660D01*
X1928564Y167959D01*
D02*
G37*
G36*
X1675197Y387921D02*
X1647512D01*
Y355315D01*
X1551181D01*
Y335630D01*
X1527559D01*
Y381890D01*
X1561024D01*
Y525591D01*
X1675197D01*
Y387921D01*
D02*
G37*
G36*
X1683071Y316929D02*
X1527559Y316929D01*
Y325434D01*
X1527559Y325434D01*
X1551181D01*
X1555083Y326210D01*
X1557208Y327630D01*
X1559181D01*
Y329603D01*
X1560601Y331728D01*
X1561377Y335630D01*
Y341535D01*
X1683071Y341535D01*
Y316929D01*
D02*
G37*
G36*
Y296260D02*
X1649289D01*
X1647512Y296613D01*
X1527559D01*
Y306102D01*
X1683071D01*
Y296260D01*
D02*
G37*
G36*
X1647512Y268181D02*
X1683071D01*
Y242968D01*
X1681576Y241704D01*
X1678071Y239813D01*
X1675197Y240385D01*
X1657708D01*
Y247047D01*
X1656931Y250949D01*
X1654721Y254257D01*
X1651414Y256467D01*
X1647512Y257243D01*
X1561377Y257243D01*
Y266732D01*
X1560601Y270634D01*
X1559181Y272759D01*
Y274732D01*
X1557208D01*
X1555083Y276152D01*
X1551181Y276928D01*
X1527559D01*
Y286417D01*
X1647512D01*
Y268181D01*
D02*
G37*
G36*
X1551181Y247047D02*
X1647512Y247047D01*
Y230189D01*
X1675197D01*
Y76772D01*
X1561024Y76772D01*
Y220472D01*
X1527559D01*
Y266732D01*
X1551181D01*
Y247047D01*
D02*
G37*
%LPC*%
G36*
X622173Y383189D02*
X605394D01*
Y367689D01*
X622173D01*
Y383189D01*
D02*
G37*
G36*
X595394D02*
X578614D01*
Y367689D01*
X595394D01*
Y383189D01*
D02*
G37*
%LPD*%
D10*
X861878Y602362D02*
G03*
X798587Y576146I0J-89506D01*
G01*
X776566Y554125D02*
G03*
X776575Y554134I-11873J11890D01*
G01*
X764693Y549213D02*
G03*
X776566Y554125I0J16803D01*
G01*
X2680118Y602362D02*
X2735905D01*
X2476378D02*
X2680118D01*
X861878D02*
X2476378D01*
X776575Y554134D02*
X798587Y576146D01*
X776566Y554125D02*
X776575Y554134D01*
X733563Y549213D02*
X764693D01*
D11*
X1625394Y135827D02*
D03*
X1748622D02*
D03*
Y466535D02*
D03*
X1625394D02*
D03*
D12*
X1435039Y179134D02*
D03*
X1513780D02*
D03*
Y423228D02*
D03*
X1435039D02*
D03*
X1860236Y456693D02*
D03*
X1938976D02*
D03*
X1860236Y106299D02*
D03*
X1938976D02*
D03*
D13*
X267716Y550493D02*
D03*
Y512500D02*
D03*
X354331Y550493D02*
D03*
Y512500D02*
D03*
X311024D02*
D03*
Y550493D02*
D03*
X1582677Y234941D02*
D03*
X1582677Y272933D02*
D03*
X1625984D02*
D03*
Y234941D02*
D03*
X1582677Y367421D02*
D03*
X1582677Y329429D02*
D03*
X1625984Y367421D02*
D03*
Y329429D02*
D03*
X1669291Y329429D02*
D03*
X1669291Y367421D02*
D03*
Y250689D02*
D03*
X1669291Y288681D02*
D03*
X224409Y512500D02*
D03*
Y550492D02*
D03*
X484252Y550493D02*
D03*
Y512500D02*
D03*
X440945D02*
D03*
Y550493D02*
D03*
X397638Y512500D02*
D03*
Y550493D02*
D03*
X568898Y638484D02*
D03*
Y676476D02*
D03*
X612205Y638484D02*
D03*
Y676476D02*
D03*
X600394Y426181D02*
D03*
Y388189D02*
D03*
D14*
X100000Y531496D02*
D03*
D15*
X338189Y727401D02*
D03*
X634449Y60000D02*
D03*
D16*
X976378Y472441D02*
D03*
D17*
X1106299Y427165D02*
D03*
Y517717D02*
D03*
D18*
X2646905Y690112D02*
D03*
Y514568D02*
D03*
D19*
X2735905Y602362D02*
D03*
D20*
X2050197Y320866D02*
D03*
Y242126D02*
D03*
D21*
X893307Y697835D02*
D03*
X831102Y697835D02*
D03*
X1023228D02*
D03*
X961024Y697835D02*
D03*
D22*
X774311Y505906D02*
D03*
X812303D02*
D03*
X488878Y624016D02*
D03*
X526870D02*
D03*
X656201Y438976D02*
D03*
X694193D02*
D03*
X694193Y624016D02*
D03*
X656201D02*
D03*
X526870Y438976D02*
D03*
X488878D02*
D03*
X1348819Y301181D02*
D03*
X1386811Y301181D02*
D03*
X351673Y635827D02*
D03*
X313681D02*
D03*
Y592520D02*
D03*
X351673D02*
D03*
X695571Y188976D02*
D03*
X733563D02*
D03*
X891043Y462599D02*
D03*
X853051D02*
D03*
X812303D02*
D03*
X774311D02*
D03*
X733563Y505906D02*
D03*
X695571D02*
D03*
Y549213D02*
D03*
X733563D02*
D03*
X695571Y232284D02*
D03*
X733563D02*
D03*
X851673Y419291D02*
D03*
X813681D02*
D03*
D23*
X2041339Y464567D02*
D03*
X2135827Y501969D02*
D03*
X2135827Y427165D02*
D03*
D24*
X1484252Y301181D02*
D03*
D25*
X1539370Y340551D02*
D03*
Y320866D02*
D03*
Y301181D02*
D03*
X1539370Y281496D02*
D03*
X1539370Y261811D02*
D03*
X1429134D02*
D03*
Y281496D02*
D03*
X1429134Y301181D02*
D03*
X1429134Y320866D02*
D03*
Y340551D02*
D03*
D26*
X1843480Y195496D02*
D03*
X1869080D02*
D03*
X1894680D02*
D03*
X1920280D02*
D03*
X1945880D02*
D03*
X1971480D02*
D03*
Y367496D02*
D03*
X1945880D02*
D03*
X1920280D02*
D03*
X1894680D02*
D03*
X1869080D02*
D03*
X1843480D02*
D03*
D27*
X1907480Y281496D02*
D03*
D28*
X656299Y688976D02*
D03*
X690158D02*
D03*
X526772Y688977D02*
D03*
X492913D02*
D03*
Y374016D02*
D03*
X526772D02*
D03*
X690158D02*
D03*
X656299D02*
D03*
D29*
X1091535Y252953D02*
D03*
Y323819D02*
D03*
D30*
X805118Y109252D02*
D03*
X875984D02*
D03*
D31*
X532551Y561024D02*
D03*
Y541334D02*
D03*
Y521644D02*
D03*
Y501954D02*
D03*
X648551D02*
D03*
Y521644D02*
D03*
Y541334D02*
D03*
Y561024D02*
D03*
D32*
X561016Y473489D02*
D03*
X580706D02*
D03*
X600396D02*
D03*
X620086D02*
D03*
Y589489D02*
D03*
X600396D02*
D03*
X580706D02*
D03*
X561016D02*
D03*
D33*
X590551Y531489D02*
D03*
D34*
X796260Y333858D02*
D03*
Y283858D02*
D03*
Y233858D02*
D03*
Y183858D02*
D03*
X1008858D02*
D03*
Y233858D02*
D03*
Y283858D02*
D03*
Y333858D02*
D03*
D35*
X2735905Y602362D02*
X2735905Y602362D01*
D36*
X1386811Y292323D02*
X1395669Y301181D01*
X1429134D01*
X489173Y232284D02*
X695571D01*
X267716Y453740D02*
X489173Y232284D01*
X267716Y453740D02*
Y512500D01*
X313681Y702893D02*
X338189Y727401D01*
X313681Y635827D02*
Y702893D01*
X484252Y512500D02*
X493395Y521644D01*
X532551D01*
X484252Y550493D02*
X493411Y541334D01*
X532551D01*
X440945Y550493D02*
X484252D01*
X397638Y512500D02*
X440945D01*
X354331Y550493D02*
X397638D01*
X311024Y512500D02*
X354331D01*
X351673Y592520D02*
Y635827D01*
Y592520D02*
X354331Y589863D01*
Y550493D02*
Y589863D01*
X311024Y589863D02*
X313681Y592520D01*
X311024Y550493D02*
Y589863D01*
X267716Y550493D02*
X311024D01*
X267716Y550492D02*
X267716Y550493D01*
X224409Y550492D02*
X267716D01*
X100000Y531496D02*
X118996Y512500D01*
X224409D01*
X695571Y188976D02*
Y232284D01*
X1058654Y517717D02*
X1106299D01*
X1013378Y472441D02*
X1058654Y517717D01*
X976378Y472441D02*
X1013378D01*
X954244D02*
X976378D01*
X920779Y505906D02*
X954244Y472441D01*
X812303Y505906D02*
X920779D01*
X769685Y283858D02*
X796260D01*
X756894D02*
X769685D01*
Y276575D02*
Y283858D01*
Y387681D02*
X774311Y392307D01*
X750664Y368660D02*
X769685Y387681D01*
X750664Y290089D02*
X756894Y283858D01*
X750664Y290089D02*
Y368660D01*
X774311Y392307D02*
Y462599D01*
X893307Y697835D02*
X961024D01*
X769685Y457973D02*
X774311Y462599D01*
X794685Y232284D02*
X796260Y233858D01*
X733563Y232284D02*
X794685D01*
X774311Y505906D02*
X774311Y505906D01*
X733563Y505906D02*
X774311D01*
X774311Y462599D02*
Y505906D01*
X851673Y419291D02*
X879921D01*
X851673D02*
X853051Y420670D01*
Y462599D01*
X1660728Y320866D02*
X1669291Y329429D01*
X1429134Y281496D02*
X1464567D01*
X600396Y426425D02*
X600640Y426181D01*
X600396Y426425D02*
Y473489D01*
X695886Y505906D02*
Y549213D01*
X688007Y541334D02*
X695886Y549213D01*
X648795Y541334D02*
X688007D01*
X600640Y426181D02*
X600709D01*
D37*
X1920280Y367496D02*
Y464567D01*
Y367496D02*
Y405512D01*
X1894680D02*
X1920280D01*
X1894680Y367496D02*
Y405512D01*
X1920276Y106299D02*
X1920280Y106304D01*
Y195496D01*
D38*
X1938976Y464567D02*
X2041339D01*
D39*
X1023228Y697835D02*
X1057087D01*
X966929Y233858D02*
X1008858D01*
X813681Y387106D02*
X966929Y233858D01*
X813681Y387106D02*
Y419291D01*
X812303Y462599D02*
X813681Y461221D01*
Y419291D02*
Y461221D01*
X532795Y473740D02*
Y501954D01*
X612205Y676476D02*
Y702756D01*
D40*
X774311Y333858D02*
X796260D01*
D41*
X2539370Y570678D02*
D03*
Y634031D02*
D03*
D42*
X2314961Y381890D02*
D03*
D43*
X2433071Y196851D02*
D03*
D44*
X2196850D02*
D03*
D45*
X759843Y27559D02*
D03*
X2630906Y568346D02*
D03*
X1777559Y224409D02*
D03*
X1726378D02*
D03*
X1777559Y377953D02*
D03*
X1726378D02*
D03*
X1448819Y469488D02*
D03*
X1448819Y497047D02*
D03*
X1421265Y469488D02*
D03*
X1421260Y497047D02*
D03*
X1421264Y104331D02*
D03*
X1448819D02*
D03*
X1421264Y131890D02*
D03*
X1448819D02*
D03*
X2008858Y90551D02*
D03*
X1951772Y530512D02*
D03*
X1925197D02*
D03*
X1951772Y502953D02*
D03*
X1924213D02*
D03*
X1663386Y200787D02*
D03*
X1633202D02*
D03*
X1603018D02*
D03*
X1572835D02*
D03*
X1663386Y397638D02*
D03*
X1633202D02*
D03*
X1603018D02*
D03*
X1572835D02*
D03*
X2008858Y118106D02*
D03*
X1981299Y90546D02*
D03*
Y118106D02*
D03*
X728661Y669291D02*
D03*
X450787Y314961D02*
D03*
X531496Y748032D02*
D03*
X411418Y354331D02*
D03*
X372048Y393701D02*
D03*
X332678Y433071D02*
D03*
X372048Y433071D02*
D03*
X411418Y433071D02*
D03*
X313991Y365176D02*
D03*
X411418Y393701D02*
D03*
X450788Y433071D02*
D03*
X2728342Y421259D02*
D03*
Y303149D02*
D03*
Y342519D02*
D03*
Y381889D02*
D03*
Y263779D02*
D03*
Y106299D02*
D03*
Y145669D02*
D03*
Y185039D02*
D03*
Y224409D02*
D03*
Y66929D02*
D03*
X2610232Y27559D02*
D03*
X2649602D02*
D03*
X2688972D02*
D03*
X2728342D02*
D03*
X2570862D02*
D03*
X799213D02*
D03*
X838583D02*
D03*
X877953D02*
D03*
X917323D02*
D03*
X956693D02*
D03*
X996063D02*
D03*
X1192913D02*
D03*
X1153543D02*
D03*
X1114173D02*
D03*
X1074803D02*
D03*
X1035433D02*
D03*
X1389762D02*
D03*
X1429132D02*
D03*
X1350393D02*
D03*
X1311023D02*
D03*
X1271653D02*
D03*
X1232283D02*
D03*
X1704722D02*
D03*
X1744092D02*
D03*
X1783462D02*
D03*
X1822832D02*
D03*
X1862202D02*
D03*
X1665352D02*
D03*
X1625982D02*
D03*
X1586612D02*
D03*
X1547242D02*
D03*
X1507872D02*
D03*
X1468502D02*
D03*
X2137792D02*
D03*
X2177162D02*
D03*
X2216532D02*
D03*
X2255902D02*
D03*
X2295272D02*
D03*
X2098422D02*
D03*
X2059052D02*
D03*
X2019682D02*
D03*
X1980312D02*
D03*
X1940942D02*
D03*
X1901572D02*
D03*
X2334642D02*
D03*
X2374012D02*
D03*
X2531492D02*
D03*
X2492122D02*
D03*
X2452752D02*
D03*
X2413382D02*
D03*
X2364485Y759842D02*
D03*
X2403854D02*
D03*
X2443224D02*
D03*
X2482595D02*
D03*
X2325115D02*
D03*
X2285744D02*
D03*
X1852675D02*
D03*
X1892044D02*
D03*
X1931415D02*
D03*
X1970784D02*
D03*
X2010155D02*
D03*
X2049524D02*
D03*
X2246374D02*
D03*
X2207005D02*
D03*
X2167635D02*
D03*
X2128265D02*
D03*
X2088894D02*
D03*
X1419604D02*
D03*
X1458975D02*
D03*
X1498344D02*
D03*
X1537715D02*
D03*
X1577084D02*
D03*
X1616455D02*
D03*
X1813304D02*
D03*
X1773935D02*
D03*
X1734564D02*
D03*
X1695195D02*
D03*
X1655824D02*
D03*
X1183385D02*
D03*
X1222755D02*
D03*
X1262125D02*
D03*
X1301495D02*
D03*
X1340865D02*
D03*
X1380235D02*
D03*
X986535D02*
D03*
X1025905D02*
D03*
X1065275D02*
D03*
X1104645D02*
D03*
X1144015D02*
D03*
X947165D02*
D03*
X907795D02*
D03*
X868425D02*
D03*
X829055D02*
D03*
X789685D02*
D03*
X450787Y629921D02*
D03*
X722441Y118110D02*
D03*
X649606Y317913D02*
D03*
X531496D02*
D03*
X561024D02*
D03*
X590551D02*
D03*
X620079D02*
D03*
X649606Y748032D02*
D03*
X561024D02*
D03*
X590551D02*
D03*
X620079D02*
D03*
X2730905Y568346D02*
D03*
X2680905D02*
D03*
X2580906D02*
D03*
Y636362D02*
D03*
X2630906D02*
D03*
X2680905D02*
D03*
X2730905D02*
D03*
X886370Y576108D02*
D03*
X946370D02*
D03*
X1006370D02*
D03*
X1066370D02*
D03*
X1126370D02*
D03*
X1186370D02*
D03*
X1246370D02*
D03*
X1306370D02*
D03*
X1366370D02*
D03*
X1426370D02*
D03*
X1486370D02*
D03*
X1546370D02*
D03*
X1606370D02*
D03*
X1666370D02*
D03*
X1726370D02*
D03*
X1786370D02*
D03*
X1846370D02*
D03*
X1906370D02*
D03*
X1966370D02*
D03*
X2026370D02*
D03*
X2086370D02*
D03*
X2146370D02*
D03*
X2206370D02*
D03*
X2266370D02*
D03*
X2326370D02*
D03*
X2386370D02*
D03*
X2446370D02*
D03*
X2506370D02*
D03*
X2483554Y628617D02*
D03*
X2423554D02*
D03*
X2363554D02*
D03*
X2303554D02*
D03*
X2243554D02*
D03*
X2183554D02*
D03*
X2123554D02*
D03*
X2063554D02*
D03*
X2003554D02*
D03*
X1943554D02*
D03*
X1883554D02*
D03*
X1823554D02*
D03*
X1763554D02*
D03*
X1703554D02*
D03*
X1643554D02*
D03*
X1583554D02*
D03*
X1523554D02*
D03*
X1463554D02*
D03*
X1403554D02*
D03*
X1343554D02*
D03*
X1283554D02*
D03*
X1223554D02*
D03*
X1163554D02*
D03*
X1103554D02*
D03*
X1043554D02*
D03*
X983554D02*
D03*
X923554D02*
D03*
X863554D02*
D03*
X1057087Y697835D02*
D03*
X1907480Y301181D02*
D03*
X1461614Y301255D02*
D03*
X1506889Y301181D02*
D03*
X1907480Y261811D02*
D03*
X723425Y393701D02*
D03*
Y354331D02*
D03*
X879921Y419291D02*
D03*
X1141732Y428150D02*
D03*
X710945Y759842D02*
D03*
X750315D02*
D03*
X1091535Y361221D02*
D03*
X1128937Y323819D02*
D03*
X766732Y109252D02*
D03*
X805118Y71850D02*
D03*
X875984D02*
D03*
X912402Y109252D02*
D03*
X342250Y340821D02*
D03*
X370089Y312982D02*
D03*
X397927Y285144D02*
D03*
X425766Y257305D02*
D03*
X453605Y229466D02*
D03*
X481444Y201627D02*
D03*
X509283Y173788D02*
D03*
X537122Y145949D02*
D03*
X1091535Y214567D02*
D03*
X1128937Y252953D02*
D03*
X919291Y462599D02*
D03*
X590551Y531489D02*
D03*
X450787Y354331D02*
D03*
X612205Y702756D02*
D03*
X532795Y473740D02*
D03*
X683071Y118110D02*
D03*
X643701D02*
D03*
X604331D02*
D03*
X450787Y393701D02*
D03*
X564961Y118110D02*
D03*
X450787Y669291D02*
D03*
Y748032D02*
D03*
X723425Y433071D02*
D03*
X450787Y708661D02*
D03*
X728661Y629921D02*
D03*
Y708661D02*
D03*
%TF.MD5,5fa2b2b254eca7470d2067ce3cb67af6*%
M02*
