%TF.GenerationSoftware,Altium Limited,Altium Designer,18.1.11 (251)*%
G04 Layer_Physical_Order=3*
G04 Layer_Color=36540*
%FSLAX26Y26*%
%MOIN*%
%TF.FileFunction,Copper,L3,Inr,Signal*%
%TF.Part,Single*%
G01*
G75*
%TA.AperFunction,Conductor*%
%ADD36C,0.007874*%
%ADD39C,0.008000*%
%TA.AperFunction,ComponentPad*%
%ADD42O,0.177165X0.088583*%
%ADD43O,0.088583X0.177165*%
%ADD44O,0.098425X0.196850*%
%TA.AperFunction,ViaPad*%
%ADD45C,0.018000*%
%ADD46C,0.010000*%
G36*
X1366105Y753990D02*
X1369420Y749028D01*
X1374382Y745713D01*
X1380235Y744548D01*
X1386087Y745713D01*
X1389284Y747849D01*
X1395445Y745699D01*
X1397284Y744305D01*
Y642468D01*
X1392740Y639431D01*
X1389425Y634469D01*
X1388260Y628617D01*
X1389425Y622764D01*
X1392740Y617802D01*
X1397284Y614766D01*
Y559055D01*
Y455709D01*
X1398061Y451807D01*
X1400271Y448499D01*
X1403579Y446289D01*
X1407480Y445513D01*
X1866142D01*
Y301255D01*
X1522169D01*
X1521019Y307034D01*
X1517704Y311995D01*
X1512742Y315311D01*
X1506889Y316475D01*
X1501037Y315311D01*
X1496075Y311995D01*
X1492760Y307034D01*
X1491610Y301255D01*
X1484908D01*
X1476908Y301256D01*
X1475744Y307108D01*
X1472428Y312070D01*
X1467467Y315385D01*
X1461614Y316549D01*
X1455761Y315385D01*
X1450800Y312070D01*
X1447484Y307108D01*
X1446320Y301256D01*
X1438320Y301255D01*
X1025590D01*
X1025591Y486954D01*
X873854D01*
X863966Y496841D01*
X859997Y499493D01*
X855315Y500424D01*
X579164D01*
Y511435D01*
X580681Y513059D01*
X587164Y516868D01*
X590551Y516195D01*
X596404Y517359D01*
X601366Y520674D01*
X604681Y525636D01*
X605845Y531489D01*
X604681Y537341D01*
X601366Y542303D01*
X596404Y545618D01*
X590551Y546783D01*
X587164Y546109D01*
X580681Y549918D01*
X579164Y551542D01*
Y652413D01*
X612180Y685428D01*
X612205Y685423D01*
X618838Y686742D01*
X624461Y690500D01*
X628218Y696123D01*
X629538Y702756D01*
X628218Y709389D01*
X624461Y715012D01*
X618838Y718770D01*
X612205Y720089D01*
X605572Y718770D01*
X599948Y715012D01*
X596191Y709389D01*
X594872Y702756D01*
X594877Y702731D01*
X558278Y666132D01*
X555625Y662163D01*
X554694Y657480D01*
Y575787D01*
X513779Y575787D01*
X513779Y757143D01*
X696188D01*
X696815Y753990D01*
X700130Y749028D01*
X705092Y745713D01*
X710945Y744548D01*
X716798Y745713D01*
X721759Y749028D01*
X725075Y753990D01*
X725702Y757143D01*
X735558D01*
X736185Y753990D01*
X739500Y749028D01*
X744462Y745713D01*
X750315Y744548D01*
X756168Y745713D01*
X761129Y749028D01*
X764445Y753990D01*
X765072Y757143D01*
X774928D01*
X775555Y753990D01*
X778870Y749028D01*
X783832Y745713D01*
X789685Y744548D01*
X795538Y745713D01*
X800499Y749028D01*
X803815Y753990D01*
X804442Y757143D01*
X814298D01*
X814925Y753990D01*
X818240Y749028D01*
X823202Y745713D01*
X829055Y744548D01*
X834908Y745713D01*
X839869Y749028D01*
X843185Y753990D01*
X843812Y757143D01*
X853668D01*
X854295Y753990D01*
X857611Y749028D01*
X862572Y745713D01*
X868425Y744548D01*
X874278Y745713D01*
X879239Y749028D01*
X882555Y753990D01*
X883182Y757143D01*
X893038D01*
X893665Y753990D01*
X896981Y749028D01*
X901942Y745713D01*
X907795Y744548D01*
X913648Y745713D01*
X918609Y749028D01*
X921925Y753990D01*
X922552Y757143D01*
X932408D01*
X933035Y753990D01*
X936351Y749028D01*
X941312Y745713D01*
X947165Y744548D01*
X953018Y745713D01*
X957979Y749028D01*
X961295Y753990D01*
X961922Y757143D01*
X971778D01*
X972405Y753990D01*
X975721Y749028D01*
X980682Y745713D01*
X986535Y744548D01*
X992388Y745713D01*
X997349Y749028D01*
X1000665Y753990D01*
X1001292Y757143D01*
X1011148D01*
X1011775Y753990D01*
X1015091Y749028D01*
X1020052Y745713D01*
X1025905Y744548D01*
X1031758Y745713D01*
X1036719Y749028D01*
X1040035Y753990D01*
X1040662Y757143D01*
X1050518D01*
X1051145Y753990D01*
X1054460Y749028D01*
X1059422Y745713D01*
X1065275Y744548D01*
X1071128Y745713D01*
X1076089Y749028D01*
X1079405Y753990D01*
X1080032Y757143D01*
X1089888D01*
X1090515Y753990D01*
X1093831Y749028D01*
X1098792Y745713D01*
X1104645Y744548D01*
X1110498Y745713D01*
X1115459Y749028D01*
X1118775Y753990D01*
X1119402Y757143D01*
X1129258D01*
X1129885Y753990D01*
X1133200Y749028D01*
X1138162Y745713D01*
X1144015Y744548D01*
X1149868Y745713D01*
X1154829Y749028D01*
X1158145Y753990D01*
X1158772Y757143D01*
X1168628D01*
X1169255Y753990D01*
X1172571Y749028D01*
X1177532Y745713D01*
X1183385Y744548D01*
X1189238Y745713D01*
X1194199Y749028D01*
X1197515Y753990D01*
X1198142Y757143D01*
X1207998D01*
X1208625Y753990D01*
X1211940Y749028D01*
X1216902Y745713D01*
X1222755Y744548D01*
X1228608Y745713D01*
X1233569Y749028D01*
X1236885Y753990D01*
X1237512Y757143D01*
X1247368D01*
X1247995Y753990D01*
X1251311Y749028D01*
X1256272Y745713D01*
X1262125Y744548D01*
X1267978Y745713D01*
X1272939Y749028D01*
X1276255Y753990D01*
X1276882Y757143D01*
X1286738D01*
X1287365Y753990D01*
X1290680Y749028D01*
X1295642Y745713D01*
X1301495Y744548D01*
X1307348Y745713D01*
X1312309Y749028D01*
X1315625Y753990D01*
X1316252Y757143D01*
X1326108D01*
X1326735Y753990D01*
X1330051Y749028D01*
X1335012Y745713D01*
X1340865Y744548D01*
X1346718Y745713D01*
X1351679Y749028D01*
X1354995Y753990D01*
X1355622Y757143D01*
X1365477D01*
X1366105Y753990D01*
D02*
G37*
G36*
X612115Y693756D02*
X611469Y693729D01*
X610820Y693633D01*
X610168Y693469D01*
X609513Y693236D01*
X608854Y692936D01*
X608193Y692567D01*
X607528Y692129D01*
X606860Y691624D01*
X606188Y691050D01*
X605514Y690408D01*
X599857Y696065D01*
X600499Y696740D01*
X601073Y697411D01*
X601578Y698079D01*
X602015Y698744D01*
X602384Y699405D01*
X602685Y700064D01*
X602917Y700719D01*
X603082Y701371D01*
X603178Y702020D01*
X603205Y702666D01*
X612115Y693756D01*
D02*
G37*
G36*
X539699Y479603D02*
X540225Y479212D01*
X540803Y478867D01*
X541430Y478568D01*
X542109Y478315D01*
X542837Y478108D01*
X543616Y477947D01*
X544446Y477832D01*
X545327Y477763D01*
X546258Y477740D01*
Y469740D01*
X545327Y469717D01*
X544446Y469648D01*
X543616Y469533D01*
X542837Y469372D01*
X542109Y469165D01*
X541430Y468912D01*
X540803Y468613D01*
X540225Y468268D01*
X539699Y467877D01*
X539222Y467440D01*
Y480040D01*
X539699Y479603D01*
D02*
G37*
G36*
X1986220Y455709D02*
X1407480D01*
Y559055D01*
X1986220D01*
Y455709D01*
D02*
G37*
G36*
X873835Y430979D02*
X874505Y430409D01*
X875175Y429907D01*
X875843Y429472D01*
X876510Y429106D01*
X877176Y428807D01*
X877842Y428576D01*
X878506Y428413D01*
X879169Y428318D01*
X879831Y428291D01*
X870922Y419382D01*
X870894Y420044D01*
X870799Y420707D01*
X870636Y421371D01*
X870406Y422036D01*
X870107Y422703D01*
X869740Y423370D01*
X869306Y424038D01*
X868804Y424707D01*
X868234Y425377D01*
X867596Y426049D01*
X873164Y431616D01*
X873835Y430979D01*
D02*
G37*
G36*
X856019Y489889D02*
X857467Y488921D01*
X866644Y479744D01*
X869952Y477534D01*
X873854Y476758D01*
X901090D01*
X905366Y468758D01*
X905162Y468451D01*
X903997Y462599D01*
X905162Y456746D01*
X908477Y451784D01*
X913439Y448469D01*
X919291Y447305D01*
X925144Y448469D01*
X930106Y451784D01*
X933421Y456746D01*
X934585Y462599D01*
X933421Y468451D01*
X933216Y468758D01*
X937492Y476758D01*
X1015395D01*
X1015394Y301255D01*
X1016171Y297354D01*
X1018381Y294046D01*
X1021689Y291836D01*
X1025590Y291060D01*
X1438320D01*
X1446320Y291060D01*
X1447305Y291255D01*
X1448309D01*
X1449237Y291640D01*
X1449909Y291774D01*
X1450800Y290441D01*
X1455761Y287126D01*
X1461614Y285962D01*
X1467467Y287126D01*
X1472428Y290441D01*
X1473319Y291774D01*
X1473991Y291640D01*
X1474919Y291256D01*
X1475923D01*
X1476908Y291060D01*
X1491610Y291060D01*
X1492595Y291255D01*
X1493600D01*
X1494527Y291640D01*
X1495143Y291762D01*
X1496075Y290367D01*
X1501037Y287051D01*
X1506889Y285887D01*
X1512742Y287051D01*
X1517704Y290367D01*
X1518636Y291762D01*
X1519252Y291640D01*
X1520179Y291255D01*
X1521184D01*
X1522169Y291060D01*
X1866142D01*
Y152912D01*
X1407480D01*
X1403579Y152136D01*
X1400271Y149926D01*
X1398061Y146618D01*
X1397284Y142716D01*
Y49462D01*
X1389762Y42853D01*
X1383909Y41689D01*
X1378948Y38374D01*
X1375632Y33412D01*
X1375005Y30259D01*
X1365150D01*
X1364522Y33412D01*
X1361207Y38374D01*
X1356245Y41689D01*
X1350393Y42853D01*
X1344540Y41689D01*
X1339578Y38374D01*
X1336263Y33412D01*
X1335636Y30259D01*
X1325780D01*
X1325152Y33412D01*
X1321837Y38374D01*
X1316875Y41689D01*
X1311023Y42853D01*
X1305170Y41689D01*
X1300208Y38374D01*
X1296893Y33412D01*
X1296266Y30259D01*
X1286410D01*
X1285782Y33412D01*
X1282467Y38374D01*
X1277505Y41689D01*
X1271653Y42853D01*
X1265800Y41689D01*
X1260838Y38374D01*
X1257523Y33412D01*
X1256896Y30259D01*
X1247040D01*
X1246412Y33412D01*
X1243097Y38374D01*
X1238135Y41689D01*
X1232283Y42853D01*
X1226430Y41689D01*
X1221468Y38374D01*
X1218153Y33412D01*
X1217526Y30259D01*
X1207670D01*
X1207042Y33412D01*
X1203727Y38374D01*
X1198765Y41689D01*
X1192913Y42853D01*
X1187060Y41689D01*
X1182098Y38374D01*
X1178783Y33412D01*
X1178156Y30259D01*
X1168300D01*
X1167672Y33412D01*
X1164357Y38374D01*
X1159395Y41689D01*
X1153543Y42853D01*
X1147690Y41689D01*
X1142728Y38374D01*
X1139413Y33412D01*
X1138786Y30259D01*
X1128930D01*
X1128302Y33412D01*
X1124987Y38374D01*
X1120025Y41689D01*
X1114173Y42853D01*
X1108320Y41689D01*
X1103358Y38374D01*
X1100043Y33412D01*
X1099416Y30259D01*
X1089560D01*
X1088932Y33412D01*
X1085617Y38374D01*
X1080655Y41689D01*
X1074803Y42853D01*
X1068950Y41689D01*
X1063988Y38374D01*
X1060673Y33412D01*
X1060046Y30259D01*
X1050190D01*
X1049562Y33412D01*
X1046247Y38374D01*
X1041285Y41689D01*
X1035433Y42853D01*
X1029580Y41689D01*
X1024618Y38374D01*
X1021303Y33412D01*
X1020676Y30259D01*
X1010820D01*
X1010192Y33412D01*
X1006877Y38374D01*
X1001915Y41689D01*
X996063Y42853D01*
X990210Y41689D01*
X985248Y38374D01*
X981933Y33412D01*
X981306Y30259D01*
X971450D01*
X970822Y33412D01*
X967507Y38374D01*
X962545Y41689D01*
X956693Y42853D01*
X950840Y41689D01*
X945878Y38374D01*
X942563Y33412D01*
X941936Y30259D01*
X932080D01*
X931452Y33412D01*
X928137Y38374D01*
X923175Y41689D01*
X917323Y42853D01*
X911470Y41689D01*
X906508Y38374D01*
X903193Y33412D01*
X902566Y30259D01*
X892710D01*
X892082Y33412D01*
X888767Y38374D01*
X883805Y41689D01*
X877953Y42853D01*
X872100Y41689D01*
X867138Y38374D01*
X863823Y33412D01*
X863196Y30259D01*
X853340D01*
X852712Y33412D01*
X849397Y38374D01*
X844435Y41689D01*
X838583Y42853D01*
X832730Y41689D01*
X827768Y38374D01*
X824453Y33412D01*
X823826Y30259D01*
X813970D01*
X813342Y33412D01*
X810027Y38374D01*
X805065Y41689D01*
X799213Y42853D01*
X793360Y41689D01*
X788398Y38374D01*
X785083Y33412D01*
X784456Y30259D01*
X774600D01*
X773972Y33412D01*
X770657Y38374D01*
X765695Y41689D01*
X759843Y42853D01*
X753990Y41689D01*
X749028Y38374D01*
X745713Y33412D01*
X745086Y30259D01*
X564707D01*
Y102608D01*
X564961Y102816D01*
X570813Y103981D01*
X575775Y107296D01*
X579090Y112258D01*
X580255Y118110D01*
X579090Y123963D01*
X575775Y128925D01*
X570813Y132240D01*
X564961Y133404D01*
X559108Y132240D01*
X554427Y129113D01*
X548124Y135416D01*
X551251Y140096D01*
X552416Y145949D01*
X551251Y151802D01*
X547936Y156764D01*
X542974Y160079D01*
X537122Y161243D01*
X531269Y160079D01*
X526588Y156952D01*
X520285Y163255D01*
X523413Y167935D01*
X524577Y173788D01*
X523413Y179641D01*
X520097Y184602D01*
X515136Y187918D01*
X509842Y188971D01*
Y464107D01*
X517842Y465519D01*
X520539Y461484D01*
X526162Y457727D01*
X532795Y456407D01*
X539428Y457727D01*
X545052Y461484D01*
X545066Y461505D01*
X725561D01*
X725884Y461569D01*
X820431D01*
X862608Y419392D01*
X862588Y419291D01*
X863908Y412658D01*
X867665Y407035D01*
X873288Y403278D01*
X879921Y401959D01*
X886554Y403278D01*
X892178Y407035D01*
X895935Y412658D01*
X897254Y419291D01*
X895935Y425925D01*
X892178Y431548D01*
X886554Y435305D01*
X879921Y436625D01*
X879821Y436604D01*
X834197Y482228D01*
X834207Y482736D01*
X836682Y490228D01*
X854311D01*
X856019Y489889D01*
D02*
G37*
G36*
X2026575Y46550D02*
X2021575Y42477D01*
X2019682Y42853D01*
X2013829Y41689D01*
X2008868Y38374D01*
X2005552Y33412D01*
X2004925Y30259D01*
X1995069D01*
X1994442Y33412D01*
X1991127Y38374D01*
X1986165Y41689D01*
X1980312Y42853D01*
X1974459Y41689D01*
X1969498Y38374D01*
X1966182Y33412D01*
X1965555Y30259D01*
X1955699D01*
X1955072Y33412D01*
X1951756Y38374D01*
X1946795Y41689D01*
X1940942Y42853D01*
X1935089Y41689D01*
X1930128Y38374D01*
X1926812Y33412D01*
X1926185Y30259D01*
X1916329D01*
X1915702Y33412D01*
X1912387Y38374D01*
X1907425Y41689D01*
X1901572Y42853D01*
X1895719Y41689D01*
X1890758Y38374D01*
X1887442Y33412D01*
X1886815Y30259D01*
X1876959D01*
X1876332Y33412D01*
X1873016Y38374D01*
X1868055Y41689D01*
X1862202Y42853D01*
X1856349Y41689D01*
X1851388Y38374D01*
X1848072Y33412D01*
X1847445Y30259D01*
X1837589D01*
X1836962Y33412D01*
X1833647Y38374D01*
X1828685Y41689D01*
X1822832Y42853D01*
X1816979Y41689D01*
X1812018Y38374D01*
X1808702Y33412D01*
X1808075Y30259D01*
X1798219D01*
X1797592Y33412D01*
X1794276Y38374D01*
X1789315Y41689D01*
X1783462Y42853D01*
X1777609Y41689D01*
X1772648Y38374D01*
X1769332Y33412D01*
X1768705Y30259D01*
X1758849D01*
X1758222Y33412D01*
X1754907Y38374D01*
X1749945Y41689D01*
X1744092Y42853D01*
X1738239Y41689D01*
X1733278Y38374D01*
X1729962Y33412D01*
X1729335Y30259D01*
X1719479D01*
X1718852Y33412D01*
X1715536Y38374D01*
X1710575Y41689D01*
X1704722Y42853D01*
X1698869Y41689D01*
X1693908Y38374D01*
X1690592Y33412D01*
X1689965Y30259D01*
X1680109D01*
X1679482Y33412D01*
X1676167Y38374D01*
X1671205Y41689D01*
X1665352Y42853D01*
X1659499Y41689D01*
X1654538Y38374D01*
X1651222Y33412D01*
X1650595Y30259D01*
X1640739D01*
X1640112Y33412D01*
X1636796Y38374D01*
X1631835Y41689D01*
X1625982Y42853D01*
X1620129Y41689D01*
X1615168Y38374D01*
X1611852Y33412D01*
X1611225Y30259D01*
X1601369D01*
X1600742Y33412D01*
X1597427Y38374D01*
X1592465Y41689D01*
X1586612Y42853D01*
X1580759Y41689D01*
X1575798Y38374D01*
X1572482Y33412D01*
X1571855Y30259D01*
X1561999D01*
X1561372Y33412D01*
X1558056Y38374D01*
X1553095Y41689D01*
X1547242Y42853D01*
X1541389Y41689D01*
X1536428Y38374D01*
X1533112Y33412D01*
X1532485Y30259D01*
X1522629D01*
X1522002Y33412D01*
X1518687Y38374D01*
X1513725Y41689D01*
X1507872Y42853D01*
X1502019Y41689D01*
X1497058Y38374D01*
X1493742Y33412D01*
X1493115Y30259D01*
X1483259D01*
X1482632Y33412D01*
X1479316Y38374D01*
X1474355Y41689D01*
X1468502Y42853D01*
X1462649Y41689D01*
X1457688Y38374D01*
X1454372Y33412D01*
X1453745Y30259D01*
X1443889D01*
X1443262Y33412D01*
X1439947Y38374D01*
X1434985Y41689D01*
X1429132Y42853D01*
X1423279Y41689D01*
X1418318Y38374D01*
X1415002Y33412D01*
X1414375Y30259D01*
X1407480D01*
Y142716D01*
X2026575D01*
Y46550D01*
D02*
G37*
%LPC*%
G36*
X728661Y723955D02*
X722809Y722791D01*
X717847Y719476D01*
X714532Y714514D01*
X713367Y708661D01*
X714532Y702809D01*
X717847Y697847D01*
X722809Y694532D01*
X728661Y693367D01*
X734514Y694532D01*
X739476Y697847D01*
X742791Y702809D01*
X743955Y708661D01*
X742791Y714514D01*
X739476Y719476D01*
X734514Y722791D01*
X728661Y723955D01*
D02*
G37*
G36*
Y684585D02*
X722809Y683421D01*
X717847Y680106D01*
X714532Y675144D01*
X713367Y669291D01*
X714532Y663439D01*
X717847Y658477D01*
X722809Y655162D01*
X728661Y653997D01*
X734514Y655162D01*
X739476Y658477D01*
X742791Y663439D01*
X743955Y669291D01*
X742791Y675144D01*
X739476Y680106D01*
X734514Y683421D01*
X728661Y684585D01*
D02*
G37*
G36*
Y645215D02*
X722809Y644051D01*
X717847Y640736D01*
X714532Y635774D01*
X713367Y629921D01*
X714532Y624069D01*
X717847Y619107D01*
X722809Y615792D01*
X728661Y614627D01*
X734514Y615792D01*
X739476Y619107D01*
X742791Y624069D01*
X743955Y629921D01*
X742791Y635774D01*
X739476Y640736D01*
X734514Y644051D01*
X728661Y645215D01*
D02*
G37*
G36*
X1343554Y643910D02*
X1337701Y642746D01*
X1332740Y639431D01*
X1329425Y634469D01*
X1328260Y628617D01*
X1329425Y622764D01*
X1332740Y617802D01*
X1337701Y614487D01*
X1343554Y613323D01*
X1349407Y614487D01*
X1354369Y617802D01*
X1357684Y622764D01*
X1358848Y628617D01*
X1357684Y634469D01*
X1354369Y639431D01*
X1349407Y642746D01*
X1343554Y643910D01*
D02*
G37*
G36*
X1283554D02*
X1277701Y642746D01*
X1272740Y639431D01*
X1269425Y634469D01*
X1268260Y628617D01*
X1269425Y622764D01*
X1272740Y617802D01*
X1277701Y614487D01*
X1283554Y613323D01*
X1289407Y614487D01*
X1294369Y617802D01*
X1297684Y622764D01*
X1298848Y628617D01*
X1297684Y634469D01*
X1294369Y639431D01*
X1289407Y642746D01*
X1283554Y643910D01*
D02*
G37*
G36*
X1223554D02*
X1217701Y642746D01*
X1212740Y639431D01*
X1209425Y634469D01*
X1208260Y628617D01*
X1209425Y622764D01*
X1212740Y617802D01*
X1217701Y614487D01*
X1223554Y613323D01*
X1229407Y614487D01*
X1234369Y617802D01*
X1237684Y622764D01*
X1238848Y628617D01*
X1237684Y634469D01*
X1234369Y639431D01*
X1229407Y642746D01*
X1223554Y643910D01*
D02*
G37*
G36*
X1163554D02*
X1157701Y642746D01*
X1152740Y639431D01*
X1149425Y634469D01*
X1148260Y628617D01*
X1149425Y622764D01*
X1152740Y617802D01*
X1157701Y614487D01*
X1163554Y613323D01*
X1169407Y614487D01*
X1174369Y617802D01*
X1177684Y622764D01*
X1178848Y628617D01*
X1177684Y634469D01*
X1174369Y639431D01*
X1169407Y642746D01*
X1163554Y643910D01*
D02*
G37*
G36*
X1103554D02*
X1097701Y642746D01*
X1092740Y639431D01*
X1089425Y634469D01*
X1088260Y628617D01*
X1089425Y622764D01*
X1092740Y617802D01*
X1097701Y614487D01*
X1103554Y613323D01*
X1109407Y614487D01*
X1114369Y617802D01*
X1117684Y622764D01*
X1118848Y628617D01*
X1117684Y634469D01*
X1114369Y639431D01*
X1109407Y642746D01*
X1103554Y643910D01*
D02*
G37*
G36*
X1043554D02*
X1037701Y642746D01*
X1032740Y639431D01*
X1029425Y634469D01*
X1028260Y628617D01*
X1029425Y622764D01*
X1032740Y617802D01*
X1037701Y614487D01*
X1043554Y613323D01*
X1049407Y614487D01*
X1054369Y617802D01*
X1057684Y622764D01*
X1058848Y628617D01*
X1057684Y634469D01*
X1054369Y639431D01*
X1049407Y642746D01*
X1043554Y643910D01*
D02*
G37*
G36*
X983554D02*
X977702Y642746D01*
X972740Y639431D01*
X969424Y634469D01*
X968260Y628617D01*
X969424Y622764D01*
X972740Y617802D01*
X977702Y614487D01*
X983554Y613323D01*
X989407Y614487D01*
X994369Y617802D01*
X997684Y622764D01*
X998848Y628617D01*
X997684Y634469D01*
X994369Y639431D01*
X989407Y642746D01*
X983554Y643910D01*
D02*
G37*
G36*
X923554D02*
X917702Y642746D01*
X912740Y639431D01*
X909424Y634469D01*
X908260Y628617D01*
X909424Y622764D01*
X912740Y617802D01*
X917702Y614487D01*
X923554Y613323D01*
X929407Y614487D01*
X934369Y617802D01*
X937684Y622764D01*
X938848Y628617D01*
X937684Y634469D01*
X934369Y639431D01*
X929407Y642746D01*
X923554Y643910D01*
D02*
G37*
G36*
X863554D02*
X857702Y642746D01*
X852740Y639431D01*
X849424Y634469D01*
X848260Y628617D01*
X849424Y622764D01*
X852740Y617802D01*
X857702Y614487D01*
X863554Y613323D01*
X869407Y614487D01*
X874369Y617802D01*
X877684Y622764D01*
X878848Y628617D01*
X877684Y634469D01*
X874369Y639431D01*
X869407Y642746D01*
X863554Y643910D01*
D02*
G37*
G36*
X1366370Y591402D02*
X1360517Y590237D01*
X1355555Y586922D01*
X1352240Y581961D01*
X1351076Y576108D01*
X1352240Y570255D01*
X1355555Y565293D01*
X1360517Y561978D01*
X1366370Y560814D01*
X1372222Y561978D01*
X1377184Y565293D01*
X1380499Y570255D01*
X1381664Y576108D01*
X1380499Y581961D01*
X1377184Y586922D01*
X1372222Y590237D01*
X1366370Y591402D01*
D02*
G37*
G36*
X1306370D02*
X1300517Y590237D01*
X1295555Y586922D01*
X1292240Y581961D01*
X1291076Y576108D01*
X1292240Y570255D01*
X1295555Y565293D01*
X1300517Y561978D01*
X1306370Y560814D01*
X1312222Y561978D01*
X1317184Y565293D01*
X1320499Y570255D01*
X1321664Y576108D01*
X1320499Y581961D01*
X1317184Y586922D01*
X1312222Y590237D01*
X1306370Y591402D01*
D02*
G37*
G36*
X1246370D02*
X1240517Y590237D01*
X1235555Y586922D01*
X1232240Y581961D01*
X1231076Y576108D01*
X1232240Y570255D01*
X1235555Y565293D01*
X1240517Y561978D01*
X1246370Y560814D01*
X1252222Y561978D01*
X1257184Y565293D01*
X1260499Y570255D01*
X1261664Y576108D01*
X1260499Y581961D01*
X1257184Y586922D01*
X1252222Y590237D01*
X1246370Y591402D01*
D02*
G37*
G36*
X1186370D02*
X1180517Y590237D01*
X1175555Y586922D01*
X1172240Y581961D01*
X1171076Y576108D01*
X1172240Y570255D01*
X1175555Y565293D01*
X1180517Y561978D01*
X1186370Y560814D01*
X1192222Y561978D01*
X1197184Y565293D01*
X1200499Y570255D01*
X1201664Y576108D01*
X1200499Y581961D01*
X1197184Y586922D01*
X1192222Y590237D01*
X1186370Y591402D01*
D02*
G37*
G36*
X1126370D02*
X1120517Y590237D01*
X1115555Y586922D01*
X1112240Y581961D01*
X1111076Y576108D01*
X1112240Y570255D01*
X1115555Y565293D01*
X1120517Y561978D01*
X1126370Y560814D01*
X1132222Y561978D01*
X1137184Y565293D01*
X1140499Y570255D01*
X1141664Y576108D01*
X1140499Y581961D01*
X1137184Y586922D01*
X1132222Y590237D01*
X1126370Y591402D01*
D02*
G37*
G36*
X1066370D02*
X1060517Y590237D01*
X1055555Y586922D01*
X1052240Y581961D01*
X1051076Y576108D01*
X1052240Y570255D01*
X1055555Y565293D01*
X1060517Y561978D01*
X1066370Y560814D01*
X1072222Y561978D01*
X1077184Y565293D01*
X1080499Y570255D01*
X1081664Y576108D01*
X1080499Y581961D01*
X1077184Y586922D01*
X1072222Y590237D01*
X1066370Y591402D01*
D02*
G37*
G36*
X1006370D02*
X1000517Y590237D01*
X995555Y586922D01*
X992240Y581961D01*
X991076Y576108D01*
X992240Y570255D01*
X995555Y565293D01*
X1000517Y561978D01*
X1006370Y560814D01*
X1012222Y561978D01*
X1017184Y565293D01*
X1020499Y570255D01*
X1021664Y576108D01*
X1020499Y581961D01*
X1017184Y586922D01*
X1012222Y590237D01*
X1006370Y591402D01*
D02*
G37*
G36*
X946370D02*
X940517Y590237D01*
X935555Y586922D01*
X932240Y581961D01*
X931076Y576108D01*
X932240Y570255D01*
X935555Y565293D01*
X940517Y561978D01*
X946370Y560814D01*
X952222Y561978D01*
X957184Y565293D01*
X960499Y570255D01*
X961664Y576108D01*
X960499Y581961D01*
X957184Y586922D01*
X952222Y590237D01*
X946370Y591402D01*
D02*
G37*
G36*
X886370D02*
X880517Y590237D01*
X875555Y586922D01*
X872240Y581961D01*
X871076Y576108D01*
X872240Y570255D01*
X875555Y565293D01*
X880517Y561978D01*
X886370Y560814D01*
X892222Y561978D01*
X897184Y565293D01*
X900499Y570255D01*
X901664Y576108D01*
X900499Y581961D01*
X897184Y586922D01*
X892222Y590237D01*
X886370Y591402D01*
D02*
G37*
G36*
X1141732Y443444D02*
X1135880Y442279D01*
X1130918Y438964D01*
X1127603Y434002D01*
X1126438Y428150D01*
X1127603Y422297D01*
X1130918Y417335D01*
X1135880Y414020D01*
X1141732Y412856D01*
X1147585Y414020D01*
X1152547Y417335D01*
X1155862Y422297D01*
X1157026Y428150D01*
X1155862Y434002D01*
X1152547Y438964D01*
X1147585Y442279D01*
X1141732Y443444D01*
D02*
G37*
G36*
X1777559Y393247D02*
X1771706Y392082D01*
X1766745Y388767D01*
X1763429Y383805D01*
X1762265Y377953D01*
X1763429Y372100D01*
X1766745Y367138D01*
X1771706Y363823D01*
X1777559Y362659D01*
X1783412Y363823D01*
X1788373Y367138D01*
X1791689Y372100D01*
X1792853Y377953D01*
X1791689Y383805D01*
X1788373Y388767D01*
X1783412Y392082D01*
X1777559Y393247D01*
D02*
G37*
G36*
X1726378D02*
X1720525Y392082D01*
X1715563Y388767D01*
X1712248Y383805D01*
X1711084Y377953D01*
X1712248Y372100D01*
X1715563Y367138D01*
X1720525Y363823D01*
X1726378Y362659D01*
X1732231Y363823D01*
X1737192Y367138D01*
X1740508Y372100D01*
X1741672Y377953D01*
X1740508Y383805D01*
X1737192Y388767D01*
X1732231Y392082D01*
X1726378Y393247D01*
D02*
G37*
G36*
X723425Y448365D02*
X717572Y447201D01*
X712611Y443885D01*
X709295Y438924D01*
X708131Y433071D01*
X709295Y427218D01*
X712611Y422257D01*
X717572Y418941D01*
X723425Y417777D01*
X729278Y418941D01*
X734240Y422257D01*
X737555Y427218D01*
X738719Y433071D01*
X737555Y438924D01*
X734240Y443885D01*
X729278Y447201D01*
X723425Y448365D01*
D02*
G37*
G36*
Y408995D02*
X717572Y407831D01*
X712611Y404515D01*
X709295Y399554D01*
X708131Y393701D01*
X709295Y387848D01*
X712611Y382887D01*
X717572Y379571D01*
X723425Y378407D01*
X729278Y379571D01*
X734240Y382887D01*
X737555Y387848D01*
X738719Y393701D01*
X737555Y399554D01*
X734240Y404515D01*
X729278Y407831D01*
X723425Y408995D01*
D02*
G37*
G36*
Y369625D02*
X717572Y368461D01*
X712611Y365145D01*
X709295Y360183D01*
X708131Y354331D01*
X709295Y348478D01*
X712611Y343516D01*
X717572Y340201D01*
X723425Y339037D01*
X729278Y340201D01*
X734240Y343516D01*
X737555Y348478D01*
X738719Y354331D01*
X737555Y360183D01*
X734240Y365145D01*
X729278Y368461D01*
X723425Y369625D01*
D02*
G37*
G36*
X1128937Y268247D02*
X1123084Y267082D01*
X1118123Y263767D01*
X1114807Y258805D01*
X1113643Y252953D01*
X1114807Y247100D01*
X1118123Y242138D01*
X1123084Y238823D01*
X1128937Y237659D01*
X1134790Y238823D01*
X1139751Y242138D01*
X1143067Y247100D01*
X1144231Y252953D01*
X1143067Y258805D01*
X1139751Y263767D01*
X1134790Y267082D01*
X1128937Y268247D01*
D02*
G37*
G36*
X1777559Y239703D02*
X1771706Y238539D01*
X1766745Y235224D01*
X1763429Y230262D01*
X1762265Y224409D01*
X1763429Y218556D01*
X1766745Y213595D01*
X1771706Y210280D01*
X1777559Y209115D01*
X1783412Y210280D01*
X1788373Y213595D01*
X1791689Y218556D01*
X1792853Y224409D01*
X1791689Y230262D01*
X1788373Y235224D01*
X1783412Y238539D01*
X1777559Y239703D01*
D02*
G37*
G36*
X1726378D02*
X1720525Y238539D01*
X1715563Y235224D01*
X1712248Y230262D01*
X1711084Y224409D01*
X1712248Y218556D01*
X1715563Y213595D01*
X1720525Y210280D01*
X1726378Y209115D01*
X1732231Y210280D01*
X1737192Y213595D01*
X1740508Y218556D01*
X1741672Y224409D01*
X1740508Y230262D01*
X1737192Y235224D01*
X1732231Y238539D01*
X1726378Y239703D01*
D02*
G37*
G36*
X1091535Y229861D02*
X1085683Y228697D01*
X1080721Y225381D01*
X1077406Y220420D01*
X1076242Y214567D01*
X1077406Y208714D01*
X1080721Y203753D01*
X1085683Y200437D01*
X1091535Y199273D01*
X1097388Y200437D01*
X1102350Y203753D01*
X1105665Y208714D01*
X1106829Y214567D01*
X1105665Y220420D01*
X1102350Y225381D01*
X1097388Y228697D01*
X1091535Y229861D01*
D02*
G37*
G36*
X722441Y133404D02*
X716588Y132240D01*
X711627Y128925D01*
X708311Y123963D01*
X707147Y118110D01*
X708311Y112258D01*
X711627Y107296D01*
X716588Y103981D01*
X722441Y102816D01*
X728294Y103981D01*
X733255Y107296D01*
X736571Y112258D01*
X737735Y118110D01*
X736571Y123963D01*
X733255Y128925D01*
X728294Y132240D01*
X722441Y133404D01*
D02*
G37*
G36*
X683071D02*
X677218Y132240D01*
X672256Y128925D01*
X668941Y123963D01*
X667777Y118110D01*
X668941Y112258D01*
X672256Y107296D01*
X677218Y103981D01*
X683071Y102816D01*
X688924Y103981D01*
X693885Y107296D01*
X697201Y112258D01*
X698365Y118110D01*
X697201Y123963D01*
X693885Y128925D01*
X688924Y132240D01*
X683071Y133404D01*
D02*
G37*
G36*
X643701D02*
X637848Y132240D01*
X632886Y128925D01*
X629571Y123963D01*
X628407Y118110D01*
X629571Y112258D01*
X632886Y107296D01*
X637848Y103981D01*
X643701Y102816D01*
X649553Y103981D01*
X654515Y107296D01*
X657831Y112258D01*
X658995Y118110D01*
X657831Y123963D01*
X654515Y128925D01*
X649553Y132240D01*
X643701Y133404D01*
D02*
G37*
G36*
X604331D02*
X598478Y132240D01*
X593516Y128925D01*
X590201Y123963D01*
X589037Y118110D01*
X590201Y112258D01*
X593516Y107296D01*
X598478Y103981D01*
X604331Y102816D01*
X610183Y103981D01*
X615145Y107296D01*
X618461Y112258D01*
X619625Y118110D01*
X618461Y123963D01*
X615145Y128925D01*
X610183Y132240D01*
X604331Y133404D01*
D02*
G37*
G36*
X912402Y124546D02*
X906549Y123382D01*
X901587Y120067D01*
X898272Y115105D01*
X897108Y109252D01*
X898272Y103399D01*
X901587Y98438D01*
X906549Y95122D01*
X912402Y93958D01*
X918254Y95122D01*
X923216Y98438D01*
X926531Y103399D01*
X927695Y109252D01*
X926531Y115105D01*
X923216Y120067D01*
X918254Y123382D01*
X912402Y124546D01*
D02*
G37*
G36*
X875984Y87144D02*
X870131Y85980D01*
X865170Y82665D01*
X861855Y77703D01*
X860690Y71850D01*
X861855Y65998D01*
X865170Y61036D01*
X870131Y57721D01*
X875984Y56557D01*
X881837Y57721D01*
X886799Y61036D01*
X890114Y65998D01*
X891278Y71850D01*
X890114Y77703D01*
X886799Y82665D01*
X881837Y85980D01*
X875984Y87144D01*
D02*
G37*
%LPD*%
D36*
X825473Y473740D02*
X879921Y419291D01*
X725561Y473740D02*
X825473D01*
D39*
X566929Y657480D02*
X612205Y702756D01*
X566929Y488189D02*
Y657480D01*
Y488189D02*
X855315D01*
X889764Y453740D01*
X532795Y473740D02*
X725561D01*
D42*
X2314961Y381890D02*
D03*
D43*
X2433071Y196851D02*
D03*
D44*
X2196850D02*
D03*
D45*
X879921Y419291D02*
D03*
X612205Y702756D02*
D03*
X532795Y473740D02*
D03*
D46*
X759843Y27559D02*
D03*
X2630906Y568346D02*
D03*
X1777559Y224409D02*
D03*
X1726378D02*
D03*
X1777559Y377953D02*
D03*
X1726378D02*
D03*
X1448819Y469488D02*
D03*
X1448819Y497047D02*
D03*
X1421265Y469488D02*
D03*
X1421260Y497047D02*
D03*
X1421264Y104331D02*
D03*
X1448819D02*
D03*
X1421264Y131890D02*
D03*
X1448819D02*
D03*
X2008858Y90551D02*
D03*
X1951772Y530512D02*
D03*
X1925197D02*
D03*
X1951772Y502953D02*
D03*
X1924213D02*
D03*
X1663386Y200787D02*
D03*
X1633202D02*
D03*
X1603018D02*
D03*
X1572835D02*
D03*
X1663386Y397638D02*
D03*
X1633202D02*
D03*
X1603018D02*
D03*
X1572835D02*
D03*
X2008858Y118106D02*
D03*
X1981299Y90546D02*
D03*
Y118106D02*
D03*
X728661Y669291D02*
D03*
X450787Y314961D02*
D03*
X531496Y748032D02*
D03*
X411418Y354331D02*
D03*
X372048Y393701D02*
D03*
X332678Y433071D02*
D03*
X372048Y433071D02*
D03*
X411418Y433071D02*
D03*
X313991Y365176D02*
D03*
X411418Y393701D02*
D03*
X450788Y433071D02*
D03*
X2728342Y421259D02*
D03*
Y303149D02*
D03*
Y342519D02*
D03*
Y381889D02*
D03*
Y263779D02*
D03*
Y106299D02*
D03*
Y145669D02*
D03*
Y185039D02*
D03*
Y224409D02*
D03*
Y66929D02*
D03*
X2610232Y27559D02*
D03*
X2649602D02*
D03*
X2688972D02*
D03*
X2728342D02*
D03*
X2570862D02*
D03*
X799213D02*
D03*
X838583D02*
D03*
X877953D02*
D03*
X917323D02*
D03*
X956693D02*
D03*
X996063D02*
D03*
X1192913D02*
D03*
X1153543D02*
D03*
X1114173D02*
D03*
X1074803D02*
D03*
X1035433D02*
D03*
X1389762D02*
D03*
X1429132D02*
D03*
X1350393D02*
D03*
X1311023D02*
D03*
X1271653D02*
D03*
X1232283D02*
D03*
X1704722D02*
D03*
X1744092D02*
D03*
X1783462D02*
D03*
X1822832D02*
D03*
X1862202D02*
D03*
X1665352D02*
D03*
X1625982D02*
D03*
X1586612D02*
D03*
X1547242D02*
D03*
X1507872D02*
D03*
X1468502D02*
D03*
X2137792D02*
D03*
X2177162D02*
D03*
X2216532D02*
D03*
X2255902D02*
D03*
X2295272D02*
D03*
X2098422D02*
D03*
X2059052D02*
D03*
X2019682D02*
D03*
X1980312D02*
D03*
X1940942D02*
D03*
X1901572D02*
D03*
X2334642D02*
D03*
X2374012D02*
D03*
X2531492D02*
D03*
X2492122D02*
D03*
X2452752D02*
D03*
X2413382D02*
D03*
X2364485Y759842D02*
D03*
X2403854D02*
D03*
X2443224D02*
D03*
X2482595D02*
D03*
X2325115D02*
D03*
X2285744D02*
D03*
X1852675D02*
D03*
X1892044D02*
D03*
X1931415D02*
D03*
X1970784D02*
D03*
X2010155D02*
D03*
X2049524D02*
D03*
X2246374D02*
D03*
X2207005D02*
D03*
X2167635D02*
D03*
X2128265D02*
D03*
X2088894D02*
D03*
X1419604D02*
D03*
X1458975D02*
D03*
X1498344D02*
D03*
X1537715D02*
D03*
X1577084D02*
D03*
X1616455D02*
D03*
X1813304D02*
D03*
X1773935D02*
D03*
X1734564D02*
D03*
X1695195D02*
D03*
X1655824D02*
D03*
X1183385D02*
D03*
X1222755D02*
D03*
X1262125D02*
D03*
X1301495D02*
D03*
X1340865D02*
D03*
X1380235D02*
D03*
X986535D02*
D03*
X1025905D02*
D03*
X1065275D02*
D03*
X1104645D02*
D03*
X1144015D02*
D03*
X947165D02*
D03*
X907795D02*
D03*
X868425D02*
D03*
X829055D02*
D03*
X789685D02*
D03*
X450787Y629921D02*
D03*
X722441Y118110D02*
D03*
X649606Y317913D02*
D03*
X531496D02*
D03*
X561024D02*
D03*
X590551D02*
D03*
X620079D02*
D03*
X649606Y748032D02*
D03*
X561024D02*
D03*
X590551D02*
D03*
X620079D02*
D03*
X2730905Y568346D02*
D03*
X2680905D02*
D03*
X2580906D02*
D03*
Y636362D02*
D03*
X2630906D02*
D03*
X2680905D02*
D03*
X2730905D02*
D03*
X886370Y576108D02*
D03*
X946370D02*
D03*
X1006370D02*
D03*
X1066370D02*
D03*
X1126370D02*
D03*
X1186370D02*
D03*
X1246370D02*
D03*
X1306370D02*
D03*
X1366370D02*
D03*
X1426370D02*
D03*
X1486370D02*
D03*
X1546370D02*
D03*
X1606370D02*
D03*
X1666370D02*
D03*
X1726370D02*
D03*
X1786370D02*
D03*
X1846370D02*
D03*
X1906370D02*
D03*
X1966370D02*
D03*
X2026370D02*
D03*
X2086370D02*
D03*
X2146370D02*
D03*
X2206370D02*
D03*
X2266370D02*
D03*
X2326370D02*
D03*
X2386370D02*
D03*
X2446370D02*
D03*
X2506370D02*
D03*
X2483554Y628617D02*
D03*
X2423554D02*
D03*
X2363554D02*
D03*
X2303554D02*
D03*
X2243554D02*
D03*
X2183554D02*
D03*
X2123554D02*
D03*
X2063554D02*
D03*
X2003554D02*
D03*
X1943554D02*
D03*
X1883554D02*
D03*
X1823554D02*
D03*
X1763554D02*
D03*
X1703554D02*
D03*
X1643554D02*
D03*
X1583554D02*
D03*
X1523554D02*
D03*
X1463554D02*
D03*
X1403554D02*
D03*
X1343554D02*
D03*
X1283554D02*
D03*
X1223554D02*
D03*
X1163554D02*
D03*
X1103554D02*
D03*
X1043554D02*
D03*
X983554D02*
D03*
X923554D02*
D03*
X863554D02*
D03*
X1057087Y697835D02*
D03*
X1907480Y301181D02*
D03*
X1461614Y301255D02*
D03*
X1506889Y301181D02*
D03*
X1907480Y261811D02*
D03*
X723425Y393701D02*
D03*
Y354331D02*
D03*
X1141732Y428150D02*
D03*
X710945Y759842D02*
D03*
X750315D02*
D03*
X1091535Y361221D02*
D03*
X1128937Y323819D02*
D03*
X766732Y109252D02*
D03*
X805118Y71850D02*
D03*
X875984D02*
D03*
X912402Y109252D02*
D03*
X342250Y340821D02*
D03*
X370089Y312982D02*
D03*
X397927Y285144D02*
D03*
X425766Y257305D02*
D03*
X453605Y229466D02*
D03*
X481444Y201627D02*
D03*
X509283Y173788D02*
D03*
X537122Y145949D02*
D03*
X1091535Y214567D02*
D03*
X1128937Y252953D02*
D03*
X919291Y462599D02*
D03*
X590551Y531489D02*
D03*
X450787Y354331D02*
D03*
X683071Y118110D02*
D03*
X643701D02*
D03*
X604331D02*
D03*
X450787Y393701D02*
D03*
X564961Y118110D02*
D03*
X450787Y669291D02*
D03*
Y748032D02*
D03*
X723425Y433071D02*
D03*
X450787Y708661D02*
D03*
X728661Y629921D02*
D03*
Y708661D02*
D03*
%TF.MD5,fe846c58a1b33fa4ffea117f905b2b21*%
M02*
