%TF.GenerationSoftware,Altium Limited,Altium Designer,18.1.11 (251)*%
G04 Layer_Color=65535*
%FSLAX26Y26*%
%MOIN*%
%TF.FileFunction,Legend,Top*%
%TF.Part,Single*%
G01*
G75*
%TA.AperFunction,NonConductor*%
%ADD40C,0.007874*%
%ADD47C,0.008000*%
%ADD51C,0.006000*%
%ADD52C,0.005000*%
D40*
X1472441Y205709D02*
X1476378D01*
X1472441Y152559D02*
X1476378D01*
X1472441Y396654D02*
X1476378D01*
X1472441Y449803D02*
X1476378D01*
X1897638Y483268D02*
X1901575D01*
X1897638Y430118D02*
X1901575D01*
X1897638Y132874D02*
X1901575D01*
X1897638Y79724D02*
X1901575D01*
X2076772Y279528D02*
Y283465D01*
X2023622Y279528D02*
Y283465D01*
X2054134Y491142D02*
Y525591D01*
X2085630Y525591D01*
X2054134Y403543D02*
Y437992D01*
Y403543D02*
X2085630Y403543D01*
X1419291Y366142D02*
X1419291Y358268D01*
X1419291Y366142D02*
X1444882D01*
X1549213Y358268D02*
Y366142D01*
X1541339Y366142D02*
X1549213Y366142D01*
X1541339Y236220D02*
X1549213D01*
Y244095D01*
X1419291Y236220D02*
X1427165D01*
X1419291Y244095D02*
X1419291Y236220D01*
X1073819Y286417D02*
Y290354D01*
X1109252Y286417D02*
X1109252Y290354D01*
X838582Y126969D02*
X842520D01*
X838582Y91536D02*
X842520Y91536D01*
D47*
X863189Y160350D02*
X941929D01*
X863189Y357367D02*
X941929D01*
D51*
X1811417Y57087D02*
Y214567D01*
X1795669D02*
X1811417D01*
X1795669Y57087D02*
X1811417D01*
X1562598Y387795D02*
Y545276D01*
Y387795D02*
X1578347D01*
X1562598Y545276D02*
X1578347D01*
X860236Y713583D02*
X860236Y682087D01*
X864173Y682087D01*
X860236Y713583D02*
X864173D01*
X1993980Y215496D02*
Y347496D01*
X1820980Y215496D02*
Y347496D01*
X524551Y597489D02*
X542916D01*
X524551Y465489D02*
X542916D01*
X656551D02*
Y483854D01*
X638186Y597489D02*
X656551D01*
X524551Y579124D02*
Y597489D01*
Y465489D02*
Y483854D01*
X638186Y465489D02*
X656551D01*
Y579124D02*
Y597489D01*
D52*
X2169291Y297244D02*
Y374016D01*
X2415354D02*
X2736220D01*
X2169291Y19685D02*
Y92520D01*
Y374016D02*
X2214567D01*
X2169291Y19685D02*
X2736220D01*
Y374016D01*
%TF.MD5,81bee2554f4d3769287bf16f69b9b80c*%
M02*
