%TF.GenerationSoftware,Altium Limited,Altium Designer,18.1.11 (251)*%
G04 Layer_Physical_Order=4*
G04 Layer_Color=16711680*
%FSLAX26Y26*%
%MOIN*%
%TF.FileFunction,Copper,L4,Bot,Signal*%
%TF.Part,Single*%
G01*
G75*
%TA.AperFunction,Conductor*%
%ADD37C,0.008000*%
%TA.AperFunction,ComponentPad*%
%ADD43O,0.177165X0.088583*%
%ADD44O,0.088583X0.177165*%
%ADD45O,0.098425X0.196850*%
%TA.AperFunction,ViaPad*%
%ADD46C,0.018000*%
G36*
X2976833Y15293D02*
X539900Y15294D01*
Y113189D01*
X538735Y119041D01*
X535420Y124003D01*
X292323Y367101D01*
Y418157D01*
X293672Y419282D01*
X302323Y422587D01*
X305674Y420348D01*
X312697Y418950D01*
X319720Y420348D01*
X325674Y424326D01*
X329652Y430280D01*
X331050Y437303D01*
X339738Y444882D01*
X495394D01*
Y486954D01*
X568972Y486953D01*
X570759Y485551D01*
X576105Y476953D01*
X575466Y473740D01*
X576863Y466717D01*
X580842Y460763D01*
X586796Y456784D01*
X593819Y455387D01*
X600842Y456784D01*
X606796Y460763D01*
X610774Y466717D01*
X612171Y473740D01*
X611532Y476953D01*
X612960Y479250D01*
X618504Y486953D01*
X618504Y486953D01*
X618504Y486954D01*
Y576023D01*
X495394Y576024D01*
Y654528D01*
X317777D01*
X315737Y656444D01*
X310997Y664528D01*
X311553Y667323D01*
Y772108D01*
X578154D01*
X581188Y762108D01*
X579543Y761009D01*
X575564Y755055D01*
X574167Y748031D01*
X575564Y741008D01*
X579543Y735054D01*
X585496Y731076D01*
X592520Y729679D01*
X599543Y731076D01*
X599653Y731149D01*
X607284Y734313D01*
X614914Y731149D01*
X615024Y731076D01*
X622047Y729679D01*
X629071Y731076D01*
X629180Y731149D01*
X636811Y734313D01*
X644442Y731149D01*
X644552Y731076D01*
X651575Y729679D01*
X658598Y731076D01*
X658708Y731149D01*
X666206Y734258D01*
X673332Y730508D01*
X671463Y720757D01*
X666205Y719712D01*
X660251Y715733D01*
X656273Y709779D01*
X654876Y702756D01*
X656273Y695733D01*
X660251Y689779D01*
X666205Y685800D01*
X673228Y684403D01*
X676741Y675228D01*
Y339567D01*
X677539Y335557D01*
X674079Y334869D01*
X668125Y330891D01*
X664552D01*
X658598Y334869D01*
X651575Y336266D01*
X644552Y334869D01*
X638598Y330891D01*
X635024D01*
X629071Y334869D01*
X622047Y336266D01*
X615024Y334869D01*
X609070Y330891D01*
X605497D01*
X599543Y334869D01*
X592520Y336266D01*
X585496Y334869D01*
X579543Y330891D01*
X575564Y324937D01*
X574167Y317913D01*
X575564Y310890D01*
X579543Y304936D01*
X585496Y300958D01*
X592520Y299561D01*
X599543Y300958D01*
X605497Y304936D01*
X609070D01*
X615024Y300958D01*
X622047Y299561D01*
X629071Y300958D01*
X635024Y304936D01*
X638598D01*
X644552Y300958D01*
X651575Y299561D01*
X658598Y300958D01*
X664552Y304936D01*
X668125D01*
X674079Y300958D01*
X681102Y299561D01*
X688126Y300958D01*
X694080Y304936D01*
X697653D01*
X703607Y300958D01*
X710630Y299561D01*
X717653Y300958D01*
X723607Y304936D01*
X727586Y310890D01*
X728983Y317913D01*
X727586Y324937D01*
X723607Y330891D01*
X717653Y334869D01*
X710630Y336266D01*
X709755Y336092D01*
X701212Y344635D01*
Y687008D01*
X700280Y691690D01*
X697628Y695659D01*
X691407Y701880D01*
X691581Y702756D01*
X690184Y709779D01*
X686206Y715733D01*
X680252Y719712D01*
X679531Y720572D01*
X681869Y729831D01*
X688126Y731076D01*
X688235Y731149D01*
X695866Y734313D01*
X703497Y731149D01*
X703607Y731076D01*
X710630Y729679D01*
X717653Y731076D01*
X723607Y735054D01*
X727586Y741008D01*
X728983Y748031D01*
X727586Y755055D01*
X723607Y761009D01*
X721962Y762108D01*
X724995Y772108D01*
X2976833Y772108D01*
Y15293D01*
D02*
G37*
G36*
X682255Y702020D02*
X682351Y701371D01*
X682516Y700719D01*
X682748Y700064D01*
X683049Y699405D01*
X683418Y698744D01*
X683855Y698079D01*
X684360Y697411D01*
X684934Y696740D01*
X685576Y696065D01*
X679919Y690408D01*
X679245Y691050D01*
X678573Y691624D01*
X677905Y692129D01*
X677240Y692567D01*
X676579Y692935D01*
X675920Y693236D01*
X675265Y693468D01*
X674613Y693633D01*
X673964Y693729D01*
X673318Y693756D01*
X682228Y702666D01*
X682255Y702020D01*
D02*
G37*
G36*
X704614Y329619D02*
X705285Y329045D01*
X705953Y328540D01*
X706618Y328103D01*
X707280Y327734D01*
X707938Y327433D01*
X708593Y327201D01*
X709245Y327037D01*
X709894Y326941D01*
X710540Y326913D01*
X701631Y318003D01*
X701603Y318649D01*
X701507Y319298D01*
X701343Y319950D01*
X701110Y320605D01*
X700810Y321264D01*
X700441Y321925D01*
X700004Y322590D01*
X699498Y323259D01*
X698924Y323930D01*
X698282Y324604D01*
X703939Y330261D01*
X704614Y329619D01*
D02*
G37*
%LPC*%
G36*
X1118110Y735872D02*
X1111087Y734475D01*
X1105133Y730497D01*
X1101155Y724543D01*
X1099758Y717520D01*
X1101155Y710496D01*
X1105133Y704543D01*
X1111087Y700564D01*
X1118110Y699167D01*
X1125133Y700564D01*
X1131087Y704543D01*
X1135066Y710496D01*
X1136463Y717520D01*
X1135066Y724543D01*
X1131087Y730497D01*
X1125133Y734475D01*
X1118110Y735872D01*
D02*
G37*
G36*
X2139764Y533116D02*
X2132741Y531719D01*
X2126787Y527741D01*
X2122808Y521787D01*
X2121411Y514764D01*
X2122808Y507741D01*
X2126787Y501787D01*
X2132741Y497808D01*
X2139764Y496411D01*
X2146787Y497808D01*
X2152741Y501787D01*
X2156719Y507741D01*
X2158116Y514764D01*
X2156719Y521787D01*
X2152741Y527741D01*
X2146787Y531719D01*
X2139764Y533116D01*
D02*
G37*
G36*
X1719488Y445518D02*
X1712465Y444121D01*
X1706511Y440142D01*
X1702532Y434188D01*
X1701135Y427165D01*
X1702532Y420142D01*
X1706511Y414188D01*
X1712465Y410210D01*
X1719488Y408813D01*
X1726511Y410210D01*
X1732465Y414188D01*
X1736444Y420142D01*
X1737841Y427165D01*
X1736444Y434188D01*
X1732465Y440142D01*
X1726511Y444121D01*
X1719488Y445518D01*
D02*
G37*
G36*
X940945Y437644D02*
X933922Y436247D01*
X927968Y432269D01*
X923989Y426315D01*
X922592Y419291D01*
X923989Y412268D01*
X927968Y406314D01*
X933922Y402336D01*
X940945Y400939D01*
X947968Y402336D01*
X953922Y406314D01*
X957900Y412268D01*
X959298Y419291D01*
X957900Y426315D01*
X953922Y432269D01*
X947968Y436247D01*
X940945Y437644D01*
D02*
G37*
G36*
X2595472Y436650D02*
X2556182D01*
Y386890D01*
X2649574D01*
X2648366Y396063D01*
X2642896Y409270D01*
X2634193Y420611D01*
X2622852Y429313D01*
X2609645Y434784D01*
X2595472Y436650D01*
D02*
G37*
G36*
X2546182D02*
X2506890D01*
X2492717Y434784D01*
X2479510Y429313D01*
X2468169Y420611D01*
X2459466Y409270D01*
X2453996Y396063D01*
X2452788Y386890D01*
X2546182D01*
Y436650D01*
D02*
G37*
G36*
X1987205Y396305D02*
X1980182Y394908D01*
X1974228Y390930D01*
X1970866Y385899D01*
X1965551Y385409D01*
X1960237Y385899D01*
X1956875Y390930D01*
X1950921Y394908D01*
X1943898Y396305D01*
X1936874Y394908D01*
X1930920Y390930D01*
X1926942Y384976D01*
X1925545Y377953D01*
X1926942Y370930D01*
X1930920Y364976D01*
X1930920Y356481D01*
X1926942Y350527D01*
X1925545Y343504D01*
X1926942Y336481D01*
X1930920Y330527D01*
X1936874Y326548D01*
X1943898Y325151D01*
X1950921Y326548D01*
X1956875Y330527D01*
X1960237Y335558D01*
X1965551Y336048D01*
X1970866Y335558D01*
X1974228Y330527D01*
X1980182Y326548D01*
X1987205Y325151D01*
X1994228Y326548D01*
X2000182Y330527D01*
X2004160Y336481D01*
X2005557Y343504D01*
X2004160Y350527D01*
X2000182Y356481D01*
X2000182Y364976D01*
X2004160Y370930D01*
X2005557Y377953D01*
X2004160Y384976D01*
X2000182Y390930D01*
X1994228Y394908D01*
X1987205Y396305D01*
D02*
G37*
G36*
X1378937Y374258D02*
X1371914Y372861D01*
X1365960Y368883D01*
X1362387D01*
X1356433Y372861D01*
X1349410Y374258D01*
X1342386Y372861D01*
X1336432Y368883D01*
X1332859D01*
X1326905Y372861D01*
X1319882Y374258D01*
X1312859Y372861D01*
X1306905Y368883D01*
X1303332D01*
X1297378Y372861D01*
X1290354Y374258D01*
X1283331Y372861D01*
X1277377Y368883D01*
X1273399Y362929D01*
X1272002Y355906D01*
X1273399Y348882D01*
X1277377Y342928D01*
X1283331Y338950D01*
X1290354Y337553D01*
X1297378Y338950D01*
X1303332Y342928D01*
X1306905D01*
X1312859Y338950D01*
X1319882Y337553D01*
X1326905Y338950D01*
X1332859Y342928D01*
X1336432D01*
X1342386Y338950D01*
X1349410Y337553D01*
X1356433Y338950D01*
X1362387Y342928D01*
X1365960D01*
X1371914Y338950D01*
X1378937Y337553D01*
X1385960Y338950D01*
X1391914Y342928D01*
X1395893Y348882D01*
X1397290Y355906D01*
X1395893Y362929D01*
X1391914Y368883D01*
X1385960Y372861D01*
X1378937Y374258D01*
D02*
G37*
G36*
X1152559Y379573D02*
X1145536Y378176D01*
X1139582Y374198D01*
X1135603Y368244D01*
X1134207Y361221D01*
X1135603Y354197D01*
X1139582Y348243D01*
X1145536Y344265D01*
X1152559Y342868D01*
X1159582Y344265D01*
X1165536Y348243D01*
X1169515Y354197D01*
X1170912Y361221D01*
X1169515Y368244D01*
X1165536Y374198D01*
X1159582Y378176D01*
X1152559Y379573D01*
D02*
G37*
G36*
X2649574Y376890D02*
X2556182D01*
Y327130D01*
X2595472D01*
X2609645Y328996D01*
X2622852Y334466D01*
X2634193Y343169D01*
X2642896Y354510D01*
X2648366Y367717D01*
X2649574Y376890D01*
D02*
G37*
G36*
X2546182D02*
X2452788D01*
X2453996Y367717D01*
X2459466Y354510D01*
X2468169Y343169D01*
X2479510Y334466D01*
X2492717Y328996D01*
X2506890Y327130D01*
X2546182D01*
Y376890D01*
D02*
G37*
G36*
X1189961Y342171D02*
X1182937Y340774D01*
X1176983Y336796D01*
X1173005Y330842D01*
X1171608Y323819D01*
X1173005Y316796D01*
X1176983Y310842D01*
X1182937Y306863D01*
X1189961Y305466D01*
X1196984Y306863D01*
X1202938Y310842D01*
X1206916Y316796D01*
X1208313Y323819D01*
X1206916Y330842D01*
X1202938Y336796D01*
X1196984Y340774D01*
X1189961Y342171D01*
D02*
G37*
G36*
X1599409Y262841D02*
X1592386Y261444D01*
X1586432Y257465D01*
X1582859D01*
X1576905Y261444D01*
X1569882Y262841D01*
X1562859Y261444D01*
X1556905Y257465D01*
X1553331D01*
X1547377Y261444D01*
X1540354Y262841D01*
X1533331Y261444D01*
X1527377Y257465D01*
X1523804D01*
X1517850Y261444D01*
X1510827Y262841D01*
X1503803Y261444D01*
X1497849Y257465D01*
X1493871Y251511D01*
X1492474Y244488D01*
X1493871Y237465D01*
X1497849Y231511D01*
X1503803Y227533D01*
X1510827Y226136D01*
X1517850Y227533D01*
X1523804Y231511D01*
X1527377D01*
X1533331Y227533D01*
X1540354Y226136D01*
X1547377Y227533D01*
X1553331Y231511D01*
X1556905D01*
X1562859Y227533D01*
X1569882Y226136D01*
X1576905Y227533D01*
X1582859Y231511D01*
X1586432D01*
X1592386Y227533D01*
X1599409Y226136D01*
X1606433Y227533D01*
X1612387Y231511D01*
X1616365Y237465D01*
X1617762Y244488D01*
X1616365Y251511D01*
X1612387Y257465D01*
X1606433Y261444D01*
X1599409Y262841D01*
D02*
G37*
G36*
X715846Y276916D02*
X708823Y275519D01*
X702869Y271540D01*
X698891Y265586D01*
X697494Y258563D01*
X698891Y251540D01*
X702869Y245586D01*
X708823Y241607D01*
X715846Y240210D01*
X722870Y241607D01*
X728824Y245586D01*
X732802Y251540D01*
X734199Y258563D01*
X732802Y265586D01*
X728824Y271540D01*
X722870Y275519D01*
X715846Y276916D01*
D02*
G37*
G36*
X2674291Y295243D02*
Y201851D01*
X2724051D01*
Y241142D01*
X2722185Y255315D01*
X2716715Y268522D01*
X2708012Y279863D01*
X2696671Y288565D01*
X2683464Y294036D01*
X2674291Y295243D01*
D02*
G37*
G36*
X2664291Y295243D02*
X2655119Y294036D01*
X2641912Y288565D01*
X2630570Y279863D01*
X2621868Y268522D01*
X2616398Y255315D01*
X2614532Y241142D01*
Y201851D01*
X2664291D01*
Y295243D01*
D02*
G37*
G36*
X1987205Y170912D02*
X1980182Y169515D01*
X1974228Y165536D01*
X1970866Y160505D01*
X1965551Y160015D01*
X1960237Y160505D01*
X1956875Y165536D01*
X1950921Y169515D01*
X1943898Y170912D01*
X1936874Y169515D01*
X1930920Y165536D01*
X1926942Y159582D01*
X1925545Y152559D01*
X1926942Y145536D01*
X1930920Y139582D01*
X1930920Y131087D01*
X1926942Y125133D01*
X1925545Y118110D01*
X1926942Y111087D01*
X1930920Y105133D01*
X1936874Y101155D01*
X1943898Y99758D01*
X1950921Y101155D01*
X1956875Y105133D01*
X1960237Y110164D01*
X1965551Y110654D01*
X1970866Y110164D01*
X1974228Y105133D01*
X1980182Y101155D01*
X1987205Y99758D01*
X1994228Y101155D01*
X2000182Y105133D01*
X2004160Y111087D01*
X2005557Y118110D01*
X2004160Y125133D01*
X2000182Y131087D01*
X2000182Y139582D01*
X2004160Y145536D01*
X2005557Y152559D01*
X2004160Y159582D01*
X2000182Y165536D01*
X1994228Y169515D01*
X1987205Y170912D01*
D02*
G37*
G36*
X2664291Y191851D02*
X2614532D01*
Y152559D01*
X2616398Y138386D01*
X2621868Y125179D01*
X2630570Y113838D01*
X2641912Y105136D01*
X2655119Y99665D01*
X2664291Y98457D01*
Y191851D01*
D02*
G37*
G36*
X2724051D02*
X2674291D01*
Y98457D01*
X2683464Y99665D01*
X2696671Y105136D01*
X2708012Y113838D01*
X2716715Y125179D01*
X2722185Y138386D01*
X2724051Y152559D01*
Y191851D01*
D02*
G37*
G36*
X2197835Y132526D02*
X2190811Y131129D01*
X2184858Y127150D01*
X2180879Y121196D01*
X2179482Y114173D01*
X2180879Y107150D01*
X2184858Y101196D01*
X2190811Y97218D01*
X2197835Y95821D01*
X2204858Y97218D01*
X2210812Y101196D01*
X2214790Y107150D01*
X2216187Y114173D01*
X2214790Y121196D01*
X2210812Y127150D01*
X2204858Y131129D01*
X2197835Y132526D01*
D02*
G37*
G36*
X827756Y127605D02*
X820733Y126208D01*
X814779Y122229D01*
X810800Y116275D01*
X809403Y109252D01*
X810800Y102229D01*
X814779Y96275D01*
X820733Y92296D01*
X827756Y90899D01*
X834779Y92296D01*
X840733Y96275D01*
X844711Y102229D01*
X846108Y109252D01*
X844711Y116275D01*
X840733Y122229D01*
X834779Y126208D01*
X827756Y127605D01*
D02*
G37*
G36*
X2433071Y303769D02*
X2418135Y301803D01*
X2404218Y296038D01*
X2392266Y286868D01*
X2383096Y274916D01*
X2377331Y260998D01*
X2375365Y246063D01*
Y147638D01*
X2377331Y132702D01*
X2383096Y118785D01*
X2392266Y106833D01*
X2404218Y97663D01*
X2418135Y91898D01*
X2433071Y89931D01*
X2448006Y91898D01*
X2461924Y97663D01*
X2473875Y106833D01*
X2483046Y118785D01*
X2488811Y132702D01*
X2490777Y147638D01*
Y246063D01*
X2488811Y260998D01*
X2483046Y274916D01*
X2473875Y286868D01*
X2461924Y296038D01*
X2448006Y301803D01*
X2433071Y303769D01*
D02*
G37*
G36*
X866142Y90203D02*
X859119Y88806D01*
X853164Y84828D01*
X849186Y78874D01*
X847789Y71850D01*
X849186Y64827D01*
X853164Y58873D01*
X859119Y54895D01*
X866142Y53498D01*
X873165Y54895D01*
X879119Y58873D01*
X883097Y64827D01*
X884494Y71850D01*
X883097Y78874D01*
X879119Y84828D01*
X873165Y88806D01*
X866142Y90203D01*
D02*
G37*
G36*
X1719488Y86266D02*
X1712465Y84869D01*
X1706511Y80891D01*
X1702533Y74937D01*
X1701136Y67914D01*
X1702533Y60891D01*
X1706511Y54937D01*
X1712465Y50958D01*
X1719488Y49561D01*
X1726512Y50958D01*
X1732466Y54937D01*
X1736444Y60891D01*
X1737841Y67914D01*
X1736444Y74937D01*
X1732466Y80891D01*
X1726512Y84869D01*
X1719488Y86266D01*
D02*
G37*
%LPD*%
D37*
X688976Y339567D02*
X710630Y317913D01*
X688976Y339567D02*
Y687008D01*
X673228Y702756D02*
X688976Y687008D01*
D43*
X2551181Y381890D02*
D03*
D44*
X2669291Y196850D02*
D03*
D45*
X2433071D02*
D03*
D46*
X710630Y317913D02*
D03*
X592520D02*
D03*
X622047D02*
D03*
X651575D02*
D03*
X681102D02*
D03*
X710630Y748031D02*
D03*
X592520D02*
D03*
X622047D02*
D03*
X651575D02*
D03*
X681102D02*
D03*
X2967126Y568346D02*
D03*
X2917126D02*
D03*
X2867126D02*
D03*
X2817126D02*
D03*
Y636362D02*
D03*
X2867126D02*
D03*
X2917126D02*
D03*
X2967126D02*
D03*
X834152Y587817D02*
D03*
X888308Y565669D02*
D03*
X947393Y576108D02*
D03*
X1007393D02*
D03*
X1067393D02*
D03*
X1127393D02*
D03*
X1187393D02*
D03*
X1247393D02*
D03*
X1307393D02*
D03*
X1367393D02*
D03*
X1427393D02*
D03*
X1487393D02*
D03*
X1547393D02*
D03*
X1607393D02*
D03*
X1667393D02*
D03*
X1727393D02*
D03*
X1787393D02*
D03*
X1847393D02*
D03*
X1907393D02*
D03*
X1967393D02*
D03*
X2027393D02*
D03*
X2087393D02*
D03*
X2147393D02*
D03*
X2207393D02*
D03*
X2267393D02*
D03*
X2327393D02*
D03*
X2387393D02*
D03*
X2447393D02*
D03*
X2507393D02*
D03*
X2567393D02*
D03*
X2627393D02*
D03*
X2687393D02*
D03*
X2747393D02*
D03*
X2724578Y628616D02*
D03*
X2664578D02*
D03*
X2604578D02*
D03*
X2544578D02*
D03*
X2484578D02*
D03*
X2424578D02*
D03*
X2364578D02*
D03*
X2304578D02*
D03*
X2244578D02*
D03*
X2184578D02*
D03*
X2124578D02*
D03*
X2064578D02*
D03*
X2004578D02*
D03*
X1944578D02*
D03*
X1884578D02*
D03*
X1824578D02*
D03*
X1764578D02*
D03*
X1704578D02*
D03*
X1644578D02*
D03*
X1584578D02*
D03*
X1524578D02*
D03*
X1464578D02*
D03*
X1404578D02*
D03*
X1344578D02*
D03*
X1284578D02*
D03*
X1224578D02*
D03*
X1164578D02*
D03*
X1104578D02*
D03*
X1044578D02*
D03*
X984578D02*
D03*
X924578D02*
D03*
X1943898Y118110D02*
D03*
X1987205D02*
D03*
X1943898Y377953D02*
D03*
X1987205D02*
D03*
X393701Y669291D02*
D03*
X354331D02*
D03*
X472441D02*
D03*
X433071D02*
D03*
X594488Y118110D02*
D03*
X1118110Y717520D02*
D03*
X2139764Y514764D02*
D03*
X1719488Y427165D02*
D03*
X2143701Y309055D02*
D03*
X2030512Y343504D02*
D03*
X1887795Y355315D02*
D03*
X1719488Y67914D02*
D03*
X1887795Y140748D02*
D03*
X1803150Y140748D02*
D03*
Y99409D02*
D03*
X1887795Y99410D02*
D03*
X2197835Y114173D02*
D03*
X2017717Y443898D02*
D03*
Y485236D02*
D03*
X2035433Y93504D02*
D03*
Y134842D02*
D03*
X1822835Y248106D02*
D03*
X1868110Y248032D02*
D03*
X1599409Y244488D02*
D03*
X1569882D02*
D03*
X1540354D02*
D03*
X1510827D02*
D03*
X1378937Y355906D02*
D03*
X1349410D02*
D03*
X1319882D02*
D03*
X1290354D02*
D03*
X1510827D02*
D03*
X1540354D02*
D03*
X1569882D02*
D03*
X1599410D02*
D03*
X1290354Y244488D02*
D03*
X1319882D02*
D03*
X1349410D02*
D03*
X1378937D02*
D03*
X1887795Y396654D02*
D03*
X1803150Y355315D02*
D03*
Y396653D02*
D03*
X2850394Y309055D02*
D03*
X2919292Y171260D02*
D03*
X2850394Y33465D02*
D03*
X2712599Y309055D02*
D03*
X2781497Y171260D02*
D03*
X2712599Y33465D02*
D03*
X2643702Y446851D02*
D03*
X2574804Y309055D02*
D03*
Y33465D02*
D03*
X2505906Y446851D02*
D03*
X2437009Y33465D02*
D03*
X2299213D02*
D03*
X2023623D02*
D03*
X1885827D02*
D03*
X1748032D02*
D03*
X1679134Y446851D02*
D03*
X1610237Y309055D02*
D03*
Y33465D02*
D03*
X1472441Y309055D02*
D03*
Y33465D02*
D03*
X1334646Y309055D02*
D03*
X1403544Y171260D02*
D03*
X1334646Y33465D02*
D03*
X1265748Y171260D02*
D03*
X1196851Y33465D02*
D03*
X1127953Y446851D02*
D03*
Y171260D02*
D03*
X1059056Y33465D02*
D03*
X990158Y171260D02*
D03*
X921260Y33465D02*
D03*
X783465Y584646D02*
D03*
X714567Y171260D02*
D03*
X507874Y309055D02*
D03*
X576772Y171260D02*
D03*
X1681102Y239173D02*
D03*
X2143701Y269685D02*
D03*
X784449Y393701D02*
D03*
Y354331D02*
D03*
X940945Y419291D02*
D03*
X1202756Y428150D02*
D03*
X750315Y748031D02*
D03*
X789685D02*
D03*
X677854Y203740D02*
D03*
X649606Y232284D02*
D03*
X1987205Y152559D02*
D03*
X1943898D02*
D03*
X1987205Y343504D02*
D03*
X1943898D02*
D03*
X1152559Y361221D02*
D03*
X1189961Y323819D02*
D03*
X827756Y109252D02*
D03*
X866142Y71850D02*
D03*
X937008D02*
D03*
X973425Y109252D02*
D03*
X354331Y433071D02*
D03*
X472441D02*
D03*
X433071D02*
D03*
X393701D02*
D03*
X304568Y368660D02*
D03*
X332407Y340821D02*
D03*
X360246Y312982D02*
D03*
X388085Y285143D02*
D03*
X415924Y257305D02*
D03*
X443763Y229466D02*
D03*
X471602Y201627D02*
D03*
X499440Y173788D02*
D03*
X527279Y145949D02*
D03*
X1152559Y214567D02*
D03*
X1189961Y252953D02*
D03*
X980315Y462599D02*
D03*
Y505906D02*
D03*
X651575Y531489D02*
D03*
X715846Y258563D02*
D03*
X312697Y437303D02*
D03*
X511811Y354331D02*
D03*
X551181Y590551D02*
D03*
Y472441D02*
D03*
Y748031D02*
D03*
X511811Y590551D02*
D03*
X673228Y702756D02*
D03*
X593819Y473740D02*
D03*
X751968Y39370D02*
D03*
Y78740D02*
D03*
Y118110D02*
D03*
X712598D02*
D03*
X673228D02*
D03*
X633858D02*
D03*
X511811Y472441D02*
D03*
Y393701D02*
D03*
Y433071D02*
D03*
X555118Y118110D02*
D03*
X511811Y629921D02*
D03*
Y669291D02*
D03*
X350689Y582677D02*
D03*
X789685Y669291D02*
D03*
X511811Y748031D02*
D03*
X784449Y433071D02*
D03*
X511811Y708661D02*
D03*
X789685Y629921D02*
D03*
Y708661D02*
D03*
%TF.MD5,3f81c9e9b5ae525d495399647a8a7e0c*%
M02*
