%TF.GenerationSoftware,Altium Limited,Altium Designer,18.1.11 (251)*%
G04 Layer_Physical_Order=1*
G04 Layer_Color=255*
%FSLAX26Y26*%
%MOIN*%
%TF.FileFunction,Copper,L1,Top,Signal*%
%TF.Part,Single*%
G01*
G75*
%TA.AperFunction,Conductor*%
%ADD10C,0.013500*%
%ADD11C,0.007874*%
%TA.AperFunction,ConnectorPad*%
%ADD12R,0.218000X0.142000*%
%ADD13R,0.040000X0.016000*%
%ADD14R,0.200000X0.090000*%
%TA.AperFunction,SMDPad,CuDef*%
%ADD15R,0.200000X0.090000*%
%ADD16R,0.053150X0.061024*%
%ADD17R,0.061024X0.053150*%
%ADD18R,0.035748X0.042480*%
%ADD19R,0.025000X0.027559*%
%ADD20R,0.053150X0.074803*%
%ADD21R,0.027559X0.025000*%
%ADD22R,0.070866X0.021654*%
%ADD23R,0.100394X0.109055*%
%TA.AperFunction,SMDPad,SMDef*%
%ADD24R,0.064961X0.094488*%
%TA.AperFunction,SMDPad,CuDef*%
%ADD25R,0.023622X0.009842*%
%ADD26R,0.017000X0.055000*%
%ADD27R,0.116000X0.069000*%
%ADD28R,0.022047X0.071260*%
%ADD29R,0.043307X0.043307*%
%ADD30R,0.043307X0.043307*%
%ADD31R,0.030000X0.010000*%
%ADD32R,0.010000X0.030000*%
%ADD33R,0.066142X0.066142*%
G04:AMPARAMS|DCode=34|XSize=61.024mil|YSize=23.622mil|CornerRadius=0.945mil|HoleSize=0mil|Usage=FLASHONLY|Rotation=0.000|XOffset=0mil|YOffset=0mil|HoleType=Round|Shape=RoundedRectangle|*
%AMROUNDEDRECTD34*
21,1,0.061024,0.021732,0,0,0.0*
21,1,0.059134,0.023622,0,0,0.0*
1,1,0.001890,0.029567,-0.010866*
1,1,0.001890,-0.029567,-0.010866*
1,1,0.001890,-0.029567,0.010866*
1,1,0.001890,0.029567,0.010866*
%
%ADD34ROUNDEDRECTD34*%
%TA.AperFunction,Conductor*%
%ADD35C,0.015748*%
%ADD36C,0.019685*%
%ADD37C,0.008000*%
%ADD38C,0.009842*%
%TA.AperFunction,NonConductor*%
%ADD39C,0.007874*%
%TA.AperFunction,Conductor*%
%ADD40C,0.006000*%
%ADD41C,0.025000*%
%ADD42C,0.027559*%
%TA.AperFunction,ComponentPad*%
%ADD43O,0.177165X0.088583*%
%ADD44O,0.088583X0.177165*%
%ADD45O,0.098425X0.196850*%
%TA.AperFunction,ViaPad*%
%ADD46C,0.018000*%
G36*
X677242Y696329D02*
X679528D01*
X679091Y695852D01*
X678700Y695326D01*
X678355Y694749D01*
X678056Y694121D01*
X677803Y693443D01*
X677596Y692714D01*
X677593Y692698D01*
X677868Y691660D01*
X678228Y690766D01*
X678668Y690036D01*
X679188Y689467D01*
X679788Y689061D01*
X680468Y688818D01*
X681228Y688736D01*
X665228D01*
X665988Y688818D01*
X666668Y689061D01*
X667268Y689467D01*
X667788Y690036D01*
X668228Y690766D01*
X668588Y691660D01*
X668864Y692698D01*
X668860Y692714D01*
X668653Y693443D01*
X668400Y694121D01*
X668101Y694749D01*
X667756Y695326D01*
X667365Y695852D01*
X666928Y696329D01*
X669215D01*
X669228Y696856D01*
X677228D01*
X677242Y696329D01*
D02*
G37*
G36*
X2764126Y764108D02*
Y695112D01*
X2883126D01*
Y685112D01*
X2764126D01*
Y619440D01*
X922901D01*
Y619441D01*
X906228Y618129D01*
X889965Y614224D01*
X874513Y607824D01*
X860252Y599085D01*
X847534Y588223D01*
X847535Y588222D01*
X825784Y566472D01*
X825717Y566500D01*
X825375Y566358D01*
X825347Y566291D01*
X817583D01*
X816841Y566356D01*
X816300Y566445D01*
X816266Y566614D01*
X815964Y567067D01*
X815802Y567587D01*
X814867Y568709D01*
X814056Y569922D01*
X813603Y570225D01*
X813255Y570643D01*
X811962Y571322D01*
X810749Y572132D01*
X810214Y572239D01*
X809732Y572492D01*
X808278Y572624D01*
X806847Y572908D01*
X806312Y572802D01*
X805770Y572851D01*
X804376Y572417D01*
X802945Y572132D01*
X802492Y571830D01*
X801972Y571668D01*
X800851Y570733D01*
X799637Y569922D01*
X799335Y569469D01*
X798916Y569120D01*
X798849Y568992D01*
X777095D01*
Y570992D01*
X740511D01*
X740511Y772108D01*
X748511Y772108D01*
X2756539Y772108D01*
X2764126Y764108D01*
D02*
G37*
G36*
X2952246Y594482D02*
X2952111Y594697D01*
X2951706Y594889D01*
X2951031Y595058D01*
X2950086Y595205D01*
X2947386Y595431D01*
X2941311Y595601D01*
X2938746Y595612D01*
Y609112D01*
X2941311Y609124D01*
X2951706Y609835D01*
X2952111Y610028D01*
X2952246Y610242D01*
Y594482D01*
D02*
G37*
G36*
X564607Y772108D02*
X564607Y576023D01*
X495394Y576024D01*
X495394Y584024D01*
Y654528D01*
X315371D01*
X311503Y659919D01*
X310599Y662528D01*
X311553Y667323D01*
Y772108D01*
X556607D01*
X564607Y772108D01*
D02*
G37*
G36*
X687008Y574803D02*
X657480D01*
Y651575D01*
X687008D01*
Y574803D01*
D02*
G37*
G36*
X645669D02*
X616142D01*
Y651575D01*
X645669D01*
Y574803D01*
D02*
G37*
G36*
X356540Y575762D02*
X356138Y575226D01*
X355784Y574641D01*
X355477Y574008D01*
X355217Y573325D01*
X355004Y572594D01*
X354839Y571815D01*
X354812Y571630D01*
X354980Y570606D01*
X355256Y569567D01*
X355610Y568688D01*
X356043Y567968D01*
X356555Y567409D01*
X357146Y567009D01*
X357815Y566769D01*
X358563Y566689D01*
X342815D01*
X343563Y566769D01*
X344232Y567009D01*
X344823Y567409D01*
X345335Y567968D01*
X345768Y568688D01*
X346122Y569567D01*
X346398Y570606D01*
X346566Y571630D01*
X346539Y571815D01*
X346374Y572594D01*
X346161Y573325D01*
X345901Y574008D01*
X345594Y574641D01*
X345240Y575226D01*
X344838Y575762D01*
X344389Y576250D01*
X356989D01*
X356540Y575762D01*
D02*
G37*
G36*
X730315Y556102D02*
X694882D01*
Y568588D01*
X696428Y570901D01*
X697204Y574803D01*
Y651575D01*
X696428Y655476D01*
X695008Y657601D01*
Y696976D01*
X694372D01*
X691200Y700841D01*
X691581Y702756D01*
X690184Y709779D01*
X686206Y715733D01*
X680251Y719712D01*
X673228Y721109D01*
X666205Y719712D01*
X660251Y715733D01*
X656273Y709779D01*
X654876Y702756D01*
X655256Y700841D01*
X652085Y696976D01*
X651449D01*
Y665296D01*
X646449Y661616D01*
X645669Y661771D01*
X616142D01*
X612240Y660995D01*
X609231Y658984D01*
X608142D01*
Y657601D01*
X606722Y655476D01*
X605946Y651575D01*
Y574803D01*
X606722Y570901D01*
X608268Y568588D01*
Y556102D01*
X574803D01*
X574803Y772108D01*
X730315D01*
X730315Y556102D01*
D02*
G37*
G36*
X518067Y561615D02*
X519674Y560665D01*
X520823Y560129D01*
Y561024D01*
X520903Y560276D01*
X520982Y560055D01*
X521473Y559826D01*
X523465Y559099D01*
X525650Y558484D01*
X528028Y557981D01*
X530599Y557590D01*
X536319Y557143D01*
X539469Y557087D01*
Y549213D01*
X536319Y549157D01*
X530599Y548709D01*
X528028Y548318D01*
X525650Y547815D01*
X523465Y547200D01*
X521473Y546473D01*
X520982Y546244D01*
X520903Y546024D01*
X520823Y545276D01*
Y546170D01*
X519674Y545634D01*
X518067Y544684D01*
X516654Y543621D01*
Y562678D01*
X518067Y561615D01*
D02*
G37*
G36*
X724534Y546034D02*
X724770Y545874D01*
X725163Y545733D01*
X725715Y545610D01*
X726423Y545506D01*
X728313Y545355D01*
X732329Y545270D01*
Y537396D01*
X730833Y537387D01*
X725715Y537057D01*
X725163Y536934D01*
X724770Y536793D01*
X724534Y536633D01*
X724455Y536453D01*
Y546213D01*
X724534Y546034D01*
D02*
G37*
G36*
X578695Y536453D02*
X578616Y536633D01*
X578380Y536793D01*
X577986Y536934D01*
X577435Y537057D01*
X576726Y537161D01*
X574837Y537312D01*
X570821Y537396D01*
Y545270D01*
X572317Y545280D01*
X577435Y545610D01*
X577986Y545733D01*
X578380Y545874D01*
X578616Y546034D01*
X578695Y546213D01*
Y536453D01*
D02*
G37*
G36*
X806983Y561430D02*
X807391Y560283D01*
X808072Y559270D01*
X809026Y558393D01*
X810252Y557650D01*
X811750Y557043D01*
X813520Y556570D01*
X815563Y556232D01*
X817879Y556030D01*
X820467Y555962D01*
Y542462D01*
X817879Y542395D01*
X815563Y542192D01*
X813520Y541855D01*
X811750Y541383D01*
X810252Y540775D01*
X809026Y540033D01*
X808072Y539155D01*
X807391Y538143D01*
X806983Y536995D01*
X806847Y535712D01*
Y562712D01*
X806983Y561430D01*
D02*
G37*
G36*
X744215Y535553D02*
X744136Y535903D01*
X743899Y536217D01*
X743506Y536493D01*
X742955Y536733D01*
X742246Y536936D01*
X741380Y537101D01*
X740356Y537231D01*
X737837Y537378D01*
X736341Y537396D01*
Y545270D01*
X737853Y545310D01*
X739207Y545428D01*
X740403Y545625D01*
X741440Y545900D01*
X742319Y546255D01*
X743039Y546688D01*
X743601Y547200D01*
X744004Y547790D01*
X744248Y548460D01*
X744335Y549207D01*
X744215Y535553D01*
D02*
G37*
G36*
X326772Y531496D02*
X259842D01*
Y606299D01*
X326772D01*
Y531496D01*
D02*
G37*
G36*
X764035Y535474D02*
X763366Y535238D01*
X762775Y534844D01*
X762264Y534293D01*
X761831Y533585D01*
X761476Y532718D01*
X761201Y531695D01*
X761004Y530514D01*
X760886Y529175D01*
X760846Y527679D01*
X752972D01*
X752933Y529175D01*
X752815Y530514D01*
X752618Y531695D01*
X752342Y532718D01*
X751988Y533585D01*
X751555Y534293D01*
X751043Y534844D01*
X750453Y535238D01*
X749783Y535474D01*
X749035Y535553D01*
X764783D01*
X764035Y535474D01*
D02*
G37*
G36*
X760886Y525943D02*
X761004Y524604D01*
X761201Y523423D01*
X761476Y522399D01*
X761831Y521533D01*
X762264Y520825D01*
X762775Y520274D01*
X763366Y519880D01*
X764035Y519644D01*
X764783Y519565D01*
X749035D01*
X749783Y519644D01*
X750453Y519880D01*
X751043Y520274D01*
X751555Y520825D01*
X751988Y521533D01*
X752342Y522399D01*
X752618Y523423D01*
X752815Y524604D01*
X752933Y525943D01*
X752972Y527439D01*
X760846D01*
X760886Y525943D01*
D02*
G37*
G36*
X578695Y516764D02*
X578616Y516943D01*
X578380Y517103D01*
X577986Y517244D01*
X577435Y517367D01*
X576726Y517471D01*
X574837Y517622D01*
X570821Y517707D01*
Y525581D01*
X572317Y525590D01*
X577435Y525920D01*
X577986Y526043D01*
X578380Y526184D01*
X578616Y526344D01*
X578695Y526524D01*
Y516764D01*
D02*
G37*
G36*
X566809Y517707D02*
X565299Y517667D01*
X563947Y517549D01*
X562753Y517352D01*
X561716Y517077D01*
X560838Y516722D01*
X560117Y516289D01*
X559555Y515777D01*
X559150Y515187D01*
X558904Y514518D01*
X558815Y513769D01*
X558935Y523502D01*
X559014Y523897D01*
X559250Y524250D01*
X559644Y524562D01*
X560195Y524832D01*
X560904Y525061D01*
X561770Y525248D01*
X562793Y525393D01*
X563975Y525497D01*
X566809Y525581D01*
Y517707D01*
D02*
G37*
G36*
X901815Y497906D02*
X901734Y498666D01*
X901490Y499346D01*
X901084Y499946D01*
X900516Y500466D01*
X899785Y500906D01*
X898892Y501266D01*
X897836Y501546D01*
X896618Y501746D01*
X895238Y501866D01*
X893701Y501905D01*
X892164Y501866D01*
X890784Y501746D01*
X889566Y501546D01*
X888510Y501266D01*
X887617Y500906D01*
X886886Y500466D01*
X886317Y499946D01*
X885912Y499346D01*
X885668Y498666D01*
X885587Y497906D01*
Y513906D01*
X885668Y513146D01*
X885912Y512466D01*
X886317Y511866D01*
X886886Y511346D01*
X887617Y510906D01*
X888510Y510546D01*
X889566Y510266D01*
X890784Y510066D01*
X892164Y509946D01*
X893701Y509906D01*
X895238Y509946D01*
X896618Y510066D01*
X897836Y510266D01*
X898892Y510546D01*
X899785Y510906D01*
X900516Y511346D01*
X901084Y511866D01*
X901490Y512466D01*
X901734Y513146D01*
X901815Y513906D01*
Y497906D01*
D02*
G37*
G36*
X823075Y498031D02*
X822995Y498779D01*
X822755Y499449D01*
X822355Y500039D01*
X821796Y500551D01*
X821076Y500984D01*
X820197Y501339D01*
X819158Y501614D01*
X817958Y501811D01*
X816600Y501929D01*
X815081Y501968D01*
Y509842D01*
X816600Y509882D01*
X817958Y510000D01*
X819158Y510197D01*
X820197Y510472D01*
X821076Y510827D01*
X821796Y511260D01*
X822355Y511772D01*
X822755Y512362D01*
X822995Y513031D01*
X823075Y513779D01*
Y498031D01*
D02*
G37*
G36*
X806927Y513031D02*
X807167Y512362D01*
X807566Y511772D01*
X808126Y511260D01*
X808845Y510827D01*
X809725Y510472D01*
X810764Y510197D01*
X811963Y510000D01*
X813322Y509882D01*
X814841Y509842D01*
Y501968D01*
X813322Y501929D01*
X811963Y501811D01*
X810764Y501614D01*
X809725Y501339D01*
X808845Y500984D01*
X808126Y500551D01*
X807566Y500039D01*
X807167Y499449D01*
X806927Y498779D01*
X806847Y498031D01*
Y513779D01*
X806927Y513031D01*
D02*
G37*
G36*
X247047Y582677D02*
X247047Y494094D01*
X180118Y494094D01*
X180118Y582677D01*
X247047Y582677D01*
D02*
G37*
G36*
X601059Y497112D02*
X600379Y496869D01*
X599779Y496463D01*
X599259Y495894D01*
X598819Y495163D01*
X598459Y494270D01*
X598179Y493215D01*
X597979Y491997D01*
X597859Y490616D01*
X597819Y489074D01*
X589819D01*
X589779Y490616D01*
X589659Y491997D01*
X589459Y493215D01*
X589179Y494270D01*
X588819Y495163D01*
X588379Y495894D01*
X587859Y496463D01*
X587259Y496869D01*
X586579Y497112D01*
X585819Y497193D01*
X601819D01*
X601059Y497112D01*
D02*
G37*
G36*
X842461Y492167D02*
X841791Y491931D01*
X841201Y491537D01*
X840689Y490986D01*
X840256Y490278D01*
X839902Y489411D01*
X839626Y488388D01*
X839429Y487207D01*
X839311Y485868D01*
X839272Y484372D01*
X831398D01*
X831358Y485868D01*
X831240Y487207D01*
X831043Y488388D01*
X830768Y489411D01*
X830413Y490278D01*
X829980Y490986D01*
X829468Y491537D01*
X828878Y491931D01*
X828209Y492167D01*
X827461Y492246D01*
X843209D01*
X842461Y492167D01*
D02*
G37*
G36*
X597842Y486272D02*
X597911Y485391D01*
X598026Y484561D01*
X598187Y483782D01*
X598394Y483053D01*
X598647Y482375D01*
X598946Y481747D01*
X599291Y481170D01*
X599682Y480644D01*
X600119Y480167D01*
X587519D01*
X587956Y480644D01*
X588347Y481170D01*
X588692Y481747D01*
X588991Y482375D01*
X589244Y483053D01*
X589451Y483782D01*
X589612Y484561D01*
X589727Y485391D01*
X589796Y486272D01*
X589819Y487202D01*
X597819D01*
X597842Y486272D01*
D02*
G37*
G36*
X839311Y482613D02*
X839429Y481254D01*
X839626Y480055D01*
X839902Y479016D01*
X840256Y478137D01*
X840689Y477417D01*
X841201Y476858D01*
X841791Y476458D01*
X842461Y476218D01*
X843209Y476138D01*
X827461D01*
X828209Y476218D01*
X828878Y476458D01*
X829468Y476858D01*
X829980Y477417D01*
X830413Y478137D01*
X830768Y479016D01*
X831043Y480055D01*
X831240Y481254D01*
X831358Y482613D01*
X831398Y484132D01*
X839272D01*
X839311Y482613D01*
D02*
G37*
G36*
X666121Y458530D02*
X665960Y458293D01*
X665819Y457900D01*
X665696Y457349D01*
X665592Y456640D01*
X665442Y454750D01*
X665357Y450735D01*
X657483D01*
X657473Y452231D01*
X657143Y457349D01*
X657021Y457900D01*
X656879Y458293D01*
X656719Y458530D01*
X656540Y458608D01*
X666300D01*
X666121Y458530D01*
D02*
G37*
G36*
X319823Y452916D02*
X319154Y452676D01*
X318563Y452276D01*
X318051Y451717D01*
X317618Y450997D01*
X317264Y450118D01*
X316988Y449079D01*
X316843Y448192D01*
X316847Y448166D01*
X317012Y447386D01*
X317225Y446655D01*
X317485Y445973D01*
X317792Y445339D01*
X318146Y444754D01*
X318548Y444218D01*
X318997Y443730D01*
X306397D01*
X306846Y444218D01*
X307248Y444754D01*
X307602Y445339D01*
X307909Y445973D01*
X308169Y446655D01*
X308382Y447386D01*
X308547Y448166D01*
X308551Y448192D01*
X308406Y449079D01*
X308130Y450118D01*
X307776Y450997D01*
X307343Y451717D01*
X306831Y452276D01*
X306240Y452676D01*
X305571Y452916D01*
X304823Y452996D01*
X320571D01*
X319823Y452916D01*
D02*
G37*
G36*
X921201Y448860D02*
X920532Y448624D01*
X919941Y448230D01*
X919429Y447679D01*
X918996Y446971D01*
X918642Y446104D01*
X918366Y445081D01*
X918169Y443900D01*
X918051Y442561D01*
X918012Y441065D01*
X910138D01*
X910098Y442561D01*
X909980Y443900D01*
X909784Y445081D01*
X909508Y446104D01*
X909154Y446971D01*
X908721Y447679D01*
X908209Y448230D01*
X907618Y448624D01*
X906949Y448860D01*
X906201Y448939D01*
X921949D01*
X921201Y448860D01*
D02*
G37*
G36*
X842461D02*
X841791Y448624D01*
X841201Y448230D01*
X840689Y447679D01*
X840256Y446971D01*
X839902Y446104D01*
X839626Y445081D01*
X839429Y443900D01*
X839311Y442561D01*
X839272Y441065D01*
X831398D01*
X831358Y442561D01*
X831240Y443900D01*
X831043Y445081D01*
X830768Y446104D01*
X830413Y446971D01*
X829980Y447679D01*
X829468Y448230D01*
X828878Y448624D01*
X828209Y448860D01*
X827461Y448939D01*
X843209D01*
X842461Y448860D01*
D02*
G37*
G36*
X665396Y444916D02*
X665514Y443557D01*
X665711Y442358D01*
X665987Y441319D01*
X666341Y440440D01*
X666774Y439720D01*
X667286Y439161D01*
X667876Y438761D01*
X668546Y438521D01*
X669294Y438441D01*
X653546D01*
X654294Y438521D01*
X654963Y438761D01*
X655554Y439161D01*
X656066Y439720D01*
X656499Y440440D01*
X656853Y441319D01*
X657129Y442358D01*
X657325Y443557D01*
X657443Y444916D01*
X657483Y446435D01*
X665357D01*
X665396Y444916D01*
D02*
G37*
G36*
X918051Y439329D02*
X918169Y437990D01*
X918366Y436809D01*
X918642Y435786D01*
X918996Y434919D01*
X919429Y434211D01*
X919941Y433660D01*
X920532Y433266D01*
X921201Y433030D01*
X921949Y432951D01*
X906201D01*
X906949Y433030D01*
X907618Y433266D01*
X908209Y433660D01*
X908721Y434211D01*
X909154Y434919D01*
X909508Y435786D01*
X909784Y436809D01*
X909980Y437990D01*
X910098Y439329D01*
X910138Y440825D01*
X918012D01*
X918051Y439329D01*
D02*
G37*
G36*
X881945Y448859D02*
X881265Y448619D01*
X880665Y448219D01*
X880145Y447659D01*
X879705Y446939D01*
X879345Y446059D01*
X879065Y445019D01*
X878865Y443819D01*
X878745Y442459D01*
X878705Y440945D01*
X878745Y439431D01*
X878865Y438071D01*
X879065Y436871D01*
X879345Y435831D01*
X879705Y434951D01*
X880145Y434231D01*
X880665Y433671D01*
X881265Y433271D01*
X881945Y433031D01*
X882705Y432951D01*
X866705D01*
X867465Y433031D01*
X868145Y433271D01*
X868745Y433671D01*
X869265Y434231D01*
X869705Y434951D01*
X870065Y435831D01*
X870345Y436871D01*
X870545Y438071D01*
X870665Y439431D01*
X870705Y440945D01*
X870665Y442459D01*
X870545Y443819D01*
X870345Y445019D01*
X870065Y446059D01*
X869705Y446939D01*
X869265Y447659D01*
X868745Y448219D01*
X868145Y448619D01*
X867465Y448859D01*
X866705Y448939D01*
X882705D01*
X881945Y448859D01*
D02*
G37*
G36*
X925037Y426417D02*
X925277Y425748D01*
X925676Y425158D01*
X926236Y424646D01*
X926955Y424213D01*
X927835Y423858D01*
X928874Y423583D01*
X929898Y423415D01*
X930082Y423441D01*
X930862Y423606D01*
X931593Y423819D01*
X932275Y424079D01*
X932909Y424386D01*
X933494Y424741D01*
X934030Y425142D01*
X934518Y425591D01*
Y412991D01*
X934030Y413440D01*
X933494Y413842D01*
X932909Y414197D01*
X932275Y414504D01*
X931593Y414764D01*
X930862Y414976D01*
X930082Y415142D01*
X929898Y415168D01*
X928874Y415000D01*
X927835Y414724D01*
X926955Y414370D01*
X926236Y413937D01*
X925676Y413425D01*
X925277Y412835D01*
X925037Y412165D01*
X924957Y411417D01*
Y427165D01*
X925037Y426417D01*
D02*
G37*
G36*
X730315Y299213D02*
X574803D01*
Y460800D01*
X579803Y462317D01*
X580842Y460763D01*
X586796Y456784D01*
X593819Y455387D01*
X600842Y456784D01*
X606796Y460763D01*
X610774Y466717D01*
X612171Y473740D01*
X610774Y480763D01*
X609979Y481953D01*
X612652Y486953D01*
X618504D01*
Y488189D01*
X648420D01*
Y450489D01*
X645541Y446681D01*
X639638D01*
Y405681D01*
X683197D01*
Y446681D01*
X677299D01*
X674420Y450489D01*
Y488189D01*
X694882D01*
Y526575D01*
X730315D01*
Y299213D01*
D02*
G37*
G36*
X881945Y405671D02*
X881265Y405427D01*
X880665Y405021D01*
X880145Y404453D01*
X879705Y403722D01*
X879345Y402829D01*
X879065Y401773D01*
X878865Y400555D01*
X878745Y399175D01*
X878705Y397632D01*
X870705D01*
X870665Y399175D01*
X870545Y400555D01*
X870345Y401773D01*
X870065Y402829D01*
X869705Y403722D01*
X869265Y404453D01*
X868745Y405021D01*
X868145Y405427D01*
X867465Y405671D01*
X866705Y405752D01*
X882705D01*
X881945Y405671D01*
D02*
G37*
G36*
X922901Y585284D02*
X2764126D01*
Y519568D01*
X2883126D01*
Y514568D01*
X2888126D01*
Y433568D01*
X2976833D01*
Y15293D01*
X539900Y15294D01*
Y113189D01*
X538735Y119041D01*
X535420Y124003D01*
X292323Y367101D01*
Y420997D01*
X297276Y423226D01*
X300323Y423923D01*
X305674Y420348D01*
X312697Y418950D01*
X319720Y420348D01*
X325674Y424326D01*
X329652Y430280D01*
X331050Y437303D01*
X337724Y444756D01*
X371189D01*
Y444882D01*
X408929D01*
Y444756D01*
X449929D01*
Y444882D01*
X495394D01*
Y478953D01*
X495394Y486954D01*
X571378Y486953D01*
X573303Y484780D01*
X576503Y478953D01*
X575466Y473740D01*
X570901Y470220D01*
X569656Y469388D01*
X568335Y468682D01*
X568014Y468291D01*
X567593Y468010D01*
X566762Y466765D01*
X565811Y465607D01*
X565664Y465123D01*
X565383Y464702D01*
X565091Y463233D01*
X564656Y461800D01*
X564706Y461296D01*
X564607Y460800D01*
Y299213D01*
X565383Y295311D01*
X567593Y292003D01*
X570901Y289793D01*
X574803Y289017D01*
X730315D01*
X734217Y289793D01*
X737525Y292003D01*
X739735Y295311D01*
X740511Y299213D01*
Y484126D01*
X814835D01*
Y440819D01*
X823164D01*
Y397348D01*
X803082Y377266D01*
X800444Y373317D01*
X799517Y368660D01*
Y290088D01*
X800444Y285431D01*
X803082Y281482D01*
X809312Y275252D01*
X813260Y272614D01*
X817918Y271687D01*
X818856D01*
X819291Y269502D01*
X821268Y266543D01*
X824226Y264566D01*
X827717Y263872D01*
X886850D01*
X890341Y264566D01*
X893299Y266543D01*
X895276Y269502D01*
X895971Y272992D01*
Y294724D01*
X895276Y298214D01*
X893299Y301173D01*
X890341Y303150D01*
X886850Y303844D01*
X833353D01*
X830462Y308858D01*
X833353Y313872D01*
X886850D01*
X890341Y314566D01*
X893299Y316543D01*
X895276Y319502D01*
X895971Y322992D01*
Y337224D01*
X903971Y340538D01*
X1019301Y225207D01*
X1023271Y222554D01*
X1027953Y221623D01*
X1031467D01*
X1031889Y219502D01*
X1033866Y216543D01*
X1036825Y214566D01*
X1040315Y213872D01*
X1099449D01*
X1102939Y214566D01*
X1105898Y216543D01*
X1107875Y219502D01*
X1108569Y222992D01*
Y244724D01*
X1107875Y248214D01*
X1105898Y251173D01*
X1102939Y253150D01*
X1100718Y253592D01*
X1100394Y261458D01*
X1104295Y262234D01*
X1107603Y264444D01*
X1135129Y291969D01*
X1200787D01*
X1204689Y292746D01*
X1207997Y294956D01*
X1210207Y298264D01*
X1210983Y302165D01*
Y370079D01*
X1210207Y373980D01*
X1207997Y377288D01*
X1204689Y379498D01*
X1200787Y380274D01*
X1039370Y380275D01*
X1035468Y379498D01*
X1032160Y377288D01*
X1029950Y373981D01*
X1029174Y370079D01*
Y271654D01*
X1029950Y267752D01*
X1032160Y264444D01*
X1034459Y262908D01*
X1035489Y258087D01*
X1035509Y254069D01*
X1031860Y251719D01*
X1025725Y253389D01*
X889602Y389512D01*
X892916Y397512D01*
X933197D01*
Y397512D01*
X940945Y400939D01*
X947968Y402336D01*
X953922Y406314D01*
X957900Y412268D01*
X959298Y419291D01*
X957900Y426315D01*
X953922Y432269D01*
X947968Y436247D01*
X941236Y437586D01*
X940805Y437795D01*
X934575Y444534D01*
Y484126D01*
Y527685D01*
X841763D01*
X840171Y535685D01*
X842638Y536707D01*
X849159Y541710D01*
X849666Y542049D01*
X871687Y564070D01*
X872026Y564577D01*
X882564Y573226D01*
X895116Y579935D01*
X908737Y584067D01*
X922303Y585403D01*
X922901Y585284D01*
D02*
G37*
G36*
X826944Y275984D02*
X826864Y276732D01*
X826624Y277402D01*
X826224Y277992D01*
X825665Y278504D01*
X824945Y278937D01*
X824066Y279291D01*
X823027Y279567D01*
X821827Y279764D01*
X820469Y279882D01*
X818950Y279921D01*
Y287795D01*
X820469Y287835D01*
X821827Y287953D01*
X823027Y288150D01*
X824066Y288425D01*
X824945Y288780D01*
X825665Y289213D01*
X826224Y289724D01*
X826624Y290315D01*
X826864Y290984D01*
X826944Y291732D01*
Y275984D01*
D02*
G37*
G36*
X1200787Y370079D02*
Y302165D01*
X1130906D01*
X1100394Y271654D01*
X1039370D01*
Y370079D01*
X1200787Y370079D01*
D02*
G37*
G36*
X1039542Y225858D02*
X1039461Y226618D01*
X1039217Y227298D01*
X1038811Y227898D01*
X1038243Y228418D01*
X1037512Y228858D01*
X1036619Y229218D01*
X1035563Y229498D01*
X1034345Y229698D01*
X1032965Y229818D01*
X1031422Y229858D01*
Y237858D01*
X1032965Y237898D01*
X1034345Y238018D01*
X1035563Y238218D01*
X1036619Y238498D01*
X1037512Y238858D01*
X1038243Y239298D01*
X1038811Y239818D01*
X1039217Y240418D01*
X1039461Y241098D01*
X1039542Y241858D01*
Y225858D01*
D02*
G37*
%LPC*%
G36*
X1047921Y746760D02*
X996173D01*
Y729691D01*
X980205D01*
Y746760D01*
X928457D01*
Y688279D01*
X980205D01*
Y705349D01*
X996173D01*
Y688279D01*
X1047921D01*
Y746760D01*
D02*
G37*
G36*
X1110126Y746760D02*
X1058378D01*
Y688280D01*
X1110126D01*
Y692598D01*
X1118110Y699167D01*
X1125133Y700564D01*
X1131087Y704543D01*
X1135066Y710496D01*
X1136463Y717520D01*
X1135066Y724543D01*
X1131087Y730497D01*
X1125133Y734475D01*
X1118110Y735872D01*
X1110126Y742441D01*
Y746760D01*
D02*
G37*
%LPD*%
G36*
X1004413Y709646D02*
X1004333Y710394D01*
X1004093Y711063D01*
X1003694Y711654D01*
X1003134Y712165D01*
X1002415Y712598D01*
X1001535Y712953D01*
X1000496Y713228D01*
X999297Y713425D01*
X997938Y713543D01*
X996419Y713583D01*
Y721457D01*
X997938Y721496D01*
X999297Y721614D01*
X1000496Y721811D01*
X1001535Y722087D01*
X1002415Y722441D01*
X1003134Y722874D01*
X1003694Y723386D01*
X1004093Y723976D01*
X1004333Y724646D01*
X1004413Y725394D01*
Y709646D01*
D02*
G37*
G36*
X972044Y724646D02*
X972284Y723976D01*
X972684Y723386D01*
X973244Y722874D01*
X973963Y722441D01*
X974842Y722087D01*
X975882Y721811D01*
X977081Y721614D01*
X978440Y721496D01*
X979959Y721457D01*
Y713583D01*
X978440Y713543D01*
X977081Y713425D01*
X975882Y713228D01*
X974842Y712953D01*
X973963Y712598D01*
X973244Y712165D01*
X972684Y711654D01*
X972284Y711063D01*
X972044Y710394D01*
X971965Y709646D01*
Y725394D01*
X972044Y724646D01*
D02*
G37*
G36*
X1101967Y724760D02*
X1102211Y724080D01*
X1102617Y723480D01*
X1103185Y722960D01*
X1103916Y722520D01*
X1104809Y722160D01*
X1105865Y721880D01*
X1107022Y721690D01*
X1107289Y721727D01*
X1108068Y721888D01*
X1108797Y722095D01*
X1109475Y722348D01*
X1110103Y722647D01*
X1110680Y722992D01*
X1111207Y723383D01*
X1111683Y723820D01*
Y711220D01*
X1111207Y711657D01*
X1110680Y712048D01*
X1110103Y712393D01*
X1109475Y712692D01*
X1108797Y712945D01*
X1108068Y713152D01*
X1107289Y713313D01*
X1107022Y713350D01*
X1105865Y713160D01*
X1104809Y712880D01*
X1103916Y712520D01*
X1103185Y712080D01*
X1102617Y711560D01*
X1102211Y710960D01*
X1101967Y710280D01*
X1101886Y709520D01*
Y725520D01*
X1101967Y724760D01*
D02*
G37*
%LPC*%
G36*
X2139764Y533116D02*
X2132741Y531719D01*
X2126787Y527741D01*
X2122808Y521787D01*
X2121411Y514764D01*
X2122144Y511079D01*
X2117652Y504046D01*
X2116302Y503079D01*
X2104205D01*
Y426055D01*
X2114716D01*
Y410870D01*
X2114401D01*
Y339870D01*
X2224201D01*
Y340172D01*
X2247905D01*
Y294165D01*
X2324929D01*
Y363315D01*
X2318378D01*
X2315081Y365518D01*
X2310039Y366521D01*
X2224201D01*
Y410870D01*
X2172686D01*
Y426055D01*
X2173354D01*
Y446375D01*
X2234126D01*
Y445740D01*
X2313474D01*
X2320614Y445740D01*
X2320992Y445740D01*
X2328614Y444828D01*
X2328614Y438149D01*
X2328614Y437992D01*
Y408339D01*
X2410422D01*
X2414879Y403882D01*
Y300454D01*
X2404218Y296038D01*
X2392266Y286868D01*
X2383096Y274916D01*
X2377331Y260998D01*
X2375365Y246063D01*
Y147638D01*
X2377331Y132702D01*
X2383096Y118785D01*
X2392266Y106833D01*
X2404218Y97663D01*
X2418135Y91898D01*
X2433071Y89931D01*
X2448006Y91898D01*
X2461924Y97663D01*
X2473875Y106833D01*
X2483046Y118785D01*
X2488811Y132702D01*
X2490777Y147638D01*
Y246063D01*
X2488811Y260998D01*
X2483046Y274916D01*
X2473875Y286868D01*
X2461924Y296038D01*
X2451263Y300454D01*
Y353409D01*
X2459263Y355001D01*
X2459466Y354510D01*
X2468169Y343169D01*
X2479510Y334466D01*
X2492717Y328996D01*
X2506890Y327130D01*
X2546182D01*
Y381890D01*
Y436650D01*
X2506890D01*
X2492717Y434784D01*
X2479510Y429313D01*
X2468169Y420611D01*
X2459466Y409270D01*
X2459263Y408779D01*
X2451263Y410370D01*
Y411417D01*
X2449878Y418379D01*
X2445935Y424281D01*
X2445934Y424281D01*
X2430187Y440029D01*
X2424285Y443973D01*
X2422769Y444274D01*
X2415480Y445992D01*
Y445992D01*
X2336132D01*
X2328992Y445992D01*
X2328614Y445992D01*
X2320992Y446905D01*
X2320992Y453584D01*
X2320992Y453740D01*
Y475394D01*
X2320992Y482229D01*
X2328614Y483141D01*
X2328837Y483142D01*
X2335964Y483142D01*
X2335964Y483142D01*
X2336132Y483142D01*
X2415480D01*
Y520795D01*
X2328614D01*
Y491142D01*
X2328614Y484306D01*
X2320992Y483394D01*
X2320769Y483394D01*
X2313642Y483394D01*
X2313642Y483394D01*
X2313474Y483394D01*
X2234126D01*
Y482759D01*
X2173354D01*
Y503079D01*
X2163226D01*
X2161876Y504046D01*
X2157383Y511079D01*
X2158116Y514764D01*
X2156719Y521787D01*
X2152741Y527741D01*
X2146787Y531719D01*
X2139764Y533116D01*
D02*
G37*
G36*
X2878126Y509568D02*
X2764126D01*
Y433568D01*
X2878126D01*
Y509568D01*
D02*
G37*
G36*
X2595472Y436650D02*
X2556182D01*
Y386890D01*
X2649574D01*
X2648366Y396063D01*
X2642896Y409270D01*
X2634193Y420611D01*
X2622852Y429313D01*
X2609645Y434784D01*
X2595472Y436650D01*
D02*
G37*
G36*
X2096201Y410870D02*
X2063201D01*
Y339870D01*
X2096201D01*
Y410870D01*
D02*
G37*
G36*
X1394685Y491102D02*
X1274606D01*
X1270705Y490325D01*
X1267397Y488115D01*
X1265187Y484808D01*
X1264410Y480906D01*
Y342126D01*
X1265187Y338224D01*
X1267397Y334917D01*
X1270705Y332706D01*
X1274606Y331930D01*
X1394685D01*
X1398587Y332706D01*
X1401895Y334917D01*
X1404105Y338224D01*
X1404881Y342126D01*
Y480906D01*
X1404105Y484808D01*
X1401895Y488115D01*
X1398587Y490325D01*
X1394685Y491102D01*
D02*
G37*
G36*
X2649574Y376890D02*
X2556182D01*
Y327130D01*
X2595472D01*
X2609645Y328996D01*
X2622852Y334466D01*
X2634193Y343169D01*
X2642896Y354510D01*
X2648366Y367717D01*
X2649574Y376890D01*
D02*
G37*
G36*
X2324929Y284575D02*
X2247905D01*
Y238568D01*
X2224201D01*
Y238870D01*
X2114401D01*
Y167870D01*
X2140316D01*
Y152685D01*
X2121921D01*
Y75661D01*
X2191071D01*
Y90861D01*
X2197255Y95936D01*
X2197835Y95821D01*
X2204858Y97218D01*
X2210812Y101196D01*
X2214790Y107150D01*
X2216187Y114173D01*
X2214790Y121196D01*
X2210812Y127150D01*
X2204858Y131129D01*
X2197835Y132526D01*
X2197255Y132411D01*
X2191071Y137486D01*
Y152685D01*
X2172686D01*
Y167870D01*
X2224201D01*
Y212219D01*
X2311024D01*
X2316065Y213222D01*
X2319362Y215425D01*
X2324929D01*
Y284575D01*
D02*
G37*
G36*
X1719488Y445518D02*
X1712465Y444121D01*
X1706511Y440142D01*
X1702532Y434188D01*
X1701135Y427165D01*
X1698194Y423582D01*
X1692913D01*
X1689012Y422806D01*
X1686887Y421386D01*
X1684913D01*
Y419412D01*
X1683494Y417288D01*
X1682717Y413386D01*
Y262795D01*
X1683494Y258894D01*
X1685704Y255586D01*
X1689012Y253375D01*
X1692913Y252599D01*
X1727532D01*
Y223779D01*
X1692913D01*
X1689012Y223002D01*
X1685704Y220792D01*
X1683494Y217484D01*
X1682717Y213583D01*
Y82677D01*
X1683494Y78775D01*
X1684914Y76650D01*
Y74677D01*
X1686887D01*
X1689012Y73257D01*
X1692913Y72481D01*
X1697387D01*
X1701136Y67914D01*
X1702533Y60891D01*
X1706511Y54937D01*
X1712465Y50958D01*
X1719488Y49561D01*
X1726512Y50958D01*
X1732466Y54937D01*
X1736444Y60891D01*
X1737841Y67914D01*
X1741590Y72481D01*
X1746063D01*
X1749965Y73257D01*
X1752090Y74677D01*
X1754063D01*
Y76651D01*
X1755483Y78775D01*
X1756259Y82677D01*
Y156295D01*
X1756565Y157594D01*
X1756799Y158180D01*
X1756799Y158180D01*
X1756882Y158388D01*
X1756883Y158393D01*
X1756886Y158398D01*
X1758338Y162044D01*
X1760807Y165849D01*
X1764147Y169281D01*
X1765667Y170441D01*
X1807335Y194952D01*
X1808219Y195740D01*
X1810166D01*
Y197475D01*
X1810304Y197599D01*
X1810867Y198763D01*
X1811585Y199838D01*
X1811725Y200539D01*
X1811845Y200787D01*
X1830709D01*
Y200787D01*
X1814961D01*
X1812992Y202756D01*
Y221668D01*
X1812912Y221890D01*
X1812513Y222480D01*
X1811953Y222992D01*
X1811234Y223425D01*
X1810354Y223780D01*
X1809315Y224055D01*
X1808116Y224252D01*
X1807221Y224330D01*
X1803305Y224098D01*
X1802754Y223986D01*
X1802361Y223856D01*
X1802124Y223709D01*
X1802045Y223545D01*
Y233148D01*
X1802124Y232983D01*
X1802361Y232837D01*
X1802754Y232707D01*
X1803305Y232595D01*
X1804014Y232500D01*
X1805904Y232361D01*
X1806963Y232341D01*
X1808116Y232441D01*
X1809315Y232638D01*
X1810354Y232913D01*
X1811234Y233268D01*
X1811953Y233701D01*
X1812513Y234213D01*
X1812912Y234803D01*
X1812992Y235025D01*
X1812992Y293307D01*
X1814961Y295276D01*
X1812154D01*
X1812154Y295353D01*
X1811775Y296252D01*
X1811585Y297209D01*
X1811011Y298068D01*
X1810611Y299020D01*
X1810166Y299460D01*
Y300323D01*
X1809505D01*
X1809375Y300517D01*
X1808516Y301091D01*
X1807782Y301817D01*
X1759550Y333650D01*
X1756259Y341595D01*
Y413386D01*
X1755483Y417288D01*
X1754063Y419413D01*
Y421386D01*
X1752090D01*
X1749965Y422806D01*
X1746063Y423582D01*
X1740782D01*
X1737841Y427165D01*
X1736444Y434188D01*
X1732465Y440142D01*
X1726511Y444121D01*
X1719488Y445518D01*
D02*
G37*
G36*
X2674291Y295243D02*
Y201851D01*
X2724051D01*
Y241142D01*
X2722185Y255315D01*
X2716715Y268522D01*
X2708012Y279863D01*
X2696671Y288565D01*
X2683464Y294036D01*
X2674291Y295243D01*
D02*
G37*
G36*
X2664291Y295243D02*
X2655119Y294036D01*
X2641912Y288565D01*
X2630570Y279863D01*
X2621868Y268522D01*
X2616398Y255315D01*
X2614532Y241142D01*
Y201851D01*
X2664291D01*
Y295243D01*
D02*
G37*
G36*
X1850394Y200787D02*
X1840551D01*
Y200787D01*
X1850394D01*
Y200787D01*
D02*
G37*
G36*
X2096201Y238870D02*
X2063201D01*
Y167870D01*
X2096201D01*
Y238870D01*
D02*
G37*
G36*
X1099449Y203845D02*
X1040315D01*
X1036825Y203150D01*
X1033866Y201173D01*
X1031889Y198214D01*
X1031195Y194724D01*
Y172992D01*
X1031889Y169502D01*
X1033866Y166543D01*
X1036825Y164566D01*
X1040315Y163872D01*
X1099449D01*
X1102939Y164566D01*
X1105898Y166543D01*
X1107875Y169502D01*
X1108569Y172992D01*
Y194724D01*
X1107875Y198214D01*
X1105898Y201173D01*
X1102939Y203150D01*
X1099449Y203845D01*
D02*
G37*
G36*
X1615158Y268464D02*
X1495079D01*
X1491177Y267687D01*
X1487869Y265477D01*
X1485659Y262169D01*
X1484883Y258268D01*
Y119488D01*
X1485659Y115586D01*
X1487869Y112278D01*
X1491177Y110068D01*
X1495079Y109292D01*
X1615158D01*
X1619059Y110068D01*
X1622367Y112278D01*
X1624577Y115586D01*
X1625353Y119488D01*
Y258268D01*
X1624577Y262169D01*
X1622367Y265477D01*
X1619059Y267687D01*
X1615158Y268464D01*
D02*
G37*
G36*
X2664291Y191851D02*
X2614532D01*
Y152559D01*
X2616398Y138386D01*
X2621868Y125179D01*
X2630570Y113838D01*
X2641912Y105136D01*
X2655119Y99665D01*
X2664291Y98457D01*
Y191851D01*
D02*
G37*
G36*
X2724051D02*
X2674291D01*
Y98457D01*
X2683464Y99665D01*
X2696671Y105136D01*
X2708012Y113838D01*
X2716715Y125179D01*
X2722185Y138386D01*
X2724051Y152559D01*
Y191851D01*
D02*
G37*
G36*
X2001968Y399960D02*
X1923228D01*
X1919327Y399184D01*
X1916019Y396973D01*
X1913809Y393666D01*
X1913033Y389764D01*
Y357921D01*
X1881534Y300323D01*
X1880780D01*
Y298944D01*
X1879834Y297215D01*
X1879668Y296686D01*
X1879360Y296225D01*
X1879171Y295276D01*
X1875984D01*
X1877953Y293307D01*
Y202756D01*
X1875984Y200787D01*
X1860236D01*
Y200787D01*
X1879171D01*
X1879360Y199838D01*
X1879894Y199038D01*
X1880255Y198146D01*
X1880780Y197347D01*
Y195740D01*
X1881834D01*
X1919922Y137701D01*
Y106299D01*
X1920698Y102397D01*
X1922908Y99090D01*
X1926216Y96879D01*
X1930118Y96103D01*
X2000984D01*
X2004886Y96879D01*
X2008194Y99090D01*
X2010404Y102397D01*
X2011180Y106299D01*
Y140748D01*
X2011180Y177040D01*
X2052291D01*
Y215032D01*
X2052291D01*
Y246855D01*
X2052526Y248032D01*
X2052291Y249208D01*
Y296780D01*
X2019300D01*
X2012018Y301181D01*
Y354582D01*
X2012164Y355315D01*
Y389764D01*
X2011388Y393666D01*
X2009178Y396973D01*
X2005870Y399184D01*
X2001968Y399960D01*
D02*
G37*
G36*
X715846Y276916D02*
X708823Y275519D01*
X702869Y271540D01*
X698891Y265586D01*
X698005Y261134D01*
X695346Y254063D01*
X695346Y254063D01*
X695346Y254063D01*
Y210504D01*
X800475D01*
X808441Y210423D01*
X810644Y205437D01*
X809478Y199768D01*
X809138Y198061D01*
X808702Y195866D01*
Y59055D01*
X809478Y55153D01*
X811688Y51846D01*
X814996Y49635D01*
X818898Y48859D01*
X887795D01*
X891697Y49635D01*
X895005Y51846D01*
X897215Y55153D01*
X897991Y59055D01*
Y195866D01*
X897215Y199768D01*
X895005Y203076D01*
X891697Y205286D01*
X887795Y206062D01*
X887309D01*
X886851Y213872D01*
X890341Y214566D01*
X893299Y216543D01*
X895276Y219502D01*
X895971Y222992D01*
Y244724D01*
X895276Y248214D01*
X893299Y251173D01*
X890341Y253150D01*
X886850Y253845D01*
X827717D01*
X824226Y253150D01*
X823087Y252389D01*
X815087Y254063D01*
X815087Y254063D01*
X737892D01*
X734199Y258563D01*
X732802Y265586D01*
X728824Y271540D01*
X722870Y275519D01*
X715846Y276916D01*
D02*
G37*
%LPD*%
G36*
X2147716Y507692D02*
X2147953Y504994D01*
X2148347Y502614D01*
X2148898Y500551D01*
X2149606Y498806D01*
X2150472Y497378D01*
X2151496Y496267D01*
X2152677Y495473D01*
X2154016Y494997D01*
X2155512Y494839D01*
X2124016D01*
X2125512Y494997D01*
X2126850Y495473D01*
X2128032Y496267D01*
X2129055Y497378D01*
X2129921Y498806D01*
X2130630Y500551D01*
X2131181Y502614D01*
X2131575Y504994D01*
X2131811Y507692D01*
X2131890Y510707D01*
X2147638D01*
X2147716Y507692D01*
D02*
G37*
G36*
X2242246Y453860D02*
X2242049Y454024D01*
X2241459Y454171D01*
X2240474Y454301D01*
X2237325Y454508D01*
X2222561Y454724D01*
Y474409D01*
X2242246Y475274D01*
Y453860D01*
D02*
G37*
G36*
X2165312Y482382D02*
X2165907Y480709D01*
X2166897Y479232D01*
X2168283Y477953D01*
X2170066Y476870D01*
X2172244Y475984D01*
X2174819Y475295D01*
X2177789Y474803D01*
X2181156Y474508D01*
X2184919Y474409D01*
Y454724D01*
X2181156Y454626D01*
X2177789Y454331D01*
X2174819Y453839D01*
X2172244Y453150D01*
X2170066Y452264D01*
X2168283Y451181D01*
X2166897Y449902D01*
X2165907Y448425D01*
X2165312Y446752D01*
X2165114Y444882D01*
Y484252D01*
X2165312Y482382D01*
D02*
G37*
G36*
X2407341Y437105D02*
X2407644Y437085D01*
X2412181Y437019D01*
X2417323Y437008D01*
Y417323D01*
X2407240Y417203D01*
Y437128D01*
X2407341Y437105D01*
D02*
G37*
G36*
X2146388Y434267D02*
X2165234Y434175D01*
X2165071Y434018D01*
X2164925Y433545D01*
X2164796Y432758D01*
X2164684Y431655D01*
X2164452Y426459D01*
X2164375Y418482D01*
X2164881Y402750D01*
X2148121D01*
X2148217Y402908D01*
X2148303Y403380D01*
X2148379Y404167D01*
X2148546Y408419D01*
X2148626Y418444D01*
X2148548Y421435D01*
X2148312Y424127D01*
X2147918Y426504D01*
X2147367Y428564D01*
X2146658Y430309D01*
X2145792Y431738D01*
X2144769Y432851D01*
X2143691Y433578D01*
X2142633Y432867D01*
X2141609Y431756D01*
X2140743Y430328D01*
X2140035Y428583D01*
X2139483Y426520D01*
X2139090Y424140D01*
X2138854Y421442D01*
X2138776Y418466D01*
X2139281Y402750D01*
X2122521D01*
X2122617Y402908D01*
X2122703Y403380D01*
X2122779Y404167D01*
X2122946Y408419D01*
X2123026Y418444D01*
X2122948Y421442D01*
X2122712Y424140D01*
X2122318Y426520D01*
X2121767Y428583D01*
X2121058Y430328D01*
X2120192Y431756D01*
X2119169Y432867D01*
X2117987Y433660D01*
X2116649Y434136D01*
X2115153Y434295D01*
X2146649D01*
X2146388Y434267D01*
D02*
G37*
G36*
X2199402Y358292D02*
X2200323Y358268D01*
Y348425D01*
X2199324Y348381D01*
X2199321Y347990D01*
X2199222Y348073D01*
X2198927Y348147D01*
X2198435Y348212D01*
X2197262Y348290D01*
X2190481Y347990D01*
Y348410D01*
X2189478Y348425D01*
Y358268D01*
X2190481Y358294D01*
Y363189D01*
X2190579Y362254D01*
X2190874Y361417D01*
X2191367Y360679D01*
X2192056Y360039D01*
X2192941Y359498D01*
X2194024Y359055D01*
X2194925Y358813D01*
X2195836Y359055D01*
X2196931Y359498D01*
X2197828Y360039D01*
X2198528Y360679D01*
X2199030Y361417D01*
X2199334Y362254D01*
X2199441Y363189D01*
X2199402Y358292D01*
D02*
G37*
G36*
X2216179Y362254D02*
X2216474Y361417D01*
X2216967Y360679D01*
X2217656Y360039D01*
X2218541Y359498D01*
X2219624Y359055D01*
X2220904Y358711D01*
X2222380Y358465D01*
X2224053Y358317D01*
X2225923Y358268D01*
Y348425D01*
X2216081Y347990D01*
Y363189D01*
X2216179Y362254D01*
D02*
G37*
G36*
X2256026Y355195D02*
X2256146Y343504D01*
X2256037Y344439D01*
X2255731Y345276D01*
X2255228Y346014D01*
X2254527Y346654D01*
X2253630Y347195D01*
X2252535Y347638D01*
X2251243Y347982D01*
X2249753Y348228D01*
X2248067Y348376D01*
X2246183Y348425D01*
Y358268D01*
X2256026Y355195D01*
D02*
G37*
G36*
X2443011Y309515D02*
X2443305Y305615D01*
X2443795Y302175D01*
X2444481Y299193D01*
X2445363Y296670D01*
X2446440Y294606D01*
X2447714Y293000D01*
X2449183Y291853D01*
X2450849Y291165D01*
X2452710Y290936D01*
X2413432D01*
X2415293Y291165D01*
X2416959Y291853D01*
X2418428Y293000D01*
X2419702Y294606D01*
X2420779Y296670D01*
X2421661Y299193D01*
X2422347Y302175D01*
X2422836Y305615D01*
X2423130Y309515D01*
X2423228Y313873D01*
X2442913D01*
X2443011Y309515D01*
D02*
G37*
G36*
X1394685Y342126D02*
X1274606D01*
Y480906D01*
X1394685D01*
Y342126D01*
D02*
G37*
G36*
X2199324Y230330D02*
X2200323Y230315D01*
Y220472D01*
X2199402Y220448D01*
X2199441Y215551D01*
X2199334Y216486D01*
X2199030Y217323D01*
X2198528Y218061D01*
X2197828Y218701D01*
X2196931Y219242D01*
X2195836Y219685D01*
X2194925Y219928D01*
X2194024Y219685D01*
X2192941Y219242D01*
X2192056Y218701D01*
X2191367Y218061D01*
X2190874Y217323D01*
X2190579Y216486D01*
X2190481Y215551D01*
Y220446D01*
X2189478Y220472D01*
Y230315D01*
X2190481Y230359D01*
Y230750D01*
X2190579Y230667D01*
X2190874Y230593D01*
X2191367Y230528D01*
X2192540Y230450D01*
X2199321Y230750D01*
X2199324Y230330D01*
D02*
G37*
G36*
X2256026Y223545D02*
X2246183Y220472D01*
Y230315D01*
X2248067Y230364D01*
X2249753Y230512D01*
X2251243Y230758D01*
X2252535Y231102D01*
X2253630Y231545D01*
X2254527Y232087D01*
X2255228Y232726D01*
X2255731Y233465D01*
X2256037Y234301D01*
X2256146Y235236D01*
X2256026Y223545D01*
D02*
G37*
G36*
X2216179Y230667D02*
X2216474Y230593D01*
X2216967Y230528D01*
X2218541Y230424D01*
X2225923Y230315D01*
Y220472D01*
X2224053Y220423D01*
X2222380Y220276D01*
X2220904Y220030D01*
X2219624Y219685D01*
X2218541Y219242D01*
X2217656Y218701D01*
X2216967Y218061D01*
X2216474Y217323D01*
X2216179Y216486D01*
X2216081Y215551D01*
Y230750D01*
X2216179Y230667D01*
D02*
G37*
G36*
X2164785Y175833D02*
X2164699Y175360D01*
X2164623Y174573D01*
X2164456Y170321D01*
X2164375Y160296D01*
X2164454Y157298D01*
X2164690Y154601D01*
X2165084Y152220D01*
X2165635Y150157D01*
X2166343Y148412D01*
X2167209Y146984D01*
X2168233Y145873D01*
X2169414Y145080D01*
X2170753Y144604D01*
X2172249Y144445D01*
X2140753D01*
X2142249Y144604D01*
X2143587Y145080D01*
X2144769Y145873D01*
X2145792Y146984D01*
X2146658Y148412D01*
X2147367Y150157D01*
X2147918Y152220D01*
X2148312Y154601D01*
X2148548Y157298D01*
X2148626Y160274D01*
X2148121Y175990D01*
X2164881D01*
X2164785Y175833D01*
D02*
G37*
G36*
X2182981Y127725D02*
X2183431Y126534D01*
X2184181Y125482D01*
X2185231Y124571D01*
X2186582Y123800D01*
X2188232Y123169D01*
X2190183Y122678D01*
X2192433Y122328D01*
X2194984Y122117D01*
X2197835Y122047D01*
Y106299D01*
X2194984Y106229D01*
X2192433Y106019D01*
X2190183Y105668D01*
X2188232Y105178D01*
X2186582Y104547D01*
X2185231Y103776D01*
X2184181Y102864D01*
X2183431Y101813D01*
X2182981Y100621D01*
X2182831Y99289D01*
Y129057D01*
X2182981Y127725D01*
D02*
G37*
G36*
X1727422Y424502D02*
X1727603Y422118D01*
X1727904Y420015D01*
X1728326Y418193D01*
X1728868Y416651D01*
X1729531Y415389D01*
X1730314Y414408D01*
X1731218Y413707D01*
X1731999Y413386D01*
X1746063D01*
Y339567D01*
X1750935Y327805D01*
X1752953Y325787D01*
X1802165Y293307D01*
Y262795D01*
X1692913D01*
Y413386D01*
X1706977D01*
X1707758Y413707D01*
X1708661Y414408D01*
X1709445Y415389D01*
X1710108Y416651D01*
X1710650Y418193D01*
X1711072Y420015D01*
X1711373Y422118D01*
X1711554Y424502D01*
X1711614Y427165D01*
X1727362D01*
X1727422Y424502D01*
D02*
G37*
G36*
X1778663Y243231D02*
X1778585Y243395D01*
X1778348Y243542D01*
X1777955Y243671D01*
X1777404Y243784D01*
X1776695Y243879D01*
X1774805Y244017D01*
X1770789Y244095D01*
Y251969D01*
X1772285Y251977D01*
X1777404Y252280D01*
X1777955Y252392D01*
X1778348Y252522D01*
X1778585Y252669D01*
X1778663Y252833D01*
Y243231D01*
D02*
G37*
G36*
X1760490Y252668D02*
X1760727Y252522D01*
X1761120Y252392D01*
X1761671Y252280D01*
X1762380Y252185D01*
X1764270Y252047D01*
X1768286Y251969D01*
Y244095D01*
X1766774Y244055D01*
X1765420Y243937D01*
X1764224Y243740D01*
X1763187Y243465D01*
X1762309Y243110D01*
X1761589Y242677D01*
X1761027Y242166D01*
X1760623Y241575D01*
X1760378Y240906D01*
X1760292Y240158D01*
X1760412Y252833D01*
X1760490Y252668D01*
D02*
G37*
G36*
X1802165Y203740D02*
X1768701Y184055D01*
X1759969Y178919D01*
X1757364Y176931D01*
X1752799Y172241D01*
X1749237Y166749D01*
X1747414Y162171D01*
X1747328Y161956D01*
X1747328Y161954D01*
X1746815Y160669D01*
X1746063Y157480D01*
X1746063Y157480D01*
Y82677D01*
X1732802D01*
X1731848Y82317D01*
X1730797Y81567D01*
X1729886Y80517D01*
X1729115Y79166D01*
X1728484Y77516D01*
X1727993Y75566D01*
X1727643Y73315D01*
X1727432Y70764D01*
X1727362Y67914D01*
X1711614D01*
X1711544Y70764D01*
X1711334Y73315D01*
X1710983Y75566D01*
X1710493Y77516D01*
X1709862Y79166D01*
X1709091Y80517D01*
X1708180Y81567D01*
X1707128Y82317D01*
X1706175Y82677D01*
X1692913D01*
Y213583D01*
X1802165D01*
Y203740D01*
D02*
G37*
G36*
X1615158Y119488D02*
X1495079D01*
Y258268D01*
X1615158D01*
Y119488D01*
D02*
G37*
G36*
X2001968Y355315D02*
X2001823D01*
Y301181D01*
X1928150D01*
X1924443Y296779D01*
X1922118D01*
Y294019D01*
X1912402Y282480D01*
X1888780D01*
Y292323D01*
X1923228Y355315D01*
Y389764D01*
X2001968D01*
Y355315D01*
D02*
G37*
G36*
X2016852Y263900D02*
X2016774Y263877D01*
X2016537Y263856D01*
X2014884Y263810D01*
X2008978Y263780D01*
Y271654D01*
X2010490Y271693D01*
X2011843Y271811D01*
X2013039Y272008D01*
X2014075Y272284D01*
X2014954Y272638D01*
X2015674Y273071D01*
X2016236Y273583D01*
X2016640Y274173D01*
X2016885Y274843D01*
X2016973Y275591D01*
X2016852Y263900D01*
D02*
G37*
G36*
X2000832Y274843D02*
X2001077Y274173D01*
X2001481Y273583D01*
X2002043Y273071D01*
X2002763Y272638D01*
X2003642Y272284D01*
X2004678Y272008D01*
X2005873Y271811D01*
X2007227Y271693D01*
X2008738Y271654D01*
Y263780D01*
X2000864Y263899D01*
X2000744Y275591D01*
X2000832Y274843D01*
D02*
G37*
G36*
X1973545Y263899D02*
X1973467Y263877D01*
X1973230Y263856D01*
X1971577Y263810D01*
X1965671Y263780D01*
Y271654D01*
X1967168Y271693D01*
X1968506Y271811D01*
X1969687Y272008D01*
X1970711Y272284D01*
X1971577Y272638D01*
X1972286Y273071D01*
X1972837Y273583D01*
X1973230Y274173D01*
X1973467Y274843D01*
X1973545Y275591D01*
Y263899D01*
D02*
G37*
G36*
X1957636Y274843D02*
X1957872Y274173D01*
X1958266Y273583D01*
X1958817Y273071D01*
X1959526Y272638D01*
X1960392Y272284D01*
X1961416Y272008D01*
X1962597Y271811D01*
X1963935Y271693D01*
X1965431Y271654D01*
Y263780D01*
X1957557Y263899D01*
Y275591D01*
X1957636Y274843D01*
D02*
G37*
G36*
X1930238Y263899D02*
X1930160Y263877D01*
X1929923Y263856D01*
X1928270Y263810D01*
X1922364Y263780D01*
Y271654D01*
X1923876Y271693D01*
X1925229Y271811D01*
X1926424Y272008D01*
X1927461Y272284D01*
X1928340Y272638D01*
X1929060Y273071D01*
X1929622Y273583D01*
X1930026Y274173D01*
X1930271Y274843D01*
X1930358Y275591D01*
X1930238Y263899D01*
D02*
G37*
G36*
X1912360Y272354D02*
X1912597Y272207D01*
X1912990Y272077D01*
X1913542Y271965D01*
X1914250Y271870D01*
X1916140Y271731D01*
X1920156Y271654D01*
Y263780D01*
X1918660Y263771D01*
X1913542Y263469D01*
X1912990Y263356D01*
X1912597Y263226D01*
X1912360Y263080D01*
X1912282Y262915D01*
Y272518D01*
X1912360Y272354D01*
D02*
G37*
G36*
Y252669D02*
X1912597Y252522D01*
X1912990Y252392D01*
X1913542Y252280D01*
X1914250Y252185D01*
X1916140Y252047D01*
X1920156Y251969D01*
Y244095D01*
X1918660Y244086D01*
X1913542Y243784D01*
X1912990Y243671D01*
X1912597Y243542D01*
X1912360Y243395D01*
X1912282Y243231D01*
Y252833D01*
X1912360Y252669D01*
D02*
G37*
G36*
X1912342Y232805D02*
X1912522Y232499D01*
X1912822Y232229D01*
X1913242Y231995D01*
X1913782Y231797D01*
X1914442Y231635D01*
X1915222Y231509D01*
X1916122Y231418D01*
X1918282Y231346D01*
Y225346D01*
X1917142Y225328D01*
X1915222Y225184D01*
X1914442Y225058D01*
X1913782Y224896D01*
X1913242Y224698D01*
X1912822Y224464D01*
X1912522Y224194D01*
X1912342Y223887D01*
X1912282Y223545D01*
Y233148D01*
X1912342Y232805D01*
D02*
G37*
G36*
X1973545Y222346D02*
X1973485Y222917D01*
X1973305Y223427D01*
X1973005Y223876D01*
X1972585Y224267D01*
X1972045Y224596D01*
X1971385Y224867D01*
X1970605Y225077D01*
X1969705Y225226D01*
X1968685Y225316D01*
X1967545Y225346D01*
Y231346D01*
X1968685Y231355D01*
X1972585Y231641D01*
X1973005Y231747D01*
X1973305Y231869D01*
X1973485Y232008D01*
X1973545Y232164D01*
Y222346D01*
D02*
G37*
G36*
X1957617Y232008D02*
X1957797Y231869D01*
X1958097Y231747D01*
X1958517Y231641D01*
X1959057Y231551D01*
X1959717Y231477D01*
X1961397Y231379D01*
X1963557Y231346D01*
Y225346D01*
X1962401Y225316D01*
X1961366Y225226D01*
X1960452Y225077D01*
X1959658Y224867D01*
X1958986Y224596D01*
X1958434Y224267D01*
X1958004Y223876D01*
X1957694Y223427D01*
X1957505Y222917D01*
X1957437Y222346D01*
X1957557Y232164D01*
X1957617Y232008D01*
D02*
G37*
G36*
X1930238Y222346D02*
X1930178Y222917D01*
X1929998Y223427D01*
X1929698Y223876D01*
X1929278Y224267D01*
X1928738Y224596D01*
X1928078Y224867D01*
X1927298Y225077D01*
X1926398Y225226D01*
X1925378Y225316D01*
X1924238Y225346D01*
Y231346D01*
X1925378Y231355D01*
X1929278Y231641D01*
X1929698Y231747D01*
X1929998Y231869D01*
X1930178Y232008D01*
X1930238Y232164D01*
Y222346D01*
D02*
G37*
G36*
X2000814Y214091D02*
X2001005Y213581D01*
X2001316Y213131D01*
X2001747Y212741D01*
X2002299Y212411D01*
X2002971Y212141D01*
X2003764Y211931D01*
X2004677Y211781D01*
X2005710Y211691D01*
X2006864Y211661D01*
Y205661D01*
X2000864Y207404D01*
X2000744Y214661D01*
X2000814Y214091D01*
D02*
G37*
G36*
X2016852Y209919D02*
X2016972Y202661D01*
X2016902Y203231D01*
X2016712Y203741D01*
X2016401Y204191D01*
X2015969Y204581D01*
X2015418Y204911D01*
X2014745Y205181D01*
X2013953Y205391D01*
X2013040Y205541D01*
X2012006Y205631D01*
X2010852Y205661D01*
Y211661D01*
X2016852Y209919D01*
D02*
G37*
G36*
X1922118Y203326D02*
Y199284D01*
X1925948D01*
X1930118Y194882D01*
X2000984D01*
X2000984Y140748D01*
Y106299D01*
X1930118D01*
Y140748D01*
X1888780Y203740D01*
Y213583D01*
X1912402D01*
X1922118Y203326D01*
D02*
G37*
G36*
X719823Y252321D02*
X719839Y252136D01*
X722146D01*
X721697Y251648D01*
X721296Y251112D01*
X720941Y250527D01*
X720634Y249893D01*
X720374Y249211D01*
X720334Y249072D01*
X720413Y248778D01*
X720768Y247911D01*
X721201Y247203D01*
X721713Y246652D01*
X722303Y246258D01*
X722972Y246022D01*
X723721Y245943D01*
X719806D01*
X719784Y245070D01*
X711909D01*
X711887Y245943D01*
X707972D01*
X708721Y246022D01*
X709390Y246258D01*
X709980Y246652D01*
X710492Y247203D01*
X710925Y247911D01*
X711280Y248778D01*
X711359Y249072D01*
X711319Y249211D01*
X711059Y249893D01*
X710752Y250527D01*
X710397Y251112D01*
X709995Y251648D01*
X709547Y252136D01*
X711854D01*
X711870Y252321D01*
X711909Y253817D01*
X719784D01*
X719823Y252321D01*
D02*
G37*
G36*
X826944Y224410D02*
X826864Y225157D01*
X826624Y225827D01*
X826224Y226417D01*
X825665Y226929D01*
X824945Y227362D01*
X824066Y227717D01*
X823027Y227992D01*
X821827Y228189D01*
X820469Y228307D01*
X818950Y228346D01*
Y236220D01*
X820469Y236260D01*
X821827Y236378D01*
X823027Y236575D01*
X824066Y236850D01*
X824945Y237205D01*
X825665Y237638D01*
X826224Y238150D01*
X826624Y238740D01*
X826864Y239410D01*
X826944Y240157D01*
Y224410D01*
D02*
G37*
G36*
X806927Y239410D02*
X807167Y238740D01*
X807566Y238150D01*
X808126Y237638D01*
X808845Y237205D01*
X809725Y236850D01*
X810764Y236575D01*
X811963Y236378D01*
X813322Y236260D01*
X814841Y236220D01*
Y228346D01*
X813322Y228307D01*
X811963Y228189D01*
X810764Y227992D01*
X809725Y227717D01*
X808845Y227362D01*
X808126Y226929D01*
X807566Y226417D01*
X807167Y225827D01*
X806927Y225157D01*
X806847Y224410D01*
Y240157D01*
X806927Y239410D01*
D02*
G37*
G36*
X744335Y224410D02*
X744255Y225157D01*
X744015Y225827D01*
X743615Y226417D01*
X743056Y226929D01*
X742336Y227362D01*
X741457Y227717D01*
X740417Y227992D01*
X739218Y228189D01*
X737859Y228307D01*
X736341Y228346D01*
Y236220D01*
X737859Y236260D01*
X739218Y236378D01*
X740417Y236575D01*
X741457Y236850D01*
X742336Y237205D01*
X743056Y237638D01*
X743615Y238150D01*
X744015Y238740D01*
X744255Y239410D01*
X744335Y240157D01*
Y224410D01*
D02*
G37*
G36*
X728186Y239410D02*
X728426Y238740D01*
X728826Y238150D01*
X729385Y237638D01*
X730105Y237205D01*
X730984Y236850D01*
X732024Y236575D01*
X733223Y236378D01*
X734582Y236260D01*
X736101Y236220D01*
Y228346D01*
X734582Y228307D01*
X733223Y228189D01*
X732024Y227992D01*
X730984Y227717D01*
X730105Y227362D01*
X729385Y226929D01*
X728826Y226417D01*
X728426Y225827D01*
X728186Y225157D01*
X728106Y224410D01*
Y240157D01*
X728186Y239410D01*
D02*
G37*
G36*
X887795Y59055D02*
X818898D01*
Y195866D01*
X887795D01*
Y59055D01*
D02*
G37*
D10*
X922901Y602362D02*
G03*
X859611Y576146I0J-89506D01*
G01*
X837590Y554125D02*
G03*
X837598Y554134I-11873J11890D01*
G01*
X825717Y549212D02*
G03*
X837590Y554125I0J16803D01*
G01*
X2888780Y602362D02*
X2970376D01*
X922901Y602362D02*
X2888780D01*
Y602362D01*
X837598Y554134D02*
X859611Y576146D01*
X837590Y554125D02*
X837598Y554134D01*
X794587Y549212D02*
X825717D01*
D11*
X558356Y521644D02*
G03*
X546555Y509842I0J-11801D01*
G01*
X556102Y546260D02*
G03*
X539469Y553150I-16633J-16633D01*
G01*
X557088Y545274D02*
G03*
X566604Y541333I9515J9519D01*
G01*
X557087Y545275D02*
G03*
X557088Y545274I9517J9517D01*
G01*
X830709Y283858D02*
X857284D01*
X817918D02*
X830709D01*
Y276575D02*
Y283858D01*
Y387681D02*
X835335Y392307D01*
X811688Y368660D02*
X830709Y387681D01*
X811688Y290088D02*
X817918Y283858D01*
X811688Y290088D02*
Y368660D01*
X835335Y392307D02*
Y462599D01*
X954331Y717520D02*
X1022047D01*
X1900591Y267717D02*
X2021949D01*
X830709Y457973D02*
X835335Y462599D01*
X1756890Y248032D02*
X1790354D01*
X1748032Y239173D02*
X1756890Y248032D01*
X855709Y232284D02*
X857284Y233858D01*
X794587Y232284D02*
X855709D01*
X835334Y505905D02*
X835335Y505906D01*
X794587Y505905D02*
X835334D01*
X835335Y462599D02*
Y505906D01*
X912697Y419291D02*
X940945D01*
X912697D02*
X914075Y420669D01*
Y462599D01*
X2021949Y267717D02*
X2030512Y276280D01*
X1900591Y248032D02*
X2040355D01*
X1790354Y228346D02*
X1825787D01*
X715846Y232284D02*
X756595D01*
X715846D02*
Y258563D01*
X312697Y437303D02*
Y466535D01*
X558356Y521644D02*
X593575D01*
X508563Y553150D02*
X539469D01*
X566604Y541333D02*
X593575D01*
X557087Y545275D02*
X557088Y545274D01*
X556102Y546260D02*
X557087Y545275D01*
X508563Y553149D02*
X508563Y553150D01*
X661420Y426425D02*
X661664Y426181D01*
X661420Y426425D02*
Y473488D01*
X756909Y505905D02*
Y549212D01*
X749030Y541333D02*
X756909Y549212D01*
X709819Y541333D02*
X749030D01*
X350689Y553149D02*
Y582677D01*
X661664Y426181D02*
X661732D01*
D12*
X2883126Y690112D02*
D03*
Y514568D02*
D03*
D13*
X2972126Y602362D02*
D03*
D14*
X100000Y538386D02*
D03*
D15*
X624606Y60000D02*
D03*
X396260Y727402D02*
D03*
D16*
X2060039Y464567D02*
D03*
X2138780D02*
D03*
X2077756Y114173D02*
D03*
X2156496D02*
D03*
D17*
X2286417Y328740D02*
D03*
Y250000D02*
D03*
D18*
X954331Y717520D02*
D03*
X892126Y717520D02*
D03*
X1084252D02*
D03*
X1022047Y717520D02*
D03*
D19*
X914075Y505906D02*
D03*
X952067D02*
D03*
X835335D02*
D03*
X873327D02*
D03*
X549902Y624016D02*
D03*
X587894D02*
D03*
X717224Y438976D02*
D03*
X755216D02*
D03*
X755217Y624016D02*
D03*
X717224D02*
D03*
X587894Y438976D02*
D03*
X549902D02*
D03*
X1710040Y239173D02*
D03*
X1748032Y239173D02*
D03*
X350689Y466535D02*
D03*
X312697D02*
D03*
X312697Y509842D02*
D03*
X350689D02*
D03*
X429429Y466535D02*
D03*
X391437D02*
D03*
X234154Y553149D02*
D03*
X272146D02*
D03*
X508563Y509842D02*
D03*
X546555D02*
D03*
X391457D02*
D03*
X429449D02*
D03*
X312697Y553149D02*
D03*
X350689D02*
D03*
X470571D02*
D03*
X508563D02*
D03*
X429449D02*
D03*
X391457D02*
D03*
X715846Y232284D02*
D03*
X677854D02*
D03*
X952067Y462599D02*
D03*
X914075D02*
D03*
X873327D02*
D03*
X835335D02*
D03*
X794587Y505905D02*
D03*
X756595D02*
D03*
Y549212D02*
D03*
X794587D02*
D03*
X756595Y232284D02*
D03*
X794587D02*
D03*
X912697Y419291D02*
D03*
X874705D02*
D03*
D20*
X1845473Y120079D02*
D03*
X1719488D02*
D03*
X1719488Y375984D02*
D03*
X1845472D02*
D03*
D21*
X1943898Y181791D02*
D03*
X1943898Y219784D02*
D03*
X1987205D02*
D03*
Y181792D02*
D03*
X1943898Y314272D02*
D03*
X1943898Y276279D02*
D03*
X1987205Y314272D02*
D03*
Y276279D02*
D03*
X2030512Y276280D02*
D03*
X2030512Y314272D02*
D03*
Y197540D02*
D03*
X2030512Y235532D02*
D03*
X629921Y638484D02*
D03*
Y676476D02*
D03*
X673228Y638484D02*
D03*
Y676476D02*
D03*
X661417Y426181D02*
D03*
Y388189D02*
D03*
D22*
X2277559Y464567D02*
D03*
X2372047Y501968D02*
D03*
X2372047Y427165D02*
D03*
D23*
X1334646Y173425D02*
D03*
Y426969D02*
D03*
X1555118Y173425D02*
D03*
Y426969D02*
D03*
D24*
X1845473Y248032D02*
D03*
D25*
X1900591Y287402D02*
D03*
Y267717D02*
D03*
Y248032D02*
D03*
X1900591Y228346D02*
D03*
X1900591Y208661D02*
D03*
X1790354D02*
D03*
Y228346D02*
D03*
X1790354Y248032D02*
D03*
X1790355Y267717D02*
D03*
Y287402D02*
D03*
D26*
X2079701Y203370D02*
D03*
X2105301D02*
D03*
X2130901D02*
D03*
X2156501D02*
D03*
X2182101D02*
D03*
X2207701D02*
D03*
Y375370D02*
D03*
X2182101D02*
D03*
X2156501D02*
D03*
X2130901D02*
D03*
X2105301D02*
D03*
X2079701D02*
D03*
D27*
X2143701Y289370D02*
D03*
D28*
X717323Y688976D02*
D03*
X751181D02*
D03*
X587795D02*
D03*
X553937D02*
D03*
Y374016D02*
D03*
X587795D02*
D03*
X751181D02*
D03*
X717323D02*
D03*
D29*
X1152559Y252953D02*
D03*
Y323819D02*
D03*
D30*
X866142Y109252D02*
D03*
X937008D02*
D03*
D31*
X593575Y561024D02*
D03*
Y541333D02*
D03*
Y521644D02*
D03*
Y501954D02*
D03*
X709575D02*
D03*
Y521644D02*
D03*
Y541333D02*
D03*
Y561024D02*
D03*
D32*
X622040Y473488D02*
D03*
X641730D02*
D03*
X661420D02*
D03*
X681110D02*
D03*
Y589489D02*
D03*
X661420D02*
D03*
X641730D02*
D03*
X622040D02*
D03*
D33*
X651575Y531489D02*
D03*
D34*
X857284Y333858D02*
D03*
Y283858D02*
D03*
Y233858D02*
D03*
Y183858D02*
D03*
X1069882D02*
D03*
Y233858D02*
D03*
Y283858D02*
D03*
Y333858D02*
D03*
D35*
X2156501Y375370D02*
Y464567D01*
X2130901Y375370D02*
Y464567D01*
X2138780D01*
X2156501D01*
X2138780D02*
X2139764Y465551D01*
Y514764D01*
X1719488Y375984D02*
Y427165D01*
X1719488Y67914D02*
Y120079D01*
X2156496Y114173D02*
X2197835D01*
X2156496D02*
X2156501Y114178D01*
Y203370D01*
D36*
Y464567D02*
X2277559D01*
X2433071Y196850D02*
Y411417D01*
X2417323Y427165D02*
X2433071Y411417D01*
X2372047Y427165D02*
X2417323D01*
D37*
X1084252Y717520D02*
X1118110D01*
X1027953Y233858D02*
X1069882D01*
X874705Y387106D02*
X1027953Y233858D01*
X874705Y387106D02*
Y419291D01*
X873327Y505906D02*
X914075D01*
X873327Y462599D02*
X874705Y461221D01*
Y419291D02*
Y461221D01*
X593819Y473740D02*
Y501954D01*
X673228Y676476D02*
Y702756D01*
D38*
X2182101Y353346D02*
Y375370D01*
Y353346D02*
X2310039D01*
X2182101Y225394D02*
X2311024D01*
X2182101Y203370D02*
Y225394D01*
D39*
X835335Y333858D02*
X857284D01*
D40*
X1986220Y208661D02*
X2030512D01*
Y197540D02*
Y208661D01*
X1900591Y228346D02*
X1978642D01*
D41*
X508563Y509842D02*
Y553149D01*
X391437Y431398D02*
Y466535D01*
X429429D02*
X429449Y466555D01*
Y509842D01*
X312697D02*
Y553149D01*
X350689Y466535D02*
Y509842D01*
X391457D02*
Y553149D01*
D42*
X432087D02*
X466535D01*
X354331D02*
X387795D01*
D43*
X2551181Y381890D02*
D03*
D44*
X2669291Y196850D02*
D03*
D45*
X2433071D02*
D03*
D46*
X710630Y317913D02*
D03*
X592520D02*
D03*
X622047D02*
D03*
X651575D02*
D03*
X681102D02*
D03*
X710630Y748031D02*
D03*
X592520D02*
D03*
X622047D02*
D03*
X651575D02*
D03*
X681102D02*
D03*
X2967126Y568346D02*
D03*
X2917126D02*
D03*
X2867126D02*
D03*
X2817126D02*
D03*
Y636362D02*
D03*
X2867126D02*
D03*
X2917126D02*
D03*
X2967126D02*
D03*
X834152Y587817D02*
D03*
X888308Y565669D02*
D03*
X947393Y576108D02*
D03*
X1007393D02*
D03*
X1067393D02*
D03*
X1127393D02*
D03*
X1187393D02*
D03*
X1247393D02*
D03*
X1307393D02*
D03*
X1367393D02*
D03*
X1427393D02*
D03*
X1487393D02*
D03*
X1547393D02*
D03*
X1607393D02*
D03*
X1667393D02*
D03*
X1727393D02*
D03*
X1787393D02*
D03*
X1847393D02*
D03*
X1907393D02*
D03*
X1967393D02*
D03*
X2027393D02*
D03*
X2087393D02*
D03*
X2147393D02*
D03*
X2207393D02*
D03*
X2267393D02*
D03*
X2327393D02*
D03*
X2387393D02*
D03*
X2447393D02*
D03*
X2507393D02*
D03*
X2567393D02*
D03*
X2627393D02*
D03*
X2687393D02*
D03*
X2747393D02*
D03*
X2724578Y628616D02*
D03*
X2664578D02*
D03*
X2604578D02*
D03*
X2544578D02*
D03*
X2484578D02*
D03*
X2424578D02*
D03*
X2364578D02*
D03*
X2304578D02*
D03*
X2244578D02*
D03*
X2184578D02*
D03*
X2124578D02*
D03*
X2064578D02*
D03*
X2004578D02*
D03*
X1944578D02*
D03*
X1884578D02*
D03*
X1824578D02*
D03*
X1764578D02*
D03*
X1704578D02*
D03*
X1644578D02*
D03*
X1584578D02*
D03*
X1524578D02*
D03*
X1464578D02*
D03*
X1404578D02*
D03*
X1344578D02*
D03*
X1284578D02*
D03*
X1224578D02*
D03*
X1164578D02*
D03*
X1104578D02*
D03*
X1044578D02*
D03*
X984578D02*
D03*
X924578D02*
D03*
X1943898Y118110D02*
D03*
X1987205D02*
D03*
X1943898Y377953D02*
D03*
X1987205D02*
D03*
X393701Y669291D02*
D03*
X354331D02*
D03*
X472441D02*
D03*
X433071D02*
D03*
X594488Y118110D02*
D03*
X1118110Y717520D02*
D03*
X2139764Y514764D02*
D03*
X1719488Y427165D02*
D03*
X2143701Y309055D02*
D03*
X2030512Y343504D02*
D03*
X1887795Y355315D02*
D03*
X1719488Y67914D02*
D03*
X1887795Y140748D02*
D03*
X1803150Y140748D02*
D03*
Y99409D02*
D03*
X1887795Y99410D02*
D03*
X2197835Y114173D02*
D03*
X2017717Y443898D02*
D03*
Y485236D02*
D03*
X2035433Y93504D02*
D03*
Y134842D02*
D03*
X1822835Y248106D02*
D03*
X1868110Y248032D02*
D03*
X1599409Y244488D02*
D03*
X1569882D02*
D03*
X1540354D02*
D03*
X1510827D02*
D03*
X1378937Y355906D02*
D03*
X1349410D02*
D03*
X1319882D02*
D03*
X1290354D02*
D03*
X1510827D02*
D03*
X1540354D02*
D03*
X1569882D02*
D03*
X1599410D02*
D03*
X1290354Y244488D02*
D03*
X1319882D02*
D03*
X1349410D02*
D03*
X1378937D02*
D03*
X1887795Y396654D02*
D03*
X1803150Y355315D02*
D03*
Y396653D02*
D03*
X2850394Y309055D02*
D03*
X2919292Y171260D02*
D03*
X2850394Y33465D02*
D03*
X2712599Y309055D02*
D03*
X2781497Y171260D02*
D03*
X2712599Y33465D02*
D03*
X2643702Y446851D02*
D03*
X2574804Y309055D02*
D03*
Y33465D02*
D03*
X2505906Y446851D02*
D03*
X2437009Y33465D02*
D03*
X2299213D02*
D03*
X2023623D02*
D03*
X1885827D02*
D03*
X1748032D02*
D03*
X1679134Y446851D02*
D03*
X1610237Y309055D02*
D03*
Y33465D02*
D03*
X1472441Y309055D02*
D03*
Y33465D02*
D03*
X1334646Y309055D02*
D03*
X1403544Y171260D02*
D03*
X1334646Y33465D02*
D03*
X1265748Y171260D02*
D03*
X1196851Y33465D02*
D03*
X1127953Y446851D02*
D03*
Y171260D02*
D03*
X1059056Y33465D02*
D03*
X990158Y171260D02*
D03*
X921260Y33465D02*
D03*
X783465Y584646D02*
D03*
X714567Y171260D02*
D03*
X507874Y309055D02*
D03*
X576772Y171260D02*
D03*
X1681102Y239173D02*
D03*
X2143701Y269685D02*
D03*
X784449Y393701D02*
D03*
Y354331D02*
D03*
X940945Y419291D02*
D03*
X1202756Y428150D02*
D03*
X750315Y748031D02*
D03*
X789685D02*
D03*
X677854Y203740D02*
D03*
X649606Y232284D02*
D03*
X1987205Y152559D02*
D03*
X1943898D02*
D03*
X1987205Y343504D02*
D03*
X1943898D02*
D03*
X1152559Y361221D02*
D03*
X1189961Y323819D02*
D03*
X827756Y109252D02*
D03*
X866142Y71850D02*
D03*
X937008D02*
D03*
X973425Y109252D02*
D03*
X354331Y433071D02*
D03*
X472441D02*
D03*
X433071D02*
D03*
X393701D02*
D03*
X304568Y368660D02*
D03*
X332407Y340821D02*
D03*
X360246Y312982D02*
D03*
X388085Y285143D02*
D03*
X415924Y257305D02*
D03*
X443763Y229466D02*
D03*
X471602Y201627D02*
D03*
X499440Y173788D02*
D03*
X527279Y145949D02*
D03*
X1152559Y214567D02*
D03*
X1189961Y252953D02*
D03*
X980315Y462599D02*
D03*
Y505906D02*
D03*
X651575Y531489D02*
D03*
X715846Y258563D02*
D03*
X312697Y437303D02*
D03*
X511811Y354331D02*
D03*
X551181Y590551D02*
D03*
Y472441D02*
D03*
Y748031D02*
D03*
X511811Y590551D02*
D03*
X673228Y702756D02*
D03*
X593819Y473740D02*
D03*
X751968Y39370D02*
D03*
Y78740D02*
D03*
Y118110D02*
D03*
X712598D02*
D03*
X673228D02*
D03*
X633858D02*
D03*
X511811Y472441D02*
D03*
Y393701D02*
D03*
Y433071D02*
D03*
X555118Y118110D02*
D03*
X511811Y629921D02*
D03*
Y669291D02*
D03*
X350689Y582677D02*
D03*
X789685Y669291D02*
D03*
X511811Y748031D02*
D03*
X784449Y433071D02*
D03*
X511811Y708661D02*
D03*
X789685Y629921D02*
D03*
Y708661D02*
D03*
%TF.MD5,9eeba445c1ad3327959eab3ad181f6b1*%
M02*
