<?xml version="1.0" encoding="UTF-8" standalone="no"?>
<!-- Created with Inkscape (http://www.inkscape.org/) -->

<svg
   width="8.5in"
   height="14in"
   viewBox="0 0 215.9 355.6"
   version="1.1"
   id="svg1"
   xml:space="preserve"
   inkscape:version="1.3 (0e150ed6c4, 2023-07-21)"
   sodipodi:docname="Stencil jig.svg"
   xmlns:inkscape="http://www.inkscape.org/namespaces/inkscape"
   xmlns:sodipodi="http://sodipodi.sourceforge.net/DTD/sodipodi-0.dtd"
   xmlns="http://www.w3.org/2000/svg"
   xmlns:svg="http://www.w3.org/2000/svg"><sodipodi:namedview
     id="namedview1"
     pagecolor="#ffffff"
     bordercolor="#000000"
     borderopacity="0.25"
     inkscape:showpageshadow="2"
     inkscape:pageopacity="0.0"
     inkscape:pagecheckerboard="0"
     inkscape:deskcolor="#d1d1d1"
     inkscape:document-units="in"
     inkscape:zoom="1.5340488"
     inkscape:cx="421.75972"
     inkscape:cy="396.01086"
     inkscape:window-width="1920"
     inkscape:window-height="1057"
     inkscape:window-x="-8"
     inkscape:window-y="-8"
     inkscape:window-maximized="1"
     inkscape:current-layer="layer1" /><defs
     id="defs1"><marker
       id="DistanceX"
       orient="auto"
       refX="0.0"
       refY="0.0"
       style="overflow:visible"><path
         d="M 3,-3 L -3,3 M 0,-5 L  0,5"
         style="stroke:#000000; stroke-width:0.5"
         id="path1" /></marker><pattern
       id="Hatch"
       patternUnits="userSpaceOnUse"
       width="8"
       height="8"
       x="0"
       y="0"><path
         d="M8 4 l-4,4"
         stroke="#000000"
         stroke-width="0.25"
         linecap="square"
         id="path2" /><path
         d="M6 2 l-4,4"
         stroke="#000000"
         stroke-width="0.25"
         linecap="square"
         id="path3" /><path
         d="M4 0 l-4,4"
         stroke="#000000"
         stroke-width="0.25"
         linecap="square"
         id="path4" /></pattern><symbol
       id="*Model_Space" /><symbol
       id="*Paper_Space" /><symbol
       id="*Paper_Space0" /><symbol
       id="MILL_MAX_0339_1" /><symbol
       id="CAPC0805_2012_100_M_2" /><symbol
       id="CAPC0805_2012_100_M_3" /><symbol
       id="CAPC0805_2012_145_M_4" /><symbol
       id="RESC0603_1608__M_5" /><symbol
       id="LED0603_1608__M_6" /><symbol
       id="RESC0402_1005__M_7" /><symbol
       id="RESC0402_1005__M_8" /><symbol
       id="CAPC0402_1005_50_M_9" /><symbol
       id="CAPC0402_1005_50_M_10" /><symbol
       id="CAPC0402_1005_50_M_11" /><symbol
       id="CAPC0402_1005_50_M_12" /><symbol
       id="INF_PG_SC59_M_13" /><symbol
       id="CAPC1206_3216_170_M_14" /><symbol
       id="CAPC1206_3216_170_M_15" /><symbol
       id="RESC0402_1005__M_16" /><symbol
       id="RESC0402_1005__M_17" /><symbol
       id="RESC0402_1005__M_18" /><symbol
       id="RESC0402_1005__M_19" /><symbol
       id="MILL_MAX_0339_20" /><symbol
       id="CAPC0402_1005_50_M_21" /><symbol
       id="CAPC0402_1005_50_M_22" /><symbol
       id="RESC0402_1005__M_23" /><symbol
       id="RESC0402_1005__M_24" /><symbol
       id="DSC0010J_NV_25" /><symbol
       id="MSOP_12_MSE_26" /><symbol
       id="RESC0402_1005__M_27" /><symbol
       id="RESC0402_1005__M_28" /><symbol
       id="RESC0402_1005__M_29" /><symbol
       id="RESC0402_1005__M_30" /><symbol
       id="CUI_PJ_002A_31" /><symbol
       id="CAPC0402_1005_50_M_32" /><symbol
       id="CAPC0402_1005_50_M_33" /><symbol
       id="CAPC0402_1005_50_M_34" /><symbol
       id="KEMET_D_M_35" /><symbol
       id="KEMET_D_M_36" /><symbol
       id="CAPC0603_1608_100_M_37" /><symbol
       id="CAPC0603_1608_100_M_38" /><symbol
       id="CAPC0306_M_39" /><symbol
       id="CAPC0306_M_40" /><symbol
       id="CAPC0306_M_41" /><symbol
       id="CAPC0306_M_42" /><symbol
       id="SOIC_8_43" /><symbol
       id="VQFN16_RGT_TEX__OSHPARK_44" /><symbol
       id="RESC0402_1005__M_45" /><symbol
       id="RESC0402_1005__M_46" /><symbol
       id="RESC0402_1005__M_47" /><symbol
       id="RESC0402_1005__M_48" /><symbol
       id="RESC0402_1005__M_49" /><symbol
       id="RESC0402_1005__M_50" /><symbol
       id="RESC0402_1005__M_51" /><symbol
       id="RESC0402_1005__M_52" /><symbol
       id="RESC0402_1005__M_53" /><symbol
       id="RESC0402_1005__M_54" /><symbol
       id="MILL_MAX_0339_55" /><symbol
       id="901_10511_3_56" /><symbol
       id="CAPC0402_1005_50_M_57" /></defs><g
     inkscape:label="Layer 1"
     inkscape:groupmode="layer"
     id="layer1"
     transform="translate(0,58.6)"><path
       style="fill:none;stroke:#ff00ff;stroke-width:0.264583"
       d="m 79.00763,195.10249 7.525014,7.52501 v 2.87443 h 62.675026 v -19.99958 l -68.474957,2.6e-4 v 3.04985 H 79.00763 l -5.799958,1.77509 v 2.99985 z"
       id="path64"
       sodipodi:nodetypes="ccccccccccc" /><rect
       style="fill:none;stroke:#000000;stroke-width:0.264527;stroke-dasharray:none"
       id="rect1"
       width="177.53548"
       height="126.73547"
       x="22.439934"
       y="132.1344" /><path
       style="font-size:4.9389px;font-family:'Berkeley Mono';-inkscape-font-specification:'Berkeley Mono';fill:#000080;stroke-width:0.265"
       d="m 32.749133,239.47558 c 1.022353,0 1.323625,-0.21238 1.323625,-0.92852 0,-0.52846 -0.138289,-0.72601 -0.607484,-0.85936 v -0.0296 c 0.360539,-0.084 0.469195,-0.24694 0.469195,-0.71614 0,-0.68651 -0.31115,-0.889 -1.353258,-0.889 -0.133351,0 -0.286457,0.005 -0.671691,0.0247 v 3.35846 c 0.325968,0.0296 0.518585,0.0395 0.839613,0.0395 z m -0.424745,-0.40005 v -1.19028 h 0.637118 c 0.528462,0 0.686507,0.13829 0.686507,0.61242 0,0.44944 -0.1778,0.58773 -0.770468,0.60255 -0.22719,0.005 -0.355601,0 -0.553157,-0.0247 z m 0,-1.55576 v -1.09149 c 0.276578,-0.01 0.424745,-0.01 0.646996,0.01 0.424745,0.0296 0.548218,0.15805 0.548218,0.55316 0,0.39511 -0.09878,0.51365 -0.439562,0.52846 z m 3.605399,1.96075 c 0.814918,0 1.061863,-0.25189 1.061863,-1.10632 v -2.29659 h -0.424745 v 2.28178 c 0,0.56797 -0.143228,0.73095 -0.637118,0.73095 -0.523524,0 -0.681568,-0.16298 -0.681568,-0.73589 v -2.27684 h -0.424746 v 2.30153 c 0,0.84949 0.256823,1.10138 1.106314,1.10138 z m 2.015073,-0.0445 h 0.424745 v -1.48661 h 1.39277 v -0.39018 h -1.39277 v -1.09149 h 1.585387 v -0.39018 H 37.94486 Z m 3.886916,0.0494 c 0.918636,0 1.111253,-0.16298 1.111253,-0.94333 0,-0.45931 -0.108656,-0.61242 -0.632179,-0.90381 v -0.0296 c 0.44944,-0.242 0.543279,-0.37535 0.543279,-0.7754 0,-0.66676 -0.172862,-0.80505 -1.022353,-0.80505 -0.844551,0 -1.017413,0.13829 -1.017413,0.80505 0,0.40005 0.09384,0.5334 0.543279,0.7754 v 0.0296 c -0.518584,0.28645 -0.62724,0.43956 -0.62724,0.90381 0,0.78035 0.187678,0.94333 1.101374,0.94333 z m -0.691446,-0.92357 c 0,-0.43462 0.118534,-0.56797 0.691446,-0.77541 0.582791,0.21238 0.701324,0.34573 0.701324,0.78529 0,0.45438 -0.118533,0.54822 -0.701324,0.54822 -0.572912,0 -0.691446,-0.0938 -0.691446,-0.5581 z m 0.08396,-1.72861 c 0,-0.37042 0.103717,-0.44451 0.607484,-0.44451 0.508707,0 0.612424,0.079 0.612424,0.44944 0,0.36548 -0.103717,0.4692 -0.612424,0.61737 -0.503767,-0.14323 -0.607484,-0.25189 -0.607484,-0.6223 z m 3.575765,2.65218 c 0.711202,0 0.884063,-0.0938 1.037169,-0.74083 0.04939,-0.20743 0.09384,-0.4692 0.09384,-0.98778 0,-0.51858 -0.04939,-0.78035 -0.09878,-0.98778 -0.153106,-0.647 -0.321028,-0.74084 -1.03223,-0.74084 -0.711202,0 -0.879124,0.0938 -1.03223,0.74084 -0.04939,0.20743 -0.09878,0.4692 -0.09878,0.98778 0,0.51858 0.04445,0.78035 0.09384,0.98778 0.153106,0.647 0.325967,0.74083 1.037169,0.74083 z m -0.711202,-1.72861 c 0,-0.48895 0.04939,-0.71614 0.07408,-0.85937 0.06421,-0.36054 0.158045,-0.50377 0.637118,-0.50377 0.400051,0 0.528462,0.0988 0.602546,0.34079 l -1.274236,1.68416 c -0.01976,-0.14323 -0.03951,-0.35066 -0.03951,-0.66181 z m 0.118534,1.04705 1.264358,-1.68417 c 0.01976,0.14323 0.03951,0.34079 0.03951,0.63712 0,0.48895 -0.04939,0.71614 -0.07408,0.85937 -0.06421,0.36054 -0.158045,0.50377 -0.637118,0.50377 -0.385234,0 -0.523523,-0.0938 -0.592668,-0.31609 z m 2.504024,0.01 v 0.62231 h 2.143483 v -0.39512 h -1.703921 v -0.0691 c 0.528462,-0.45932 0.824796,-0.74577 1.298931,-1.24954 0.256823,-0.27658 0.330906,-0.4445 0.330906,-0.75072 0,-0.72601 -0.242006,-0.94333 -1.051986,-0.94333 -0.785285,0 -1.03223,0.19262 -1.086558,0.8495 h 0.439563 c 0.03951,-0.36548 0.187678,-0.47414 0.651934,-0.47414 0.484013,0 0.627241,0.12841 0.627241,0.5581 0,0.19261 -0.04445,0.30127 -0.187679,0.47413 -0.276578,0.34572 -0.612423,0.65687 -1.461914,1.37795 z m 5.699494,0.62231 h 0.419807 l 0.242006,-0.8495 h 1.239664 l 0.246945,0.8495 h 0.419806 l -0.963085,-3.35846 h -0.642057 z m 0.760591,-1.21991 0.503767,-1.77801 h 0.03951 l 0.503767,1.77801 z m 3.610338,1.26929 c 0.661813,0 0.963086,-0.19261 1.022353,-0.83961 H 57.38438 c -0.06421,0.36054 -0.212373,0.47907 -0.597607,0.47907 -0.607485,0 -0.780346,-0.30127 -0.780346,-1.37301 0,-1.0668 0.172861,-1.36314 0.795163,-1.36314 0.330906,0 0.479073,0.0741 0.553157,0.50377 h 0.419806 c -0.05927,-0.66675 -0.340784,-0.86431 -0.997658,-0.86431 -0.928513,0 -1.195213,0.39512 -1.195213,1.73356 0,1.3335 0.2667,1.72367 1.200152,1.72367 z m 2.61762,-0.0494 h 0.424745 v -2.96828 h 0.913697 v -0.39018 h -2.2472 v 0.39018 h 0.908758 z m 2.3361,0 h 1.684165 v -0.39018 h -0.62724 v -2.5781 h 0.597607 v -0.39018 h -1.619959 v 0.39018 h 0.597607 v 2.5781 h -0.63218 z m 3.526376,0 h 0.558095 l 1.017414,-3.35846 h -0.424746 l -0.84949,2.88926 h -0.04445 l -0.849491,-2.88926 h -0.424746 z m 2.326226,0 h 1.960743 v -0.38524 h -1.535997 v -1.17052 h 1.249541 v -0.38523 h -1.249541 v -1.03223 h 1.437219 v -0.38524 h -1.861965 z m 5.901987,-3.35846 v 3.35846 h 0.424746 v -1.28412 h 0.434623 c 0.933452,0 1.214969,-0.24694 1.214969,-1.02235 0,-0.82974 -0.321028,-1.0668 -1.427342,-1.0668 -0.06421,0 -0.06914,0 -0.646996,0.0148 z m 0.424746,1.68417 v -1.31375 H 74.2211 c 0.72108,0 0.923575,0.14323 0.923575,0.65687 0,0.50377 -0.197556,0.65688 -0.839613,0.65688 z m 2.44476,1.67429 h 0.424745 v -1.4471 h 0.409929 c 0.454379,0 0.622301,0.10371 0.701324,0.46919 l 0.217311,0.97791 h 0.469196 l -0.256823,-0.97791 c -0.108656,-0.40993 -0.212373,-0.54821 -0.518585,-0.60254 v -0.0296 c 0.469196,-0.0543 0.617363,-0.29633 0.602546,-0.83961 -0.01976,-0.72602 -0.311151,-0.95815 -1.555753,-0.92357 l -0.49389,0.0148 z m 0.424745,-1.83728 v -1.14088 c 0.325967,-0.0247 0.444501,-0.0296 0.701324,0 0.409929,0.0494 0.508707,0.14817 0.508707,0.54822 0,0.43462 -0.113595,0.57785 -0.484013,0.58773 z m 3.575764,1.88666 c 0.893941,0 1.165581,-0.40005 1.165581,-1.71873 0,-1.33844 -0.27164,-1.7385 -1.165581,-1.7385 -0.89394,0 -1.170519,0.39512 -1.170519,1.7385 0,1.32362 0.276579,1.71873 1.170519,1.71873 z m -0.745773,-1.71873 c 0,-1.04705 0.167922,-1.3582 0.745773,-1.3582 0.572913,0 0.740835,0.31115 0.740835,1.3582 0,1.03223 -0.167922,1.33844 -0.740835,1.33844 -0.577851,0 -0.745773,-0.30621 -0.745773,-1.33844 z m 3.511558,1.70886 c 1.022353,0 1.323625,-0.21238 1.323625,-0.92852 0,-0.52846 -0.138289,-0.72601 -0.607484,-0.85936 v -0.0296 c 0.360539,-0.084 0.469195,-0.24694 0.469195,-0.71614 0,-0.68651 -0.31115,-0.889 -1.353258,-0.889 -0.133351,0 -0.286457,0.005 -0.671691,0.0247 v 3.35846 c 0.325968,0.0296 0.518585,0.0395 0.839613,0.0395 z M 82.7012,239.07553 v -1.19028 h 0.637118 c 0.528462,0 0.686507,0.13829 0.686507,0.61242 0,0.44944 -0.1778,0.58773 -0.770468,0.60255 -0.22719,0.005 -0.355601,0 -0.553157,-0.0247 z m 0,-1.55576 v -1.09149 c 0.276578,-0.01 0.424745,-0.01 0.646996,0.01 0.424745,0.0296 0.548218,0.15805 0.548218,0.55316 0,0.39511 -0.09878,0.51365 -0.439562,0.52846 z m 2.66701,1.9163 h 1.960744 v -0.38524 h -1.535998 v -1.17052 h 1.249541 v -0.38523 h -1.249541 v -1.03223 h 1.43722 v -0.38524 H 85.36821 Z"
       id="path8" /><path
       style="font-size:4.9389px;font-family:'Berkeley Mono';-inkscape-font-specification:'Berkeley Mono';fill:#000080;stroke-width:0.265"
       d="m 32.003359,242.25124 v 3.35845 h 0.424746 v -1.28411 h 0.434623 c 0.933452,0 1.214969,-0.24695 1.214969,-1.02236 0,-0.82973 -0.321028,-1.0668 -1.427342,-1.0668 -0.0642,0 -0.06914,0 -0.646996,0.0148 z m 0.424746,1.68416 v -1.31374 h 0.306212 c 0.721079,0 0.923574,0.14322 0.923574,0.65687 0,0.50377 -0.197556,0.65687 -0.839613,0.65687 z m 2.444757,1.67429 h 0.424746 v -1.4471 h 0.409928 c 0.454379,0 0.622302,0.10372 0.701324,0.4692 l 0.217312,0.9779 h 0.469195 l -0.256823,-0.9779 c -0.108655,-0.40993 -0.212372,-0.54822 -0.518584,-0.60255 v -0.0296 c 0.469195,-0.0543 0.617362,-0.29633 0.602546,-0.83961 -0.01976,-0.72602 -0.311151,-0.95815 -1.555754,-0.92358 l -0.49389,0.0148 z m 0.424746,-1.83727 v -1.14089 c 0.325967,-0.0247 0.444501,-0.0296 0.701323,0 0.409929,0.0494 0.508707,0.14817 0.508707,0.54822 0,0.43463 -0.113595,0.57785 -0.484012,0.58773 z m 3.575765,1.88666 c 0.893941,0 1.165581,-0.40005 1.165581,-1.71874 0,-1.33844 -0.27164,-1.73849 -1.165581,-1.73849 -0.893941,0 -1.170519,0.39511 -1.170519,1.73849 0,1.32363 0.276578,1.71874 1.170519,1.71874 z m -0.745774,-1.71874 c 0,-1.04704 0.167923,-1.3582 0.745774,-1.3582 0.572913,0 0.740835,0.31116 0.740835,1.3582 0,1.03223 -0.167922,1.33844 -0.740835,1.33844 -0.577851,0 -0.745774,-0.30621 -0.745774,-1.33844 z m 3.491805,1.66935 h 0.424745 v -2.96828 h 0.913697 v -0.39017 h -2.2472 v 0.39017 h 0.908758 z m 3.180653,0.0494 c 0.893941,0 1.16558,-0.40005 1.16558,-1.71874 0,-1.33844 -0.271639,-1.73849 -1.16558,-1.73849 -0.893941,0 -1.170519,0.39511 -1.170519,1.73849 0,1.32363 0.276578,1.71874 1.170519,1.71874 z m -0.745774,-1.71874 c 0,-1.04704 0.167923,-1.3582 0.745774,-1.3582 0.572912,0 0.740835,0.31116 0.740835,1.3582 0,1.03223 -0.167923,1.33844 -0.740835,1.33844 -0.577851,0 -0.745774,-0.30621 -0.745774,-1.33844 z m 5.620473,1.04705 v 0.6223 h 2.143482 v -0.39511 h -1.70392 v -0.0692 c 0.528462,-0.45931 0.824796,-0.74577 1.298931,-1.24954 0.256822,-0.27658 0.330906,-0.4445 0.330906,-0.75071 0,-0.72602 -0.242006,-0.94333 -1.051986,-0.94333 -0.785285,0 -1.03223,0.19262 -1.086558,0.84949 h 0.439562 c 0.03951,-0.36548 0.187678,-0.47413 0.651935,-0.47413 0.484012,0 0.62724,0.12841 0.62724,0.55809 0,0.19262 -0.04445,0.30127 -0.187678,0.47414 -0.276578,0.34572 -0.612423,0.65687 -1.461914,1.37795 z"
       id="path6" /><path
       style="font-size:4.9389px;font-family:'Berkeley Mono';-inkscape-font-specification:'Berkeley Mono';fill:#000080;stroke-width:0.265"
       d="m 32.556516,251.82283 c 1.195214,0.01 1.531059,-0.3556 1.531059,-1.66935 0,-1.23967 -0.301273,-1.61996 -1.279175,-1.72368 -0.340784,-0.0346 -0.661813,-0.0296 -0.933452,-0.005 v 3.35846 c 0.246945,0.0247 0.400051,0.0346 0.681568,0.0395 z m -0.256823,-0.39018 v -2.65219 c 0.143228,-0.005 0.321029,0 0.503768,0.0247 0.676629,0.0889 0.859369,0.36054 0.859369,1.29399 0,1.01741 -0.217312,1.29399 -0.790224,1.34338 -0.18274,0.0148 -0.296334,0.01 -0.572913,-0.01 z m 2.691703,0.35067 h 1.960743 v -0.38524 h -1.535998 v -1.17052 h 1.249542 v -0.38523 h -1.249542 v -1.03223 h 1.43722 v -0.38524 h -1.861965 z m 4.010389,0.0494 c 0.661812,0 0.963085,-0.19261 1.022352,-0.83961 H 39.60433 c -0.0642,0.36054 -0.212372,0.47907 -0.597607,0.47907 -0.607484,0 -0.780346,-0.30127 -0.780346,-1.37301 0,-1.0668 0.172862,-1.36314 0.795163,-1.36314 0.330906,0 0.479073,0.0741 0.553157,0.50377 h 0.419806 c -0.05927,-0.66675 -0.340784,-0.86431 -0.997657,-0.86431 -0.928514,0 -1.195214,0.39512 -1.195214,1.73356 0,1.3335 0.2667,1.72367 1.200153,1.72367 z m 4.746286,-0.67169 v 0.62231 h 2.143483 v -0.39512 h -1.703921 v -0.0691 c 0.528463,-0.45932 0.824797,-0.74577 1.298931,-1.24954 0.256823,-0.27658 0.330906,-0.4445 0.330906,-0.75072 0,-0.72601 -0.242006,-0.94333 -1.051985,-0.94333 -0.785285,0 -1.03223,0.19262 -1.086558,0.8495 h 0.439562 c 0.03951,-0.36548 0.187678,-0.47414 0.651935,-0.47414 0.484012,0 0.62724,0.12841 0.62724,0.5581 0,0.19261 -0.04445,0.30127 -0.187678,0.47413 -0.276579,0.34572 -0.612424,0.65687 -1.461915,1.37795 z m 4.015328,0.67169 c 0.711201,0 0.884063,-0.0938 1.037169,-0.74083 0.04939,-0.20743 0.09384,-0.4692 0.09384,-0.98778 0,-0.51858 -0.04939,-0.78035 -0.09878,-0.98778 -0.153106,-0.647 -0.321029,-0.74084 -1.03223,-0.74084 -0.711202,0 -0.879124,0.0938 -1.03223,0.74084 -0.04939,0.20743 -0.09878,0.4692 -0.09878,0.98778 0,0.51858 0.04445,0.78035 0.09384,0.98778 0.153106,0.647 0.325967,0.74083 1.037169,0.74083 z m -0.711202,-1.72861 c 0,-0.48895 0.04939,-0.71614 0.07408,-0.85937 0.06421,-0.36054 0.158044,-0.50377 0.637118,-0.50377 0.400051,0 0.528462,0.0988 0.602546,0.34079 l -1.274237,1.68416 c -0.01975,-0.14323 -0.03951,-0.35066 -0.03951,-0.66181 z m 0.118534,1.04705 1.264358,-1.68417 c 0.01976,0.14323 0.03951,0.34079 0.03951,0.63712 0,0.48895 -0.04939,0.71614 -0.07408,0.85937 -0.06421,0.36054 -0.158045,0.50377 -0.637118,0.50377 -0.385234,0 -0.523524,-0.0938 -0.592668,-0.31609 z m 2.504025,0.01 v 0.62231 h 2.143482 v -0.39512 h -1.70392 v -0.0691 c 0.528462,-0.45932 0.824796,-0.74577 1.298931,-1.24954 0.256822,-0.27658 0.330906,-0.4445 0.330906,-0.75072 0,-0.72601 -0.242006,-0.94333 -1.051986,-0.94333 -0.785285,0 -1.03223,0.19262 -1.086558,0.8495 h 0.439562 c 0.03951,-0.36548 0.187678,-0.47414 0.651935,-0.47414 0.484012,0 0.62724,0.12841 0.62724,0.5581 0,0.19261 -0.04445,0.30127 -0.187678,0.47413 -0.276578,0.34572 -0.612423,0.65687 -1.461914,1.37795 z m 3.763442,0.66676 c 0.893941,0 1.205092,-0.28152 1.205092,-1.0915 0,-0.77047 -0.325968,-1.01741 -1.096436,-0.95321 l -0.0049,-0.01 0.923574,-0.87912 v -0.4692 h -1.817515 v 0.36054 h 1.422403 v 0.0198 l -0.928513,0.88406 v 0.46426 c 0.814919,-0.12347 1.086558,0.0197 1.086558,0.56797 0,0.54328 -0.207434,0.73096 -0.809979,0.73096 -0.281518,0 -0.498829,-0.0593 -0.839613,-0.22225 v 0.42968 c 0.291395,0.12348 0.508706,0.16793 0.859368,0.16793 z"
       id="path7" /></g></svg>
