<?xml version="1.0" encoding="UTF-8" standalone="no"?>
<!-- Created with Inkscape (http://www.inkscape.org/) -->

<svg
   width="8.5in"
   height="11in"
   viewBox="0 0 215.9 279.4"
   version="1.1"
   id="svg1"
   xml:space="preserve"
   inkscape:version="1.3.2 (091e20e, 2023-11-25, custom)"
   sodipodi:docname="Stencil jig.svg"
   xmlns:inkscape="http://www.inkscape.org/namespaces/inkscape"
   xmlns:sodipodi="http://sodipodi.sourceforge.net/DTD/sodipodi-0.dtd"
   xmlns:xlink="http://www.w3.org/1999/xlink"
   xmlns="http://www.w3.org/2000/svg"
   xmlns:svg="http://www.w3.org/2000/svg"><sodipodi:namedview
     id="namedview1"
     pagecolor="#ffffff"
     bordercolor="#000000"
     borderopacity="0.25"
     inkscape:showpageshadow="2"
     inkscape:pageopacity="0.0"
     inkscape:pagecheckerboard="0"
     inkscape:deskcolor="#d1d1d1"
     inkscape:document-units="in"
     inkscape:zoom="0.7670244"
     inkscape:cx="501.9397"
     inkscape:cy="523.4514"
     inkscape:window-width="3840"
     inkscape:window-height="2071"
     inkscape:window-x="-9"
     inkscape:window-y="-9"
     inkscape:window-maximized="1"
     inkscape:current-layer="layer1" /><defs
     id="defs1"><marker
       id="DistanceX"
       orient="auto"
       refX="0"
       refY="0"
       style="overflow:visible"><path
         d="M 3,-3 -3,3 M 0,-5 V 5"
         style="stroke:#000000;stroke-width:0.5"
         id="path1" /></marker><pattern
       id="Hatch"
       patternUnits="userSpaceOnUse"
       width="8"
       height="8"
       x="0"
       y="0"><path
         d="M8 4 l-4,4"
         stroke="#000000"
         stroke-width="0.25"
         linecap="square"
         id="path2" /><path
         d="M6 2 l-4,4"
         stroke="#000000"
         stroke-width="0.25"
         linecap="square"
         id="path3" /><path
         d="M4 0 l-4,4"
         stroke="#000000"
         stroke-width="0.25"
         linecap="square"
         id="path4" /></pattern><symbol
       id="*Model_Space" /><symbol
       id="*Paper_Space" /><symbol
       id="*Paper_Space0" /><symbol
       id="MILL_MAX_0339_1" /><symbol
       id="CAPC0805_2012_100_M_2" /><symbol
       id="CAPC0805_2012_100_M_3" /><symbol
       id="CAPC0805_2012_145_M_4" /><symbol
       id="RESC0603_1608__M_5" /><symbol
       id="LED0603_1608__M_6" /><symbol
       id="RESC0402_1005__M_7" /><symbol
       id="RESC0402_1005__M_8" /><symbol
       id="CAPC0402_1005_50_M_9" /><symbol
       id="CAPC0402_1005_50_M_10" /><symbol
       id="CAPC0402_1005_50_M_11" /><symbol
       id="CAPC0402_1005_50_M_12" /><symbol
       id="INF_PG_SC59_M_13" /><symbol
       id="CAPC1206_3216_170_M_14" /><symbol
       id="CAPC1206_3216_170_M_15" /><symbol
       id="RESC0402_1005__M_16" /><symbol
       id="RESC0402_1005__M_17" /><symbol
       id="RESC0402_1005__M_18" /><symbol
       id="RESC0402_1005__M_19" /><symbol
       id="MILL_MAX_0339_20" /><symbol
       id="CAPC0402_1005_50_M_21" /><symbol
       id="CAPC0402_1005_50_M_22" /><symbol
       id="RESC0402_1005__M_23" /><symbol
       id="RESC0402_1005__M_24" /><symbol
       id="DSC0010J_NV_25" /><symbol
       id="MSOP_12_MSE_26" /><symbol
       id="RESC0402_1005__M_27" /><symbol
       id="RESC0402_1005__M_28" /><symbol
       id="RESC0402_1005__M_29" /><symbol
       id="RESC0402_1005__M_30" /><symbol
       id="CUI_PJ_002A_31" /><symbol
       id="CAPC0402_1005_50_M_32" /><symbol
       id="CAPC0402_1005_50_M_33" /><symbol
       id="CAPC0402_1005_50_M_34" /><symbol
       id="KEMET_D_M_35" /><symbol
       id="KEMET_D_M_36" /><symbol
       id="CAPC0603_1608_100_M_37" /><symbol
       id="CAPC0603_1608_100_M_38" /><symbol
       id="CAPC0306_M_39" /><symbol
       id="CAPC0306_M_40" /><symbol
       id="CAPC0306_M_41" /><symbol
       id="CAPC0306_M_42" /><symbol
       id="SOIC_8_43" /><symbol
       id="VQFN16_RGT_TEX__OSHPARK_44" /><symbol
       id="RESC0402_1005__M_45" /><symbol
       id="RESC0402_1005__M_46" /><symbol
       id="RESC0402_1005__M_47" /><symbol
       id="RESC0402_1005__M_48" /><symbol
       id="RESC0402_1005__M_49" /><symbol
       id="RESC0402_1005__M_50" /><symbol
       id="RESC0402_1005__M_51" /><symbol
       id="RESC0402_1005__M_52" /><symbol
       id="RESC0402_1005__M_53" /><symbol
       id="RESC0402_1005__M_54" /><symbol
       id="MILL_MAX_0339_55" /><symbol
       id="901_10511_3_56" /><symbol
       id="CAPC0402_1005_50_M_57" /><marker
       id="DistanceX-4"
       orient="auto"
       refX="0"
       refY="0"
       style="overflow:visible"><path
         d="M 3,-3 -3,3 M 0,-5 V 5"
         style="stroke:#000000;stroke-width:0.5"
         id="path1-4" /></marker><pattern
       id="Hatch-2"
       patternUnits="userSpaceOnUse"
       width="8"
       height="8"
       x="0"
       y="0"><path
         d="M8 4 l-4,4"
         stroke="#000000"
         stroke-width="0.25"
         linecap="square"
         id="path2-9" /><path
         d="M6 2 l-4,4"
         stroke="#000000"
         stroke-width="0.25"
         linecap="square"
         id="path3-3" /><path
         d="M4 0 l-4,4"
         stroke="#000000"
         stroke-width="0.25"
         linecap="square"
         id="path4-8" /></pattern><symbol
       id="*Model_Space-1" /><symbol
       id="*Paper_Space-3" /><symbol
       id="*Paper_Space0-1" /><symbol
       id="MILL_MAX_0339_1-7" /><symbol
       id="MILL_MAX_0339_2" /><symbol
       id="CAPC0402_1005_50_M_3" /><symbol
       id="CAPC0402_1005_50_M_4" /><symbol
       id="CAPC0805_2012_100_M_5" /><symbol
       id="CAPC0805_2012_100_M_6" /><symbol
       id="CAPC0805_2012_145_M_7" /><symbol
       id="RESC0603_1608__M_8" /><symbol
       id="LED0603_1608__M_9" /><symbol
       id="PVG3A_10" /><symbol
       id="RESC0402_1005__M_11" /><symbol
       id="CAPC0402_1005_50_M_12-4" /><symbol
       id="CAPC0402_1005_50_M_13" /><symbol
       id="CAPC0402_1005_50_M_14" /><symbol
       id="CAPC0402_1005_50_M_15" /><symbol
       id="INF_PG_SC59_M_16" /><symbol
       id="CAPC0805_2012_100_M_17" /><symbol
       id="CAPC0805_2012_100_M_18" /><symbol
       id="RESC0402_1005__M_19-8" /><symbol
       id="RESC0402_1005__M_20" /><symbol
       id="MILL_MAX_0339_21" /><symbol
       id="CAPC0402_1005_50_M_22-0" /><symbol
       id="CAPC0402_1005_50_M_23" /><symbol
       id="RESC0402_1005__M_24-7" /><symbol
       id="RESC0402_1005__M_25" /><symbol
       id="DSC0010J_NV_26" /><symbol
       id="MSOP_12_MSE_27" /><symbol
       id="RESC0402_1005__M_28-5" /><symbol
       id="RESC0402_1005__M_29-8" /><symbol
       id="RESC0402_1005__M_30-7" /><symbol
       id="RESC0402_1005__M_31" /><symbol
       id="CUI_PJ_002A_32" /><symbol
       id="CAPC0402_1005_50_M_33-6" /><symbol
       id="CAPC0402_1005_50_M_34-3" /><symbol
       id="CAPC0402_1005_50_M_35" /><symbol
       id="KEMET_B_M_36" /><symbol
       id="KEMET_B_M_37" /><symbol
       id="CAPC0603_1608_100_M_38-6" /><symbol
       id="CAPC0603_1608_100_M_39" /><symbol
       id="CAPC0306_M_40-2" /><symbol
       id="CAPC0306_M_41-4" /><symbol
       id="CAPC0306_M_42-2" /><symbol
       id="CAPC0306_M_43" /><symbol
       id="SOIC_8_44" /><symbol
       id="VQFN16_RGT_TEX__OSHPARK_45" /><symbol
       id="RESC0402_1005__M_46-6" /><symbol
       id="RESC0402_1005__M_47-6" /><symbol
       id="RESC0402_1005__M_48-6" /><symbol
       id="RESC0402_1005__M_49-5" /><symbol
       id="RESC0402_1005__M_50-6" /><symbol
       id="RESC0402_1005__M_51-3" /><symbol
       id="RESC0402_1005__M_52-0" /><symbol
       id="RESC0402_1005__M_53-1" /><symbol
       id="RESC0402_1005__M_54-8" /><symbol
       id="RESC0402_1005__M_55" /><symbol
       id="901_10511_3_56-3" /><symbol
       id="CAPC0402_1005_50_M_57-9" /></defs><g
     inkscape:label="Layer 1"
     inkscape:groupmode="layer"
     id="layer1"
     transform="translate(0,-17.6)"><rect
       style="fill:none;stroke:#000000;stroke-width:0.264527;stroke-dasharray:none"
       id="rect1"
       width="177.53548"
       height="126.73547"
       x="22.439934"
       y="132.1344" /><g
       inkscape:label="0"
       id="g60"
       transform="matrix(0.26458333,0,0,0.26458333,49.057709,-61.097524)"><use
         xlink:href="#MILL_MAX_0339_1-7"
         style="stroke-width:0.5px"
         transform="translate(102.614,-165.921)"
         id="use4" /><use
         xlink:href="#MILL_MAX_0339_2"
         style="stroke-width:0.5px"
         transform="translate(125.48,-184.728)"
         id="use5" /><use
         xlink:href="#CAPC0402_1005_50_M_3"
         style="stroke-width:0.5px"
         transform="rotate(-90,-14.6455,971.2445)"
         id="use6" /><use
         xlink:href="#CAPC0402_1005_50_M_4"
         style="stroke-width:0.5px"
         transform="rotate(90,149.1955,1105.7945)"
         id="use7" /><use
         xlink:href="#CAPC0805_2012_100_M_5"
         style="stroke-width:0.5px"
         transform="rotate(180,142.488,1059.97)"
         id="use8" /><use
         xlink:href="#CAPC0805_2012_100_M_6"
         style="stroke-width:0.5px"
         transform="rotate(180,142.488,1043.15)"
         id="use9" /><use
         xlink:href="#CAPC0805_2012_145_M_7"
         style="stroke-width:0.5px"
         transform="rotate(90,220.6755,1201.2745)"
         id="use10" /><use
         xlink:href="#RESC0603_1608__M_8"
         style="stroke-width:0.5px"
         transform="rotate(180,98.929,1031.575)"
         id="use11" /><use
         xlink:href="#LED0603_1608__M_9"
         style="stroke-width:0.5px"
         transform="translate(185.386,-181.89)"
         id="use12" /><use
         xlink:href="#PVG3A_10"
         style="stroke-width:0.5px"
         transform="rotate(-90,21.1655,941.1025)"
         id="use13" /><use
         xlink:href="#RESC0402_1005__M_11"
         style="stroke-width:0.5px"
         transform="translate(178.772,-163.465)"
         id="use14" /><use
         xlink:href="#CAPC0402_1005_50_M_12-4"
         style="stroke-width:0.5px"
         transform="rotate(180,83.7165,1044)"
         id="use15" /><use
         xlink:href="#CAPC0402_1005_50_M_13"
         style="stroke-width:0.5px"
         transform="rotate(180,75.685,1035.12)"
         id="use16" /><use
         xlink:href="#CAPC0402_1005_50_M_14"
         style="stroke-width:0.5px"
         transform="translate(151.37,-157.039)"
         id="use17" /><use
         xlink:href="#CAPC0402_1005_50_M_15"
         style="stroke-width:0.5px"
         transform="translate(167.433,-174.803)"
         id="use18" /><use
         xlink:href="#INF_PG_SC59_M_16"
         style="stroke-width:0.5px"
         transform="rotate(180,151.559,1042.77)"
         id="use19" /><use
         xlink:href="#CAPC0805_2012_100_M_17"
         style="stroke-width:0.5px"
         transform="rotate(180,122.0785,1056.475)"
         id="use20" /><use
         xlink:href="#CAPC0805_2012_100_M_18"
         style="stroke-width:0.5px"
         transform="translate(244.157,-155.528)"
         id="use21" /><use
         xlink:href="#RESC0402_1005__M_19-8"
         style="stroke-width:0.5px"
         transform="rotate(-90,-20.882,977.481)"
         id="use22" /><use
         xlink:href="#RESC0402_1005__M_20"
         style="stroke-width:0.5px"
         transform="rotate(-90,-10.394,954.898)"
         id="use23" /><use
         xlink:href="#MILL_MAX_0339_21"
         style="stroke-width:0.5px"
         transform="translate(153.921,-120.378)"
         id="use24" /><use
         xlink:href="#CAPC0402_1005_50_M_22-0"
         style="stroke-width:0.5px"
         transform="translate(186.331,-159.307)"
         id="use25" /><use
         xlink:href="#CAPC0402_1005_50_M_23"
         style="stroke-width:0.5px"
         transform="translate(178.772,-159.307)"
         id="use26" /><use
         xlink:href="#RESC0402_1005__M_24-7"
         style="stroke-width:0.5px"
         transform="rotate(180,85.6065,1040.785)"
         id="use27" /><use
         xlink:href="#RESC0402_1005__M_25"
         style="stroke-width:0.5px"
         transform="translate(171.213,-137.197)"
         id="use28" /><use
         xlink:href="#DSC0010J_NV_26"
         style="stroke-width:0.5px"
         transform="translate(245.102,-143.811)"
         id="use29" /><use
         xlink:href="#MSOP_12_MSE_27"
         style="stroke-width:0.5px"
         transform="rotate(-90,71.9055,908.6935)"
         id="use30" /><use
         xlink:href="#RESC0402_1005__M_28-5"
         style="stroke-width:0.5px"
         transform="rotate(-90,57.26,916.914)"
         id="use31" /><use
         xlink:href="#RESC0402_1005__M_29-8"
         style="stroke-width:0.5px"
         transform="rotate(90,203.528,1177.702)"
         id="use32" /><use
         xlink:href="#RESC0402_1005__M_30-7"
         style="stroke-width:0.5px"
         transform="rotate(90,198.993,1182.237)"
         id="use33" /><use
         xlink:href="#RESC0402_1005__M_31"
         style="stroke-width:0.5px"
         transform="rotate(-90,61.0395,920.6935)"
         id="use34" /><use
         xlink:href="#CUI_PJ_002A_32"
         style="stroke-width:0.5px"
         transform="translate(313.512,-133.795)"
         id="use35" /><use
         xlink:href="#CAPC0402_1005_50_M_33-6"
         style="stroke-width:0.5px"
         transform="rotate(180,116.962,1050.615)"
         id="use36" /><use
         xlink:href="#CAPC0402_1005_50_M_34-3"
         style="stroke-width:0.5px"
         transform="rotate(90,196.913,1180.157)"
         id="use37" /><use
         xlink:href="#CAPC0402_1005_50_M_35"
         style="stroke-width:0.5px"
         transform="rotate(-90,53.1025,921.0715)"
         id="use38" /><use
         xlink:href="#KEMET_B_M_36"
         style="stroke-width:0.5px"
         transform="translate(264.567,-127.937)"
         id="use39" /><use
         xlink:href="#KEMET_B_M_37"
         style="stroke-width:0.5px"
         transform="rotate(180,132.2835,1042.675)"
         id="use40" /><use
         xlink:href="#CAPC0603_1608_100_M_38-6"
         style="stroke-width:0.5px"
         transform="rotate(180,91.6535,1059.825)"
         id="use41" /><use
         xlink:href="#CAPC0603_1608_100_M_39"
         style="stroke-width:0.5px"
         transform="rotate(90,174.9915,1154.9285)"
         id="use42" /><use
         xlink:href="#CAPC0306_M_40-2"
         style="stroke-width:0.5px"
         transform="translate(151.559,-150.803)"
         id="use43" /><use
         xlink:href="#CAPC0306_M_41-4"
         style="stroke-width:0.5px"
         transform="rotate(180,83.622,1047.12)"
         id="use44" /><use
         xlink:href="#CAPC0306_M_42-2"
         style="stroke-width:0.5px"
         transform="translate(167.244,-181.039)"
         id="use45" /><use
         xlink:href="#CAPC0306_M_43"
         style="stroke-width:0.5px"
         transform="rotate(180,75.7795,1032)"
         id="use46" /><use
         xlink:href="#SOIC_8_44"
         style="stroke-width:0.5px"
         transform="translate(189.26,-139.748)"
         id="use47" /><use
         xlink:href="#VQFN16_RGT_TEX__OSHPARK_45"
         style="stroke-width:0.5px"
         transform="translate(159.307,-165.921)"
         id="use48" /><use
         xlink:href="#RESC0402_1005__M_46-6"
         style="stroke-width:0.5px"
         transform="rotate(-90,-8.315,952.819)"
         id="use49" /><use
         xlink:href="#RESC0402_1005__M_47-6"
         style="stroke-width:0.5px"
         transform="translate(171.213,-167.622)"
         id="use50" /><use
         xlink:href="#RESC0402_1005__M_48-6"
         style="stroke-width:0.5px"
         transform="rotate(90,157.5105,1114.1095)"
         id="use51" /><use
         xlink:href="#RESC0402_1005__M_49-5"
         style="stroke-width:0.5px"
         transform="rotate(90,157.1185,1125.6515)"
         id="use52" /><use
         xlink:href="#RESC0402_1005__M_50-6"
         style="stroke-width:0.5px"
         transform="rotate(180,91.2755,1044.945)"
         id="use53" /><use
         xlink:href="#RESC0402_1005__M_51-3"
         style="stroke-width:0.5px"
         transform="translate(171.213,-133.039)"
         id="use54" /><use
         xlink:href="#RESC0402_1005__M_52-0"
         style="stroke-width:0.5px"
         transform="rotate(90,147.1155,1103.7145)"
         id="use55" /><use
         xlink:href="#RESC0402_1005__M_53-1"
         style="stroke-width:0.5px"
         transform="rotate(180,67.2755,1034.55)"
         id="use56" /><use
         xlink:href="#RESC0402_1005__M_54-8"
         style="stroke-width:0.5px"
         transform="translate(134.551,-171.78)"
         id="use57" /><use
         xlink:href="#RESC0402_1005__M_55"
         style="stroke-width:0.5px"
         transform="rotate(-90,-10.488,967.087)"
         id="use58" /><use
         xlink:href="#901_10511_3_56-3"
         style="stroke-width:0.5px"
         transform="rotate(180,183.5905,1036.16)"
         id="use59" /><use
         xlink:href="#CAPC0402_1005_50_M_57-9"
         style="stroke-width:0.5px"
         transform="rotate(90,153.3555,1109.9545)"
         id="use60" /></g><path
       style="fill:none;stroke:#ff00ff;stroke-width:0.264583"
       d="m 76.207663,193.42608 v -2.84718 l 6.049962,-1.85155 v -3.22474 l 63.950055,-2.7e-4 v 19.99959 H 89.78264 v -2.69954 l -7.525015,-7.52502 z"
       id="path63"
       sodipodi:nodetypes="cccccccccc" /><text
       xml:space="preserve"
       style="font-size:7.05556px;line-height:1;font-family:'Berkeley Mono';-inkscape-font-specification:'Berkeley Mono';text-align:center;letter-spacing:0px;word-spacing:0px;text-anchor:middle;stroke-width:0.264583"
       x="35.745209"
       y="221.37021"
       id="text2"><tspan
         sodipodi:role="line"
         id="tspan2"
         style="stroke-width:0.264583"
         x="35.745209"
         y="221.37021" /></text><text
       xml:space="preserve"
       style="font-size:6.35px;line-height:1;font-family:'Berkeley Mono';-inkscape-font-specification:'Berkeley Mono';text-align:center;letter-spacing:0px;word-spacing:0px;text-anchor:middle;stroke-width:0.264583"
       x="32.295731"
       y="233.44337"
       id="text3"><tspan
         sodipodi:role="line"
         id="tspan3"
         style="stroke-width:0.264583"
         x="32.295731"
         y="233.44337" /></text><text
       xml:space="preserve"
       style="font-size:4.23333px;line-height:1;font-family:'Berkeley Mono';-inkscape-font-specification:'Berkeley Mono';text-align:center;letter-spacing:0px;word-spacing:0px;text-anchor:middle;stroke-width:0.264583"
       x="48.680748"
       y="222.96559"
       id="text4"><tspan
         sodipodi:role="line"
         id="tspan4"
         style="stroke-width:0.264583"
         x="48.680748"
         y="222.96559" /></text><g
       id="text5"
       style="font-size:4.93889px;line-height:1.25;font-family:'Berkeley Mono';-inkscape-font-specification:'Berkeley Mono';letter-spacing:0px;word-spacing:0px;fill:#000080;stroke-width:0.264583"
       aria-label="BUF802 ACTIVE PROBE&#10;REV C&#10;APRIL 2024"><path
         d="m 32.831618,240.19289 c 1.02235,0 1.323622,-0.21237 1.323622,-0.92851 0,-0.52846 -0.138289,-0.72602 -0.607483,-0.85937 v -0.0296 c 0.360539,-0.084 0.469194,-0.24694 0.469194,-0.71614 0,-0.6865 -0.31115,-0.889 -1.353256,-0.889 -0.13335,0 -0.286455,0.005 -0.671689,0.0247 v 3.35844 c 0.325967,0.0296 0.518584,0.0395 0.839612,0.0395 z m -0.424745,-0.40005 v -1.19027 h 0.637117 c 0.528461,0 0.686506,0.13829 0.686506,0.61242 0,0.44944 -0.1778,0.58773 -0.770467,0.60255 -0.227189,0.005 -0.3556,0 -0.553156,-0.0247 z m 0,-1.55575 v -1.09149 c 0.276578,-0.01 0.424745,-0.01 0.646995,0.01 0.424744,0.0296 0.548217,0.15804 0.548217,0.55315 0,0.39511 -0.09878,0.51365 -0.439562,0.52846 z m 3.605392,1.96074 c 0.814917,0 1.061861,-0.25188 1.061861,-1.10631 v -2.29658 h -0.424744 v 2.28176 c 0,0.56798 -0.143228,0.73096 -0.637117,0.73096 -0.523522,0 -0.681567,-0.16298 -0.681567,-0.7359 v -2.27682 h -0.424744 v 2.30152 c 0,0.84949 0.256822,1.10137 1.106311,1.10137 z m 2.015069,-0.0445 h 0.424745 v -1.4866 h 1.392767 v -0.39018 h -1.392767 v -1.09149 h 1.585383 v -0.39017 h -2.010128 z m 3.886908,0.0494 c 0.918634,0 1.111251,-0.16298 1.111251,-0.94333 0,-0.45931 -0.108656,-0.61242 -0.632178,-0.90381 v -0.0296 c 0.449439,-0.242 0.543278,-0.37535 0.543278,-0.7754 0,-0.66675 -0.172862,-0.80504 -1.022351,-0.80504 -0.84455,0 -1.017411,0.13829 -1.017411,0.80504 0,0.40005 0.09384,0.5334 0.543278,0.7754 v 0.0296 c -0.518583,0.28645 -0.627239,0.43956 -0.627239,0.90381 0,0.78035 0.187678,0.94333 1.101372,0.94333 z m -0.691444,-0.92357 c 0,-0.43462 0.118533,-0.56797 0.691444,-0.77541 0.582789,0.21237 0.701323,0.34572 0.701323,0.78529 0,0.45437 -0.118534,0.54821 -0.701323,0.54821 -0.572911,0 -0.691444,-0.0938 -0.691444,-0.55809 z m 0.08396,-1.72861 c 0,-0.37042 0.103717,-0.4445 0.607483,-0.4445 0.508706,0 0.612423,0.079 0.612423,0.44944 0,0.36547 -0.103717,0.46919 -0.612423,0.61736 -0.503766,-0.14323 -0.607483,-0.25189 -0.607483,-0.6223 z m 3.575758,2.65218 c 0.7112,0 0.884062,-0.0938 1.037167,-0.74083 0.04939,-0.20744 0.09384,-0.4692 0.09384,-0.98778 0,-0.51858 -0.04939,-0.78035 -0.09878,-0.98778 -0.153105,-0.64699 -0.321028,-0.74083 -1.032228,-0.74083 -0.7112,0 -0.879122,0.0938 -1.032228,0.74083 -0.04939,0.20743 -0.09878,0.4692 -0.09878,0.98778 0,0.51858 0.04445,0.78034 0.09384,0.98778 0.153106,0.64699 0.325967,0.74083 1.037167,0.74083 z m -0.7112,-1.72861 c 0,-0.48895 0.04939,-0.71614 0.07408,-0.85937 0.06421,-0.36054 0.158045,-0.50376 0.637117,-0.50376 0.40005,0 0.528462,0.0988 0.602545,0.34078 l -1.274234,1.68416 c -0.01975,-0.14323 -0.03951,-0.35066 -0.03951,-0.66181 z m 0.118533,1.04704 1.264356,-1.68416 c 0.01976,0.14323 0.03951,0.34079 0.03951,0.63712 0,0.48895 -0.04939,0.71614 -0.07408,0.85937 -0.06421,0.36053 -0.158044,0.50376 -0.637117,0.50376 -0.385233,0 -0.523522,-0.0938 -0.592667,-0.31609 z m 2.50402,0.01 v 0.6223 h 2.143478 v -0.39511 H 47.23343 v -0.0691 c 0.528461,-0.45932 0.824795,-0.74578 1.298928,-1.24954 0.256822,-0.27658 0.330906,-0.4445 0.330906,-0.75071 0,-0.72602 -0.242006,-0.94333 -1.051984,-0.94333 -0.785283,0 -1.032228,0.19261 -1.086556,0.84949 h 0.439561 c 0.03951,-0.36548 0.187678,-0.47414 0.651934,-0.47414 0.484011,0 0.627239,0.12841 0.627239,0.5581 0,0.19261 -0.04445,0.30127 -0.187678,0.47413 -0.276578,0.34572 -0.612422,0.65687 -1.461911,1.37795 z m 5.699482,0.6223 h 0.419805 l 0.242006,-0.84949 h 1.239661 l 0.246945,0.84949 h 0.419806 l -0.963084,-3.35844 h -0.642056 z m 0.760589,-1.2199 0.503767,-1.778 h 0.03951 l 0.503767,1.778 z m 3.610331,1.26929 c 0.661812,0 0.963084,-0.19262 1.022351,-0.83961 h -0.419806 c -0.06421,0.36054 -0.212372,0.47907 -0.597606,0.47907 -0.607483,0 -0.780344,-0.30127 -0.780344,-1.37301 0,-1.0668 0.172861,-1.36313 0.795161,-1.36313 0.330906,0 0.479072,0.0741 0.553156,0.50376 h 0.419805 c -0.05927,-0.66675 -0.340783,-0.8643 -0.997655,-0.8643 -0.928512,0 -1.195212,0.39511 -1.195212,1.73355 0,1.3335 0.2667,1.72367 1.20015,1.72367 z m 2.617615,-0.0494 h 0.424745 v -2.96827 h 0.913694 v -0.39017 H 58.57313 v 0.39017 h 0.908756 z m 2.336096,0 h 1.684162 v -0.39017 h -0.627239 v -2.5781 h 0.597605 v -0.39017 h -1.619956 v 0.39017 h 0.597606 v 2.5781 h -0.632178 z m 3.526369,0 h 0.558094 l 1.017411,-3.35844 h -0.424744 l -0.849489,2.88925 h -0.04445 l -0.849489,-2.88925 H 64.32694 Z m 2.32622,0 h 1.960739 v -0.38523 h -1.535995 v -1.17052 h 1.249539 v -0.38523 h -1.249539 v -1.03223 h 1.437217 v -0.38523 h -1.861961 z m 5.901975,-3.35844 v 3.35844 h 0.424745 v -1.28411 h 0.434622 c 0.93345,0 1.214967,-0.24694 1.214967,-1.02235 0,-0.82973 -0.321028,-1.0668 -1.427339,-1.0668 -0.06421,0 -0.06915,0 -0.646995,0.0148 z m 0.424745,1.68416 v -1.31375 h 0.306211 c 0.721078,0 0.923572,0.14323 0.923572,0.65688 0,0.50376 -0.197555,0.65687 -0.839611,0.65687 z m 2.444753,1.67428 h 0.424745 v -1.44709 h 0.409928 c 0.454378,0 0.6223,0.10371 0.701322,0.46919 l 0.217311,0.9779 h 0.469195 l -0.256822,-0.9779 c -0.108656,-0.40993 -0.212373,-0.54822 -0.518584,-0.60254 v -0.0296 c 0.469195,-0.0543 0.617361,-0.29633 0.602545,-0.83961 -0.01976,-0.72601 -0.31115,-0.95814 -1.555751,-0.92357 l -0.493889,0.0148 z m 0.424745,-1.83727 v -1.14088 c 0.325967,-0.0247 0.4445,-0.0296 0.701322,0 0.409928,0.0494 0.508706,0.14817 0.508706,0.54822 0,0.43462 -0.113595,0.57785 -0.484011,0.58773 z m 3.575759,1.88666 c 0.893939,0 1.165578,-0.40005 1.165578,-1.71873 0,-1.33844 -0.271639,-1.73849 -1.165578,-1.73849 -0.893939,0 -1.170517,0.39511 -1.170517,1.73849 0,1.32362 0.276578,1.71873 1.170517,1.71873 z m -0.745772,-1.71873 c 0,-1.04705 0.167922,-1.3582 0.745772,-1.3582 0.572911,0 0.740834,0.31115 0.740834,1.3582 0,1.03222 -0.167923,1.33844 -0.740834,1.33844 -0.57785,0 -0.745772,-0.30622 -0.745772,-1.33844 z m 3.511554,1.70885 c 1.02235,0 1.323622,-0.21237 1.323622,-0.92851 0,-0.52846 -0.138289,-0.72602 -0.607483,-0.85937 v -0.0296 c 0.360539,-0.084 0.469194,-0.24694 0.469194,-0.71614 0,-0.6865 -0.31115,-0.889 -1.353256,-0.889 -0.13335,0 -0.286455,0.005 -0.671689,0.0247 v 3.35844 c 0.325967,0.0296 0.518584,0.0395 0.839612,0.0395 z m -0.424745,-0.40005 v -1.19027 h 0.637117 c 0.528461,0 0.686506,0.13829 0.686506,0.61242 0,0.44944 -0.177801,0.58773 -0.770467,0.60255 -0.227189,0.005 -0.3556,0 -0.553156,-0.0247 z m 0,-1.55575 v -1.09149 c 0.276578,-0.01 0.424745,-0.01 0.646995,0.01 0.424744,0.0296 0.548216,0.15804 0.548216,0.55315 0,0.39511 -0.09878,0.51365 -0.439561,0.52846 z m 2.667004,1.91629 h 1.960739 v -0.38523 h -1.535995 v -1.17052 h 1.249539 v -0.38523 h -1.249539 v -1.03223 h 1.437217 v -0.38523 h -1.86196 z"
         id="path7" /><path
         d="m 31.992006,246.32699 h 0.424745 v -1.44709 h 0.409928 c 0.454378,0 0.6223,0.10372 0.701322,0.46919 l 0.217311,0.9779 h 0.469195 l -0.256822,-0.9779 c -0.108656,-0.40992 -0.212373,-0.54821 -0.518584,-0.60254 v -0.0296 c 0.469195,-0.0543 0.617361,-0.29634 0.602545,-0.83962 -0.01976,-0.72601 -0.31115,-0.95814 -1.555751,-0.92357 l -0.493889,0.0148 z m 0.424745,-1.83726 v -1.14089 c 0.325967,-0.0247 0.4445,-0.0296 0.701322,0 0.409928,0.0494 0.508706,0.14817 0.508706,0.54822 0,0.43462 -0.113594,0.57785 -0.484011,0.58773 z m 2.657125,1.83726 h 1.960739 v -0.38523 H 35.49862 v -1.17052 h 1.249539 v -0.38523 H 35.49862 v -1.03223 h 1.437217 v -0.38523 h -1.861961 z m 3.600453,0 h 0.558094 l 1.017411,-3.35844 H 39.82509 l -0.849489,2.88925 h -0.04445 l -0.849489,-2.88925 h -0.424745 z m 6.336599,0.0494 c 0.661812,0 0.963084,-0.19261 1.022351,-0.83961 h -0.419806 c -0.06421,0.36054 -0.212372,0.47907 -0.597606,0.47907 -0.607483,0 -0.780344,-0.30127 -0.780344,-1.37301 0,-1.0668 0.172861,-1.36313 0.795161,-1.36313 0.330906,0 0.479072,0.0741 0.553156,0.50377 h 0.419805 c -0.05927,-0.66675 -0.340783,-0.86431 -0.997655,-0.86431 -0.928512,0 -1.195212,0.39511 -1.195212,1.73355 0,1.3335 0.2667,1.72367 1.20015,1.72367 z"
         id="path8" /><path
         d="m 31.750001,252.50061 h 0.419805 l 0.242006,-0.84949 h 1.239661 l 0.246945,0.84949 h 0.419806 l -0.963084,-3.35845 h -0.642056 z m 0.760589,-1.21991 0.503767,-1.778 h 0.03951 l 0.503767,1.778 z m 2.538591,-2.13854 v 3.35845 h 0.424745 v -1.28412 h 0.434622 c 0.93345,0 1.214967,-0.24694 1.214967,-1.02235 0,-0.82973 -0.321028,-1.0668 -1.427339,-1.0668 -0.06421,0 -0.06914,0 -0.646995,0.0148 z m 0.424745,1.68416 v -1.31374 h 0.306211 c 0.721078,0 0.923572,0.14323 0.923572,0.65687 0,0.50377 -0.197555,0.65687 -0.839611,0.65687 z m 2.444752,1.67429 h 0.424745 v -1.4471 h 0.409928 c 0.454378,0 0.6223,0.10372 0.701322,0.4692 l 0.217311,0.9779 h 0.469195 l -0.256822,-0.9779 c -0.108656,-0.40993 -0.212373,-0.54822 -0.518584,-0.60255 v -0.0296 c 0.469195,-0.0543 0.617361,-0.29634 0.602545,-0.83961 -0.01976,-0.72602 -0.31115,-0.95815 -1.555751,-0.92358 l -0.493889,0.0148 z m 0.424745,-1.83727 v -1.14088 c 0.325967,-0.0247 0.4445,-0.0296 0.701322,0 0.409928,0.0494 0.508706,0.14816 0.508706,0.54821 0,0.43462 -0.113594,0.57785 -0.484011,0.58773 z m 2.731208,1.83727 h 1.684162 v -0.39018 h -0.627239 v -2.5781 h 0.597605 v -0.39017 h -1.619956 v 0.39017 h 0.597606 v 2.5781 h -0.632178 z m 2.899131,-0.005 h 2.054578 v -0.39017 h -1.629834 v -2.96334 h -0.424744 z m 5.783444,-0.61736 v 0.6223 h 2.143478 v -0.39511 h -1.703917 v -0.0692 c 0.528461,-0.45932 0.824795,-0.74577 1.298928,-1.24954 0.256822,-0.27658 0.330906,-0.4445 0.330906,-0.75071 0,-0.72602 -0.242006,-0.94333 -1.051984,-0.94333 -0.785283,0 -1.032228,0.19262 -1.086556,0.84949 h 0.439561 c 0.03951,-0.36548 0.187678,-0.47413 0.651934,-0.47413 0.484011,0 0.627239,0.12841 0.627239,0.55809 0,0.19262 -0.04445,0.30127 -0.187678,0.47414 -0.276578,0.34572 -0.612422,0.65687 -1.461911,1.37795 z m 4.015318,0.67169 c 0.7112,0 0.884062,-0.0938 1.037167,-0.74084 0.04939,-0.20743 0.09384,-0.46919 0.09384,-0.98778 0,-0.51858 -0.04939,-0.78034 -0.09878,-0.98777 -0.153105,-0.647 -0.321028,-0.74084 -1.032228,-0.74084 -0.7112,0 -0.879122,0.0938 -1.032228,0.74084 -0.04939,0.20743 -0.09878,0.46919 -0.09878,0.98777 0,0.51859 0.04445,0.78035 0.09384,0.98778 0.153106,0.647 0.325967,0.74084 1.037167,0.74084 z m -0.7112,-1.72862 c 0,-0.48895 0.04939,-0.71614 0.07408,-0.85936 0.06421,-0.36054 0.158044,-0.50377 0.637116,-0.50377 0.40005,0 0.528462,0.0988 0.602545,0.34078 l -1.274234,1.68416 c -0.01975,-0.14322 -0.03951,-0.35066 -0.03951,-0.66181 z m 0.118534,1.04705 1.264355,-1.68416 c 0.01976,0.14322 0.03951,0.34078 0.03951,0.63711 0,0.48895 -0.04939,0.71614 -0.07408,0.85937 -0.06421,0.36054 -0.158044,0.50377 -0.637117,0.50377 -0.385233,0 -0.523522,-0.0938 -0.592666,-0.31609 z m 2.50402,0.01 v 0.6223 h 2.143478 v -0.39511 h -1.703917 v -0.0692 c 0.528461,-0.45932 0.824795,-0.74577 1.298928,-1.24954 0.256822,-0.27658 0.330906,-0.4445 0.330906,-0.75071 0,-0.72602 -0.242006,-0.94333 -1.051984,-0.94333 -0.785283,0 -1.032228,0.19262 -1.086556,0.84949 h 0.439561 c 0.03951,-0.36548 0.187678,-0.47413 0.651934,-0.47413 0.484011,0 0.627239,0.12841 0.627239,0.55809 0,0.19262 -0.04445,0.30127 -0.187678,0.47414 -0.276578,0.34572 -0.612422,0.65687 -1.461911,1.37795 z m 2.928764,-0.01 h 1.353256 v 0.63218 h 0.395111 v -0.63218 h 0.474134 v -0.37536 h -0.474134 v -0.81985 h -0.395111 v 0.81985 h -0.928511 v -0.10865 l 1.140884,-2.29165 h -0.449439 l -1.11619,2.29165 z"
         id="path9" /></g></g></svg>
