%TF.GenerationSoftware,Altium Limited,Altium Designer,18.1.11 (251)*%
G04 Layer_Physical_Order=1*
G04 Layer_Color=255*
%FSLAX26Y26*%
%MOIN*%
%TF.FileFunction,Copper,L1,Top,Signal*%
%TF.Part,Single*%
G01*
G75*
%TA.AperFunction,Conductor*%
%ADD10C,0.016693*%
%ADD11C,0.007874*%
%TA.AperFunction,ConnectorPad*%
%ADD12R,0.218000X0.142000*%
%ADD13R,0.218000X0.016000*%
%ADD14R,0.210000X0.090000*%
%TA.AperFunction,SMDPad,CuDef*%
%ADD15R,0.210000X0.090000*%
%ADD16R,0.053150X0.061024*%
%ADD17R,0.061024X0.053150*%
%ADD18R,0.035748X0.042480*%
%ADD19R,0.025000X0.027559*%
%ADD20R,0.035433X0.055118*%
%ADD21R,0.035433X0.043307*%
%ADD22R,0.053150X0.074803*%
%ADD23R,0.027559X0.025000*%
%ADD24R,0.070866X0.021654*%
%ADD25R,0.100394X0.109055*%
%TA.AperFunction,SMDPad,SMDef*%
%ADD26R,0.064961X0.094488*%
%TA.AperFunction,SMDPad,CuDef*%
%ADD27R,0.023622X0.009842*%
%ADD28R,0.017000X0.055000*%
%ADD29R,0.116000X0.069000*%
%ADD30R,0.022047X0.071260*%
%ADD31R,0.043307X0.043307*%
%ADD32R,0.043307X0.043307*%
%ADD33R,0.030000X0.010000*%
%ADD34R,0.010000X0.030000*%
%ADD35R,0.066142X0.066142*%
G04:AMPARAMS|DCode=36|XSize=61.024mil|YSize=23.622mil|CornerRadius=0.945mil|HoleSize=0mil|Usage=FLASHONLY|Rotation=0.000|XOffset=0mil|YOffset=0mil|HoleType=Round|Shape=RoundedRectangle|*
%AMROUNDEDRECTD36*
21,1,0.061024,0.021732,0,0,0.0*
21,1,0.059134,0.023622,0,0,0.0*
1,1,0.001890,0.029567,-0.010866*
1,1,0.001890,-0.029567,-0.010866*
1,1,0.001890,-0.029567,0.010866*
1,1,0.001890,0.029567,0.010866*
%
%ADD36ROUNDEDRECTD36*%
%TA.AperFunction,Conductor*%
%ADD37C,0.008000*%
%ADD38C,0.015748*%
%ADD39C,0.019685*%
%ADD40C,0.009842*%
%ADD41C,0.006000*%
%ADD42C,0.025000*%
%ADD43C,0.027559*%
%TA.AperFunction,ComponentPad*%
%ADD44O,0.177165X0.088583*%
%ADD45O,0.088583X0.177165*%
%ADD46O,0.098425X0.196850*%
%TA.AperFunction,ViaPad*%
%ADD47C,0.018000*%
G36*
X730315Y772109D02*
X730315Y558084D01*
X725315Y556238D01*
X724455Y556409D01*
X724347Y556388D01*
X724240Y556407D01*
X722860Y556102D01*
X690646D01*
Y565331D01*
X690910Y565383D01*
X694217Y567593D01*
X696428Y570901D01*
X697204Y574803D01*
Y651575D01*
X696428Y655476D01*
X694217Y658784D01*
X693008Y659593D01*
Y694976D01*
X693008D01*
X691028Y699976D01*
X691581Y702756D01*
X690184Y709779D01*
X686206Y715733D01*
X680251Y719712D01*
X673228Y721109D01*
X666205Y719712D01*
X660251Y715733D01*
X656273Y709779D01*
X654876Y702756D01*
X655429Y699976D01*
X653449Y694976D01*
X653449D01*
Y664417D01*
X652080Y663208D01*
X648449Y661218D01*
X645669Y661771D01*
X616142D01*
X612240Y660995D01*
X608932Y658784D01*
X606722Y655476D01*
X605946Y651575D01*
Y574803D01*
X606722Y570901D01*
X608932Y567593D01*
X612240Y565383D01*
X612504Y565331D01*
Y556102D01*
X574803D01*
X574803Y772109D01*
X730315D01*
D02*
G37*
G36*
X677242Y696329D02*
X679528D01*
X679091Y695852D01*
X678700Y695326D01*
X678355Y694749D01*
X678056Y694121D01*
X677803Y693443D01*
X677596Y692714D01*
X677593Y692698D01*
X677868Y691660D01*
X678228Y690766D01*
X678668Y690036D01*
X679188Y689467D01*
X679788Y689061D01*
X680468Y688818D01*
X681228Y688736D01*
X665228D01*
X665988Y688818D01*
X666668Y689061D01*
X667268Y689467D01*
X667788Y690036D01*
X668228Y690766D01*
X668588Y691660D01*
X668864Y692698D01*
X668860Y692714D01*
X668653Y693443D01*
X668400Y694121D01*
X668101Y694749D01*
X667756Y695326D01*
X667365Y695852D01*
X666928Y696329D01*
X669215D01*
X669228Y696856D01*
X677228D01*
X677242Y696329D01*
D02*
G37*
G36*
X2976833Y772108D02*
Y620362D01*
X2886674D01*
X2883126Y621068D01*
X922901D01*
X922686Y621025D01*
X905977Y619710D01*
X889470Y615747D01*
X873786Y609250D01*
X859311Y600380D01*
X846566Y589495D01*
X846384Y589373D01*
X824929Y567918D01*
X819218D01*
X818369Y567948D01*
X817087Y568084D01*
Y572992D01*
X807348D01*
X806967Y573068D01*
X806585Y572992D01*
X772087D01*
Y568992D01*
X740511D01*
X740511Y772109D01*
X2976833Y772108D01*
D02*
G37*
G36*
Y15293D02*
X579270Y15294D01*
Y113189D01*
X578106Y119041D01*
X574790Y124003D01*
X259455Y439339D01*
X261751Y444882D01*
X289734D01*
X294658Y438882D01*
X294344Y437303D01*
X295741Y430280D01*
X299720Y424326D01*
X305674Y420348D01*
X312697Y418950D01*
X319720Y420348D01*
X325674Y424326D01*
X329652Y430280D01*
X331050Y437303D01*
X330736Y438882D01*
X335660Y444882D01*
X495394D01*
Y480953D01*
X495394Y486954D01*
X572919Y486953D01*
X574129Y486161D01*
X576094Y483853D01*
X576990Y480953D01*
X576863Y480763D01*
X575466Y473740D01*
X570912Y472046D01*
X570859Y472030D01*
X570837Y472018D01*
X570016Y471713D01*
X569917Y471693D01*
X568672Y470861D01*
X567351Y470155D01*
X567030Y469764D01*
X566609Y469483D01*
X565777Y468238D01*
X564827Y467079D01*
X564680Y466595D01*
X564399Y466175D01*
X564107Y464706D01*
X563672Y463272D01*
X563722Y462769D01*
X563623Y462273D01*
Y337598D01*
X564399Y333697D01*
X566609Y330389D01*
X569917Y328179D01*
X573819Y327402D01*
X729331D01*
X733232Y328179D01*
X736540Y330389D01*
X738750Y333697D01*
X739527Y337598D01*
Y486126D01*
X775094D01*
Y486126D01*
X776087D01*
Y486126D01*
X812387D01*
X814801Y484092D01*
X816835Y481678D01*
Y457025D01*
X816565Y456884D01*
X816207Y456458D01*
X815745Y456149D01*
X814941Y454945D01*
X814011Y453834D01*
X813844Y453303D01*
X813535Y452841D01*
X813252Y451421D01*
X812818Y450039D01*
X812867Y449485D01*
X812759Y448939D01*
X813041Y447519D01*
X813169Y446076D01*
X813426Y445583D01*
X813535Y445037D01*
X814339Y443833D01*
X815009Y442549D01*
X815436Y442192D01*
X815745Y441729D01*
X816570Y441178D01*
X816579Y440805D01*
X816989Y438989D01*
X817352Y437163D01*
X817426Y437053D01*
X817455Y436924D01*
X818528Y435404D01*
X819562Y433855D01*
X819672Y433782D01*
X819749Y433674D01*
X820577Y433150D01*
Y361379D01*
X819562Y360701D01*
X819525Y360646D01*
X819471Y360609D01*
X818422Y358994D01*
X817352Y357393D01*
X817339Y357328D01*
X817303Y357273D01*
X816952Y355381D01*
X816576Y353491D01*
X816589Y353427D01*
X816577Y353362D01*
X816655Y347195D01*
X816704Y346965D01*
X816671Y346732D01*
X816747Y345441D01*
X816826Y345137D01*
X816801Y344825D01*
X816848Y344431D01*
X817028Y343879D01*
X817049Y343298D01*
X817102Y343072D01*
X817473Y342259D01*
X817660Y341384D01*
X818005Y340882D01*
X818081Y340649D01*
X818352Y340332D01*
X818754Y339453D01*
X819408Y338844D01*
X819915Y338107D01*
X819965Y338058D01*
X819965Y338058D01*
X819965Y338058D01*
X819974Y338049D01*
X820577Y337658D01*
Y330099D01*
X820159Y329843D01*
X820079Y329733D01*
X819965Y329659D01*
X818913Y328126D01*
X817823Y326622D01*
X817791Y326490D01*
X817714Y326378D01*
X817329Y324560D01*
X816897Y322753D01*
X816583Y314618D01*
X816615Y314421D01*
X816576Y314225D01*
X816926Y312464D01*
X817209Y310689D01*
X817313Y310519D01*
X817352Y310324D01*
X818331Y308858D01*
X817352Y307393D01*
X817339Y307328D01*
X817303Y307273D01*
X816952Y305381D01*
X816576Y303491D01*
X816589Y303427D01*
X816577Y303362D01*
X816655Y297195D01*
X816704Y296965D01*
X816671Y296732D01*
X816747Y295441D01*
X816826Y295137D01*
X816801Y294825D01*
X816848Y294431D01*
X817028Y293879D01*
X817049Y293298D01*
X817102Y293072D01*
X817473Y292259D01*
X817660Y291384D01*
X818005Y290882D01*
X818081Y290649D01*
X818352Y290332D01*
X818754Y289453D01*
X819408Y288844D01*
X819915Y288107D01*
X819965Y288058D01*
X819965Y288058D01*
X819965Y288058D01*
X819974Y288049D01*
X820577Y287658D01*
Y276575D01*
X820636Y276280D01*
Y272992D01*
X821175Y270282D01*
X822710Y267985D01*
X825007Y266450D01*
X827717Y265911D01*
X886850D01*
X889560Y266450D01*
X891857Y267985D01*
X893392Y270282D01*
X893931Y272992D01*
Y294724D01*
X893392Y297434D01*
X891857Y299731D01*
X889560Y301266D01*
X886850Y301805D01*
X846543D01*
X846443Y301991D01*
X846015Y302340D01*
X845703Y302795D01*
X844849Y303351D01*
X844838Y303754D01*
X844428Y305569D01*
X844066Y307393D01*
X843991Y307504D01*
X843962Y307635D01*
X843098Y308858D01*
X843962Y310082D01*
X843991Y310212D01*
X844066Y310324D01*
X844428Y312147D01*
X844838Y313962D01*
X844849Y314366D01*
X845703Y314921D01*
X846015Y315377D01*
X846443Y315725D01*
X846543Y315911D01*
X886850D01*
X889560Y316450D01*
X891857Y317985D01*
X893392Y320282D01*
X893931Y322992D01*
Y344724D01*
X893869Y345037D01*
X899399Y347993D01*
X1020743Y226649D01*
X1022182Y225687D01*
X1023037Y224409D01*
X1024028Y222838D01*
X1024138Y222761D01*
X1024213Y222649D01*
X1025760Y221615D01*
X1027277Y220543D01*
X1027409Y220513D01*
X1027520Y220439D01*
X1029344Y220076D01*
X1031158Y219666D01*
X1031662Y219653D01*
X1032332Y218649D01*
X1032788Y218344D01*
X1033139Y217924D01*
X1034429Y217248D01*
X1035640Y216439D01*
X1036178Y216332D01*
X1036663Y216077D01*
X1038114Y215946D01*
X1039542Y215662D01*
X1040080Y215769D01*
X1040625Y215720D01*
X1041237Y215911D01*
X1099449D01*
X1102159Y216450D01*
X1104456Y217985D01*
X1105991Y220282D01*
X1106530Y222992D01*
Y244724D01*
X1105991Y247434D01*
X1104456Y249731D01*
X1102159Y251266D01*
X1099449Y251805D01*
X1041237D01*
X1040625Y251996D01*
X1040080Y251947D01*
X1039542Y252054D01*
X1038114Y251770D01*
X1036663Y251639D01*
X1036178Y251385D01*
X1035640Y251278D01*
X1034429Y250469D01*
X1033139Y249793D01*
X1029291Y249473D01*
X1026368Y249863D01*
X885905Y390325D01*
X885914Y390422D01*
X886948Y391969D01*
X888020Y393487D01*
X888050Y393618D01*
X888125Y393730D01*
X888487Y395554D01*
X888897Y397368D01*
X888908Y397794D01*
X892778Y399051D01*
X894767Y399404D01*
X895777Y399494D01*
X896393Y399512D01*
X899205Y399512D01*
X931197D01*
X931197Y399512D01*
X937197Y401684D01*
X940945Y400939D01*
X947968Y402336D01*
X953922Y406314D01*
X957900Y412268D01*
X959298Y419291D01*
X957900Y426315D01*
X953922Y432269D01*
X947968Y436247D01*
X940945Y437644D01*
X937412Y436941D01*
X937236Y436907D01*
X937031Y436906D01*
X931774Y438857D01*
X932575Y442819D01*
X932575D01*
Y480126D01*
X932575Y486126D01*
X932575Y488378D01*
Y525685D01*
X938353Y526221D01*
X1008572D01*
X1021441Y513353D01*
X1021727Y512785D01*
X1019324Y506984D01*
X1015654D01*
Y439866D01*
X1063086D01*
Y457345D01*
X1063382Y457501D01*
X1063727Y457916D01*
X1064176Y458216D01*
X1064849Y459223D01*
X1065235Y459233D01*
X1067047Y459643D01*
X1068868Y460005D01*
X1068982Y460081D01*
X1069115Y460111D01*
X1070632Y461184D01*
X1072176Y462216D01*
X1072252Y462329D01*
X1072363Y462408D01*
X1072881Y463229D01*
X1079725D01*
X1083626Y464005D01*
X1086934Y466216D01*
X1129223Y508505D01*
X1135780D01*
X1136301Y507681D01*
X1136410Y507603D01*
X1136485Y507491D01*
X1138032Y506457D01*
X1139550Y505385D01*
X1139681Y505356D01*
X1139793Y505281D01*
X1141617Y504918D01*
X1143431Y504508D01*
X1143934Y504495D01*
X1144605Y503491D01*
X1145061Y503187D01*
X1145412Y502766D01*
X1145575Y502681D01*
Y491047D01*
X1193008D01*
Y546354D01*
X1145575D01*
Y534721D01*
X1145412Y534636D01*
X1145061Y534215D01*
X1144605Y533910D01*
X1143934Y532907D01*
X1143430Y532893D01*
X1141616Y532483D01*
X1139793Y532121D01*
X1139681Y532046D01*
X1139550Y532016D01*
X1138032Y530944D01*
X1136485Y529910D01*
X1136410Y529799D01*
X1136301Y529721D01*
X1135780Y528897D01*
X1125000D01*
X1121098Y528121D01*
X1117791Y525910D01*
X1078065Y486185D01*
X1074731Y485166D01*
X1072176Y484635D01*
X1070630Y485668D01*
X1069115Y486739D01*
X1068982Y486769D01*
X1068868Y486845D01*
X1067047Y487207D01*
X1065235Y487618D01*
X1064849Y487628D01*
X1064176Y488635D01*
X1063727Y488935D01*
X1063382Y489350D01*
X1063086Y489505D01*
Y506984D01*
X1055390D01*
X1055305Y507147D01*
X1054884Y507498D01*
X1054580Y507954D01*
X1053576Y508625D01*
X1053562Y509129D01*
X1053152Y510943D01*
X1052790Y512766D01*
X1052715Y512878D01*
X1052686Y513009D01*
X1051613Y514527D01*
X1050580Y516074D01*
X1050468Y516149D01*
X1050390Y516258D01*
X1048819Y517251D01*
X1047272Y518284D01*
X1047140Y518310D01*
X1047026Y518382D01*
X1045193Y518698D01*
X1044870Y518762D01*
X1020005Y543627D01*
X1016697Y545837D01*
X1012795Y546613D01*
X924212D01*
X920311Y545837D01*
X917003Y543627D01*
X909796Y536420D01*
X908228Y536108D01*
X906370Y535779D01*
X906279Y535721D01*
X906173Y535699D01*
X904607Y534653D01*
X903017Y533638D01*
X902955Y533549D01*
X902865Y533489D01*
X901818Y531922D01*
X900739Y530377D01*
X900715Y530271D01*
X900655Y530181D01*
X900349Y528644D01*
X895575Y525685D01*
X891827D01*
X891827Y525685D01*
X859835D01*
X854827Y525685D01*
X848827Y525685D01*
X834635D01*
X834242Y531685D01*
X834893Y531771D01*
X843443Y535312D01*
X850090Y540412D01*
X850817Y540898D01*
X872838Y562919D01*
X873221Y563493D01*
X883455Y571892D01*
X895730Y578453D01*
X909049Y582493D01*
X922224Y583791D01*
X922901Y583656D01*
X2883126D01*
X2886675Y584362D01*
X2976833D01*
Y15293D01*
D02*
G37*
G36*
X564607Y772109D02*
X564607Y576023D01*
X495394Y576024D01*
Y572929D01*
D01*
X495394Y772109D01*
X564607D01*
D02*
G37*
G36*
X687008Y574803D02*
X657480D01*
Y651575D01*
X687008D01*
Y574803D01*
D02*
G37*
G36*
X645669D02*
X616142D01*
Y651575D01*
X645669D01*
Y574803D01*
D02*
G37*
G36*
X356540Y575762D02*
X356138Y575226D01*
X355784Y574641D01*
X355477Y574008D01*
X355217Y573325D01*
X355004Y572594D01*
X354839Y571815D01*
X354812Y571630D01*
X354980Y570606D01*
X355256Y569567D01*
X355610Y568688D01*
X356043Y567968D01*
X356555Y567409D01*
X357146Y567009D01*
X357815Y566769D01*
X358563Y566689D01*
X342815D01*
X343563Y566769D01*
X344232Y567009D01*
X344823Y567409D01*
X345335Y567968D01*
X345768Y568688D01*
X346122Y569567D01*
X346398Y570606D01*
X346566Y571630D01*
X346539Y571815D01*
X346374Y572594D01*
X346161Y573325D01*
X345901Y574008D01*
X345594Y574641D01*
X345240Y575226D01*
X344838Y575762D01*
X344389Y576250D01*
X356989D01*
X356540Y575762D01*
D02*
G37*
G36*
X518067Y561615D02*
X519674Y560665D01*
X520823Y560129D01*
Y561024D01*
X520903Y560276D01*
X520982Y560055D01*
X521473Y559826D01*
X523465Y559099D01*
X525650Y558484D01*
X528028Y557981D01*
X530599Y557590D01*
X536319Y557143D01*
X539469Y557087D01*
Y549213D01*
X536319Y549157D01*
X530599Y548709D01*
X528028Y548318D01*
X525650Y547815D01*
X523465Y547200D01*
X521473Y546473D01*
X520982Y546244D01*
X520903Y546024D01*
X520823Y545276D01*
Y546170D01*
X519674Y545634D01*
X518067Y544684D01*
X516654Y543621D01*
Y562678D01*
X518067Y561615D01*
D02*
G37*
G36*
X724534Y546034D02*
X724770Y545874D01*
X725163Y545733D01*
X725715Y545610D01*
X726423Y545506D01*
X728313Y545355D01*
X732329Y545270D01*
Y537396D01*
X730833Y537387D01*
X725715Y537057D01*
X725163Y536934D01*
X724770Y536793D01*
X724534Y536633D01*
X724455Y536453D01*
Y546213D01*
X724534Y546034D01*
D02*
G37*
G36*
X807134Y561862D02*
X807634Y560959D01*
X808469Y560162D01*
X809638Y559472D01*
X811140Y558887D01*
X812976Y558409D01*
X815146Y558037D01*
X817650Y557771D01*
X823660Y557559D01*
Y540866D01*
X820488Y540813D01*
X815146Y540388D01*
X812976Y540016D01*
X811140Y539538D01*
X809638Y538953D01*
X808469Y538263D01*
X807634Y537466D01*
X807134Y536562D01*
X806967Y535553D01*
Y562872D01*
X807134Y561862D01*
D02*
G37*
G36*
X744215Y535553D02*
X744136Y535903D01*
X743899Y536217D01*
X743506Y536493D01*
X742955Y536733D01*
X742246Y536936D01*
X741380Y537101D01*
X740356Y537231D01*
X737837Y537378D01*
X736341Y537396D01*
Y545270D01*
X737853Y545310D01*
X739207Y545428D01*
X740403Y545625D01*
X741440Y545900D01*
X742319Y546255D01*
X743039Y546688D01*
X743601Y547200D01*
X744004Y547790D01*
X744248Y548460D01*
X744335Y549207D01*
X744215Y535553D01*
D02*
G37*
G36*
X247047Y622047D02*
X247047Y533464D01*
X180118Y533465D01*
X180118Y622047D01*
X247047Y622047D01*
D02*
G37*
G36*
X326772Y531496D02*
X259842D01*
Y606299D01*
X326772D01*
Y531496D01*
D02*
G37*
G36*
X764035Y535474D02*
X763366Y535238D01*
X762775Y534844D01*
X762264Y534293D01*
X761831Y533585D01*
X761476Y532718D01*
X761201Y531695D01*
X761004Y530514D01*
X760886Y529175D01*
X760846Y527679D01*
X752972D01*
X752933Y529175D01*
X752815Y530514D01*
X752618Y531695D01*
X752342Y532718D01*
X751988Y533585D01*
X751555Y534293D01*
X751043Y534844D01*
X750453Y535238D01*
X749783Y535474D01*
X749035Y535553D01*
X764783D01*
X764035Y535474D01*
D02*
G37*
G36*
X760886Y525943D02*
X761004Y524604D01*
X761201Y523423D01*
X761476Y522399D01*
X761831Y521533D01*
X762264Y520825D01*
X762775Y520274D01*
X763366Y519880D01*
X764035Y519644D01*
X764783Y519565D01*
X749035D01*
X749783Y519644D01*
X750453Y519880D01*
X751043Y520274D01*
X751555Y520825D01*
X751988Y521533D01*
X752342Y522399D01*
X752618Y523423D01*
X752815Y524604D01*
X752933Y525943D01*
X752972Y527439D01*
X760846D01*
X760886Y525943D01*
D02*
G37*
G36*
X918102Y524981D02*
X918319Y522794D01*
X918509Y521905D01*
X918753Y521154D01*
X919052Y520539D01*
X919405Y520060D01*
X919812Y519718D01*
X920274Y519513D01*
X920789Y519445D01*
X907360D01*
X907876Y519513D01*
X908337Y519718D01*
X908745Y520060D01*
X909098Y520539D01*
X909396Y521154D01*
X909640Y521905D01*
X909831Y522794D01*
X909966Y523819D01*
X910048Y524981D01*
X910075Y526280D01*
X918075D01*
X918102Y524981D01*
D02*
G37*
G36*
X566809Y517707D02*
X565299Y517667D01*
X563947Y517549D01*
X562753Y517352D01*
X561716Y517077D01*
X560838Y516722D01*
X560117Y516289D01*
X559555Y515777D01*
X559150Y515187D01*
X558904Y514518D01*
X558815Y513769D01*
X558935Y523502D01*
X559014Y523897D01*
X559250Y524250D01*
X559644Y524562D01*
X560195Y524832D01*
X560904Y525061D01*
X561770Y525248D01*
X562793Y525393D01*
X563975Y525497D01*
X566809Y525581D01*
Y517707D01*
D02*
G37*
G36*
X1151815Y510701D02*
X1151734Y511461D01*
X1151490Y512141D01*
X1151084Y512741D01*
X1150516Y513261D01*
X1149785Y513701D01*
X1148892Y514061D01*
X1147836Y514341D01*
X1146618Y514541D01*
X1145238Y514661D01*
X1143695Y514701D01*
Y522701D01*
X1145238Y522741D01*
X1146618Y522861D01*
X1147836Y523061D01*
X1148892Y523341D01*
X1149785Y523701D01*
X1150516Y524141D01*
X1151084Y524661D01*
X1151490Y525261D01*
X1151734Y525941D01*
X1151815Y526701D01*
Y510701D01*
D02*
G37*
G36*
X901815Y497906D02*
X901734Y498666D01*
X901490Y499346D01*
X901084Y499946D01*
X900516Y500466D01*
X899785Y500906D01*
X898892Y501266D01*
X897836Y501546D01*
X896618Y501746D01*
X895238Y501866D01*
X893701Y501905D01*
X892164Y501866D01*
X890784Y501746D01*
X889566Y501546D01*
X888510Y501266D01*
X887617Y500906D01*
X886886Y500466D01*
X886317Y499946D01*
X885912Y499346D01*
X885668Y498666D01*
X885587Y497906D01*
Y513906D01*
X885668Y513146D01*
X885912Y512466D01*
X886317Y511866D01*
X886886Y511346D01*
X887617Y510906D01*
X888510Y510546D01*
X889566Y510266D01*
X890784Y510066D01*
X892164Y509946D01*
X893701Y509906D01*
X895238Y509946D01*
X896618Y510066D01*
X897836Y510266D01*
X898892Y510546D01*
X899785Y510906D01*
X900516Y511346D01*
X901084Y511866D01*
X901490Y512466D01*
X901734Y513146D01*
X901815Y513906D01*
Y497906D01*
D02*
G37*
G36*
X1043410Y507322D02*
X1043530Y505941D01*
X1043730Y504723D01*
X1044010Y503668D01*
X1044370Y502774D01*
X1044810Y502043D01*
X1045330Y501475D01*
X1045930Y501069D01*
X1046610Y500825D01*
X1047370Y500744D01*
X1031370D01*
X1032130Y500825D01*
X1032810Y501069D01*
X1033410Y501475D01*
X1033930Y502043D01*
X1034370Y502774D01*
X1034730Y503668D01*
X1035010Y504723D01*
X1035210Y505941D01*
X1035330Y507322D01*
X1035370Y508864D01*
X1043370D01*
X1043410Y507322D01*
D02*
G37*
G36*
X823075Y498031D02*
X822995Y498779D01*
X822755Y499449D01*
X822355Y500039D01*
X821796Y500551D01*
X821076Y500984D01*
X820197Y501339D01*
X819158Y501614D01*
X817958Y501811D01*
X816600Y501929D01*
X815081Y501968D01*
Y509842D01*
X816600Y509882D01*
X817958Y510000D01*
X819158Y510197D01*
X820197Y510472D01*
X821076Y510827D01*
X821796Y511260D01*
X822355Y511772D01*
X822755Y512362D01*
X822995Y513031D01*
X823075Y513779D01*
Y498031D01*
D02*
G37*
G36*
X806927Y513031D02*
X807167Y512362D01*
X807566Y511772D01*
X808126Y511260D01*
X808845Y510827D01*
X809725Y510472D01*
X810764Y510197D01*
X811963Y510000D01*
X813322Y509882D01*
X814841Y509842D01*
Y501968D01*
X813322Y501929D01*
X811963Y501811D01*
X810764Y501614D01*
X809725Y501339D01*
X808845Y500984D01*
X808126Y500551D01*
X807566Y500039D01*
X807167Y499449D01*
X806927Y498779D01*
X806847Y498031D01*
Y513779D01*
X806927Y513031D01*
D02*
G37*
G36*
X601059Y497112D02*
X600379Y496869D01*
X599779Y496463D01*
X599259Y495894D01*
X598819Y495163D01*
X598459Y494270D01*
X598179Y493215D01*
X597979Y491997D01*
X597859Y490616D01*
X597819Y489074D01*
X589819D01*
X589779Y490616D01*
X589659Y491997D01*
X589459Y493215D01*
X589179Y494270D01*
X588819Y495163D01*
X588379Y495894D01*
X587859Y496463D01*
X587259Y496869D01*
X586579Y497112D01*
X585819Y497193D01*
X601819D01*
X601059Y497112D01*
D02*
G37*
G36*
X842461Y492167D02*
X841791Y491931D01*
X841201Y491537D01*
X840689Y490986D01*
X840256Y490278D01*
X839902Y489411D01*
X839626Y488388D01*
X839429Y487207D01*
X839311Y485868D01*
X839272Y484372D01*
X831398D01*
X831358Y485868D01*
X831240Y487207D01*
X831043Y488388D01*
X830768Y489411D01*
X830413Y490278D01*
X829980Y490986D01*
X829468Y491537D01*
X828878Y491931D01*
X828209Y492167D01*
X827461Y492246D01*
X843209D01*
X842461Y492167D01*
D02*
G37*
G36*
X597842Y486272D02*
X597911Y485391D01*
X598026Y484561D01*
X598187Y483782D01*
X598394Y483053D01*
X598647Y482375D01*
X598946Y481747D01*
X599291Y481170D01*
X599682Y480644D01*
X600119Y480167D01*
X587519D01*
X587956Y480644D01*
X588347Y481170D01*
X588692Y481747D01*
X588991Y482375D01*
X589244Y483053D01*
X589451Y483782D01*
X589612Y484561D01*
X589727Y485391D01*
X589796Y486272D01*
X589819Y487202D01*
X597819D01*
X597842Y486272D01*
D02*
G37*
G36*
X839311Y482613D02*
X839429Y481254D01*
X839626Y480055D01*
X839902Y479016D01*
X840256Y478137D01*
X840689Y477417D01*
X841201Y476858D01*
X841791Y476458D01*
X842461Y476218D01*
X843209Y476138D01*
X827461D01*
X828209Y476218D01*
X828878Y476458D01*
X829468Y476858D01*
X829980Y477417D01*
X830413Y478137D01*
X830768Y479016D01*
X831043Y480055D01*
X831240Y481254D01*
X831358Y482613D01*
X831398Y484132D01*
X839272D01*
X839311Y482613D01*
D02*
G37*
G36*
X1057046Y480665D02*
X1057286Y479985D01*
X1057687Y479385D01*
X1058246Y478865D01*
X1058966Y478425D01*
X1059847Y478065D01*
X1060887Y477785D01*
X1062086Y477585D01*
X1063447Y477465D01*
X1064966Y477425D01*
Y469425D01*
X1063447Y469385D01*
X1062086Y469265D01*
X1060887Y469065D01*
X1059847Y468785D01*
X1058966Y468425D01*
X1058246Y467985D01*
X1057687Y467465D01*
X1057286Y466865D01*
X1057046Y466185D01*
X1056966Y465425D01*
Y481425D01*
X1057046Y480665D01*
D02*
G37*
G36*
X666121Y458530D02*
X665960Y458293D01*
X665819Y457900D01*
X665696Y457349D01*
X665592Y456640D01*
X665442Y454750D01*
X665357Y450735D01*
X657483D01*
X657473Y452231D01*
X657143Y457349D01*
X657021Y457900D01*
X656879Y458293D01*
X656719Y458530D01*
X656540Y458608D01*
X666300D01*
X666121Y458530D01*
D02*
G37*
G36*
X319823Y452916D02*
X319154Y452676D01*
X318563Y452276D01*
X318051Y451717D01*
X317618Y450997D01*
X317264Y450118D01*
X316988Y449079D01*
X316843Y448192D01*
X316847Y448166D01*
X317012Y447386D01*
X317225Y446655D01*
X317485Y445973D01*
X317792Y445339D01*
X318146Y444754D01*
X318548Y444218D01*
X318997Y443730D01*
X306397D01*
X306846Y444218D01*
X307248Y444754D01*
X307602Y445339D01*
X307909Y445973D01*
X308169Y446655D01*
X308382Y447386D01*
X308547Y448166D01*
X308551Y448192D01*
X308406Y449079D01*
X308130Y450118D01*
X307776Y450997D01*
X307343Y451717D01*
X306831Y452276D01*
X306240Y452676D01*
X305571Y452916D01*
X304823Y452996D01*
X320571D01*
X319823Y452916D01*
D02*
G37*
G36*
X921201Y448860D02*
X920532Y448624D01*
X919941Y448230D01*
X919429Y447679D01*
X918996Y446971D01*
X918642Y446104D01*
X918366Y445081D01*
X918169Y443900D01*
X918051Y442561D01*
X918012Y441065D01*
X910138D01*
X910098Y442561D01*
X909980Y443900D01*
X909784Y445081D01*
X909508Y446104D01*
X909154Y446971D01*
X908721Y447679D01*
X908209Y448230D01*
X907618Y448624D01*
X906949Y448860D01*
X906201Y448939D01*
X921949D01*
X921201Y448860D01*
D02*
G37*
G36*
X837835D02*
X837165Y448624D01*
X836575Y448230D01*
X836063Y447679D01*
X835630Y446971D01*
X835276Y446104D01*
X835000Y445081D01*
X834803Y443900D01*
X834685Y442561D01*
X834646Y441065D01*
X826772D01*
X826734Y442561D01*
X826619Y443900D01*
X826428Y445081D01*
X826161Y446104D01*
X825817Y446971D01*
X825398Y447679D01*
X824901Y448230D01*
X824329Y448624D01*
X823680Y448860D01*
X822955Y448939D01*
X838583D01*
X837835Y448860D01*
D02*
G37*
G36*
X665396Y444916D02*
X665514Y443557D01*
X665711Y442358D01*
X665987Y441319D01*
X666341Y440440D01*
X666774Y439720D01*
X667286Y439161D01*
X667876Y438761D01*
X668546Y438521D01*
X669294Y438441D01*
X653546D01*
X654294Y438521D01*
X654963Y438761D01*
X655554Y439161D01*
X656066Y439720D01*
X656499Y440440D01*
X656853Y441319D01*
X657129Y442358D01*
X657325Y443557D01*
X657443Y444916D01*
X657483Y446435D01*
X665357D01*
X665396Y444916D01*
D02*
G37*
G36*
X918051Y439329D02*
X918169Y437990D01*
X918366Y436809D01*
X918642Y435786D01*
X918996Y434919D01*
X919429Y434211D01*
X919941Y433660D01*
X920532Y433266D01*
X921201Y433030D01*
X921949Y432951D01*
X906201D01*
X906949Y433030D01*
X907618Y433266D01*
X908209Y433660D01*
X908721Y434211D01*
X909154Y434919D01*
X909508Y435786D01*
X909784Y436809D01*
X909980Y437990D01*
X910098Y439329D01*
X910138Y440825D01*
X918012D01*
X918051Y439329D01*
D02*
G37*
G36*
X881945Y448859D02*
X881265Y448619D01*
X880665Y448219D01*
X880145Y447659D01*
X879705Y446939D01*
X879345Y446059D01*
X879065Y445019D01*
X878865Y443819D01*
X878745Y442459D01*
X878705Y440945D01*
X878745Y439431D01*
X878865Y438071D01*
X879065Y436871D01*
X879345Y435831D01*
X879705Y434951D01*
X880145Y434231D01*
X880665Y433671D01*
X881265Y433271D01*
X881945Y433031D01*
X882705Y432951D01*
X866705D01*
X867465Y433031D01*
X868145Y433271D01*
X868745Y433671D01*
X869265Y434231D01*
X869705Y434951D01*
X870065Y435831D01*
X870345Y436871D01*
X870545Y438071D01*
X870665Y439431D01*
X870705Y440945D01*
X870665Y442459D01*
X870545Y443819D01*
X870345Y445019D01*
X870065Y446059D01*
X869705Y446939D01*
X869265Y447659D01*
X868745Y448219D01*
X868145Y448619D01*
X867465Y448859D01*
X866705Y448939D01*
X882705D01*
X881945Y448859D01*
D02*
G37*
G36*
X925037Y426417D02*
X925277Y425748D01*
X925676Y425158D01*
X926236Y424646D01*
X926955Y424213D01*
X927835Y423858D01*
X928874Y423583D01*
X929898Y423415D01*
X930082Y423441D01*
X930862Y423606D01*
X931593Y423819D01*
X932275Y424079D01*
X932909Y424386D01*
X933494Y424741D01*
X934030Y425142D01*
X934518Y425591D01*
Y412991D01*
X934030Y413440D01*
X933494Y413842D01*
X932909Y414197D01*
X932275Y414504D01*
X931593Y414764D01*
X930862Y414976D01*
X930082Y415142D01*
X929898Y415168D01*
X928874Y415000D01*
X927835Y414724D01*
X926955Y414370D01*
X926236Y413937D01*
X925676Y413425D01*
X925277Y412835D01*
X925037Y412165D01*
X924957Y411417D01*
Y427165D01*
X925037Y426417D01*
D02*
G37*
G36*
X724240Y526260D02*
X724347Y526279D01*
X724455Y526258D01*
X729331Y523212D01*
Y337598D01*
X573819D01*
Y462273D01*
X578819Y463790D01*
X580842Y460763D01*
X586796Y456784D01*
X593819Y455387D01*
X600842Y456784D01*
X606796Y460763D01*
X610774Y466717D01*
X612171Y473740D01*
X610774Y480763D01*
X609956Y481988D01*
X612680Y486286D01*
X613625Y486953D01*
X618504D01*
Y492418D01*
X650420D01*
Y466566D01*
X649484Y465969D01*
X649421Y465879D01*
X649330Y465818D01*
X648284Y464252D01*
X647205Y462708D01*
X647181Y462601D01*
X647120Y462510D01*
X646752Y460662D01*
X646346Y458824D01*
X646365Y458716D01*
X646344Y458608D01*
X646711Y456761D01*
X646732Y456645D01*
X646733Y456471D01*
X646784Y456350D01*
X647040Y454906D01*
X647089Y454830D01*
X647280Y451870D01*
X647287Y450670D01*
X647673Y448792D01*
X646879Y447631D01*
X644767Y444681D01*
X641638D01*
Y407681D01*
X681197D01*
Y444681D01*
X678072D01*
X676704Y446551D01*
X675169Y448793D01*
X675550Y450519D01*
X675629Y454236D01*
X675659Y454616D01*
X675720Y454707D01*
X675741Y454814D01*
X675800Y454906D01*
X676055Y456350D01*
X676106Y456471D01*
X676108Y456645D01*
X676128Y456761D01*
X676496Y458608D01*
X676474Y458716D01*
X676493Y458824D01*
X676087Y460662D01*
X675720Y462510D01*
X675659Y462601D01*
X675635Y462708D01*
X674556Y464252D01*
X673509Y465818D01*
X673418Y465879D01*
X673356Y465969D01*
X672420Y466566D01*
Y492418D01*
X690646D01*
Y526575D01*
X722814D01*
X724240Y526260D01*
D02*
G37*
G36*
X881945Y405671D02*
X881265Y405427D01*
X880665Y405021D01*
X880145Y404453D01*
X879705Y403722D01*
X879345Y402829D01*
X879065Y401773D01*
X878865Y400555D01*
X878745Y399175D01*
X878705Y397632D01*
X870705D01*
X870665Y399175D01*
X870545Y400555D01*
X870345Y401773D01*
X870065Y402829D01*
X869705Y403722D01*
X869265Y404453D01*
X868745Y405021D01*
X868145Y405427D01*
X867465Y405671D01*
X866705Y405752D01*
X882705D01*
X881945Y405671D01*
D02*
G37*
G36*
X834685Y351964D02*
X834803Y350598D01*
X835000Y349394D01*
X835276Y348352D01*
X835630Y347472D01*
X836063Y346753D01*
X836575Y346196D01*
X837165Y345802D01*
X837835Y345568D01*
X838583Y345497D01*
X827085Y345356D01*
X827026Y345414D01*
X826972Y345640D01*
X826925Y346034D01*
X826850Y347325D01*
X826772Y353491D01*
X834646D01*
X834685Y351964D01*
D02*
G37*
G36*
X838583Y322219D02*
X837835Y322148D01*
X837165Y321915D01*
X836575Y321520D01*
X836063Y320964D01*
X835630Y320245D01*
X835276Y319365D01*
X835000Y318323D01*
X834803Y317119D01*
X834685Y315753D01*
X834646Y314225D01*
X826772D01*
X827085Y322361D01*
X838583Y322219D01*
D02*
G37*
G36*
X834685Y301964D02*
X834803Y300598D01*
X835000Y299394D01*
X835276Y298352D01*
X835630Y297472D01*
X836063Y296753D01*
X836575Y296196D01*
X837165Y295802D01*
X837835Y295568D01*
X838583Y295497D01*
X827085Y295356D01*
X827026Y295414D01*
X826972Y295640D01*
X826925Y296034D01*
X826850Y297325D01*
X826772Y303491D01*
X834646D01*
X834685Y301964D01*
D02*
G37*
G36*
X1039542Y225858D02*
X1039461Y226618D01*
X1039217Y227298D01*
X1038811Y227898D01*
X1038243Y228418D01*
X1037512Y228858D01*
X1036619Y229218D01*
X1035563Y229498D01*
X1034345Y229698D01*
X1032965Y229818D01*
X1031422Y229858D01*
Y237858D01*
X1032965Y237898D01*
X1034345Y238018D01*
X1035563Y238218D01*
X1036619Y238498D01*
X1037512Y238858D01*
X1038243Y239298D01*
X1038811Y239818D01*
X1039217Y240418D01*
X1039461Y241098D01*
X1039542Y241858D01*
Y225858D01*
D02*
G37*
%LPC*%
G36*
X1045921Y744760D02*
X998173D01*
Y733414D01*
X998010Y733328D01*
X997659Y732908D01*
X997204Y732603D01*
X996573Y731660D01*
X996155Y731649D01*
X994340Y731239D01*
X992517Y730876D01*
X992310Y730780D01*
X992274Y730772D01*
X988189Y729087D01*
X984103Y730772D01*
X984067Y730780D01*
X983860Y730876D01*
X982038Y731239D01*
X980223Y731649D01*
X979804Y731660D01*
X979174Y732603D01*
X978719Y732908D01*
X978368Y733328D01*
X978205Y733414D01*
Y744760D01*
X930457D01*
Y690279D01*
X978205D01*
Y701625D01*
X978368Y701711D01*
X978719Y702132D01*
X979174Y702436D01*
X979804Y703379D01*
X980223Y703390D01*
X982038Y703800D01*
X983860Y704163D01*
X984067Y704259D01*
X984103Y704267D01*
X988189Y705952D01*
X992275Y704267D01*
X992310Y704259D01*
X992518Y704163D01*
X994340Y703800D01*
X996155Y703390D01*
X996573Y703379D01*
X997204Y702436D01*
X997659Y702132D01*
X998010Y701711D01*
X998173Y701625D01*
Y690279D01*
X1045921D01*
Y744760D01*
D02*
G37*
G36*
X1108126Y744760D02*
X1060378D01*
Y690280D01*
X1108126D01*
Y695501D01*
X1108490Y696124D01*
X1114126Y699960D01*
X1118110Y699167D01*
X1125133Y700564D01*
X1131087Y704543D01*
X1135066Y710496D01*
X1136463Y717520D01*
X1135066Y724543D01*
X1131087Y730497D01*
X1125133Y734475D01*
X1118110Y735872D01*
X1114126Y735080D01*
X1108490Y738916D01*
X1108126Y739538D01*
Y744760D01*
D02*
G37*
%LPD*%
G36*
X1004413Y709646D02*
X1004333Y710394D01*
X1004093Y711063D01*
X1003694Y711654D01*
X1003134Y712165D01*
X1002415Y712598D01*
X1001535Y712953D01*
X1000496Y713228D01*
X999297Y713425D01*
X997938Y713543D01*
X996419Y713583D01*
Y721457D01*
X997938Y721496D01*
X999297Y721614D01*
X1000496Y721811D01*
X1001535Y722087D01*
X1002415Y722441D01*
X1003134Y722874D01*
X1003694Y723386D01*
X1004093Y723976D01*
X1004333Y724646D01*
X1004413Y725394D01*
Y709646D01*
D02*
G37*
G36*
X972044Y724646D02*
X972284Y723976D01*
X972684Y723386D01*
X973244Y722874D01*
X973963Y722441D01*
X974842Y722087D01*
X975882Y721811D01*
X977081Y721614D01*
X978440Y721496D01*
X979959Y721457D01*
Y713583D01*
X978440Y713543D01*
X977081Y713425D01*
X975882Y713228D01*
X974842Y712953D01*
X973963Y712598D01*
X973244Y712165D01*
X972684Y711654D01*
X972284Y711063D01*
X972044Y710394D01*
X971965Y709646D01*
Y725394D01*
X972044Y724646D01*
D02*
G37*
G36*
X1101967Y724760D02*
X1102211Y724080D01*
X1102617Y723480D01*
X1103185Y722960D01*
X1103916Y722520D01*
X1104809Y722160D01*
X1105865Y721880D01*
X1107022Y721690D01*
X1107289Y721727D01*
X1108068Y721888D01*
X1108797Y722095D01*
X1109475Y722348D01*
X1110103Y722647D01*
X1110680Y722992D01*
X1111207Y723383D01*
X1111683Y723820D01*
Y711220D01*
X1111207Y711657D01*
X1110680Y712048D01*
X1110103Y712393D01*
X1109475Y712692D01*
X1108797Y712945D01*
X1108068Y713152D01*
X1107289Y713313D01*
X1107022Y713350D01*
X1105865Y713160D01*
X1104809Y712880D01*
X1103916Y712520D01*
X1103185Y712080D01*
X1102617Y711560D01*
X1102211Y710960D01*
X1101967Y710280D01*
X1101886Y709520D01*
Y725520D01*
X1101967Y724760D01*
D02*
G37*
%LPC*%
G36*
X2413480Y518795D02*
X2330614D01*
Y485142D01*
X2413480D01*
Y518795D01*
D02*
G37*
G36*
X2407240Y447324D02*
X2406385Y447154D01*
X2405513Y447176D01*
X2404631Y446838D01*
X2404085Y446767D01*
X2403896Y446659D01*
X2403338Y446548D01*
X2402613Y446063D01*
X2401799Y445750D01*
X2401008Y445000D01*
X2400635Y444786D01*
X2400565Y444695D01*
X2400031Y444338D01*
X2399800Y443992D01*
X2330614D01*
Y410339D01*
X2399800D01*
X2400031Y409993D01*
X2400082Y409959D01*
X2400117Y409908D01*
X2401730Y408857D01*
X2403338Y407783D01*
X2403399Y407771D01*
X2403451Y407737D01*
X2405346Y407383D01*
X2407240Y407007D01*
X2407301Y407019D01*
X2407362Y407007D01*
X2411885Y407061D01*
X2416918Y402076D01*
Y321710D01*
X2416183Y321243D01*
X2416116Y321147D01*
X2416019Y321082D01*
X2414977Y319522D01*
X2413899Y317985D01*
X2413873Y317871D01*
X2413809Y317774D01*
X2413442Y315933D01*
X2413035Y314102D01*
X2412943Y310014D01*
X2412695Y306717D01*
X2412314Y304040D01*
X2411850Y302026D01*
X2411423Y300804D01*
X2410879Y300624D01*
X2409530Y300356D01*
X2409006Y300005D01*
X2408407Y299808D01*
X2407366Y298909D01*
X2406222Y298145D01*
X2405872Y297621D01*
X2405394Y297209D01*
X2404776Y295981D01*
X2404012Y294838D01*
X2403889Y294219D01*
X2403606Y293656D01*
X2403558Y293011D01*
X2393693Y285441D01*
X2384843Y273908D01*
X2379280Y260476D01*
X2377382Y246063D01*
Y147638D01*
X2379280Y133224D01*
X2384843Y119793D01*
X2393693Y108260D01*
X2405226Y99410D01*
X2418657Y93846D01*
X2433071Y91949D01*
X2447484Y93846D01*
X2460915Y99410D01*
X2472449Y108260D01*
X2481299Y119793D01*
X2486862Y133224D01*
X2488760Y147638D01*
Y246063D01*
X2486862Y260476D01*
X2481299Y273908D01*
X2472449Y285441D01*
X2462584Y293011D01*
X2462536Y293656D01*
X2462253Y294219D01*
X2462130Y294838D01*
X2461366Y295981D01*
X2460747Y297209D01*
X2460270Y297621D01*
X2459920Y298145D01*
X2458776Y298909D01*
X2457735Y299808D01*
X2457136Y300005D01*
X2456612Y300356D01*
X2455263Y300624D01*
X2454718Y300804D01*
X2454291Y302026D01*
X2453828Y304040D01*
X2453447Y306717D01*
X2453199Y310014D01*
X2453107Y314102D01*
X2452699Y315933D01*
X2452333Y317774D01*
X2452268Y317871D01*
X2452243Y317985D01*
X2451165Y319522D01*
X2450123Y321082D01*
X2450026Y321147D01*
X2449959Y321243D01*
X2449224Y321710D01*
Y411417D01*
X2447994Y417599D01*
X2444493Y422839D01*
X2428745Y438587D01*
X2426971Y439772D01*
X2426751Y440890D01*
X2426745Y440899D01*
X2426743Y440910D01*
X2425640Y442560D01*
X2424548Y444202D01*
X2424539Y444208D01*
X2424532Y444217D01*
X2422883Y445320D01*
X2421244Y446419D01*
X2421234Y446422D01*
X2421225Y446428D01*
X2419293Y446812D01*
X2417344Y447204D01*
X2412262Y447214D01*
X2408064Y447276D01*
X2408030Y447278D01*
X2408018Y447276D01*
X2407792Y447279D01*
X2407621Y447248D01*
X2407240Y447324D01*
D02*
G37*
G36*
X2139764Y533116D02*
X2132741Y531719D01*
X2126787Y527741D01*
X2122808Y521787D01*
X2121411Y514764D01*
X2121946Y512073D01*
X2121697Y510973D01*
X2121627Y508271D01*
X2121452Y506273D01*
X2121261Y505118D01*
X2118146Y504498D01*
X2114838Y502288D01*
X2114030Y501079D01*
X2106205D01*
Y428055D01*
X2111851D01*
Y347441D01*
X2112628Y343539D01*
X2114838Y340231D01*
X2118146Y338021D01*
X2122047Y337245D01*
X2165354D01*
X2169256Y338021D01*
X2172564Y340231D01*
X2173659Y341870D01*
X2181809D01*
X2182163Y341322D01*
X2182226Y341279D01*
X2182269Y341216D01*
X2183860Y340152D01*
X2185438Y339064D01*
X2185513Y339048D01*
X2185577Y339005D01*
X2186077Y338906D01*
X2186579Y338570D01*
X2186803Y338526D01*
X2186999Y338407D01*
X2188747Y338139D01*
X2190481Y337794D01*
X2190705Y337839D01*
X2190931Y337804D01*
X2197150Y338079D01*
X2197426Y338061D01*
X2197588Y338039D01*
X2197670Y338045D01*
X2197760Y338038D01*
X2197939Y338062D01*
X2197947Y338062D01*
X2199240Y337795D01*
X2199718Y337886D01*
X2200201Y337832D01*
X2201658Y338256D01*
X2203148Y338540D01*
X2203555Y338807D01*
X2204022Y338942D01*
X2209197Y340469D01*
X2210709Y339552D01*
X2212179Y338570D01*
X2212403Y338526D01*
X2212599Y338407D01*
X2214347Y338139D01*
X2216081Y337794D01*
X2216305Y337839D01*
X2216531Y337804D01*
X2226374Y338239D01*
X2228091Y338661D01*
X2229825Y339005D01*
X2230015Y339132D01*
X2230237Y339187D01*
X2231663Y340233D01*
X2232858Y341032D01*
X2235822Y341269D01*
X2236344Y341279D01*
X2239275Y341014D01*
X2240520Y340182D01*
X2242037Y339111D01*
X2242169Y339081D01*
X2242281Y339005D01*
X2244105Y338643D01*
X2245710Y338280D01*
Y302165D01*
X2246486Y298264D01*
X2248696Y294956D01*
X2252004Y292746D01*
X2253596Y292429D01*
Y286311D01*
X2252004Y285995D01*
X2248696Y283784D01*
X2246486Y280477D01*
X2245710Y276575D01*
Y240460D01*
X2244105Y240097D01*
X2242281Y239735D01*
X2242169Y239660D01*
X2242037Y239630D01*
X2240519Y238557D01*
X2239235Y237699D01*
X2236729Y237478D01*
X2235940Y237462D01*
X2232858Y237708D01*
X2231541Y238588D01*
X2229963Y239676D01*
X2229889Y239692D01*
X2229825Y239735D01*
X2227946Y240109D01*
X2226073Y240510D01*
X2218954Y240615D01*
X2217976Y240679D01*
X2217814Y240701D01*
X2217732Y240696D01*
X2217642Y240702D01*
X2217463Y240678D01*
X2217436Y240677D01*
X2216081Y240946D01*
X2215643Y240859D01*
X2215200Y240908D01*
X2213706Y240474D01*
X2212179Y240170D01*
X2211735Y239901D01*
X2211380Y239798D01*
X2208505Y238099D01*
X2204363Y239676D01*
X2204300Y239690D01*
X2204225Y239735D01*
X2203837Y239812D01*
X2203148Y240201D01*
X2202963Y240236D01*
X2202803Y240333D01*
X2201016Y240607D01*
X2199240Y240946D01*
X2199056Y240908D01*
X2198870Y240936D01*
X2192652Y240661D01*
X2192376Y240679D01*
X2192214Y240701D01*
X2192132Y240696D01*
X2192042Y240702D01*
X2191863Y240678D01*
X2191836Y240677D01*
X2190481Y240946D01*
X2190043Y240859D01*
X2189600Y240908D01*
X2188106Y240474D01*
X2186579Y240170D01*
X2186208Y239922D01*
X2185780Y239798D01*
X2185743Y239768D01*
X2185577Y239735D01*
X2185386Y239608D01*
X2185164Y239553D01*
X2183738Y238507D01*
X2182269Y237525D01*
X2182142Y237335D01*
X2181957Y237199D01*
X2181758Y236870D01*
X2116401D01*
Y169870D01*
X2138116D01*
X2138426Y160243D01*
X2138364Y157877D01*
X2138189Y155879D01*
X2137940Y154373D01*
X2137858Y154065D01*
X2136851Y153865D01*
X2136399Y153563D01*
X2135879Y153401D01*
X2134757Y152466D01*
X2133543Y151655D01*
X2133241Y151202D01*
X2132823Y150854D01*
X2132734Y150685D01*
X2123921D01*
Y77661D01*
X2189071D01*
Y91258D01*
X2189188Y91318D01*
X2189561Y91759D01*
X2190041Y92080D01*
X2190834Y93267D01*
X2191755Y94358D01*
X2191930Y94908D01*
X2192251Y95388D01*
X2197835Y95821D01*
X2204858Y97218D01*
X2210812Y101196D01*
X2214790Y107150D01*
X2216187Y114173D01*
X2214790Y121196D01*
X2210812Y127150D01*
X2204858Y131129D01*
X2197835Y132526D01*
X2192251Y132959D01*
X2191930Y133439D01*
X2191755Y133988D01*
X2190834Y135080D01*
X2190041Y136267D01*
X2189561Y136587D01*
X2189188Y137028D01*
X2189071Y137089D01*
Y150685D01*
X2180267D01*
X2180179Y150854D01*
X2179761Y151202D01*
X2179458Y151655D01*
X2178245Y152466D01*
X2177122Y153401D01*
X2176603Y153563D01*
X2176151Y153865D01*
X2175144Y154065D01*
X2175062Y154373D01*
X2174813Y155879D01*
X2174638Y157877D01*
X2174572Y160387D01*
X2174648Y169870D01*
X2222201D01*
Y207471D01*
X2222496Y207627D01*
X2222841Y208042D01*
X2223290Y208342D01*
X2224104Y209559D01*
X2224670Y210240D01*
X2226191Y210280D01*
X2228003Y210690D01*
X2229825Y211053D01*
X2229939Y211128D01*
X2230072Y211159D01*
X2231588Y212231D01*
X2232740Y213000D01*
X2234579Y213308D01*
X2235477Y213332D01*
X2236276Y213316D01*
X2239249Y213079D01*
X2240252Y212408D01*
X2241450Y211442D01*
X2241895Y211310D01*
X2242281Y211053D01*
X2243789Y210753D01*
X2245266Y210318D01*
X2245728Y210367D01*
X2246183Y210276D01*
X2247692Y210577D01*
X2249222Y210740D01*
X2250433Y211118D01*
X2252004Y210068D01*
X2255905Y209292D01*
X2316929D01*
X2320831Y210068D01*
X2324139Y212279D01*
X2326349Y215586D01*
X2327125Y219488D01*
Y276575D01*
X2326349Y280477D01*
X2324139Y283784D01*
X2320831Y285995D01*
X2319239Y286311D01*
Y292429D01*
X2320831Y292746D01*
X2324139Y294956D01*
X2326349Y298264D01*
X2327125Y302165D01*
Y359252D01*
X2326349Y363154D01*
X2324139Y366462D01*
X2320831Y368672D01*
X2316929Y369448D01*
X2255905D01*
X2252004Y368672D01*
X2250433Y367622D01*
X2249222Y368000D01*
X2247692Y368164D01*
X2246183Y368464D01*
X2245728Y368373D01*
X2245266Y368422D01*
X2243789Y367988D01*
X2242281Y367688D01*
X2241895Y367430D01*
X2241450Y367298D01*
X2240252Y366332D01*
X2239249Y365661D01*
X2236276Y365424D01*
X2235477Y365409D01*
X2234579Y365432D01*
X2232740Y365740D01*
X2231587Y366510D01*
X2230071Y367582D01*
X2229939Y367612D01*
X2229825Y367688D01*
X2228003Y368050D01*
X2226191Y368460D01*
X2224670Y368500D01*
X2224104Y369181D01*
X2223290Y370399D01*
X2222841Y370699D01*
X2222496Y371114D01*
X2222201Y371269D01*
Y408870D01*
X2175550D01*
Y443480D01*
X2176975Y443861D01*
X2179070Y444208D01*
X2181736Y444442D01*
X2185186Y444532D01*
X2186998Y444942D01*
X2188821Y445305D01*
X2188934Y445380D01*
X2189066Y445410D01*
X2190584Y446483D01*
X2192129Y447515D01*
X2192204Y447627D01*
X2192315Y447706D01*
X2192762Y448414D01*
X2214734D01*
X2215247Y447621D01*
X2215309Y447578D01*
X2215352Y447515D01*
X2216944Y446451D01*
X2218522Y445363D01*
X2218596Y445347D01*
X2218659Y445305D01*
X2220539Y444931D01*
X2222412Y444530D01*
X2236916Y444317D01*
X2239126Y444172D01*
X2239207Y444128D01*
X2240737Y443964D01*
X2242246Y443664D01*
X2242701Y443755D01*
X2243163Y443706D01*
X2244639Y444140D01*
X2246148Y444440D01*
X2246534Y444698D01*
X2246979Y444829D01*
X2248177Y445796D01*
X2249456Y446651D01*
X2249714Y447037D01*
X2250075Y447328D01*
X2250299Y447740D01*
X2318992D01*
Y481394D01*
X2250184D01*
X2249456Y482483D01*
X2249267Y482609D01*
X2249133Y482793D01*
X2247619Y483711D01*
X2246148Y484693D01*
X2245925Y484738D01*
X2245731Y484856D01*
X2243981Y485124D01*
X2242246Y485469D01*
X2242023Y485425D01*
X2241799Y485460D01*
X2222114Y484596D01*
X2220395Y484174D01*
X2218659Y483829D01*
X2218470Y483703D01*
X2218250Y483649D01*
X2216823Y482602D01*
X2215352Y481619D01*
X2215225Y481430D01*
X2215042Y481296D01*
X2214693Y480720D01*
X2192762D01*
X2192315Y481428D01*
X2192204Y481506D01*
X2192129Y481619D01*
X2190584Y482651D01*
X2189066Y483724D01*
X2188934Y483754D01*
X2188821Y483829D01*
X2186998Y484192D01*
X2185186Y484602D01*
X2181736Y484692D01*
X2179070Y484926D01*
X2176975Y485273D01*
X2175550Y485654D01*
Y495079D01*
X2174774Y498981D01*
X2172564Y502288D01*
X2169256Y504498D01*
X2165354Y505275D01*
X2158241D01*
X2158076Y506273D01*
X2157901Y508271D01*
X2157830Y510973D01*
X2157581Y512073D01*
X2158116Y514764D01*
X2156719Y521787D01*
X2152741Y527741D01*
X2146787Y531719D01*
X2139764Y533116D01*
D02*
G37*
G36*
X2094201Y408870D02*
X2065201D01*
Y341870D01*
X2094201D01*
Y408870D01*
D02*
G37*
G36*
X1394685Y491102D02*
X1274606D01*
X1270705Y490325D01*
X1267397Y488115D01*
X1265187Y484808D01*
X1264410Y480906D01*
Y342126D01*
X1265187Y338224D01*
X1267397Y334917D01*
X1270705Y332706D01*
X1274606Y331930D01*
X1394685D01*
X1398587Y332706D01*
X1401895Y334917D01*
X1404105Y338224D01*
X1404881Y342126D01*
Y480906D01*
X1404105Y484808D01*
X1401895Y488115D01*
X1398587Y490325D01*
X1394685Y491102D01*
D02*
G37*
G36*
X1039370Y380275D02*
X1035468Y379498D01*
X1032160Y377288D01*
X1029950Y373981D01*
X1029174Y370079D01*
Y271654D01*
X1029950Y267752D01*
X1032160Y264444D01*
X1035468Y262234D01*
X1039370Y261458D01*
X1100394D01*
X1104295Y262234D01*
X1107603Y264444D01*
X1135129Y291969D01*
X1200787D01*
X1204689Y292746D01*
X1207997Y294956D01*
X1210207Y298264D01*
X1210983Y302165D01*
Y370079D01*
X1210207Y373980D01*
X1207997Y377288D01*
X1204689Y379498D01*
X1200787Y380274D01*
X1039370Y380275D01*
D02*
G37*
G36*
X1719488Y445518D02*
X1712465Y444121D01*
X1706511Y440142D01*
X1702532Y434188D01*
X1701135Y427165D01*
X1696270Y423582D01*
X1692913D01*
X1689012Y422806D01*
X1685704Y420595D01*
X1683494Y417288D01*
X1682717Y413386D01*
Y262795D01*
X1683494Y258894D01*
X1685704Y255586D01*
X1689012Y253375D01*
X1692913Y252599D01*
X1729532D01*
Y223779D01*
X1692913D01*
X1689012Y223002D01*
X1685704Y220792D01*
X1683494Y217484D01*
X1682717Y213583D01*
Y82677D01*
X1683494Y78775D01*
X1685704Y75468D01*
X1689012Y73257D01*
X1692913Y72481D01*
X1696934D01*
X1701136Y67914D01*
X1702533Y60891D01*
X1706511Y54937D01*
X1712465Y50958D01*
X1719488Y49561D01*
X1726512Y50958D01*
X1732466Y54937D01*
X1736444Y60891D01*
X1737841Y67914D01*
X1742043Y72481D01*
X1746063D01*
X1749965Y73257D01*
X1753273Y75468D01*
X1755483Y78775D01*
X1756259Y82677D01*
Y156295D01*
X1756565Y157594D01*
X1756799Y158180D01*
X1756799Y158180D01*
X1756882Y158388D01*
X1756883Y158393D01*
X1756886Y158398D01*
X1758338Y162044D01*
X1760807Y165849D01*
X1764147Y169281D01*
X1765667Y170441D01*
X1807335Y194952D01*
X1808300Y195812D01*
X1809375Y196531D01*
X1809772Y197124D01*
X1810304Y197599D01*
X1810867Y198763D01*
X1811585Y199838D01*
X1811725Y200539D01*
X1812035Y201181D01*
X1812109Y202472D01*
X1812361Y203740D01*
Y208424D01*
X1812226Y209106D01*
X1812268Y209800D01*
X1811595Y214740D01*
X1811584Y214773D01*
X1811586Y214808D01*
X1810938Y216647D01*
X1810300Y218502D01*
X1810277Y218528D01*
X1810265Y218561D01*
X1808965Y220010D01*
X1807664Y221481D01*
X1807632Y221496D01*
X1807609Y221522D01*
X1805851Y222365D01*
X1804088Y223225D01*
X1804053Y223227D01*
X1804021Y223242D01*
X1803169Y223460D01*
X1801893Y223529D01*
X1800640Y223779D01*
X1767426D01*
X1766809Y229779D01*
X1767058Y230050D01*
X1771804Y233877D01*
X1774334Y233828D01*
X1774871Y233789D01*
X1775037Y233756D01*
X1775278Y233613D01*
X1776743Y233404D01*
X1776925Y233335D01*
X1777122Y233341D01*
X1778663Y233035D01*
X1778938Y233089D01*
X1779216Y233050D01*
X1780832Y233463D01*
X1780901Y233465D01*
X1780957Y233491D01*
X1782565Y233811D01*
X1782798Y233966D01*
X1783070Y234036D01*
X1784445Y235067D01*
X1784468Y235082D01*
X1784525Y235108D01*
X1784555Y235140D01*
X1785873Y236021D01*
X1786029Y236254D01*
X1786253Y236422D01*
X1786661Y237111D01*
X1808165D01*
Y254778D01*
X1809375Y255586D01*
X1811585Y258894D01*
X1812361Y262795D01*
Y293307D01*
X1812160Y294320D01*
X1812154Y295353D01*
X1811775Y296252D01*
X1811585Y297209D01*
X1811011Y298068D01*
X1810611Y299020D01*
X1809917Y299706D01*
X1809375Y300517D01*
X1808516Y301091D01*
X1807782Y301817D01*
X1759550Y333650D01*
X1756259Y341595D01*
Y413386D01*
X1755483Y417288D01*
X1753273Y420595D01*
X1749965Y422806D01*
X1746063Y423582D01*
X1742706D01*
X1737841Y427165D01*
X1736444Y434188D01*
X1732465Y440142D01*
X1726511Y444121D01*
X1719488Y445518D01*
D02*
G37*
G36*
X715846Y276916D02*
X708823Y275519D01*
X702869Y271540D01*
X698891Y265586D01*
X697494Y258563D01*
X698506Y253476D01*
X697346Y252063D01*
X697346D01*
Y212504D01*
X734346D01*
Y212504D01*
X738095Y212504D01*
X738095Y212504D01*
X770087D01*
X775095Y212504D01*
X781095Y212504D01*
X813087D01*
Y212786D01*
X815116Y214546D01*
X820541Y216475D01*
X821831Y215799D01*
X823042Y214990D01*
X823579Y214883D01*
X824064Y214629D01*
X825515Y214498D01*
X826944Y214214D01*
X827481Y214321D01*
X828027Y214271D01*
X829417Y214706D01*
X830846Y214990D01*
X831301Y215294D01*
X831824Y215457D01*
X832368Y215911D01*
X886850D01*
X889560Y216450D01*
X891857Y217985D01*
X893392Y220282D01*
X893931Y222992D01*
Y244724D01*
X893392Y247434D01*
X891857Y249731D01*
X889560Y251266D01*
X886850Y251805D01*
X827717D01*
X825007Y251266D01*
X822710Y249732D01*
X816559Y248768D01*
X813087Y251781D01*
Y252063D01*
X781095D01*
X776087Y252063D01*
X770087Y252063D01*
X739024D01*
X733656Y255833D01*
X734199Y258563D01*
X732802Y265586D01*
X728824Y271540D01*
X722870Y275519D01*
X715846Y276916D01*
D02*
G37*
G36*
X2094201Y236870D02*
X2065201D01*
Y169870D01*
X2094201D01*
Y236870D01*
D02*
G37*
G36*
X1099449Y201805D02*
X1040315D01*
X1037605Y201266D01*
X1035308Y199731D01*
X1033773Y197434D01*
X1033234Y194724D01*
Y172992D01*
X1033773Y170282D01*
X1035308Y167985D01*
X1037605Y166450D01*
X1040315Y165911D01*
X1099449D01*
X1102159Y166450D01*
X1104456Y167985D01*
X1105991Y170282D01*
X1106530Y172992D01*
Y194724D01*
X1105991Y197434D01*
X1104456Y199731D01*
X1102159Y201266D01*
X1099449Y201805D01*
D02*
G37*
G36*
X2001823Y365511D02*
X1923228D01*
X1921806Y365228D01*
X1920362Y365100D01*
X1919871Y364843D01*
X1919327Y364735D01*
X1918121Y363929D01*
X1916836Y363258D01*
X1916480Y362833D01*
X1916019Y362525D01*
X1915213Y361319D01*
X1914283Y360207D01*
X1879834Y297215D01*
X1879668Y296686D01*
X1879360Y296225D01*
X1879077Y294803D01*
X1878643Y293419D01*
X1878692Y292867D01*
X1878584Y292323D01*
Y282480D01*
X1879360Y278579D01*
X1881570Y275271D01*
X1882780Y274462D01*
Y239268D01*
X1882780D01*
Y221601D01*
X1881570Y220792D01*
X1879360Y217484D01*
X1878584Y213583D01*
Y203740D01*
X1878771Y202796D01*
X1878763Y201834D01*
X1879156Y200865D01*
X1879360Y199838D01*
X1879894Y199038D01*
X1880255Y198146D01*
X1921593Y135154D01*
X1922327Y134408D01*
X1922908Y133538D01*
X1923708Y133004D01*
X1924383Y132317D01*
X1925346Y131909D01*
X1926216Y131328D01*
X1927160Y131140D01*
X1928046Y130765D01*
X1929092Y130756D01*
X1930118Y130552D01*
X2000984Y130552D01*
X2004886Y131328D01*
X2008194Y133538D01*
X2010404Y136846D01*
X2011180Y140748D01*
X2011180Y179040D01*
X2050291D01*
Y211032D01*
X2050292Y216039D01*
X2050292Y217032D01*
X2050291D01*
Y247052D01*
X2050486Y248032D01*
X2050472Y248106D01*
X2050292Y254031D01*
Y257780D01*
X2050291Y257780D01*
Y294780D01*
X2016397D01*
X2016155Y294897D01*
X2011939Y300780D01*
X2012018Y301181D01*
Y355315D01*
X2011242Y359217D01*
X2009032Y362525D01*
X2005724Y364735D01*
X2001823Y365511D01*
D02*
G37*
G36*
X1615158Y268464D02*
X1495079D01*
X1491177Y267687D01*
X1487869Y265477D01*
X1485659Y262169D01*
X1484883Y258268D01*
Y119488D01*
X1485659Y115586D01*
X1487869Y112278D01*
X1491177Y110068D01*
X1495079Y109292D01*
X1615158D01*
X1619059Y110068D01*
X1622367Y112278D01*
X1624577Y115586D01*
X1625353Y119488D01*
Y258268D01*
X1624577Y262169D01*
X1622367Y265477D01*
X1619059Y267687D01*
X1615158Y268464D01*
D02*
G37*
G36*
X887795Y206062D02*
X818898D01*
X814996Y205286D01*
X811688Y203076D01*
X809478Y199768D01*
X808702Y195866D01*
Y59055D01*
X809478Y55153D01*
X811688Y51846D01*
X814996Y49635D01*
X818898Y48859D01*
X887795D01*
X891697Y49635D01*
X895005Y51846D01*
X897215Y55153D01*
X897991Y59055D01*
Y195866D01*
X897215Y199768D01*
X895005Y203076D01*
X891697Y205286D01*
X887795Y206062D01*
D02*
G37*
%LPD*%
G36*
X2407341Y437105D02*
X2407644Y437085D01*
X2412181Y437019D01*
X2417323Y437008D01*
Y417323D01*
X2407240Y417203D01*
Y437128D01*
X2407341Y437105D01*
D02*
G37*
G36*
X2443011Y309515D02*
X2443305Y305615D01*
X2443795Y302175D01*
X2444481Y299193D01*
X2445363Y296670D01*
X2446440Y294606D01*
X2447714Y293000D01*
X2449183Y291853D01*
X2450849Y291165D01*
X2452710Y290936D01*
X2413432D01*
X2415293Y291165D01*
X2416959Y291853D01*
X2418428Y293000D01*
X2419702Y294606D01*
X2420779Y296670D01*
X2421661Y299193D01*
X2422347Y302175D01*
X2422836Y305615D01*
X2423130Y309515D01*
X2423228Y313873D01*
X2442913D01*
X2443011Y309515D01*
D02*
G37*
G36*
X2242246Y453860D02*
X2242049Y454024D01*
X2241459Y454171D01*
X2240474Y454301D01*
X2237325Y454508D01*
X2222561Y454724D01*
Y474409D01*
X2242246Y475274D01*
Y453860D01*
D02*
G37*
G36*
X2199402Y358292D02*
X2200323Y358268D01*
Y348425D01*
X2199324Y348381D01*
X2199321Y347990D01*
X2199222Y348073D01*
X2198927Y348147D01*
X2198435Y348212D01*
X2197262Y348290D01*
X2190481Y347990D01*
Y348410D01*
X2189478Y348425D01*
Y358268D01*
X2190481Y358294D01*
Y363189D01*
X2190579Y362254D01*
X2190874Y361417D01*
X2191367Y360679D01*
X2192056Y360039D01*
X2192941Y359498D01*
X2194024Y359055D01*
X2194925Y358813D01*
X2195836Y359055D01*
X2196931Y359498D01*
X2197828Y360039D01*
X2198528Y360679D01*
X2199030Y361417D01*
X2199334Y362254D01*
X2199441Y363189D01*
X2199402Y358292D01*
D02*
G37*
G36*
X2316929Y302165D02*
X2255905D01*
Y344798D01*
X2255731Y345276D01*
X2255228Y346014D01*
X2254527Y346654D01*
X2253630Y347195D01*
X2252535Y347638D01*
X2251243Y347982D01*
X2249753Y348228D01*
X2248067Y348376D01*
X2246183Y348425D01*
Y358268D01*
X2255905Y355233D01*
Y359252D01*
X2316929D01*
Y302165D01*
D02*
G37*
G36*
X2216179Y362254D02*
X2216474Y361417D01*
X2216967Y360679D01*
X2217656Y360039D01*
X2218541Y359498D01*
X2219624Y359055D01*
X2220904Y358711D01*
X2222380Y358465D01*
X2224053Y358317D01*
X2225923Y358268D01*
Y348425D01*
X2216081Y347990D01*
Y363189D01*
X2216179Y362254D01*
D02*
G37*
G36*
X2147716Y507692D02*
X2147953Y504994D01*
X2148347Y502614D01*
X2148898Y500551D01*
X2149606Y498806D01*
X2150472Y497378D01*
X2151496Y496267D01*
X2152677Y495473D01*
X2153787Y495079D01*
X2165354D01*
Y482264D01*
X2165907Y480709D01*
X2166897Y479232D01*
X2168283Y477953D01*
X2170066Y476870D01*
X2172244Y475984D01*
X2174819Y475295D01*
X2177789Y474803D01*
X2181156Y474508D01*
X2184919Y474409D01*
Y454724D01*
X2181156Y454626D01*
X2177789Y454331D01*
X2174819Y453839D01*
X2172244Y453150D01*
X2170066Y452264D01*
X2168283Y451181D01*
X2166897Y449902D01*
X2165907Y448425D01*
X2165354Y446870D01*
Y347441D01*
X2122047D01*
Y495079D01*
X2125740D01*
X2126850Y495473D01*
X2128032Y496267D01*
X2129055Y497378D01*
X2129921Y498806D01*
X2130630Y500551D01*
X2131181Y502614D01*
X2131575Y504994D01*
X2131811Y507692D01*
X2131890Y510707D01*
X2147638D01*
X2147716Y507692D01*
D02*
G37*
G36*
X2199324Y230330D02*
X2200323Y230315D01*
Y220472D01*
X2199402Y220448D01*
X2199441Y215551D01*
X2199334Y216486D01*
X2199030Y217323D01*
X2198528Y218061D01*
X2197828Y218701D01*
X2196931Y219242D01*
X2195836Y219685D01*
X2194925Y219928D01*
X2194024Y219685D01*
X2192941Y219242D01*
X2192056Y218701D01*
X2191367Y218061D01*
X2190874Y217323D01*
X2190579Y216486D01*
X2190481Y215551D01*
Y220446D01*
X2189478Y220472D01*
Y230315D01*
X2190481Y230359D01*
Y230750D01*
X2190579Y230667D01*
X2190874Y230593D01*
X2191367Y230528D01*
X2192540Y230450D01*
X2199321Y230750D01*
X2199324Y230330D01*
D02*
G37*
G36*
X2316929Y219488D02*
X2255905D01*
Y223508D01*
X2246183Y220472D01*
Y230315D01*
X2248067Y230364D01*
X2249753Y230512D01*
X2251243Y230758D01*
X2252535Y231102D01*
X2253630Y231545D01*
X2254527Y232087D01*
X2255228Y232726D01*
X2255731Y233465D01*
X2255905Y233942D01*
Y276575D01*
X2316929D01*
Y219488D01*
D02*
G37*
G36*
X2216179Y230667D02*
X2216474Y230593D01*
X2216967Y230528D01*
X2218541Y230424D01*
X2225923Y230315D01*
Y220472D01*
X2224053Y220423D01*
X2222380Y220276D01*
X2220904Y220030D01*
X2219624Y219685D01*
X2218541Y219242D01*
X2217656Y218701D01*
X2216967Y218061D01*
X2216474Y217323D01*
X2216179Y216486D01*
X2216081Y215551D01*
Y230750D01*
X2216179Y230667D01*
D02*
G37*
G36*
X2164785Y175833D02*
X2164699Y175360D01*
X2164623Y174573D01*
X2164456Y170321D01*
X2164375Y160296D01*
X2164454Y157298D01*
X2164690Y154601D01*
X2165084Y152220D01*
X2165635Y150157D01*
X2166343Y148412D01*
X2167209Y146984D01*
X2168233Y145873D01*
X2169414Y145080D01*
X2170753Y144604D01*
X2172249Y144445D01*
X2140753D01*
X2142249Y144604D01*
X2143587Y145080D01*
X2144769Y145873D01*
X2145792Y146984D01*
X2146658Y148412D01*
X2147367Y150157D01*
X2147918Y152220D01*
X2148312Y154601D01*
X2148548Y157298D01*
X2148626Y160274D01*
X2148121Y175990D01*
X2164881D01*
X2164785Y175833D01*
D02*
G37*
G36*
X2182981Y127725D02*
X2183431Y126534D01*
X2184181Y125482D01*
X2185231Y124571D01*
X2186582Y123800D01*
X2188232Y123169D01*
X2190183Y122678D01*
X2192433Y122328D01*
X2194984Y122117D01*
X2197835Y122047D01*
Y106299D01*
X2194984Y106229D01*
X2192433Y106019D01*
X2190183Y105668D01*
X2188232Y105178D01*
X2186582Y104547D01*
X2185231Y103776D01*
X2184181Y102864D01*
X2183431Y101813D01*
X2182981Y100621D01*
X2182831Y99289D01*
Y129057D01*
X2182981Y127725D01*
D02*
G37*
G36*
X1394685Y342126D02*
X1274606D01*
Y480906D01*
X1394685D01*
Y342126D01*
D02*
G37*
G36*
X1200787Y370079D02*
Y302165D01*
X1130906D01*
X1100394Y271654D01*
X1039370D01*
Y370079D01*
X1200787Y370079D01*
D02*
G37*
G36*
X1727422Y424502D02*
X1727603Y422118D01*
X1727904Y420015D01*
X1728326Y418193D01*
X1728868Y416651D01*
X1729531Y415389D01*
X1730314Y414408D01*
X1731218Y413707D01*
X1731999Y413386D01*
X1746063D01*
Y339567D01*
X1750935Y327805D01*
X1752953Y325787D01*
X1802165Y293307D01*
Y262795D01*
X1780070D01*
X1779216Y263014D01*
X1778938Y262974D01*
X1778663Y263029D01*
X1777489Y262795D01*
X1761624D01*
X1760508Y263028D01*
X1760185Y262967D01*
X1759859Y263014D01*
X1759006Y262795D01*
X1692913D01*
Y413386D01*
X1706977D01*
X1707758Y413707D01*
X1708661Y414408D01*
X1709445Y415389D01*
X1710108Y416651D01*
X1710650Y418193D01*
X1711072Y420015D01*
X1711373Y422118D01*
X1711554Y424502D01*
X1711614Y427165D01*
X1727362D01*
X1727422Y424502D01*
D02*
G37*
G36*
X1778663Y243231D02*
X1778585Y243395D01*
X1778348Y243542D01*
X1777955Y243671D01*
X1777404Y243784D01*
X1776695Y243879D01*
X1774805Y244017D01*
X1770789Y244095D01*
Y251969D01*
X1772285Y251977D01*
X1777404Y252280D01*
X1777955Y252392D01*
X1778348Y252522D01*
X1778585Y252669D01*
X1778663Y252833D01*
Y243231D01*
D02*
G37*
G36*
X1760490Y252668D02*
X1760727Y252522D01*
X1761120Y252392D01*
X1761671Y252280D01*
X1762380Y252185D01*
X1764270Y252047D01*
X1768286Y251969D01*
Y244095D01*
X1766774Y244055D01*
X1765420Y243937D01*
X1764224Y243740D01*
X1763187Y243465D01*
X1762309Y243110D01*
X1761589Y242677D01*
X1761027Y242166D01*
X1760623Y241575D01*
X1760378Y240906D01*
X1760292Y240158D01*
X1760412Y252833D01*
X1760490Y252668D01*
D02*
G37*
G36*
X1801493Y213364D02*
X1802165Y208424D01*
Y203740D01*
X1768701Y184055D01*
X1759969Y178919D01*
X1757364Y176931D01*
X1752799Y172241D01*
X1749237Y166749D01*
X1747414Y162171D01*
X1747328Y161956D01*
X1747328Y161954D01*
X1746815Y160669D01*
X1746063Y157480D01*
X1746063Y157480D01*
Y82677D01*
X1732802D01*
X1731848Y82317D01*
X1730797Y81567D01*
X1729886Y80517D01*
X1729115Y79166D01*
X1728484Y77516D01*
X1727993Y75566D01*
X1727643Y73315D01*
X1727432Y70764D01*
X1727362Y67914D01*
X1711614D01*
X1711544Y70764D01*
X1711334Y73315D01*
X1710983Y75566D01*
X1710493Y77516D01*
X1709862Y79166D01*
X1709091Y80517D01*
X1708180Y81567D01*
X1707128Y82317D01*
X1706175Y82677D01*
X1692913D01*
Y213583D01*
X1800640D01*
X1801493Y213364D01*
D02*
G37*
G36*
X719823Y252321D02*
X719839Y252136D01*
X722146D01*
X721697Y251648D01*
X721296Y251112D01*
X720941Y250527D01*
X720634Y249893D01*
X720374Y249211D01*
X720334Y249072D01*
X720413Y248778D01*
X720768Y247911D01*
X721201Y247203D01*
X721713Y246652D01*
X722303Y246258D01*
X722972Y246022D01*
X723721Y245943D01*
X719806D01*
X719784Y245070D01*
X711909D01*
X711887Y245943D01*
X707972D01*
X708721Y246022D01*
X709390Y246258D01*
X709980Y246652D01*
X710492Y247203D01*
X710925Y247911D01*
X711280Y248778D01*
X711359Y249072D01*
X711319Y249211D01*
X711059Y249893D01*
X710752Y250527D01*
X710397Y251112D01*
X709995Y251648D01*
X709547Y252136D01*
X711854D01*
X711870Y252321D01*
X711909Y253817D01*
X719784D01*
X719823Y252321D01*
D02*
G37*
G36*
X826944Y224410D02*
X826864Y225157D01*
X826624Y225827D01*
X826224Y226417D01*
X825665Y226929D01*
X824945Y227362D01*
X824066Y227717D01*
X823027Y227992D01*
X821827Y228189D01*
X820469Y228307D01*
X818950Y228346D01*
Y236220D01*
X820469Y236260D01*
X821827Y236378D01*
X823027Y236575D01*
X824066Y236850D01*
X824945Y237205D01*
X825665Y237638D01*
X826224Y238150D01*
X826624Y238740D01*
X826864Y239410D01*
X826944Y240157D01*
Y224410D01*
D02*
G37*
G36*
X806927Y239410D02*
X807167Y238740D01*
X807566Y238150D01*
X808126Y237638D01*
X808845Y237205D01*
X809725Y236850D01*
X810764Y236575D01*
X811963Y236378D01*
X813322Y236260D01*
X814841Y236220D01*
Y228346D01*
X813322Y228307D01*
X811963Y228189D01*
X810764Y227992D01*
X809725Y227717D01*
X808845Y227362D01*
X808126Y226929D01*
X807566Y226417D01*
X807167Y225827D01*
X806927Y225157D01*
X806847Y224410D01*
Y240157D01*
X806927Y239410D01*
D02*
G37*
G36*
X744335Y224410D02*
X744255Y225157D01*
X744015Y225827D01*
X743615Y226417D01*
X743056Y226929D01*
X742336Y227362D01*
X741457Y227717D01*
X740417Y227992D01*
X739218Y228189D01*
X737859Y228307D01*
X736341Y228346D01*
Y236220D01*
X737859Y236260D01*
X739218Y236378D01*
X740417Y236575D01*
X741457Y236850D01*
X742336Y237205D01*
X743056Y237638D01*
X743615Y238150D01*
X744015Y238740D01*
X744255Y239410D01*
X744335Y240157D01*
Y224410D01*
D02*
G37*
G36*
X728186Y239410D02*
X728426Y238740D01*
X728826Y238150D01*
X729385Y237638D01*
X730105Y237205D01*
X730984Y236850D01*
X732024Y236575D01*
X733223Y236378D01*
X734582Y236260D01*
X736101Y236220D01*
Y228346D01*
X734582Y228307D01*
X733223Y228189D01*
X732024Y227992D01*
X730984Y227717D01*
X730105Y227362D01*
X729385Y226929D01*
X728826Y226417D01*
X728426Y225827D01*
X728186Y225157D01*
X728106Y224410D01*
Y240157D01*
X728186Y239410D01*
D02*
G37*
G36*
X2001823Y301181D02*
X1928150D01*
X1912553Y282660D01*
X1912282Y282714D01*
X1912007Y282659D01*
X1911729Y282699D01*
X1910876Y282480D01*
X1888780D01*
Y292323D01*
X1923228Y355315D01*
X2001823D01*
Y301181D01*
D02*
G37*
G36*
X2016852Y263900D02*
X2016774Y263877D01*
X2016537Y263856D01*
X2014884Y263810D01*
X2008978Y263780D01*
Y271654D01*
X2010490Y271693D01*
X2011843Y271811D01*
X2013039Y272008D01*
X2014075Y272284D01*
X2014954Y272638D01*
X2015674Y273071D01*
X2016236Y273583D01*
X2016640Y274173D01*
X2016885Y274843D01*
X2016973Y275591D01*
X2016852Y263900D01*
D02*
G37*
G36*
X2000832Y274843D02*
X2001077Y274173D01*
X2001481Y273583D01*
X2002043Y273071D01*
X2002763Y272638D01*
X2003642Y272284D01*
X2004678Y272008D01*
X2005873Y271811D01*
X2007227Y271693D01*
X2008738Y271654D01*
Y263780D01*
X2000864Y263899D01*
X2000744Y275591D01*
X2000832Y274843D01*
D02*
G37*
G36*
X1973545Y263899D02*
X1973467Y263877D01*
X1973230Y263856D01*
X1971577Y263810D01*
X1965671Y263780D01*
Y271654D01*
X1967168Y271693D01*
X1968506Y271811D01*
X1969687Y272008D01*
X1970711Y272284D01*
X1971577Y272638D01*
X1972286Y273071D01*
X1972837Y273583D01*
X1973230Y274173D01*
X1973467Y274843D01*
X1973545Y275591D01*
Y263899D01*
D02*
G37*
G36*
X1957636Y274843D02*
X1957872Y274173D01*
X1958266Y273583D01*
X1958817Y273071D01*
X1959526Y272638D01*
X1960392Y272284D01*
X1961416Y272008D01*
X1962597Y271811D01*
X1963935Y271693D01*
X1965431Y271654D01*
Y263780D01*
X1957557Y263899D01*
Y275591D01*
X1957636Y274843D01*
D02*
G37*
G36*
X1930238Y263899D02*
X1930160Y263877D01*
X1929923Y263856D01*
X1928270Y263810D01*
X1922364Y263780D01*
Y271654D01*
X1923876Y271693D01*
X1925229Y271811D01*
X1926424Y272008D01*
X1927461Y272284D01*
X1928340Y272638D01*
X1929060Y273071D01*
X1929622Y273583D01*
X1930026Y274173D01*
X1930271Y274843D01*
X1930358Y275591D01*
X1930238Y263899D01*
D02*
G37*
G36*
X1912360Y272354D02*
X1912597Y272207D01*
X1912990Y272077D01*
X1913542Y271965D01*
X1914250Y271870D01*
X1916140Y271731D01*
X1920156Y271654D01*
Y263780D01*
X1918660Y263771D01*
X1913542Y263469D01*
X1912990Y263356D01*
X1912597Y263226D01*
X1912360Y263080D01*
X1912282Y262915D01*
Y272518D01*
X1912360Y272354D01*
D02*
G37*
G36*
Y252669D02*
X1912597Y252522D01*
X1912990Y252392D01*
X1913542Y252280D01*
X1914250Y252185D01*
X1916140Y252047D01*
X1920156Y251969D01*
Y244095D01*
X1918660Y244086D01*
X1913542Y243784D01*
X1912990Y243671D01*
X1912597Y243542D01*
X1912360Y243395D01*
X1912282Y243231D01*
Y252833D01*
X1912360Y252669D01*
D02*
G37*
G36*
X1912342Y232805D02*
X1912522Y232499D01*
X1912822Y232229D01*
X1913242Y231995D01*
X1913782Y231797D01*
X1914442Y231635D01*
X1915222Y231509D01*
X1916122Y231418D01*
X1918282Y231346D01*
Y225346D01*
X1917142Y225328D01*
X1915222Y225184D01*
X1914442Y225058D01*
X1913782Y224896D01*
X1913242Y224698D01*
X1912822Y224464D01*
X1912522Y224194D01*
X1912342Y223887D01*
X1912282Y223545D01*
Y233148D01*
X1912342Y232805D01*
D02*
G37*
G36*
X1973545Y222346D02*
X1973485Y222917D01*
X1973305Y223427D01*
X1973005Y223876D01*
X1972585Y224267D01*
X1972045Y224596D01*
X1971385Y224867D01*
X1970605Y225077D01*
X1969705Y225226D01*
X1968685Y225316D01*
X1967545Y225346D01*
Y231346D01*
X1968685Y231355D01*
X1972585Y231641D01*
X1973005Y231747D01*
X1973305Y231869D01*
X1973485Y232008D01*
X1973545Y232164D01*
Y222346D01*
D02*
G37*
G36*
X1957617Y232008D02*
X1957797Y231869D01*
X1958097Y231747D01*
X1958517Y231641D01*
X1959057Y231551D01*
X1959717Y231477D01*
X1961397Y231379D01*
X1963557Y231346D01*
Y225346D01*
X1962401Y225316D01*
X1961366Y225226D01*
X1960452Y225077D01*
X1959658Y224867D01*
X1958986Y224596D01*
X1958434Y224267D01*
X1958004Y223876D01*
X1957694Y223427D01*
X1957505Y222917D01*
X1957437Y222346D01*
X1957557Y232164D01*
X1957617Y232008D01*
D02*
G37*
G36*
X1930238Y222346D02*
X1930178Y222917D01*
X1929998Y223427D01*
X1929698Y223876D01*
X1929278Y224267D01*
X1928738Y224596D01*
X1928078Y224867D01*
X1927298Y225077D01*
X1926398Y225226D01*
X1925378Y225316D01*
X1924238Y225346D01*
Y231346D01*
X1925378Y231355D01*
X1929278Y231641D01*
X1929698Y231747D01*
X1929998Y231869D01*
X1930178Y232008D01*
X1930238Y232164D01*
Y222346D01*
D02*
G37*
G36*
X2000814Y214091D02*
X2001005Y213581D01*
X2001316Y213131D01*
X2001747Y212741D01*
X2002299Y212411D01*
X2002971Y212141D01*
X2003764Y211931D01*
X2004677Y211781D01*
X2005710Y211691D01*
X2006864Y211661D01*
Y205661D01*
X2000864Y207404D01*
X2000744Y214661D01*
X2000814Y214091D01*
D02*
G37*
G36*
X2016852Y209919D02*
X2016972Y202661D01*
X2016902Y203231D01*
X2016712Y203741D01*
X2016401Y204191D01*
X2015969Y204581D01*
X2015418Y204911D01*
X2014745Y205181D01*
X2013953Y205391D01*
X2013040Y205541D01*
X2012006Y205631D01*
X2010852Y205661D01*
Y211661D01*
X2016852Y209919D01*
D02*
G37*
G36*
X1910521Y213503D02*
X1911410Y213523D01*
X1912282Y213349D01*
X1912569Y213406D01*
X1930118Y194882D01*
X2000984D01*
X2000984Y140748D01*
X1930118Y140748D01*
X1888780Y203740D01*
Y213583D01*
X1910314D01*
X1910521Y213503D01*
D02*
G37*
G36*
X1615158Y119488D02*
X1495079D01*
Y258268D01*
X1615158D01*
Y119488D01*
D02*
G37*
G36*
X887795Y59055D02*
X818898D01*
Y195866D01*
X887795D01*
Y59055D01*
D02*
G37*
D10*
X922901Y602362D02*
G03*
X859611Y576146I0J-89506D01*
G01*
X837590Y554125D02*
G03*
X837598Y554134I-11873J11890D01*
G01*
X825717Y549212D02*
G03*
X837590Y554125I0J16803D01*
G01*
X922901Y602362D02*
X2883126D01*
X837598Y554134D02*
X859611Y576146D01*
X837590Y554125D02*
X837598Y554134D01*
X794587Y549212D02*
X825717D01*
D11*
X558356Y521644D02*
G03*
X546555Y509842I0J-11801D01*
G01*
X556102Y546260D02*
G03*
X539469Y553150I-16633J-16633D01*
G01*
X557088Y545274D02*
G03*
X566604Y541333I9515J9519D01*
G01*
X557087Y545275D02*
G03*
X557088Y545274I9517J9517D01*
G01*
X954331Y717520D02*
X1022047D01*
X1900591Y267717D02*
X2021949D01*
X830709Y276575D02*
Y457973D01*
X835335Y462599D01*
Y333858D02*
X857284D01*
X1756890Y248032D02*
X1790354D01*
X1748032Y239173D02*
X1756890Y248032D01*
X855709Y232284D02*
X857284Y233858D01*
X794587Y232284D02*
X855709D01*
X835334Y505905D02*
X835335Y505906D01*
X794587Y505905D02*
X835334D01*
X835335Y462599D02*
Y505906D01*
X912697Y419291D02*
X940945D01*
X912697D02*
X914075Y420669D01*
Y462599D01*
X2021949Y267717D02*
X2030512Y276280D01*
X1900591Y248032D02*
X2040355D01*
X1790354Y228346D02*
X1825787D01*
X715846Y232284D02*
X756595D01*
X715846D02*
Y258563D01*
X312697Y437303D02*
Y466535D01*
X558356Y521644D02*
X593575D01*
X508563Y553150D02*
X539469D01*
X566604Y541333D02*
X593575D01*
X557087Y545275D02*
X557088Y545274D01*
X556102Y546260D02*
X557087Y545275D01*
X508563Y553149D02*
X508563Y553150D01*
X661420Y426425D02*
X661664Y426181D01*
X661420Y426425D02*
Y473488D01*
X756909Y505905D02*
Y549212D01*
X749030Y541333D02*
X756909Y549212D01*
X709819Y541333D02*
X749030D01*
X350689Y553149D02*
Y582677D01*
X661664Y426181D02*
X661732D01*
D12*
X2883126Y691362D02*
D03*
Y513362D02*
D03*
D13*
Y602362D02*
D03*
D14*
X105315Y577756D02*
D03*
D15*
X668976Y57087D02*
D03*
D16*
X2060039Y464567D02*
D03*
X2138780D02*
D03*
X2077756Y114173D02*
D03*
X2156496D02*
D03*
D17*
X2286417Y328740D02*
D03*
Y250000D02*
D03*
D18*
X954331Y717520D02*
D03*
X892126Y717520D02*
D03*
X1084252D02*
D03*
X1022047Y717520D02*
D03*
D19*
X914075Y505906D02*
D03*
X952067D02*
D03*
X835335D02*
D03*
X873327D02*
D03*
X549902Y624016D02*
D03*
X587894D02*
D03*
X717224Y438976D02*
D03*
X755216D02*
D03*
X753248Y624016D02*
D03*
X715256D02*
D03*
X587894Y438976D02*
D03*
X549902D02*
D03*
X1710040Y239173D02*
D03*
X1748032Y239173D02*
D03*
X350689Y466535D02*
D03*
X312697D02*
D03*
X312697Y509842D02*
D03*
X350689D02*
D03*
X429429Y466535D02*
D03*
X391437D02*
D03*
X234154Y553149D02*
D03*
X272146D02*
D03*
X508563Y509842D02*
D03*
X546555D02*
D03*
X391457D02*
D03*
X429449D02*
D03*
X312697Y553149D02*
D03*
X350689D02*
D03*
X470571D02*
D03*
X508563D02*
D03*
X429449D02*
D03*
X391457D02*
D03*
X715846Y232284D02*
D03*
X677854D02*
D03*
X952067Y462599D02*
D03*
X914075D02*
D03*
X873327D02*
D03*
X835335D02*
D03*
X794587Y505905D02*
D03*
X756595D02*
D03*
Y549212D02*
D03*
X794587D02*
D03*
X756595Y232284D02*
D03*
X794587D02*
D03*
X912697Y419291D02*
D03*
X874705D02*
D03*
D20*
X1039370Y473425D02*
D03*
D21*
X1169291Y428150D02*
D03*
Y518701D02*
D03*
D22*
X1845473Y120079D02*
D03*
X1719488D02*
D03*
X1719488Y375984D02*
D03*
X1845472D02*
D03*
D23*
X1943898Y181791D02*
D03*
X1943898Y219784D02*
D03*
X1987205D02*
D03*
Y181792D02*
D03*
X1943898Y314272D02*
D03*
X1943898Y276279D02*
D03*
X1987205Y314272D02*
D03*
Y276279D02*
D03*
X2030512Y276280D02*
D03*
X2030512Y314272D02*
D03*
Y197540D02*
D03*
X2030512Y235532D02*
D03*
X629921Y638484D02*
D03*
Y676476D02*
D03*
X673228Y638484D02*
D03*
Y676476D02*
D03*
X661417Y426181D02*
D03*
Y388189D02*
D03*
D24*
X2277559Y464567D02*
D03*
X2372047Y501968D02*
D03*
X2372047Y427165D02*
D03*
D25*
X1334646Y173425D02*
D03*
Y426969D02*
D03*
X1555118Y173425D02*
D03*
Y426969D02*
D03*
D26*
X1845473Y248032D02*
D03*
D27*
X1900591Y287402D02*
D03*
Y267717D02*
D03*
Y248032D02*
D03*
X1900591Y228346D02*
D03*
X1900591Y208661D02*
D03*
X1790354D02*
D03*
Y228346D02*
D03*
X1790354Y248032D02*
D03*
X1790355Y267717D02*
D03*
Y287402D02*
D03*
D28*
X2079701Y203370D02*
D03*
X2105301D02*
D03*
X2130901D02*
D03*
X2156501D02*
D03*
X2182101D02*
D03*
X2207701D02*
D03*
Y375370D02*
D03*
X2182101D02*
D03*
X2156501D02*
D03*
X2130901D02*
D03*
X2105301D02*
D03*
X2079701D02*
D03*
D29*
X2143701Y289370D02*
D03*
D30*
X719291Y688976D02*
D03*
X753150D02*
D03*
X587795D02*
D03*
X553937D02*
D03*
X551968Y374016D02*
D03*
X585827D02*
D03*
X751181D02*
D03*
X717323D02*
D03*
D31*
X1152559Y252953D02*
D03*
Y323819D02*
D03*
D32*
X866142Y109252D02*
D03*
X937008D02*
D03*
D33*
X593575Y561024D02*
D03*
Y541333D02*
D03*
Y521644D02*
D03*
Y501954D02*
D03*
X709575D02*
D03*
Y521644D02*
D03*
Y541333D02*
D03*
Y561024D02*
D03*
D34*
X622040Y473488D02*
D03*
X641730D02*
D03*
X661420D02*
D03*
X681110D02*
D03*
Y589489D02*
D03*
X661420D02*
D03*
X641730D02*
D03*
X622040D02*
D03*
D35*
X651575Y531489D02*
D03*
D36*
X857284Y333858D02*
D03*
Y283858D02*
D03*
Y233858D02*
D03*
Y183858D02*
D03*
X1069882D02*
D03*
Y233858D02*
D03*
Y283858D02*
D03*
Y333858D02*
D03*
D37*
X1084252Y717520D02*
X1118110D01*
X924212Y536417D02*
X1012795D01*
X914075Y526280D02*
X924212Y536417D01*
X1012795D02*
X1039370Y509843D01*
X1125000Y518701D02*
X1169291D01*
X1079725Y473425D02*
X1125000Y518701D01*
X1039370Y473425D02*
X1079725D01*
X914075Y505906D02*
Y526280D01*
X1039370Y473425D02*
Y509843D01*
X1027953Y233858D02*
X1069882D01*
X874705Y387106D02*
X1027953Y233858D01*
X874705Y387106D02*
Y419291D01*
X873327Y505906D02*
X914075D01*
X873327Y462599D02*
X874705Y461221D01*
Y419291D02*
Y461221D01*
X593819Y473740D02*
Y501954D01*
X673228Y676476D02*
Y702756D01*
D38*
X2138780Y464567D02*
X2139764Y465551D01*
Y514764D01*
X1719488Y375984D02*
Y427165D01*
X1719488Y67914D02*
Y120079D01*
X2156496Y114173D02*
X2197835D01*
X2156496D02*
X2156501Y114178D01*
Y203370D01*
D39*
X2433071Y196850D02*
Y411417D01*
X2138780Y464567D02*
X2277559D01*
X2417323Y427165D02*
X2433071Y411417D01*
X2372047Y427165D02*
X2417323D01*
D40*
X2182101Y353346D02*
Y375370D01*
Y353346D02*
X2310039D01*
X2182101Y225394D02*
X2311024D01*
X2182101Y203370D02*
Y225394D01*
D41*
X1986220Y208661D02*
X2030512D01*
Y197540D02*
Y208661D01*
X1900591Y228346D02*
X1978642D01*
D42*
X508563Y509842D02*
Y553149D01*
X391437Y431398D02*
Y466535D01*
X429429D02*
X429449Y466555D01*
Y509842D01*
X312697D02*
Y553149D01*
X350689Y466535D02*
Y509842D01*
X391457D02*
Y553149D01*
D43*
X432087D02*
X466535D01*
X354331D02*
X387795D01*
D44*
X2551181Y381890D02*
D03*
D45*
X2669291Y196850D02*
D03*
D46*
X2433071D02*
D03*
D47*
X1118110Y717520D02*
D03*
X2139764Y514764D02*
D03*
X1719488Y427165D02*
D03*
X2143701Y309055D02*
D03*
X2030512Y343504D02*
D03*
X1887795Y355315D02*
D03*
X1719488Y67914D02*
D03*
X1887795Y140748D02*
D03*
X1803150Y140748D02*
D03*
Y99409D02*
D03*
X1887795Y99410D02*
D03*
X2197835Y114173D02*
D03*
X2017717Y443898D02*
D03*
Y485236D02*
D03*
X2035433Y93504D02*
D03*
Y134842D02*
D03*
X1822835Y248106D02*
D03*
X1868110Y248032D02*
D03*
X1599409Y244488D02*
D03*
X1569882D02*
D03*
X1540354D02*
D03*
X1510827D02*
D03*
X1378937Y355906D02*
D03*
X1349410D02*
D03*
X1319882D02*
D03*
X1290354D02*
D03*
X1510827D02*
D03*
X1540354D02*
D03*
X1569882D02*
D03*
X1599410D02*
D03*
X1290354Y244488D02*
D03*
X1319882D02*
D03*
X1349410D02*
D03*
X1378937D02*
D03*
X1887795Y396654D02*
D03*
X1803150Y355315D02*
D03*
Y396653D02*
D03*
X2964460Y630244D02*
D03*
X2896460D02*
D03*
X2828460D02*
D03*
X2920755Y574480D02*
D03*
X2852755D02*
D03*
X2784755D02*
D03*
X841403Y597619D02*
D03*
X882537Y559014D02*
D03*
X948755Y574480D02*
D03*
X1016755D02*
D03*
X1084755D02*
D03*
X1152755D02*
D03*
X1220755D02*
D03*
X1288755D02*
D03*
X1356755D02*
D03*
X1424755D02*
D03*
X1492755D02*
D03*
X1560755D02*
D03*
X1628755D02*
D03*
X1696755D02*
D03*
X1764755D02*
D03*
X1832755D02*
D03*
X1900755D02*
D03*
X1968755D02*
D03*
X2036755D02*
D03*
X2104755D02*
D03*
X2172755D02*
D03*
X2240755D02*
D03*
X2308755D02*
D03*
X2376755D02*
D03*
X2444755D02*
D03*
X2512755D02*
D03*
X2580755D02*
D03*
X2648755D02*
D03*
X2716755D02*
D03*
X2760460Y630244D02*
D03*
X2692460D02*
D03*
X2624460D02*
D03*
X2556460D02*
D03*
X2488460D02*
D03*
X2420460D02*
D03*
X2352460D02*
D03*
X2284460D02*
D03*
X2216460D02*
D03*
X2148460D02*
D03*
X2080460D02*
D03*
X2012460D02*
D03*
X1944460D02*
D03*
X1876460D02*
D03*
X1808460D02*
D03*
X1740460D02*
D03*
X1672460D02*
D03*
X1604460D02*
D03*
X1536460D02*
D03*
X1468460D02*
D03*
X1400460D02*
D03*
X1332460D02*
D03*
X1264460D02*
D03*
X1196460D02*
D03*
X1128460D02*
D03*
X1060460D02*
D03*
X992460D02*
D03*
X924460D02*
D03*
X2850394Y309055D02*
D03*
X2919292Y171260D02*
D03*
X2850394Y33465D02*
D03*
X2712599Y309055D02*
D03*
X2781497Y171260D02*
D03*
X2712599Y33465D02*
D03*
X2643702Y446851D02*
D03*
X2574804Y309055D02*
D03*
Y33465D02*
D03*
X2505906Y446851D02*
D03*
X2437009Y33465D02*
D03*
X2299213D02*
D03*
X2023623D02*
D03*
X1885827D02*
D03*
X1748032D02*
D03*
X1679134Y446851D02*
D03*
X1610237Y309055D02*
D03*
Y33465D02*
D03*
X1472441Y309055D02*
D03*
Y33465D02*
D03*
X1334646Y309055D02*
D03*
X1403544Y171260D02*
D03*
X1334646Y33465D02*
D03*
X1265748Y171260D02*
D03*
X1196851Y33465D02*
D03*
X1127953Y446851D02*
D03*
Y171260D02*
D03*
X1059056Y33465D02*
D03*
X990158Y171260D02*
D03*
X921260Y33465D02*
D03*
X783465Y584646D02*
D03*
X645670Y309055D02*
D03*
X714567Y171260D02*
D03*
X507874Y309055D02*
D03*
X576772Y171260D02*
D03*
X1681102Y239173D02*
D03*
X2143701Y269685D02*
D03*
X784449Y393701D02*
D03*
Y354331D02*
D03*
X940945Y419291D02*
D03*
X1202756Y428150D02*
D03*
X750315Y748031D02*
D03*
X789685D02*
D03*
X677854Y203740D02*
D03*
X649606Y232284D02*
D03*
X1987205Y152559D02*
D03*
X1943898D02*
D03*
X1987205Y343504D02*
D03*
X1943898D02*
D03*
X1152559Y361221D02*
D03*
X1189961Y323819D02*
D03*
X827756Y109252D02*
D03*
X866142Y71850D02*
D03*
X937008D02*
D03*
X973425Y109252D02*
D03*
X354331Y433071D02*
D03*
X472441D02*
D03*
X433071D02*
D03*
X393701D02*
D03*
X316100Y396499D02*
D03*
X343938Y368660D02*
D03*
X371777Y340821D02*
D03*
X399616Y312982D02*
D03*
X427455Y285143D02*
D03*
X455294Y257305D02*
D03*
X483133Y229466D02*
D03*
X510972Y201627D02*
D03*
X538811Y173788D02*
D03*
X566649Y145949D02*
D03*
X1152559Y214567D02*
D03*
X1189961Y252953D02*
D03*
X980315Y462599D02*
D03*
Y505906D02*
D03*
X651575Y531489D02*
D03*
X715846Y258563D02*
D03*
X312697Y437303D02*
D03*
X629921Y708661D02*
D03*
X708661Y748032D02*
D03*
X669291D02*
D03*
X629921D02*
D03*
X590551D02*
D03*
X511811Y354331D02*
D03*
X551181Y590551D02*
D03*
Y472441D02*
D03*
X688976Y393701D02*
D03*
Y354331D02*
D03*
X614173Y433071D02*
D03*
Y393701D02*
D03*
X649606Y354331D02*
D03*
X614173D02*
D03*
X551181Y748031D02*
D03*
X511811Y590551D02*
D03*
X673228Y702756D02*
D03*
X593819Y473740D02*
D03*
X791339Y39370D02*
D03*
Y78740D02*
D03*
Y118110D02*
D03*
X751968D02*
D03*
X712598D02*
D03*
X673228D02*
D03*
X633858D02*
D03*
X511811Y472441D02*
D03*
Y393701D02*
D03*
Y433071D02*
D03*
X594488Y118110D02*
D03*
X511811Y629921D02*
D03*
Y669291D02*
D03*
X350689Y582677D02*
D03*
X789685Y669291D02*
D03*
X511811Y748031D02*
D03*
X784449Y433071D02*
D03*
X511811Y708661D02*
D03*
X789685Y629921D02*
D03*
Y708661D02*
D03*
%TF.MD5,7f9b5a45e76c9b7f9126ba92bb055cb1*%
M02*
