%TF.GenerationSoftware,Altium Limited,Altium Designer,18.1.11 (251)*%
G04 Layer_Color=8388736*
%FSLAX26Y26*%
%MOIN*%
%TF.FileFunction,Soldermask,Top*%
%TF.Part,Single*%
G01*
G75*
%TA.AperFunction,ComponentPad*%
%ADD49O,0.181165X0.092583*%
%ADD50O,0.092583X0.181165*%
%ADD51O,0.102425X0.200850*%
%TA.AperFunction,Conductor*%
%ADD55C,0.095433*%
%ADD56C,0.020693*%
%TA.AperFunction,ConnectorPad*%
%ADD57R,0.222000X0.146000*%
%ADD58R,0.222000X0.020000*%
%ADD59R,0.214000X0.094000*%
%TA.AperFunction,SMDPad,CuDef*%
%ADD60R,0.214000X0.094000*%
%ADD61R,0.057150X0.065024*%
%ADD62R,0.065024X0.057150*%
%ADD63R,0.039748X0.046480*%
%ADD64R,0.029000X0.031559*%
%ADD65R,0.039433X0.059118*%
%ADD66R,0.039433X0.047307*%
%ADD67R,0.057150X0.078803*%
%ADD68R,0.031559X0.029000*%
%ADD69R,0.074866X0.025654*%
%ADD70R,0.104394X0.113055*%
%ADD71R,0.027622X0.013842*%
%ADD72R,0.021000X0.059000*%
%ADD73R,0.120000X0.073000*%
%ADD74R,0.026047X0.075260*%
%ADD75R,0.047307X0.047307*%
%ADD76R,0.047307X0.047307*%
%ADD77R,0.034000X0.014000*%
%ADD78R,0.014000X0.034000*%
%ADD79R,0.070142X0.070142*%
G04:AMPARAMS|DCode=80|XSize=65.024mil|YSize=27.622mil|CornerRadius=2.945mil|HoleSize=0mil|Usage=FLASHONLY|Rotation=0.000|XOffset=0mil|YOffset=0mil|HoleType=Round|Shape=RoundedRectangle|*
%AMROUNDEDRECTD80*
21,1,0.065024,0.021732,0,0,0.0*
21,1,0.059134,0.027622,0,0,0.0*
1,1,0.005890,0.029567,-0.010866*
1,1,0.005890,-0.029567,-0.010866*
1,1,0.005890,-0.029567,0.010866*
1,1,0.005890,0.029567,0.010866*
%
%ADD80ROUNDEDRECTD80*%
G36*
X2992126Y584362D02*
X2774126D01*
Y620362D01*
X2992126D01*
Y584362D01*
D02*
G37*
G36*
X806999Y564879D02*
X807032Y564881D01*
X807196Y564859D01*
X807359Y564843D01*
X807390Y564834D01*
X807423Y564829D01*
X807578Y564777D01*
X807736Y564729D01*
X807765Y564713D01*
X807796Y564703D01*
X807939Y564620D01*
X808083Y564543D01*
X808108Y564523D01*
X808137Y564506D01*
X808261Y564397D01*
X808388Y564293D01*
X808409Y564268D01*
X808433Y564246D01*
X808533Y564116D01*
X808638Y563989D01*
X808653Y563960D01*
X808673Y563934D01*
X808746Y563785D01*
X808823Y563641D01*
X808833Y563610D01*
X808847Y563580D01*
X808890Y563422D01*
X808938Y563264D01*
X808941Y563231D01*
X808949Y563200D01*
X809060Y562533D01*
X809244Y562202D01*
X809690Y561775D01*
X810519Y561285D01*
X811760Y560802D01*
X813399Y560375D01*
X815422Y560029D01*
X817793Y559777D01*
X823731Y559567D01*
X823890Y559546D01*
X824052Y559530D01*
X824086Y559520D01*
X824121Y559515D01*
X824275Y559462D01*
X824429Y559416D01*
X824460Y559399D01*
X824494Y559387D01*
X824635Y559306D01*
X824776Y559230D01*
X824803Y559207D01*
X824835Y559189D01*
X824956Y559082D01*
X825081Y558980D01*
X825103Y558953D01*
X825130Y558929D01*
X825229Y558799D01*
X825331Y558676D01*
X825347Y558644D01*
X825369Y558616D01*
X825441Y558469D01*
X825516Y558328D01*
X825527Y558294D01*
X825542Y558262D01*
X825584Y558104D01*
X825631Y557951D01*
X825634Y557916D01*
X825643Y557881D01*
X825654Y557718D01*
X825669Y557559D01*
Y540866D01*
X825652Y540687D01*
X825637Y540507D01*
X825632Y540491D01*
X825631Y540474D01*
X825578Y540301D01*
X825529Y540128D01*
X825521Y540113D01*
X825516Y540097D01*
X825432Y539939D01*
X825349Y539778D01*
X825338Y539764D01*
X825331Y539750D01*
X825217Y539611D01*
X825104Y539469D01*
X825091Y539458D01*
X825081Y539445D01*
X824941Y539331D01*
X824804Y539214D01*
X824789Y539206D01*
X824776Y539195D01*
X824619Y539111D01*
X824460Y539022D01*
X824443Y539017D01*
X824429Y539009D01*
X824258Y538958D01*
X824085Y538902D01*
X824068Y538900D01*
X824052Y538895D01*
X823872Y538877D01*
X823693Y538857D01*
X820585Y538805D01*
X815396Y538392D01*
X813400Y538050D01*
X811760Y537623D01*
X810519Y537140D01*
X809690Y536650D01*
X809244Y536223D01*
X809060Y535892D01*
X808949Y535225D01*
X808941Y535194D01*
X808938Y535161D01*
X808890Y535003D01*
X808847Y534845D01*
X808833Y534815D01*
X808823Y534784D01*
X808746Y534640D01*
X808673Y534491D01*
X808653Y534465D01*
X808638Y534437D01*
X808533Y534309D01*
X808433Y534179D01*
X808409Y534158D01*
X808388Y534132D01*
X808261Y534028D01*
X808137Y533919D01*
X808108Y533903D01*
X808083Y533882D01*
X807939Y533805D01*
X807796Y533722D01*
X807765Y533712D01*
X807736Y533696D01*
X807578Y533648D01*
X807423Y533596D01*
X807390Y533591D01*
X807359Y533582D01*
X807196Y533566D01*
X807032Y533544D01*
X806999Y533547D01*
X806967Y533543D01*
X806804Y533559D01*
X806639Y533570D01*
X806607Y533579D01*
X806575Y533582D01*
X806417Y533630D01*
X806258Y533672D01*
X806229Y533687D01*
X806198Y533696D01*
X806053Y533774D01*
X805905Y533847D01*
X805879Y533867D01*
X805850Y533882D01*
X805723Y533986D01*
X805593Y534087D01*
X805571Y534111D01*
X805546Y534132D01*
X805442Y534259D01*
X805333Y534383D01*
X805316Y534412D01*
X805296Y534437D01*
X805218Y534581D01*
X805136Y534724D01*
X805125Y534755D01*
X805110Y534784D01*
X805062Y534942D01*
X805009Y535097D01*
X805005Y535130D01*
X804996Y535161D01*
X804980Y535324D01*
X804958Y535488D01*
X804960Y535521D01*
X804957Y535553D01*
Y562872D01*
X804960Y562904D01*
X804958Y562937D01*
X804980Y563101D01*
X804996Y563264D01*
X805005Y563295D01*
X805009Y563328D01*
X805062Y563483D01*
X805110Y563641D01*
X805125Y563670D01*
X805136Y563701D01*
X805218Y563844D01*
X805296Y563989D01*
X805316Y564013D01*
X805333Y564042D01*
X805442Y564167D01*
X805546Y564293D01*
X805571Y564314D01*
X805593Y564338D01*
X805723Y564439D01*
X805850Y564543D01*
X805879Y564558D01*
X805905Y564578D01*
X806053Y564652D01*
X806198Y564729D01*
X806229Y564738D01*
X806258Y564753D01*
X806417Y564795D01*
X806575Y564843D01*
X806607Y564846D01*
X806639Y564855D01*
X806804Y564866D01*
X806967Y564882D01*
X806999Y564879D01*
D02*
G37*
G36*
X1858268Y314961D02*
X1860236Y312992D01*
X1860236Y295276D01*
X1875984Y295276D01*
X1877953Y293307D01*
Y202756D01*
X1875984Y200787D01*
X1860236D01*
X1860236Y183071D01*
X1858268Y181103D01*
X1852362Y181103D01*
X1850394Y183071D01*
X1850394Y200787D01*
X1840551D01*
Y183071D01*
X1838583Y181103D01*
X1832677Y181103D01*
X1830709Y183071D01*
X1830709Y200787D01*
X1814961D01*
X1812992Y202756D01*
X1812992Y293307D01*
X1814961Y295276D01*
X1830709Y295276D01*
Y312992D01*
X1832677Y314961D01*
X1838583Y314961D01*
X1838583Y314961D01*
X1840551Y312992D01*
Y295276D01*
X1850394D01*
X1850394Y312992D01*
X1852362Y314961D01*
X1858268Y314961D01*
X1858268Y314961D01*
D02*
G37*
D49*
X2551181Y381890D02*
D03*
D50*
X2669291Y196850D02*
D03*
D51*
X2433071D02*
D03*
D55*
X922901Y602362D02*
G03*
X859611Y576146I0J-89506D01*
G01*
X922901Y602362D02*
X2883126D01*
D56*
X837590Y554125D02*
G03*
X837598Y554134I-11873J11890D01*
G01*
X825717Y549212D02*
G03*
X837590Y554125I0J16803D01*
G01*
X837598Y554134D02*
X859611Y576146D01*
X837590Y554125D02*
X837598Y554134D01*
X794587Y549212D02*
X825717D01*
D57*
X2883126Y691362D02*
D03*
Y513362D02*
D03*
D58*
Y602362D02*
D03*
D59*
X105315Y577756D02*
D03*
D60*
X668976Y57087D02*
D03*
D61*
X2060039Y464567D02*
D03*
X2138780D02*
D03*
X2077756Y114173D02*
D03*
X2156496D02*
D03*
D62*
X2286417Y328740D02*
D03*
Y250000D02*
D03*
D63*
X954331Y717520D02*
D03*
X892126Y717520D02*
D03*
X1084252D02*
D03*
X1022047Y717520D02*
D03*
D64*
X914075Y505906D02*
D03*
X952067D02*
D03*
X835335D02*
D03*
X873327D02*
D03*
X549902Y624016D02*
D03*
X587894D02*
D03*
X717224Y438976D02*
D03*
X755216D02*
D03*
X753248Y624016D02*
D03*
X715256D02*
D03*
X587894Y438976D02*
D03*
X549902D02*
D03*
X1710040Y239173D02*
D03*
X1748032Y239173D02*
D03*
X350689Y466535D02*
D03*
X312697D02*
D03*
X312697Y509842D02*
D03*
X350689D02*
D03*
X429429Y466535D02*
D03*
X391437D02*
D03*
X234154Y553149D02*
D03*
X272146D02*
D03*
X508563Y509842D02*
D03*
X546555D02*
D03*
X391457D02*
D03*
X429449D02*
D03*
X312697Y553149D02*
D03*
X350689D02*
D03*
X470571D02*
D03*
X508563D02*
D03*
X429449D02*
D03*
X391457D02*
D03*
X715846Y232284D02*
D03*
X677854D02*
D03*
X952067Y462599D02*
D03*
X914075D02*
D03*
X873327D02*
D03*
X835335D02*
D03*
X794587Y505905D02*
D03*
X756595D02*
D03*
Y549212D02*
D03*
X794587D02*
D03*
X756595Y232284D02*
D03*
X794587D02*
D03*
X912697Y419291D02*
D03*
X874705D02*
D03*
D65*
X1039370Y473425D02*
D03*
D66*
X1169291Y428150D02*
D03*
Y518701D02*
D03*
D67*
X1845473Y120079D02*
D03*
X1719488D02*
D03*
X1719488Y375984D02*
D03*
X1845472D02*
D03*
D68*
X1943898Y181791D02*
D03*
X1943898Y219784D02*
D03*
X1987205D02*
D03*
Y181792D02*
D03*
X1943898Y314272D02*
D03*
X1943898Y276279D02*
D03*
X1987205Y314272D02*
D03*
Y276279D02*
D03*
X2030512Y276280D02*
D03*
X2030512Y314272D02*
D03*
Y197540D02*
D03*
X2030512Y235532D02*
D03*
X629921Y638484D02*
D03*
Y676476D02*
D03*
X673228Y638484D02*
D03*
Y676476D02*
D03*
X661417Y426181D02*
D03*
Y388189D02*
D03*
D69*
X2277559Y464567D02*
D03*
X2372047Y501968D02*
D03*
X2372047Y427165D02*
D03*
D70*
X1334646Y173425D02*
D03*
Y426969D02*
D03*
X1555118Y173425D02*
D03*
Y426969D02*
D03*
D71*
X1900591Y287402D02*
D03*
Y267717D02*
D03*
Y248032D02*
D03*
X1900591Y228346D02*
D03*
X1900591Y208661D02*
D03*
X1790354D02*
D03*
Y228346D02*
D03*
X1790354Y248032D02*
D03*
X1790355Y267717D02*
D03*
Y287402D02*
D03*
D72*
X2079701Y203370D02*
D03*
X2105301D02*
D03*
X2130901D02*
D03*
X2156501D02*
D03*
X2182101D02*
D03*
X2207701D02*
D03*
Y375370D02*
D03*
X2182101D02*
D03*
X2156501D02*
D03*
X2130901D02*
D03*
X2105301D02*
D03*
X2079701D02*
D03*
D73*
X2143701Y289370D02*
D03*
D74*
X719291Y688976D02*
D03*
X753150D02*
D03*
X587795D02*
D03*
X553937D02*
D03*
X551968Y374016D02*
D03*
X585827D02*
D03*
X751181D02*
D03*
X717323D02*
D03*
D75*
X1152559Y252953D02*
D03*
Y323819D02*
D03*
D76*
X866142Y109252D02*
D03*
X937008D02*
D03*
D77*
X593575Y561024D02*
D03*
Y541333D02*
D03*
Y521644D02*
D03*
Y501954D02*
D03*
X709575D02*
D03*
Y521644D02*
D03*
Y541333D02*
D03*
Y561024D02*
D03*
D78*
X622040Y473488D02*
D03*
X641730D02*
D03*
X661420D02*
D03*
X681110D02*
D03*
Y589489D02*
D03*
X661420D02*
D03*
X641730D02*
D03*
X622040D02*
D03*
D79*
X651575Y531489D02*
D03*
D80*
X857284Y333858D02*
D03*
Y283858D02*
D03*
Y233858D02*
D03*
Y183858D02*
D03*
X1069882D02*
D03*
Y233858D02*
D03*
Y283858D02*
D03*
Y333858D02*
D03*
%TF.MD5,52a7c6b6b3277b0d7ad7b6c8f1427ba2*%
M02*
