%TF.GenerationSoftware,Altium Limited,Altium Designer,18.1.11 (251)*%
G04 Layer_Physical_Order=3*
G04 Layer_Color=36540*
%FSLAX26Y26*%
%MOIN*%
%TF.FileFunction,Copper,L3,Inr,Signal*%
%TF.Part,Single*%
G01*
G75*
%TA.AperFunction,Conductor*%
%ADD11C,0.007874*%
%ADD37C,0.008000*%
%ADD38C,0.015748*%
%TA.AperFunction,ComponentPad*%
%ADD44O,0.177165X0.088583*%
%ADD45O,0.088583X0.177165*%
%ADD46O,0.098425X0.196850*%
%TA.AperFunction,ViaPad*%
%ADD47C,0.018000*%
G36*
X725866Y757144D02*
X732184Y749143D01*
X731962Y748031D01*
X733359Y741008D01*
X737338Y735054D01*
X743292Y731076D01*
X750315Y729679D01*
X757338Y731076D01*
X763292Y735054D01*
X765555Y738441D01*
X766035Y738613D01*
X773965D01*
X774445Y738441D01*
X776708Y735054D01*
X780095Y732791D01*
X780266Y732312D01*
Y724381D01*
X780095Y723902D01*
X776708Y721639D01*
X772729Y715684D01*
X771332Y708661D01*
X772729Y701638D01*
X776708Y695684D01*
X780095Y693421D01*
X780266Y692942D01*
Y685011D01*
X780095Y684532D01*
X776708Y682269D01*
X772729Y676314D01*
X771332Y669291D01*
X772729Y662268D01*
X776708Y656314D01*
X780095Y654051D01*
X780266Y653571D01*
Y645641D01*
X780095Y645162D01*
X776708Y642898D01*
X772729Y636944D01*
X771332Y629921D01*
X772729Y622898D01*
X776708Y616944D01*
X782662Y612966D01*
X789685Y611569D01*
X796708Y612966D01*
X802662Y616944D01*
X806641Y622898D01*
X808038Y629921D01*
X806641Y636944D01*
X802662Y642898D01*
X799275Y645162D01*
X799104Y645641D01*
Y653571D01*
X799275Y654051D01*
X802662Y656314D01*
X806641Y662268D01*
X808038Y669291D01*
X806641Y676314D01*
X802662Y682269D01*
X799275Y684532D01*
X799104Y685011D01*
Y692942D01*
X799275Y693421D01*
X802662Y695684D01*
X806641Y701638D01*
X808038Y708661D01*
X806641Y715684D01*
X802662Y721639D01*
X799275Y723902D01*
X799104Y724381D01*
Y732312D01*
X799275Y732791D01*
X802662Y735054D01*
X806641Y741008D01*
X808038Y748031D01*
X807816Y749143D01*
X814134Y757143D01*
X2961868Y757143D01*
Y648081D01*
X2957436Y647200D01*
X2951482Y643221D01*
X2947504Y637267D01*
X2946107Y630244D01*
X2947504Y623221D01*
X2951482Y617267D01*
X2957436Y613289D01*
X2961868Y612407D01*
Y282480D01*
X2698030D01*
X2694654Y285071D01*
X2682420Y290139D01*
X2669291Y291867D01*
X2656163Y290139D01*
X2643929Y285071D01*
X2640552Y282480D01*
X2474721D01*
X2472449Y285441D01*
X2460915Y294291D01*
X2447484Y299854D01*
X2433071Y301752D01*
X2418657Y299854D01*
X2405226Y294291D01*
X2393693Y285441D01*
X2391421Y282480D01*
X2156800D01*
X2156678Y282662D01*
X2153291Y284925D01*
X2153119Y285405D01*
Y293335D01*
X2153291Y293815D01*
X2156678Y296078D01*
X2160656Y302032D01*
X2162053Y309055D01*
X2160656Y316078D01*
X2156678Y322032D01*
X2150724Y326011D01*
X2143701Y327408D01*
X2136678Y326011D01*
X2130724Y322032D01*
X2126745Y316078D01*
X2125348Y309055D01*
X2126745Y302032D01*
X2130724Y296078D01*
X2131267Y295714D01*
X2131930Y286712D01*
X2127494Y282480D01*
X1011811D01*
Y486954D01*
X998189D01*
X997200Y488160D01*
X994645Y494954D01*
X997271Y498882D01*
X998668Y505906D01*
X997271Y512929D01*
X993292Y518883D01*
X987338Y522861D01*
X980315Y524258D01*
X973292Y522861D01*
X967338Y518883D01*
X963359Y512929D01*
X961962Y505906D01*
X963359Y498882D01*
X965985Y494954D01*
X963430Y488160D01*
X962441Y486954D01*
X618504D01*
Y576023D01*
X572744Y576023D01*
X568240Y583360D01*
X568235Y584023D01*
X569534Y590551D01*
X568137Y597574D01*
X564158Y603528D01*
X558204Y607507D01*
X551181Y608904D01*
X544158Y607507D01*
X538204Y603528D01*
X535941Y600141D01*
X535461Y599970D01*
X527531D01*
X527051Y600141D01*
X524788Y603528D01*
X521401Y605792D01*
X521230Y606271D01*
Y614201D01*
X521401Y614681D01*
X524788Y616944D01*
X528767Y622898D01*
X530164Y629921D01*
X528767Y636944D01*
X524788Y642898D01*
X521401Y645162D01*
X521230Y645641D01*
Y653571D01*
X521401Y654051D01*
X524788Y656314D01*
X528767Y662268D01*
X530164Y669291D01*
X528767Y676314D01*
X524788Y682268D01*
X521401Y684532D01*
X521230Y685011D01*
Y692941D01*
X521401Y693421D01*
X524788Y695684D01*
X528767Y701638D01*
X530164Y708661D01*
X528767Y715684D01*
X524788Y721639D01*
X521401Y723902D01*
X521230Y724381D01*
Y732311D01*
X521401Y732791D01*
X524788Y735054D01*
X527051Y738441D01*
X527531Y738613D01*
X535461D01*
X535941Y738441D01*
X538204Y735054D01*
X544158Y731076D01*
X551181Y729679D01*
X558204Y731076D01*
X564158Y735054D01*
X568137Y741008D01*
X569534Y748031D01*
X569312Y749143D01*
X575630Y757144D01*
X725866D01*
D02*
G37*
G36*
X600722Y479603D02*
X601249Y479212D01*
X601826Y478867D01*
X602454Y478568D01*
X603132Y478315D01*
X603861Y478108D01*
X604640Y477947D01*
X605470Y477832D01*
X606350Y477763D01*
X607281Y477740D01*
Y469740D01*
X606350Y469717D01*
X605470Y469648D01*
X604640Y469533D01*
X603861Y469372D01*
X603132Y469165D01*
X602454Y468912D01*
X601826Y468613D01*
X601249Y468268D01*
X600722Y467877D01*
X600246Y467440D01*
Y480040D01*
X600722Y479603D01*
D02*
G37*
G36*
X321724Y436551D02*
X321819Y435888D01*
X321982Y435223D01*
X322213Y434558D01*
X322511Y433892D01*
X322878Y433225D01*
X323312Y432557D01*
X323814Y431887D01*
X324384Y431217D01*
X325022Y430546D01*
X319454Y424978D01*
X318783Y425616D01*
X318113Y426186D01*
X317443Y426688D01*
X316775Y427122D01*
X316108Y427489D01*
X315442Y427787D01*
X314777Y428018D01*
X314112Y428181D01*
X313449Y428276D01*
X312787Y428304D01*
X321696Y437213D01*
X321724Y436551D01*
D02*
G37*
G36*
X934859Y430979D02*
X935529Y430409D01*
X936198Y429906D01*
X936866Y429472D01*
X937534Y429106D01*
X938200Y428807D01*
X938865Y428576D01*
X939529Y428413D01*
X940193Y428318D01*
X940855Y428291D01*
X931945Y419381D01*
X931918Y420044D01*
X931823Y420707D01*
X931660Y421371D01*
X931429Y422036D01*
X931130Y422703D01*
X930764Y423370D01*
X930330Y424038D01*
X929828Y424707D01*
X929258Y425377D01*
X928620Y426049D01*
X934188Y431616D01*
X934859Y430979D01*
D02*
G37*
G36*
X962987Y470168D02*
X963233Y469180D01*
X963240Y469019D01*
X961962Y462599D01*
X963359Y455575D01*
X967338Y449621D01*
X973292Y445643D01*
X980315Y444246D01*
X987338Y445643D01*
X993292Y449621D01*
X993615Y450104D01*
X1001615Y447678D01*
Y282480D01*
X1002391Y278579D01*
X1004601Y275271D01*
X1007909Y273060D01*
X1011811Y272284D01*
X1172340D01*
X1173916Y270127D01*
X1175884Y264284D01*
X1173005Y259976D01*
X1171608Y252953D01*
X1173005Y245929D01*
X1176983Y239976D01*
X1182937Y235997D01*
X1189961Y234600D01*
X1196984Y235997D01*
X1202938Y239976D01*
X1206916Y245929D01*
X1208313Y252953D01*
X1206916Y259976D01*
X1204037Y264284D01*
X1206005Y270127D01*
X1207581Y272284D01*
X1813318D01*
X1814398Y269154D01*
X1814648Y264284D01*
X1809857Y261083D01*
X1805879Y255129D01*
X1804482Y248106D01*
X1805879Y241083D01*
X1809857Y235129D01*
X1815811Y231150D01*
X1822835Y229753D01*
X1829858Y231150D01*
X1835812Y235129D01*
X1839790Y241083D01*
X1841187Y248106D01*
X1839790Y255129D01*
X1835812Y261083D01*
X1831021Y264284D01*
X1831271Y269154D01*
X1832352Y272284D01*
X1858705D01*
X1859958Y268444D01*
X1860035Y264284D01*
X1855133Y261009D01*
X1851155Y255055D01*
X1849758Y248032D01*
X1851155Y241008D01*
X1855133Y235054D01*
X1861087Y231076D01*
X1868110Y229679D01*
X1875133Y231076D01*
X1881087Y235054D01*
X1885066Y241008D01*
X1886463Y248032D01*
X1885066Y255055D01*
X1881087Y261009D01*
X1876185Y264284D01*
X1876262Y268444D01*
X1877516Y272284D01*
X2123215D01*
X2125348Y269685D01*
X2126745Y262662D01*
X2130724Y256708D01*
X2136678Y252729D01*
X2143701Y251332D01*
X2150724Y252729D01*
X2156678Y256708D01*
X2160656Y262662D01*
X2162053Y269685D01*
X2164187Y272284D01*
X2376971D01*
X2381415Y265633D01*
X2379280Y260476D01*
X2377382Y246063D01*
Y147638D01*
X2379280Y133224D01*
X2384843Y119793D01*
X2393693Y108260D01*
X2405226Y99410D01*
X2418657Y93846D01*
X2433071Y91949D01*
X2447484Y93846D01*
X2460915Y99410D01*
X2472449Y108260D01*
X2481299Y119793D01*
X2486862Y133224D01*
X2488760Y147638D01*
Y246063D01*
X2486862Y260476D01*
X2484727Y265633D01*
X2489171Y272284D01*
X2620689D01*
X2624442Y264284D01*
X2620294Y254270D01*
X2618566Y241142D01*
Y152559D01*
X2620294Y139430D01*
X2625362Y127196D01*
X2633423Y116691D01*
X2643929Y108630D01*
X2656163Y103562D01*
X2669291Y101834D01*
X2682420Y103562D01*
X2694654Y108630D01*
X2705160Y116691D01*
X2713221Y127196D01*
X2718288Y139430D01*
X2720017Y152559D01*
Y241142D01*
X2718288Y254270D01*
X2714140Y264284D01*
X2717894Y272284D01*
X2961868D01*
Y30258D01*
X2871379D01*
X2868747Y33465D01*
X2867350Y40488D01*
X2863372Y46442D01*
X2857418Y50420D01*
X2850394Y51817D01*
X2843371Y50420D01*
X2837417Y46442D01*
X2833439Y40488D01*
X2832042Y33465D01*
X2829410Y30258D01*
X2733583D01*
X2730952Y33465D01*
X2729555Y40488D01*
X2725576Y46442D01*
X2719622Y50420D01*
X2712599Y51817D01*
X2705576Y50420D01*
X2699622Y46442D01*
X2695644Y40488D01*
X2694247Y33465D01*
X2691615Y30258D01*
X2595788D01*
X2593157Y33465D01*
X2591760Y40488D01*
X2587781Y46442D01*
X2581827Y50420D01*
X2574804Y51817D01*
X2567781Y50420D01*
X2561827Y46442D01*
X2557848Y40488D01*
X2556451Y33465D01*
X2553820Y30259D01*
X2457993D01*
X2455361Y33465D01*
X2453964Y40488D01*
X2449986Y46442D01*
X2444032Y50420D01*
X2437009Y51817D01*
X2429985Y50420D01*
X2424031Y46442D01*
X2420053Y40488D01*
X2418656Y33465D01*
X2416025Y30259D01*
X2320197D01*
X2317566Y33465D01*
X2316169Y40488D01*
X2312191Y46442D01*
X2306236Y50420D01*
X2299213Y51817D01*
X2292190Y50420D01*
X2286236Y46442D01*
X2282258Y40488D01*
X2280861Y33465D01*
X2278229Y30259D01*
X2044607D01*
X2041975Y33465D01*
X2040578Y40488D01*
X2037240Y45484D01*
X2038334Y49606D01*
X2040460Y53484D01*
X2151291D01*
X2156705Y54561D01*
X2161294Y57627D01*
X2199898Y96231D01*
X2204858Y97218D01*
X2210812Y101196D01*
X2214790Y107150D01*
X2216187Y114173D01*
X2214790Y121196D01*
X2210812Y127150D01*
X2204858Y131129D01*
X2197835Y132526D01*
X2190811Y131129D01*
X2184858Y127150D01*
X2180879Y121196D01*
X2179892Y116236D01*
X2145432Y81776D01*
X2058134D01*
X2053044Y89776D01*
X2053786Y93504D01*
X2052389Y100527D01*
X2048410Y106481D01*
X2043298Y109897D01*
X2042848Y114173D01*
X2043298Y118449D01*
X2048410Y121865D01*
X2052389Y127819D01*
X2053786Y134842D01*
X2052389Y141865D01*
X2048410Y147819D01*
X2042456Y151798D01*
X2035433Y153195D01*
X2028410Y151798D01*
X2022456Y147819D01*
X2018478Y141865D01*
X2017081Y134842D01*
X2018478Y127819D01*
X2022456Y121865D01*
X2027569Y118449D01*
X2028019Y114173D01*
X2027569Y109897D01*
X2022456Y106481D01*
X2018478Y100527D01*
X2017081Y93504D01*
X2017822Y89776D01*
X2012732Y81776D01*
X1907107D01*
X1903006Y89776D01*
X1904751Y92386D01*
X1906148Y99410D01*
X1904751Y106433D01*
X1900773Y112387D01*
X1895660Y115803D01*
X1895210Y120079D01*
X1895660Y124355D01*
X1900773Y127771D01*
X1904751Y133725D01*
X1906148Y140748D01*
X1904751Y147771D01*
X1900773Y153725D01*
X1894819Y157704D01*
X1887795Y159101D01*
X1880772Y157704D01*
X1874818Y153725D01*
X1870840Y147771D01*
X1869443Y140748D01*
X1870840Y133725D01*
X1874818Y127771D01*
X1879931Y124355D01*
X1880381Y120079D01*
X1879931Y115803D01*
X1874818Y112387D01*
X1870840Y106433D01*
X1869443Y99410D01*
X1870840Y92386D01*
X1872584Y89776D01*
X1868484Y81776D01*
X1822462D01*
X1818361Y89776D01*
X1820105Y92386D01*
X1821502Y99409D01*
X1820105Y106433D01*
X1816127Y112387D01*
X1811014Y115803D01*
X1810564Y120079D01*
X1811014Y124354D01*
X1816127Y127770D01*
X1820105Y133725D01*
X1821502Y140748D01*
X1820105Y147771D01*
X1816127Y153725D01*
X1810173Y157703D01*
X1803150Y159100D01*
X1796127Y157703D01*
X1790173Y153725D01*
X1786194Y147771D01*
X1784797Y140748D01*
X1786194Y133725D01*
X1790173Y127770D01*
X1795285Y124354D01*
X1795735Y120079D01*
X1795285Y115803D01*
X1790173Y112387D01*
X1786194Y106433D01*
X1784797Y99409D01*
X1786194Y92386D01*
X1787938Y89776D01*
X1783838Y81776D01*
X1731141D01*
X1726512Y84869D01*
X1719488Y86266D01*
X1712465Y84869D01*
X1706511Y80891D01*
X1702533Y74937D01*
X1701136Y67914D01*
X1702533Y60891D01*
X1706511Y54937D01*
X1712465Y50958D01*
X1719488Y49561D01*
X1726511Y50958D01*
X1727994Y50083D01*
X1731076Y40488D01*
X1729679Y33465D01*
X1727048Y30259D01*
X1631221D01*
X1628589Y33465D01*
X1627192Y40488D01*
X1623214Y46442D01*
X1617260Y50420D01*
X1610237Y51817D01*
X1603214Y50420D01*
X1597260Y46442D01*
X1593281Y40488D01*
X1591884Y33465D01*
X1589253Y30259D01*
X1493425D01*
X1490794Y33465D01*
X1489397Y40488D01*
X1485419Y46442D01*
X1479465Y50420D01*
X1472441Y51817D01*
X1465418Y50420D01*
X1459464Y46442D01*
X1455486Y40488D01*
X1454089Y33465D01*
X1451458Y30259D01*
X1355630D01*
X1352999Y33465D01*
X1351602Y40488D01*
X1347623Y46442D01*
X1341669Y50420D01*
X1334646Y51817D01*
X1327623Y50420D01*
X1321669Y46442D01*
X1317691Y40488D01*
X1316294Y33465D01*
X1313662Y30259D01*
X1217835D01*
X1215204Y33465D01*
X1213806Y40488D01*
X1209828Y46442D01*
X1203874Y50420D01*
X1196851Y51817D01*
X1189828Y50420D01*
X1183874Y46442D01*
X1179895Y40488D01*
X1178498Y33465D01*
X1175867Y30259D01*
X1080040D01*
X1077408Y33465D01*
X1076011Y40488D01*
X1072033Y46442D01*
X1066079Y50420D01*
X1059056Y51817D01*
X1052032Y50420D01*
X1046078Y46442D01*
X1042100Y40488D01*
X1040703Y33465D01*
X1038072Y30259D01*
X942244Y30259D01*
X939613Y33465D01*
X938216Y40488D01*
X934661Y45808D01*
X935937Y50059D01*
X937832Y53662D01*
X944031Y54895D01*
X949985Y58873D01*
X953963Y64827D01*
X955360Y71850D01*
X953963Y78874D01*
X949985Y84828D01*
X944031Y88806D01*
X937008Y90203D01*
X929985Y88806D01*
X924031Y84828D01*
X920052Y78874D01*
X918655Y71850D01*
X920052Y64827D01*
X923607Y59507D01*
X922332Y55256D01*
X920436Y51653D01*
X914237Y50420D01*
X908283Y46442D01*
X904305Y40488D01*
X902908Y33465D01*
X900276Y30259D01*
X815788D01*
X809470Y38259D01*
X809691Y39370D01*
X808294Y46393D01*
X804316Y52347D01*
X800929Y54611D01*
X800757Y55090D01*
Y63020D01*
X800929Y63500D01*
X804316Y65763D01*
X808294Y71717D01*
X809691Y78740D01*
X808294Y85763D01*
X804316Y91717D01*
X800929Y93981D01*
X800757Y94460D01*
Y102390D01*
X800929Y102870D01*
X804316Y105133D01*
X808294Y111087D01*
X809691Y118110D01*
X808294Y125133D01*
X804316Y131087D01*
X798362Y135066D01*
X791339Y136463D01*
X784315Y135066D01*
X778361Y131087D01*
X776098Y127700D01*
X775619Y127529D01*
X767688D01*
X767209Y127700D01*
X764946Y131087D01*
X758992Y135066D01*
X751968Y136463D01*
X744945Y135066D01*
X738991Y131087D01*
X736728Y127700D01*
X736249Y127529D01*
X728318D01*
X727839Y127700D01*
X725576Y131087D01*
X719622Y135066D01*
X712598Y136463D01*
X705575Y135066D01*
X699621Y131087D01*
X697358Y127700D01*
X696879Y127529D01*
X688948D01*
X688469Y127700D01*
X686206Y131087D01*
X680252Y135066D01*
X673228Y136463D01*
X666205Y135066D01*
X660251Y131087D01*
X657988Y127700D01*
X657508Y127529D01*
X649578D01*
X649099Y127700D01*
X646836Y131087D01*
X640881Y135066D01*
X633858Y136463D01*
X626835Y135066D01*
X620881Y131087D01*
X618618Y127700D01*
X618138Y127529D01*
X610208D01*
X609729Y127700D01*
X607465Y131087D01*
X601511Y135066D01*
X594488Y136463D01*
X590493Y135668D01*
X590032Y135886D01*
X584425Y141493D01*
X584207Y141954D01*
X585002Y145949D01*
X583605Y152972D01*
X583382Y153306D01*
X583795Y154304D01*
X589749Y158283D01*
X593728Y164237D01*
X595125Y171260D01*
X593728Y178283D01*
X589749Y184237D01*
X583795Y188216D01*
X576772Y189613D01*
X569749Y188216D01*
X563795Y184237D01*
X563080Y183168D01*
X562350Y182933D01*
X553825Y183716D01*
X551788Y186765D01*
X545834Y190744D01*
X538811Y192141D01*
X534815Y191346D01*
X534355Y191564D01*
X528747Y197171D01*
X528530Y197631D01*
X529324Y201627D01*
X527927Y208650D01*
X523949Y214604D01*
X517995Y218582D01*
X510972Y219979D01*
X506976Y219185D01*
X506516Y219402D01*
X500908Y225010D01*
X500691Y225470D01*
X501485Y229466D01*
X500088Y236489D01*
X497454Y240431D01*
X499988Y247193D01*
X500998Y248431D01*
X629126D01*
X633402Y240431D01*
X632651Y239307D01*
X631254Y232284D01*
X632651Y225260D01*
X636629Y219306D01*
X642583Y215328D01*
X649606Y213931D01*
X654174Y214839D01*
X656050Y213702D01*
X659627Y210025D01*
X660459Y208554D01*
X659502Y203740D01*
X660899Y196717D01*
X664877Y190763D01*
X670831Y186785D01*
X677854Y185388D01*
X684878Y186785D01*
X690832Y190763D01*
X694810Y196717D01*
X696207Y203740D01*
X694810Y210763D01*
X690832Y216717D01*
X684878Y220696D01*
X677854Y222093D01*
X673287Y221184D01*
X671410Y222322D01*
X667833Y225998D01*
X667001Y227470D01*
X667959Y232284D01*
X666562Y239307D01*
X665811Y240431D01*
X670087Y248431D01*
X694439D01*
X694962Y247602D01*
X695070Y247526D01*
X695144Y247416D01*
X696692Y246382D01*
X698213Y245309D01*
X698342Y245280D01*
X698452Y245206D01*
X700277Y244843D01*
X702093Y244433D01*
X702739Y244417D01*
X703024Y244394D01*
X703145Y244376D01*
X704035Y243833D01*
X705517Y242843D01*
X705726Y242802D01*
X705909Y242690D01*
X707598Y242426D01*
X708823Y241607D01*
X715846Y240210D01*
X722870Y241607D01*
X728824Y245586D01*
X732802Y251540D01*
X734199Y258563D01*
X732802Y265586D01*
X728824Y271540D01*
X722870Y275519D01*
X715846Y276916D01*
X708823Y275519D01*
X707598Y274700D01*
X705909Y274435D01*
X705727Y274324D01*
X705517Y274283D01*
X704034Y273291D01*
X703145Y272749D01*
X703024Y272732D01*
X702739Y272709D01*
X702093Y272692D01*
X700277Y272283D01*
X698452Y271920D01*
X698342Y271846D01*
X698213Y271817D01*
X696692Y270744D01*
X695144Y269709D01*
X695070Y269600D01*
X694962Y269523D01*
X694439Y268695D01*
X495634D01*
X495394Y268935D01*
Y286857D01*
X503394Y291594D01*
X507874Y290703D01*
X514898Y292100D01*
X520852Y296078D01*
X524830Y302032D01*
X526227Y309055D01*
X524830Y316079D01*
X520852Y322033D01*
X514898Y326011D01*
X507875Y327408D01*
X502854Y332212D01*
X509170Y336503D01*
X511811Y335978D01*
X518834Y337375D01*
X524788Y341353D01*
X528767Y347307D01*
X530164Y354331D01*
X528767Y361354D01*
X524788Y367308D01*
X521401Y369571D01*
X521230Y370051D01*
Y377981D01*
X521401Y378460D01*
X524788Y380724D01*
X528767Y386678D01*
X530164Y393701D01*
X528767Y400724D01*
X524788Y406678D01*
X521401Y408941D01*
X521230Y409421D01*
Y417351D01*
X521401Y417830D01*
X524788Y420094D01*
X528767Y426048D01*
X530164Y433071D01*
X528767Y440094D01*
X524788Y446048D01*
X521401Y448311D01*
X521230Y448791D01*
Y456721D01*
X521401Y457200D01*
X524788Y459464D01*
X527052Y462851D01*
X527531Y463022D01*
X535461Y463022D01*
X535941Y462851D01*
X538204Y459464D01*
X544158Y455485D01*
X551181Y454088D01*
X558204Y455485D01*
X564158Y459464D01*
X568137Y465418D01*
X568551Y467500D01*
X576707D01*
X576863Y466717D01*
X580842Y460763D01*
X586796Y456784D01*
X593819Y455387D01*
X600842Y456784D01*
X602067Y457603D01*
X603741Y457862D01*
X603931Y457977D01*
X604148Y458020D01*
X605624Y459007D01*
X606411Y459485D01*
X606570Y459507D01*
X606874Y459531D01*
X607533Y459547D01*
X609354Y459957D01*
X611183Y460320D01*
X611289Y460391D01*
X611414Y460420D01*
X612940Y461495D01*
X614491Y462531D01*
X614562Y462637D01*
X614667Y462711D01*
X615194Y463544D01*
X786585D01*
X786908Y463608D01*
X882299D01*
X918643Y427265D01*
X918427Y426310D01*
X918450Y426179D01*
X918424Y426049D01*
X918787Y424223D01*
X919103Y422389D01*
X919174Y422277D01*
X919200Y422147D01*
X920235Y420599D01*
X921228Y419026D01*
X921673Y418558D01*
X921858Y418340D01*
X921933Y418241D01*
X922178Y417229D01*
X922526Y415480D01*
X922644Y415302D01*
X922694Y415095D01*
X923702Y413714D01*
X923989Y412268D01*
X927968Y406314D01*
X933922Y402336D01*
X940945Y400939D01*
X947968Y402336D01*
X953922Y406314D01*
X957900Y412268D01*
X959298Y419291D01*
X957900Y426315D01*
X953922Y432269D01*
X947968Y436247D01*
X946522Y436535D01*
X945141Y437542D01*
X944934Y437592D01*
X944757Y437711D01*
X943008Y438059D01*
X941996Y438304D01*
X941897Y438377D01*
X941678Y438564D01*
X941210Y439008D01*
X939637Y440002D01*
X938089Y441036D01*
X937959Y441062D01*
X937847Y441133D01*
X936013Y441449D01*
X934188Y441812D01*
X934058Y441786D01*
X933927Y441809D01*
X932971Y441593D01*
X905198Y469366D01*
X908260Y476758D01*
X958506D01*
X962987Y470168D01*
D02*
G37*
G36*
X709419Y252263D02*
X708932Y252712D01*
X708395Y253114D01*
X707811Y253468D01*
X707177Y253775D01*
X706495Y254035D01*
X705764Y254248D01*
X704984Y254413D01*
X704156Y254531D01*
X703279Y254602D01*
X702353Y254626D01*
Y262500D01*
X703279Y262524D01*
X704156Y262594D01*
X704984Y262713D01*
X705764Y262878D01*
X706495Y263091D01*
X707177Y263351D01*
X707811Y263658D01*
X708395Y264012D01*
X708932Y264414D01*
X709419Y264863D01*
Y252263D01*
D02*
G37*
%LPC*%
G36*
X673228Y721109D02*
X666205Y719712D01*
X660251Y715733D01*
X656273Y709779D01*
X654876Y702756D01*
X656273Y695733D01*
X660251Y689779D01*
X666205Y685800D01*
X673228Y684403D01*
X680251Y685800D01*
X686206Y689779D01*
X690184Y695733D01*
X691581Y702756D01*
X690184Y709779D01*
X686206Y715733D01*
X680251Y719712D01*
X673228Y721109D01*
D02*
G37*
G36*
X2896460Y648597D02*
X2889436Y647200D01*
X2883482Y643221D01*
X2879504Y637267D01*
X2878107Y630244D01*
X2879504Y623221D01*
X2883482Y617267D01*
X2889436Y613289D01*
X2896460Y611892D01*
X2903483Y613289D01*
X2909437Y617267D01*
X2913415Y623221D01*
X2914812Y630244D01*
X2913415Y637267D01*
X2909437Y643221D01*
X2903483Y647200D01*
X2896460Y648597D01*
D02*
G37*
G36*
X2828460D02*
X2821436Y647200D01*
X2815482Y643221D01*
X2811504Y637267D01*
X2810107Y630244D01*
X2811504Y623221D01*
X2815482Y617267D01*
X2821436Y613289D01*
X2828460Y611892D01*
X2835483Y613289D01*
X2841437Y617267D01*
X2845415Y623221D01*
X2846812Y630244D01*
X2845415Y637267D01*
X2841437Y643221D01*
X2835483Y647200D01*
X2828460Y648597D01*
D02*
G37*
G36*
X2760460D02*
X2753436Y647200D01*
X2747482Y643221D01*
X2743504Y637267D01*
X2742107Y630244D01*
X2743504Y623221D01*
X2747482Y617267D01*
X2753436Y613289D01*
X2760460Y611892D01*
X2767483Y613289D01*
X2773437Y617267D01*
X2777415Y623221D01*
X2778812Y630244D01*
X2777415Y637267D01*
X2773437Y643221D01*
X2767483Y647200D01*
X2760460Y648597D01*
D02*
G37*
G36*
X2692460D02*
X2685436Y647200D01*
X2679482Y643221D01*
X2675504Y637267D01*
X2674107Y630244D01*
X2675504Y623221D01*
X2679482Y617267D01*
X2685436Y613289D01*
X2692460Y611892D01*
X2699483Y613289D01*
X2705437Y617267D01*
X2709415Y623221D01*
X2710812Y630244D01*
X2709415Y637267D01*
X2705437Y643221D01*
X2699483Y647200D01*
X2692460Y648597D01*
D02*
G37*
G36*
X2624460D02*
X2617436Y647200D01*
X2611482Y643221D01*
X2607504Y637267D01*
X2606107Y630244D01*
X2607504Y623221D01*
X2611482Y617267D01*
X2617436Y613289D01*
X2624460Y611892D01*
X2631483Y613289D01*
X2637437Y617267D01*
X2641415Y623221D01*
X2642812Y630244D01*
X2641415Y637267D01*
X2637437Y643221D01*
X2631483Y647200D01*
X2624460Y648597D01*
D02*
G37*
G36*
X2556460D02*
X2549436Y647200D01*
X2543482Y643221D01*
X2539504Y637267D01*
X2538107Y630244D01*
X2539504Y623221D01*
X2543482Y617267D01*
X2549436Y613289D01*
X2556460Y611892D01*
X2563483Y613289D01*
X2569437Y617267D01*
X2573415Y623221D01*
X2574812Y630244D01*
X2573415Y637267D01*
X2569437Y643221D01*
X2563483Y647200D01*
X2556460Y648597D01*
D02*
G37*
G36*
X2488460D02*
X2481436Y647200D01*
X2475482Y643221D01*
X2471504Y637267D01*
X2470107Y630244D01*
X2471504Y623221D01*
X2475482Y617267D01*
X2481436Y613289D01*
X2488460Y611892D01*
X2495483Y613289D01*
X2501437Y617267D01*
X2505415Y623221D01*
X2506812Y630244D01*
X2505415Y637267D01*
X2501437Y643221D01*
X2495483Y647200D01*
X2488460Y648597D01*
D02*
G37*
G36*
X2420460D02*
X2413436Y647200D01*
X2407482Y643221D01*
X2403504Y637267D01*
X2402107Y630244D01*
X2403504Y623221D01*
X2407482Y617267D01*
X2413436Y613289D01*
X2420460Y611892D01*
X2427483Y613289D01*
X2433437Y617267D01*
X2437415Y623221D01*
X2438812Y630244D01*
X2437415Y637267D01*
X2433437Y643221D01*
X2427483Y647200D01*
X2420460Y648597D01*
D02*
G37*
G36*
X2352460D02*
X2345436Y647200D01*
X2339482Y643221D01*
X2335504Y637267D01*
X2334107Y630244D01*
X2335504Y623221D01*
X2339482Y617267D01*
X2345436Y613289D01*
X2352460Y611892D01*
X2359483Y613289D01*
X2365437Y617267D01*
X2369415Y623221D01*
X2370812Y630244D01*
X2369415Y637267D01*
X2365437Y643221D01*
X2359483Y647200D01*
X2352460Y648597D01*
D02*
G37*
G36*
X2284460D02*
X2277436Y647200D01*
X2271482Y643221D01*
X2267504Y637267D01*
X2266107Y630244D01*
X2267504Y623221D01*
X2271482Y617267D01*
X2277436Y613289D01*
X2284460Y611892D01*
X2291483Y613289D01*
X2297437Y617267D01*
X2301415Y623221D01*
X2302812Y630244D01*
X2301415Y637267D01*
X2297437Y643221D01*
X2291483Y647200D01*
X2284460Y648597D01*
D02*
G37*
G36*
X2216460D02*
X2209436Y647200D01*
X2203482Y643221D01*
X2199504Y637267D01*
X2198107Y630244D01*
X2199504Y623221D01*
X2203482Y617267D01*
X2209436Y613289D01*
X2216460Y611892D01*
X2223483Y613289D01*
X2229437Y617267D01*
X2233415Y623221D01*
X2234812Y630244D01*
X2233415Y637267D01*
X2229437Y643221D01*
X2223483Y647200D01*
X2216460Y648597D01*
D02*
G37*
G36*
X2148460D02*
X2141436Y647200D01*
X2135482Y643221D01*
X2131504Y637267D01*
X2130107Y630244D01*
X2131504Y623221D01*
X2135482Y617267D01*
X2141436Y613289D01*
X2148460Y611892D01*
X2155483Y613289D01*
X2161437Y617267D01*
X2165415Y623221D01*
X2166812Y630244D01*
X2165415Y637267D01*
X2161437Y643221D01*
X2155483Y647200D01*
X2148460Y648597D01*
D02*
G37*
G36*
X2080460D02*
X2073436Y647200D01*
X2067482Y643221D01*
X2063504Y637267D01*
X2062107Y630244D01*
X2063504Y623221D01*
X2067482Y617267D01*
X2073436Y613289D01*
X2080460Y611892D01*
X2087483Y613289D01*
X2093437Y617267D01*
X2097415Y623221D01*
X2098812Y630244D01*
X2097415Y637267D01*
X2093437Y643221D01*
X2087483Y647200D01*
X2080460Y648597D01*
D02*
G37*
G36*
X2012460D02*
X2005436Y647200D01*
X1999482Y643221D01*
X1995504Y637267D01*
X1994107Y630244D01*
X1995504Y623221D01*
X1999482Y617267D01*
X2005436Y613289D01*
X2012460Y611892D01*
X2019483Y613289D01*
X2025437Y617267D01*
X2029415Y623221D01*
X2030812Y630244D01*
X2029415Y637267D01*
X2025437Y643221D01*
X2019483Y647200D01*
X2012460Y648597D01*
D02*
G37*
G36*
X1944460D02*
X1937436Y647200D01*
X1931482Y643221D01*
X1927504Y637267D01*
X1926107Y630244D01*
X1927504Y623221D01*
X1931482Y617267D01*
X1937436Y613289D01*
X1944460Y611892D01*
X1951483Y613289D01*
X1957437Y617267D01*
X1961415Y623221D01*
X1962812Y630244D01*
X1961415Y637267D01*
X1957437Y643221D01*
X1951483Y647200D01*
X1944460Y648597D01*
D02*
G37*
G36*
X1876460D02*
X1869436Y647200D01*
X1863482Y643221D01*
X1859504Y637267D01*
X1858107Y630244D01*
X1859504Y623221D01*
X1863482Y617267D01*
X1869436Y613289D01*
X1876460Y611892D01*
X1883483Y613289D01*
X1889437Y617267D01*
X1893415Y623221D01*
X1894812Y630244D01*
X1893415Y637267D01*
X1889437Y643221D01*
X1883483Y647200D01*
X1876460Y648597D01*
D02*
G37*
G36*
X1808460D02*
X1801436Y647200D01*
X1795482Y643221D01*
X1791504Y637267D01*
X1790107Y630244D01*
X1791504Y623221D01*
X1795482Y617267D01*
X1801436Y613289D01*
X1808460Y611892D01*
X1815483Y613289D01*
X1821437Y617267D01*
X1825415Y623221D01*
X1826812Y630244D01*
X1825415Y637267D01*
X1821437Y643221D01*
X1815483Y647200D01*
X1808460Y648597D01*
D02*
G37*
G36*
X1740460D02*
X1733436Y647200D01*
X1727482Y643221D01*
X1723504Y637267D01*
X1722107Y630244D01*
X1723504Y623221D01*
X1727482Y617267D01*
X1733436Y613289D01*
X1740460Y611892D01*
X1747483Y613289D01*
X1753437Y617267D01*
X1757415Y623221D01*
X1758812Y630244D01*
X1757415Y637267D01*
X1753437Y643221D01*
X1747483Y647200D01*
X1740460Y648597D01*
D02*
G37*
G36*
X1672460D02*
X1665436Y647200D01*
X1659482Y643221D01*
X1655504Y637267D01*
X1654107Y630244D01*
X1655504Y623221D01*
X1659482Y617267D01*
X1665436Y613289D01*
X1672460Y611892D01*
X1679483Y613289D01*
X1685437Y617267D01*
X1689415Y623221D01*
X1690812Y630244D01*
X1689415Y637267D01*
X1685437Y643221D01*
X1679483Y647200D01*
X1672460Y648597D01*
D02*
G37*
G36*
X1604460D02*
X1597436Y647200D01*
X1591482Y643221D01*
X1587504Y637267D01*
X1586107Y630244D01*
X1587504Y623221D01*
X1591482Y617267D01*
X1597436Y613289D01*
X1604460Y611892D01*
X1611483Y613289D01*
X1617437Y617267D01*
X1621415Y623221D01*
X1622812Y630244D01*
X1621415Y637267D01*
X1617437Y643221D01*
X1611483Y647200D01*
X1604460Y648597D01*
D02*
G37*
G36*
X1536460D02*
X1529436Y647200D01*
X1523482Y643221D01*
X1519504Y637267D01*
X1518107Y630244D01*
X1519504Y623221D01*
X1523482Y617267D01*
X1529436Y613289D01*
X1536460Y611892D01*
X1543483Y613289D01*
X1549437Y617267D01*
X1553415Y623221D01*
X1554812Y630244D01*
X1553415Y637267D01*
X1549437Y643221D01*
X1543483Y647200D01*
X1536460Y648597D01*
D02*
G37*
G36*
X1468460D02*
X1461436Y647200D01*
X1455482Y643221D01*
X1451504Y637267D01*
X1450107Y630244D01*
X1451504Y623221D01*
X1455482Y617267D01*
X1461436Y613289D01*
X1468460Y611892D01*
X1475483Y613289D01*
X1481437Y617267D01*
X1485415Y623221D01*
X1486812Y630244D01*
X1485415Y637267D01*
X1481437Y643221D01*
X1475483Y647200D01*
X1468460Y648597D01*
D02*
G37*
G36*
X1400460D02*
X1393436Y647200D01*
X1387482Y643221D01*
X1383504Y637267D01*
X1382107Y630244D01*
X1383504Y623221D01*
X1387482Y617267D01*
X1393436Y613289D01*
X1400460Y611892D01*
X1407483Y613289D01*
X1413437Y617267D01*
X1417415Y623221D01*
X1418812Y630244D01*
X1417415Y637267D01*
X1413437Y643221D01*
X1407483Y647200D01*
X1400460Y648597D01*
D02*
G37*
G36*
X1332460D02*
X1325436Y647200D01*
X1319482Y643221D01*
X1315504Y637267D01*
X1314107Y630244D01*
X1315504Y623221D01*
X1319482Y617267D01*
X1325436Y613289D01*
X1332460Y611892D01*
X1339483Y613289D01*
X1345437Y617267D01*
X1349415Y623221D01*
X1350812Y630244D01*
X1349415Y637267D01*
X1345437Y643221D01*
X1339483Y647200D01*
X1332460Y648597D01*
D02*
G37*
G36*
X1264460D02*
X1257436Y647200D01*
X1251482Y643221D01*
X1247504Y637267D01*
X1246107Y630244D01*
X1247504Y623221D01*
X1251482Y617267D01*
X1257436Y613289D01*
X1264460Y611892D01*
X1271483Y613289D01*
X1277437Y617267D01*
X1281415Y623221D01*
X1282812Y630244D01*
X1281415Y637267D01*
X1277437Y643221D01*
X1271483Y647200D01*
X1264460Y648597D01*
D02*
G37*
G36*
X1196460D02*
X1189436Y647200D01*
X1183482Y643221D01*
X1179504Y637267D01*
X1178107Y630244D01*
X1179504Y623221D01*
X1183482Y617267D01*
X1189436Y613289D01*
X1196460Y611892D01*
X1203483Y613289D01*
X1209437Y617267D01*
X1213415Y623221D01*
X1214812Y630244D01*
X1213415Y637267D01*
X1209437Y643221D01*
X1203483Y647200D01*
X1196460Y648597D01*
D02*
G37*
G36*
X1128460D02*
X1121436Y647200D01*
X1115482Y643221D01*
X1111504Y637267D01*
X1110107Y630244D01*
X1111504Y623221D01*
X1115482Y617267D01*
X1121436Y613289D01*
X1128460Y611892D01*
X1135483Y613289D01*
X1141437Y617267D01*
X1145415Y623221D01*
X1146812Y630244D01*
X1145415Y637267D01*
X1141437Y643221D01*
X1135483Y647200D01*
X1128460Y648597D01*
D02*
G37*
G36*
X1060460D02*
X1053436Y647200D01*
X1047482Y643221D01*
X1043504Y637267D01*
X1042107Y630244D01*
X1043504Y623221D01*
X1047482Y617267D01*
X1053436Y613289D01*
X1060460Y611892D01*
X1067483Y613289D01*
X1073437Y617267D01*
X1077415Y623221D01*
X1078812Y630244D01*
X1077415Y637267D01*
X1073437Y643221D01*
X1067483Y647200D01*
X1060460Y648597D01*
D02*
G37*
G36*
X992460D02*
X985436Y647200D01*
X979482Y643221D01*
X975504Y637267D01*
X974107Y630244D01*
X975504Y623221D01*
X979482Y617267D01*
X985436Y613289D01*
X992460Y611892D01*
X999483Y613289D01*
X1005437Y617267D01*
X1009415Y623221D01*
X1010812Y630244D01*
X1009415Y637267D01*
X1005437Y643221D01*
X999483Y647200D01*
X992460Y648597D01*
D02*
G37*
G36*
X924460D02*
X917436Y647200D01*
X911482Y643221D01*
X907504Y637267D01*
X906107Y630244D01*
X907504Y623221D01*
X911482Y617267D01*
X917436Y613289D01*
X924460Y611892D01*
X931483Y613289D01*
X937437Y617267D01*
X941415Y623221D01*
X942812Y630244D01*
X941415Y637267D01*
X937437Y643221D01*
X931483Y647200D01*
X924460Y648597D01*
D02*
G37*
G36*
X841403Y615971D02*
X834379Y614574D01*
X828425Y610596D01*
X824447Y604642D01*
X823050Y597619D01*
X824447Y590596D01*
X828425Y584641D01*
X834379Y580663D01*
X841403Y579266D01*
X848426Y580663D01*
X854380Y584641D01*
X858358Y590596D01*
X859755Y597619D01*
X858358Y604642D01*
X854380Y610596D01*
X848426Y614574D01*
X841403Y615971D01*
D02*
G37*
G36*
X783465Y602999D02*
X776442Y601602D01*
X770488Y597623D01*
X766509Y591669D01*
X765112Y584646D01*
X766509Y577623D01*
X770488Y571669D01*
X776442Y567690D01*
X783465Y566293D01*
X790488Y567690D01*
X796442Y571669D01*
X800421Y577623D01*
X801818Y584646D01*
X800421Y591669D01*
X796442Y597623D01*
X790488Y601602D01*
X783465Y602999D01*
D02*
G37*
G36*
X2920755Y592833D02*
X2913732Y591436D01*
X2907778Y587457D01*
X2903800Y581503D01*
X2902403Y574480D01*
X2903800Y567457D01*
X2907778Y561503D01*
X2913732Y557524D01*
X2920755Y556127D01*
X2927779Y557524D01*
X2933733Y561503D01*
X2937711Y567457D01*
X2939108Y574480D01*
X2937711Y581503D01*
X2933733Y587457D01*
X2927779Y591436D01*
X2920755Y592833D01*
D02*
G37*
G36*
X2852755D02*
X2845732Y591436D01*
X2839778Y587457D01*
X2835800Y581503D01*
X2834403Y574480D01*
X2835800Y567457D01*
X2839778Y561503D01*
X2845732Y557524D01*
X2852755Y556127D01*
X2859779Y557524D01*
X2865733Y561503D01*
X2869711Y567457D01*
X2871108Y574480D01*
X2869711Y581503D01*
X2865733Y587457D01*
X2859779Y591436D01*
X2852755Y592833D01*
D02*
G37*
G36*
X2784755D02*
X2777732Y591436D01*
X2771778Y587457D01*
X2767800Y581503D01*
X2766403Y574480D01*
X2767800Y567457D01*
X2771778Y561503D01*
X2777732Y557524D01*
X2784755Y556127D01*
X2791779Y557524D01*
X2797733Y561503D01*
X2801711Y567457D01*
X2803108Y574480D01*
X2801711Y581503D01*
X2797733Y587457D01*
X2791779Y591436D01*
X2784755Y592833D01*
D02*
G37*
G36*
X2716755D02*
X2709732Y591436D01*
X2703778Y587457D01*
X2699800Y581503D01*
X2698403Y574480D01*
X2699800Y567457D01*
X2703778Y561503D01*
X2709732Y557524D01*
X2716755Y556127D01*
X2723779Y557524D01*
X2729733Y561503D01*
X2733711Y567457D01*
X2735108Y574480D01*
X2733711Y581503D01*
X2729733Y587457D01*
X2723779Y591436D01*
X2716755Y592833D01*
D02*
G37*
G36*
X2648755D02*
X2641732Y591436D01*
X2635778Y587457D01*
X2631800Y581503D01*
X2630403Y574480D01*
X2631800Y567457D01*
X2635778Y561503D01*
X2641732Y557524D01*
X2648755Y556127D01*
X2655779Y557524D01*
X2661733Y561503D01*
X2665711Y567457D01*
X2667108Y574480D01*
X2665711Y581503D01*
X2661733Y587457D01*
X2655779Y591436D01*
X2648755Y592833D01*
D02*
G37*
G36*
X2580755D02*
X2573732Y591436D01*
X2567778Y587457D01*
X2563800Y581503D01*
X2562403Y574480D01*
X2563800Y567457D01*
X2567778Y561503D01*
X2573732Y557524D01*
X2580755Y556127D01*
X2587779Y557524D01*
X2593733Y561503D01*
X2597711Y567457D01*
X2599108Y574480D01*
X2597711Y581503D01*
X2593733Y587457D01*
X2587779Y591436D01*
X2580755Y592833D01*
D02*
G37*
G36*
X2512755D02*
X2505732Y591436D01*
X2499778Y587457D01*
X2495800Y581503D01*
X2494403Y574480D01*
X2495800Y567457D01*
X2499778Y561503D01*
X2505732Y557524D01*
X2512755Y556127D01*
X2519779Y557524D01*
X2525733Y561503D01*
X2529711Y567457D01*
X2531108Y574480D01*
X2529711Y581503D01*
X2525733Y587457D01*
X2519779Y591436D01*
X2512755Y592833D01*
D02*
G37*
G36*
X2444755D02*
X2437732Y591436D01*
X2431778Y587457D01*
X2427800Y581503D01*
X2426403Y574480D01*
X2427800Y567457D01*
X2431778Y561503D01*
X2437732Y557524D01*
X2444755Y556127D01*
X2451779Y557524D01*
X2457733Y561503D01*
X2461711Y567457D01*
X2463108Y574480D01*
X2461711Y581503D01*
X2457733Y587457D01*
X2451779Y591436D01*
X2444755Y592833D01*
D02*
G37*
G36*
X2376755D02*
X2369732Y591436D01*
X2363778Y587457D01*
X2359800Y581503D01*
X2358403Y574480D01*
X2359800Y567457D01*
X2363778Y561503D01*
X2369732Y557524D01*
X2376755Y556127D01*
X2383779Y557524D01*
X2389733Y561503D01*
X2393711Y567457D01*
X2395108Y574480D01*
X2393711Y581503D01*
X2389733Y587457D01*
X2383779Y591436D01*
X2376755Y592833D01*
D02*
G37*
G36*
X2308755D02*
X2301732Y591436D01*
X2295778Y587457D01*
X2291800Y581503D01*
X2290403Y574480D01*
X2291800Y567457D01*
X2295778Y561503D01*
X2301732Y557524D01*
X2308755Y556127D01*
X2315779Y557524D01*
X2321733Y561503D01*
X2325711Y567457D01*
X2327108Y574480D01*
X2325711Y581503D01*
X2321733Y587457D01*
X2315779Y591436D01*
X2308755Y592833D01*
D02*
G37*
G36*
X2240755D02*
X2233732Y591436D01*
X2227778Y587457D01*
X2223800Y581503D01*
X2222403Y574480D01*
X2223800Y567457D01*
X2227778Y561503D01*
X2233732Y557524D01*
X2240755Y556127D01*
X2247779Y557524D01*
X2253733Y561503D01*
X2257711Y567457D01*
X2259108Y574480D01*
X2257711Y581503D01*
X2253733Y587457D01*
X2247779Y591436D01*
X2240755Y592833D01*
D02*
G37*
G36*
X2172755D02*
X2165732Y591436D01*
X2159778Y587457D01*
X2155800Y581503D01*
X2154403Y574480D01*
X2155800Y567457D01*
X2159778Y561503D01*
X2165732Y557524D01*
X2172755Y556127D01*
X2179779Y557524D01*
X2185733Y561503D01*
X2189711Y567457D01*
X2191108Y574480D01*
X2189711Y581503D01*
X2185733Y587457D01*
X2179779Y591436D01*
X2172755Y592833D01*
D02*
G37*
G36*
X2104755D02*
X2097732Y591436D01*
X2091778Y587457D01*
X2087800Y581503D01*
X2086403Y574480D01*
X2087800Y567457D01*
X2091778Y561503D01*
X2097732Y557524D01*
X2104755Y556127D01*
X2111779Y557524D01*
X2117733Y561503D01*
X2121711Y567457D01*
X2123108Y574480D01*
X2121711Y581503D01*
X2117733Y587457D01*
X2111779Y591436D01*
X2104755Y592833D01*
D02*
G37*
G36*
X2036755D02*
X2029732Y591436D01*
X2023778Y587457D01*
X2019800Y581503D01*
X2018403Y574480D01*
X2019800Y567457D01*
X2023778Y561503D01*
X2029732Y557524D01*
X2036755Y556127D01*
X2043779Y557524D01*
X2049733Y561503D01*
X2053711Y567457D01*
X2055108Y574480D01*
X2053711Y581503D01*
X2049733Y587457D01*
X2043779Y591436D01*
X2036755Y592833D01*
D02*
G37*
G36*
X1968755D02*
X1961732Y591436D01*
X1955778Y587457D01*
X1951800Y581503D01*
X1950403Y574480D01*
X1951800Y567457D01*
X1955778Y561503D01*
X1961732Y557524D01*
X1968755Y556127D01*
X1975779Y557524D01*
X1981733Y561503D01*
X1985711Y567457D01*
X1987108Y574480D01*
X1985711Y581503D01*
X1981733Y587457D01*
X1975779Y591436D01*
X1968755Y592833D01*
D02*
G37*
G36*
X1900755D02*
X1893732Y591436D01*
X1887778Y587457D01*
X1883800Y581503D01*
X1882403Y574480D01*
X1883800Y567457D01*
X1887778Y561503D01*
X1893732Y557524D01*
X1900755Y556127D01*
X1907779Y557524D01*
X1913733Y561503D01*
X1917711Y567457D01*
X1919108Y574480D01*
X1917711Y581503D01*
X1913733Y587457D01*
X1907779Y591436D01*
X1900755Y592833D01*
D02*
G37*
G36*
X1832755D02*
X1825732Y591436D01*
X1819778Y587457D01*
X1815800Y581503D01*
X1814403Y574480D01*
X1815800Y567457D01*
X1819778Y561503D01*
X1825732Y557524D01*
X1832755Y556127D01*
X1839779Y557524D01*
X1845733Y561503D01*
X1849711Y567457D01*
X1851108Y574480D01*
X1849711Y581503D01*
X1845733Y587457D01*
X1839779Y591436D01*
X1832755Y592833D01*
D02*
G37*
G36*
X1764755D02*
X1757732Y591436D01*
X1751778Y587457D01*
X1747800Y581503D01*
X1746403Y574480D01*
X1747800Y567457D01*
X1751778Y561503D01*
X1757732Y557524D01*
X1764755Y556127D01*
X1771779Y557524D01*
X1777733Y561503D01*
X1781711Y567457D01*
X1783108Y574480D01*
X1781711Y581503D01*
X1777733Y587457D01*
X1771779Y591436D01*
X1764755Y592833D01*
D02*
G37*
G36*
X1696755D02*
X1689732Y591436D01*
X1683778Y587457D01*
X1679800Y581503D01*
X1678403Y574480D01*
X1679800Y567457D01*
X1683778Y561503D01*
X1689732Y557524D01*
X1696755Y556127D01*
X1703779Y557524D01*
X1709733Y561503D01*
X1713711Y567457D01*
X1715108Y574480D01*
X1713711Y581503D01*
X1709733Y587457D01*
X1703779Y591436D01*
X1696755Y592833D01*
D02*
G37*
G36*
X1628755D02*
X1621732Y591436D01*
X1615778Y587457D01*
X1611800Y581503D01*
X1610403Y574480D01*
X1611800Y567457D01*
X1615778Y561503D01*
X1621732Y557524D01*
X1628755Y556127D01*
X1635779Y557524D01*
X1641733Y561503D01*
X1645711Y567457D01*
X1647108Y574480D01*
X1645711Y581503D01*
X1641733Y587457D01*
X1635779Y591436D01*
X1628755Y592833D01*
D02*
G37*
G36*
X1560755D02*
X1553732Y591436D01*
X1547778Y587457D01*
X1543800Y581503D01*
X1542403Y574480D01*
X1543800Y567457D01*
X1547778Y561503D01*
X1553732Y557524D01*
X1560755Y556127D01*
X1567779Y557524D01*
X1573733Y561503D01*
X1577711Y567457D01*
X1579108Y574480D01*
X1577711Y581503D01*
X1573733Y587457D01*
X1567779Y591436D01*
X1560755Y592833D01*
D02*
G37*
G36*
X1492755D02*
X1485732Y591436D01*
X1479778Y587457D01*
X1475800Y581503D01*
X1474403Y574480D01*
X1475800Y567457D01*
X1479778Y561503D01*
X1485732Y557524D01*
X1492755Y556127D01*
X1499779Y557524D01*
X1505733Y561503D01*
X1509711Y567457D01*
X1511108Y574480D01*
X1509711Y581503D01*
X1505733Y587457D01*
X1499779Y591436D01*
X1492755Y592833D01*
D02*
G37*
G36*
X1424755D02*
X1417732Y591436D01*
X1411778Y587457D01*
X1407800Y581503D01*
X1406403Y574480D01*
X1407800Y567457D01*
X1411778Y561503D01*
X1417732Y557524D01*
X1424755Y556127D01*
X1431779Y557524D01*
X1437733Y561503D01*
X1441711Y567457D01*
X1443108Y574480D01*
X1441711Y581503D01*
X1437733Y587457D01*
X1431779Y591436D01*
X1424755Y592833D01*
D02*
G37*
G36*
X1356755D02*
X1349732Y591436D01*
X1343778Y587457D01*
X1339800Y581503D01*
X1338403Y574480D01*
X1339800Y567457D01*
X1343778Y561503D01*
X1349732Y557524D01*
X1356755Y556127D01*
X1363779Y557524D01*
X1369733Y561503D01*
X1373711Y567457D01*
X1375108Y574480D01*
X1373711Y581503D01*
X1369733Y587457D01*
X1363779Y591436D01*
X1356755Y592833D01*
D02*
G37*
G36*
X1288755D02*
X1281732Y591436D01*
X1275778Y587457D01*
X1271800Y581503D01*
X1270403Y574480D01*
X1271800Y567457D01*
X1275778Y561503D01*
X1281732Y557524D01*
X1288755Y556127D01*
X1295779Y557524D01*
X1301733Y561503D01*
X1305711Y567457D01*
X1307108Y574480D01*
X1305711Y581503D01*
X1301733Y587457D01*
X1295779Y591436D01*
X1288755Y592833D01*
D02*
G37*
G36*
X1220755D02*
X1213732Y591436D01*
X1207778Y587457D01*
X1203800Y581503D01*
X1202403Y574480D01*
X1203800Y567457D01*
X1207778Y561503D01*
X1213732Y557524D01*
X1220755Y556127D01*
X1227779Y557524D01*
X1233733Y561503D01*
X1237711Y567457D01*
X1239108Y574480D01*
X1237711Y581503D01*
X1233733Y587457D01*
X1227779Y591436D01*
X1220755Y592833D01*
D02*
G37*
G36*
X1152755D02*
X1145732Y591436D01*
X1139778Y587457D01*
X1135800Y581503D01*
X1134403Y574480D01*
X1135800Y567457D01*
X1139778Y561503D01*
X1145732Y557524D01*
X1152755Y556127D01*
X1159779Y557524D01*
X1165733Y561503D01*
X1169711Y567457D01*
X1171108Y574480D01*
X1169711Y581503D01*
X1165733Y587457D01*
X1159779Y591436D01*
X1152755Y592833D01*
D02*
G37*
G36*
X1084755D02*
X1077732Y591436D01*
X1071778Y587457D01*
X1067800Y581503D01*
X1066403Y574480D01*
X1067800Y567457D01*
X1071778Y561503D01*
X1077732Y557524D01*
X1084755Y556127D01*
X1091779Y557524D01*
X1097733Y561503D01*
X1101711Y567457D01*
X1103108Y574480D01*
X1101711Y581503D01*
X1097733Y587457D01*
X1091779Y591436D01*
X1084755Y592833D01*
D02*
G37*
G36*
X1016755D02*
X1009732Y591436D01*
X1003778Y587457D01*
X999800Y581503D01*
X998403Y574480D01*
X999800Y567457D01*
X1003778Y561503D01*
X1009732Y557524D01*
X1016755Y556127D01*
X1023779Y557524D01*
X1029733Y561503D01*
X1033711Y567457D01*
X1035108Y574480D01*
X1033711Y581503D01*
X1029733Y587457D01*
X1023779Y591436D01*
X1016755Y592833D01*
D02*
G37*
G36*
X948755D02*
X941732Y591436D01*
X935778Y587457D01*
X931800Y581503D01*
X930403Y574480D01*
X931800Y567457D01*
X935778Y561503D01*
X941732Y557524D01*
X948755Y556127D01*
X955779Y557524D01*
X961733Y561503D01*
X965711Y567457D01*
X967108Y574480D01*
X965711Y581503D01*
X961733Y587457D01*
X955779Y591436D01*
X948755Y592833D01*
D02*
G37*
G36*
X882537Y577367D02*
X875514Y575970D01*
X869560Y571992D01*
X865582Y566038D01*
X864185Y559014D01*
X865582Y551991D01*
X869560Y546037D01*
X875514Y542059D01*
X882537Y540662D01*
X889561Y542059D01*
X895515Y546037D01*
X899493Y551991D01*
X900890Y559014D01*
X899493Y566038D01*
X895515Y571992D01*
X889561Y575970D01*
X882537Y577367D01*
D02*
G37*
G36*
X651575Y549841D02*
X644552Y548444D01*
X638598Y544466D01*
X634619Y538512D01*
X633222Y531489D01*
X634619Y524465D01*
X638598Y518511D01*
X644552Y514533D01*
X651575Y513136D01*
X658598Y514533D01*
X664552Y518511D01*
X668530Y524465D01*
X669927Y531489D01*
X668530Y538512D01*
X664552Y544466D01*
X658598Y548444D01*
X651575Y549841D01*
D02*
G37*
G36*
X2139764Y533116D02*
X2132741Y531719D01*
X2128535Y528910D01*
X1807087D01*
X1801673Y527833D01*
X1797084Y524766D01*
X1717425Y445108D01*
X1712465Y444121D01*
X1706511Y440142D01*
X1702532Y434188D01*
X1701135Y427165D01*
X1702532Y420142D01*
X1706511Y414188D01*
X1712465Y410210D01*
X1719488Y408813D01*
X1726511Y410210D01*
X1732465Y414188D01*
X1736444Y420142D01*
X1737430Y425102D01*
X1812946Y500618D01*
X1996725D01*
X2001001Y492618D01*
X2000761Y492259D01*
X1999364Y485236D01*
X2000761Y478213D01*
X2004739Y472259D01*
X2009852Y468843D01*
X2010302Y464567D01*
X2009852Y460291D01*
X2004739Y456875D01*
X2000761Y450921D01*
X1999364Y443898D01*
X2000761Y436874D01*
X2004739Y430920D01*
X2010693Y426942D01*
X2017717Y425545D01*
X2024740Y426942D01*
X2030694Y430920D01*
X2034672Y436874D01*
X2036069Y443898D01*
X2034672Y450921D01*
X2030694Y456875D01*
X2025581Y460291D01*
X2025131Y464567D01*
X2025581Y468843D01*
X2030694Y472259D01*
X2034672Y478213D01*
X2036069Y485236D01*
X2034672Y492259D01*
X2034432Y492618D01*
X2038708Y500618D01*
X2128535D01*
X2132741Y497808D01*
X2139764Y496411D01*
X2146787Y497808D01*
X2152741Y501787D01*
X2156719Y507741D01*
X2158116Y514764D01*
X2156719Y521787D01*
X2152741Y527741D01*
X2146787Y531719D01*
X2139764Y533116D01*
D02*
G37*
G36*
X2643702Y465203D02*
X2636678Y463806D01*
X2630724Y459828D01*
X2626746Y453874D01*
X2625349Y446851D01*
X2626746Y439827D01*
X2630724Y433873D01*
X2636678Y429895D01*
X2643702Y428498D01*
X2650725Y429895D01*
X2656679Y433873D01*
X2660657Y439827D01*
X2662054Y446851D01*
X2660657Y453874D01*
X2656679Y459828D01*
X2650725Y463806D01*
X2643702Y465203D01*
D02*
G37*
G36*
X1679134D02*
X1672111Y463806D01*
X1666157Y459828D01*
X1662179Y453874D01*
X1660782Y446851D01*
X1662179Y439827D01*
X1666157Y433873D01*
X1672111Y429895D01*
X1679134Y428498D01*
X1686158Y429895D01*
X1692112Y433873D01*
X1696090Y439827D01*
X1697487Y446851D01*
X1696090Y453874D01*
X1692112Y459828D01*
X1686158Y463806D01*
X1679134Y465203D01*
D02*
G37*
G36*
X1127953D02*
X1120930Y463806D01*
X1114976Y459828D01*
X1110998Y453874D01*
X1109601Y446851D01*
X1110998Y439827D01*
X1114976Y433873D01*
X1120930Y429895D01*
X1127953Y428498D01*
X1134976Y429895D01*
X1140930Y433873D01*
X1144909Y439827D01*
X1146306Y446851D01*
X1144909Y453874D01*
X1140930Y459828D01*
X1134976Y463806D01*
X1127953Y465203D01*
D02*
G37*
G36*
X1202756Y446502D02*
X1195733Y445105D01*
X1189779Y441127D01*
X1185800Y435173D01*
X1184403Y428150D01*
X1185800Y421126D01*
X1189779Y415172D01*
X1195733Y411194D01*
X1202756Y409797D01*
X1209779Y411194D01*
X1215733Y415172D01*
X1219711Y421126D01*
X1221109Y428150D01*
X1219711Y435173D01*
X1215733Y441127D01*
X1209779Y445105D01*
X1202756Y446502D01*
D02*
G37*
G36*
X1599410Y374258D02*
X1592386Y372861D01*
X1586432Y368883D01*
X1582859D01*
X1576905Y372861D01*
X1569882Y374258D01*
X1562859Y372861D01*
X1556905Y368883D01*
X1553332D01*
X1547378Y372861D01*
X1540354Y374258D01*
X1533331Y372861D01*
X1527377Y368883D01*
X1523804D01*
X1517850Y372861D01*
X1510827Y374258D01*
X1503804Y372861D01*
X1497850Y368883D01*
X1493871Y362929D01*
X1492474Y355906D01*
X1493871Y348882D01*
X1497850Y342928D01*
X1503804Y338950D01*
X1510827Y337553D01*
X1517850Y338950D01*
X1523804Y342928D01*
X1527377D01*
X1533331Y338950D01*
X1540354Y337553D01*
X1547378Y338950D01*
X1553332Y342928D01*
X1556905D01*
X1562859Y338950D01*
X1569882Y337553D01*
X1576905Y338950D01*
X1582859Y342928D01*
X1586432D01*
X1592386Y338950D01*
X1599410Y337553D01*
X1606433Y338950D01*
X1612387Y342928D01*
X1616365Y348882D01*
X1617762Y355906D01*
X1616365Y362929D01*
X1612387Y368883D01*
X1606433Y372861D01*
X1599410Y374258D01*
D02*
G37*
G36*
X1887795Y415006D02*
X1880772Y413609D01*
X1874818Y409631D01*
X1870840Y403677D01*
X1869443Y396654D01*
X1870840Y389630D01*
X1874818Y383676D01*
X1879930Y380260D01*
X1880381Y375984D01*
X1879930Y371709D01*
X1874818Y368292D01*
X1870840Y362338D01*
X1869443Y355315D01*
X1870840Y348292D01*
X1874818Y342338D01*
X1880772Y338360D01*
X1887795Y336963D01*
X1894818Y338360D01*
X1900772Y342338D01*
X1904751Y348292D01*
X1906148Y355315D01*
X1904751Y362338D01*
X1900772Y368292D01*
X1895660Y371709D01*
X1895209Y375984D01*
X1895660Y380260D01*
X1900772Y383676D01*
X1904751Y389630D01*
X1906148Y396654D01*
X1904751Y403677D01*
X1900772Y409631D01*
X1894818Y413609D01*
X1887795Y415006D01*
D02*
G37*
G36*
X1803150Y415006D02*
X1796127Y413609D01*
X1790172Y409630D01*
X1786194Y403676D01*
X1784797Y396653D01*
X1786194Y389630D01*
X1790172Y383676D01*
X1795285Y380260D01*
X1795735Y375984D01*
X1795285Y371708D01*
X1790172Y368292D01*
X1786194Y362338D01*
X1784797Y355315D01*
X1786194Y348292D01*
X1790172Y342338D01*
X1796127Y338359D01*
X1803150Y336962D01*
X1810173Y338359D01*
X1816127Y342338D01*
X1820105Y348292D01*
X1821502Y355315D01*
X1820105Y362338D01*
X1816127Y368292D01*
X1811014Y371708D01*
X1810564Y375984D01*
X1811014Y380260D01*
X1816127Y383676D01*
X1820105Y389630D01*
X1821502Y396653D01*
X1820105Y403676D01*
X1816127Y409630D01*
X1810173Y413609D01*
X1803150Y415006D01*
D02*
G37*
G36*
X2030512Y361856D02*
X2023489Y360459D01*
X2017535Y356481D01*
X2013556Y350527D01*
X2012159Y343504D01*
X2013556Y336481D01*
X2017535Y330527D01*
X2023489Y326548D01*
X2030512Y325151D01*
X2037535Y326548D01*
X2043489Y330527D01*
X2047467Y336481D01*
X2048864Y343504D01*
X2047467Y350527D01*
X2043489Y356481D01*
X2037535Y360459D01*
X2030512Y361856D01*
D02*
G37*
G36*
X2850394Y327408D02*
X2843371Y326011D01*
X2837417Y322033D01*
X2833439Y316079D01*
X2832042Y309055D01*
X2833439Y302032D01*
X2837417Y296078D01*
X2843371Y292100D01*
X2850394Y290703D01*
X2857418Y292100D01*
X2863372Y296078D01*
X2867350Y302032D01*
X2868747Y309055D01*
X2867350Y316079D01*
X2863372Y322033D01*
X2857418Y326011D01*
X2850394Y327408D01*
D02*
G37*
G36*
X2712599D02*
X2705576Y326011D01*
X2699622Y322033D01*
X2695644Y316079D01*
X2694247Y309055D01*
X2695644Y302032D01*
X2699622Y296078D01*
X2705576Y292100D01*
X2712599Y290703D01*
X2719622Y292100D01*
X2725576Y296078D01*
X2729555Y302032D01*
X2730952Y309055D01*
X2729555Y316079D01*
X2725576Y322033D01*
X2719622Y326011D01*
X2712599Y327408D01*
D02*
G37*
G36*
X2505906Y465203D02*
X2498883Y463806D01*
X2492929Y459828D01*
X2488951Y453874D01*
X2487554Y446851D01*
X2488951Y439827D01*
X2490141Y438046D01*
X2487812Y428487D01*
X2487710Y428380D01*
X2481527Y425819D01*
X2471021Y417758D01*
X2462960Y407252D01*
X2457893Y395019D01*
X2456164Y381890D01*
X2457893Y368761D01*
X2462960Y356527D01*
X2471021Y346022D01*
X2481527Y337960D01*
X2493761Y332893D01*
X2506890Y331164D01*
X2561094D01*
X2563521Y323164D01*
X2561827Y322033D01*
X2557848Y316079D01*
X2556451Y309055D01*
X2557848Y302032D01*
X2561827Y296078D01*
X2567781Y292100D01*
X2574804Y290703D01*
X2581827Y292100D01*
X2587781Y296078D01*
X2591760Y302032D01*
X2593157Y309055D01*
X2591760Y316079D01*
X2587781Y322033D01*
X2586087Y323164D01*
X2588514Y331164D01*
X2595472D01*
X2608601Y332893D01*
X2620835Y337960D01*
X2631341Y346022D01*
X2639402Y356527D01*
X2644469Y368761D01*
X2646198Y381890D01*
X2644469Y395019D01*
X2639402Y407252D01*
X2631341Y417758D01*
X2620835Y425819D01*
X2608601Y430887D01*
X2595472Y432615D01*
X2527664D01*
X2523278Y439203D01*
X2523019Y440615D01*
X2524259Y446851D01*
X2522862Y453874D01*
X2518883Y459828D01*
X2512929Y463806D01*
X2505906Y465203D01*
D02*
G37*
G36*
X1610237Y327408D02*
X1603214Y326011D01*
X1597260Y322033D01*
X1593281Y316079D01*
X1591884Y309055D01*
X1593281Y302032D01*
X1597260Y296078D01*
X1603214Y292100D01*
X1610237Y290703D01*
X1617260Y292100D01*
X1623214Y296078D01*
X1627192Y302032D01*
X1628589Y309055D01*
X1627192Y316079D01*
X1623214Y322033D01*
X1617260Y326011D01*
X1610237Y327408D01*
D02*
G37*
G36*
X1472441D02*
X1465418Y326011D01*
X1459464Y322033D01*
X1455486Y316079D01*
X1454089Y309055D01*
X1455486Y302032D01*
X1459464Y296078D01*
X1465418Y292100D01*
X1472441Y290703D01*
X1479465Y292100D01*
X1485419Y296078D01*
X1489397Y302032D01*
X1490794Y309055D01*
X1489397Y316079D01*
X1485419Y322033D01*
X1479465Y326011D01*
X1472441Y327408D01*
D02*
G37*
G36*
X1334646D02*
X1327623Y326011D01*
X1321669Y322033D01*
X1317691Y316079D01*
X1316294Y309055D01*
X1317691Y302032D01*
X1321669Y296078D01*
X1327623Y292100D01*
X1334646Y290703D01*
X1341669Y292100D01*
X1347623Y296078D01*
X1351602Y302032D01*
X1352999Y309055D01*
X1351602Y316079D01*
X1347623Y322033D01*
X1341669Y326011D01*
X1334646Y327408D01*
D02*
G37*
G36*
X784449Y451423D02*
X777426Y450026D01*
X771472Y446048D01*
X767493Y440094D01*
X766096Y433071D01*
X767493Y426048D01*
X771472Y420094D01*
X774859Y417830D01*
X775030Y417351D01*
Y409421D01*
X774859Y408941D01*
X771472Y406678D01*
X767493Y400724D01*
X766096Y393701D01*
X767493Y386678D01*
X771472Y380724D01*
X774859Y378460D01*
X775030Y377981D01*
Y370051D01*
X774859Y369571D01*
X771472Y367308D01*
X767493Y361354D01*
X766096Y354331D01*
X767493Y347308D01*
X771472Y341353D01*
X777426Y337375D01*
X784449Y335978D01*
X791472Y337375D01*
X797426Y341353D01*
X801404Y347308D01*
X802801Y354331D01*
X801404Y361354D01*
X797426Y367308D01*
X794039Y369571D01*
X793867Y370051D01*
Y377981D01*
X794039Y378460D01*
X797426Y380724D01*
X801404Y386678D01*
X802801Y393701D01*
X801404Y400724D01*
X797426Y406678D01*
X794039Y408941D01*
X793867Y409421D01*
Y417351D01*
X794039Y417830D01*
X797426Y420094D01*
X801404Y426048D01*
X802801Y433071D01*
X801404Y440094D01*
X797426Y446048D01*
X791472Y450026D01*
X784449Y451423D01*
D02*
G37*
G36*
X645670Y327408D02*
X638646Y326011D01*
X632692Y322033D01*
X628714Y316079D01*
X627317Y309055D01*
X628714Y302032D01*
X632692Y296078D01*
X638646Y292100D01*
X645670Y290703D01*
X652693Y292100D01*
X658647Y296078D01*
X662625Y302032D01*
X664022Y309055D01*
X662625Y316079D01*
X658647Y322033D01*
X652693Y326011D01*
X645670Y327408D01*
D02*
G37*
G36*
X1378937Y262841D02*
X1371914Y261444D01*
X1365960Y257465D01*
X1362387D01*
X1356433Y261444D01*
X1349410Y262841D01*
X1342386Y261444D01*
X1336432Y257465D01*
X1332859D01*
X1326905Y261444D01*
X1319882Y262841D01*
X1312859Y261444D01*
X1306905Y257465D01*
X1303332D01*
X1297378Y261444D01*
X1290354Y262841D01*
X1283331Y261444D01*
X1277377Y257465D01*
X1273399Y251511D01*
X1272002Y244488D01*
X1273399Y237465D01*
X1277377Y231511D01*
X1283331Y227532D01*
X1290354Y226136D01*
X1297378Y227532D01*
X1303332Y231511D01*
X1306905D01*
X1312859Y227532D01*
X1319882Y226136D01*
X1326905Y227532D01*
X1332859Y231511D01*
X1336432D01*
X1342386Y227532D01*
X1349410Y226136D01*
X1356433Y227532D01*
X1362387Y231511D01*
X1365960D01*
X1371914Y227532D01*
X1378937Y226136D01*
X1385960Y227532D01*
X1391914Y231511D01*
X1395893Y237465D01*
X1397290Y244488D01*
X1395893Y251511D01*
X1391914Y257465D01*
X1385960Y261444D01*
X1378937Y262841D01*
D02*
G37*
G36*
X1681102Y257526D02*
X1674079Y256129D01*
X1668125Y252150D01*
X1664147Y246196D01*
X1662750Y239173D01*
X1664147Y232150D01*
X1668125Y226196D01*
X1674079Y222218D01*
X1681102Y220821D01*
X1688126Y222218D01*
X1694080Y226196D01*
X1698058Y232150D01*
X1699455Y239173D01*
X1698058Y246196D01*
X1694080Y252150D01*
X1688126Y256129D01*
X1681102Y257526D01*
D02*
G37*
G36*
X1152559Y232920D02*
X1145536Y231523D01*
X1139582Y227544D01*
X1135603Y221590D01*
X1134207Y214567D01*
X1135603Y207544D01*
X1139582Y201590D01*
X1145536Y197611D01*
X1152559Y196214D01*
X1159582Y197611D01*
X1165536Y201590D01*
X1169515Y207544D01*
X1170912Y214567D01*
X1169515Y221590D01*
X1165536Y227544D01*
X1159582Y231523D01*
X1152559Y232920D01*
D02*
G37*
G36*
X2919292Y189613D02*
X2912269Y188216D01*
X2906315Y184237D01*
X2902336Y178283D01*
X2900939Y171260D01*
X2902336Y164237D01*
X2906315Y158283D01*
X2912269Y154304D01*
X2919292Y152907D01*
X2926315Y154304D01*
X2932269Y158283D01*
X2936248Y164237D01*
X2937645Y171260D01*
X2936248Y178283D01*
X2932269Y184237D01*
X2926315Y188216D01*
X2919292Y189613D01*
D02*
G37*
G36*
X2781497D02*
X2774474Y188216D01*
X2768520Y184237D01*
X2764541Y178283D01*
X2763144Y171260D01*
X2764541Y164237D01*
X2768520Y158283D01*
X2774474Y154304D01*
X2781497Y152907D01*
X2788520Y154304D01*
X2794474Y158283D01*
X2798452Y164237D01*
X2799849Y171260D01*
X2798452Y178283D01*
X2794474Y184237D01*
X2788520Y188216D01*
X2781497Y189613D01*
D02*
G37*
G36*
X1403544D02*
X1396521Y188216D01*
X1390567Y184237D01*
X1386588Y178283D01*
X1385191Y171260D01*
X1386588Y164237D01*
X1390567Y158283D01*
X1396521Y154304D01*
X1403544Y152907D01*
X1410567Y154304D01*
X1416521Y158283D01*
X1420499Y164237D01*
X1421896Y171260D01*
X1420499Y178283D01*
X1416521Y184237D01*
X1410567Y188216D01*
X1403544Y189613D01*
D02*
G37*
G36*
X1265748D02*
X1258725Y188216D01*
X1252771Y184237D01*
X1248793Y178283D01*
X1247396Y171260D01*
X1248793Y164237D01*
X1252771Y158283D01*
X1258725Y154304D01*
X1265748Y152907D01*
X1272772Y154304D01*
X1278726Y158283D01*
X1282704Y164237D01*
X1284101Y171260D01*
X1282704Y178283D01*
X1278726Y184237D01*
X1272772Y188216D01*
X1265748Y189613D01*
D02*
G37*
G36*
X1127953D02*
X1120930Y188216D01*
X1114976Y184237D01*
X1110998Y178283D01*
X1109601Y171260D01*
X1110998Y164237D01*
X1114976Y158283D01*
X1120930Y154304D01*
X1127953Y152907D01*
X1134976Y154304D01*
X1140930Y158283D01*
X1144909Y164237D01*
X1146306Y171260D01*
X1144909Y178283D01*
X1140930Y184237D01*
X1134976Y188216D01*
X1127953Y189613D01*
D02*
G37*
G36*
X990158D02*
X983135Y188216D01*
X977181Y184237D01*
X973202Y178283D01*
X971805Y171260D01*
X973202Y164237D01*
X977181Y158283D01*
X983135Y154304D01*
X990158Y152907D01*
X997181Y154304D01*
X1003135Y158283D01*
X1007114Y164237D01*
X1008510Y171260D01*
X1007114Y178283D01*
X1003135Y184237D01*
X997181Y188216D01*
X990158Y189613D01*
D02*
G37*
G36*
X714567D02*
X707544Y188216D01*
X701590Y184237D01*
X697612Y178283D01*
X696215Y171260D01*
X697612Y164237D01*
X701590Y158283D01*
X707544Y154304D01*
X714567Y152907D01*
X721591Y154304D01*
X727544Y158283D01*
X731523Y164237D01*
X732920Y171260D01*
X731523Y178283D01*
X727544Y184237D01*
X721591Y188216D01*
X714567Y189613D01*
D02*
G37*
G36*
X973425Y127605D02*
X966402Y126208D01*
X960448Y122229D01*
X956470Y116275D01*
X955072Y109252D01*
X956470Y102229D01*
X960448Y96275D01*
X966402Y92296D01*
X973425Y90899D01*
X980448Y92296D01*
X986402Y96275D01*
X990381Y102229D01*
X991778Y109252D01*
X990381Y116275D01*
X986402Y122229D01*
X980448Y126208D01*
X973425Y127605D01*
D02*
G37*
%LPD*%
D11*
X786585Y473740D02*
X886496D01*
X940945Y419291D01*
X312697Y437303D02*
X491437Y258563D01*
X715846D01*
D37*
X593819Y473740D02*
X786585D01*
D38*
X1807087Y514764D02*
X2139764D01*
X1719488Y427165D02*
X1807087Y514764D01*
X1719772Y67630D02*
X2151291D01*
X1719488Y67914D02*
X1719772Y67630D01*
X2151291D02*
X2197835Y114173D01*
D44*
X2551181Y381890D02*
D03*
D45*
X2669291Y196850D02*
D03*
D46*
X2433071D02*
D03*
D47*
X1118110Y717520D02*
D03*
X2139764Y514764D02*
D03*
X1719488Y427165D02*
D03*
X2143701Y309055D02*
D03*
X2030512Y343504D02*
D03*
X1887795Y355315D02*
D03*
X1719488Y67914D02*
D03*
X1887795Y140748D02*
D03*
X1803150Y140748D02*
D03*
Y99409D02*
D03*
X1887795Y99410D02*
D03*
X2197835Y114173D02*
D03*
X2017717Y443898D02*
D03*
Y485236D02*
D03*
X2035433Y93504D02*
D03*
Y134842D02*
D03*
X1822835Y248106D02*
D03*
X1868110Y248032D02*
D03*
X1599409Y244488D02*
D03*
X1569882D02*
D03*
X1540354D02*
D03*
X1510827D02*
D03*
X1378937Y355906D02*
D03*
X1349410D02*
D03*
X1319882D02*
D03*
X1290354D02*
D03*
X1510827D02*
D03*
X1540354D02*
D03*
X1569882D02*
D03*
X1599410D02*
D03*
X1290354Y244488D02*
D03*
X1319882D02*
D03*
X1349410D02*
D03*
X1378937D02*
D03*
X1887795Y396654D02*
D03*
X1803150Y355315D02*
D03*
Y396653D02*
D03*
X2964460Y630244D02*
D03*
X2896460D02*
D03*
X2828460D02*
D03*
X2920755Y574480D02*
D03*
X2852755D02*
D03*
X2784755D02*
D03*
X841403Y597619D02*
D03*
X882537Y559014D02*
D03*
X948755Y574480D02*
D03*
X1016755D02*
D03*
X1084755D02*
D03*
X1152755D02*
D03*
X1220755D02*
D03*
X1288755D02*
D03*
X1356755D02*
D03*
X1424755D02*
D03*
X1492755D02*
D03*
X1560755D02*
D03*
X1628755D02*
D03*
X1696755D02*
D03*
X1764755D02*
D03*
X1832755D02*
D03*
X1900755D02*
D03*
X1968755D02*
D03*
X2036755D02*
D03*
X2104755D02*
D03*
X2172755D02*
D03*
X2240755D02*
D03*
X2308755D02*
D03*
X2376755D02*
D03*
X2444755D02*
D03*
X2512755D02*
D03*
X2580755D02*
D03*
X2648755D02*
D03*
X2716755D02*
D03*
X2760460Y630244D02*
D03*
X2692460D02*
D03*
X2624460D02*
D03*
X2556460D02*
D03*
X2488460D02*
D03*
X2420460D02*
D03*
X2352460D02*
D03*
X2284460D02*
D03*
X2216460D02*
D03*
X2148460D02*
D03*
X2080460D02*
D03*
X2012460D02*
D03*
X1944460D02*
D03*
X1876460D02*
D03*
X1808460D02*
D03*
X1740460D02*
D03*
X1672460D02*
D03*
X1604460D02*
D03*
X1536460D02*
D03*
X1468460D02*
D03*
X1400460D02*
D03*
X1332460D02*
D03*
X1264460D02*
D03*
X1196460D02*
D03*
X1128460D02*
D03*
X1060460D02*
D03*
X992460D02*
D03*
X924460D02*
D03*
X2850394Y309055D02*
D03*
X2919292Y171260D02*
D03*
X2850394Y33465D02*
D03*
X2712599Y309055D02*
D03*
X2781497Y171260D02*
D03*
X2712599Y33465D02*
D03*
X2643702Y446851D02*
D03*
X2574804Y309055D02*
D03*
Y33465D02*
D03*
X2505906Y446851D02*
D03*
X2437009Y33465D02*
D03*
X2299213D02*
D03*
X2023623D02*
D03*
X1885827D02*
D03*
X1748032D02*
D03*
X1679134Y446851D02*
D03*
X1610237Y309055D02*
D03*
Y33465D02*
D03*
X1472441Y309055D02*
D03*
Y33465D02*
D03*
X1334646Y309055D02*
D03*
X1403544Y171260D02*
D03*
X1334646Y33465D02*
D03*
X1265748Y171260D02*
D03*
X1196851Y33465D02*
D03*
X1127953Y446851D02*
D03*
Y171260D02*
D03*
X1059056Y33465D02*
D03*
X990158Y171260D02*
D03*
X921260Y33465D02*
D03*
X783465Y584646D02*
D03*
X645670Y309055D02*
D03*
X714567Y171260D02*
D03*
X507874Y309055D02*
D03*
X576772Y171260D02*
D03*
X1681102Y239173D02*
D03*
X2143701Y269685D02*
D03*
X784449Y393701D02*
D03*
Y354331D02*
D03*
X940945Y419291D02*
D03*
X1202756Y428150D02*
D03*
X750315Y748031D02*
D03*
X789685D02*
D03*
X677854Y203740D02*
D03*
X649606Y232284D02*
D03*
X1987205Y152559D02*
D03*
X1943898D02*
D03*
X1987205Y343504D02*
D03*
X1943898D02*
D03*
X1152559Y361221D02*
D03*
X1189961Y323819D02*
D03*
X827756Y109252D02*
D03*
X866142Y71850D02*
D03*
X937008D02*
D03*
X973425Y109252D02*
D03*
X354331Y433071D02*
D03*
X472441D02*
D03*
X433071D02*
D03*
X393701D02*
D03*
X316100Y396499D02*
D03*
X343938Y368660D02*
D03*
X371777Y340821D02*
D03*
X399616Y312982D02*
D03*
X427455Y285143D02*
D03*
X455294Y257305D02*
D03*
X483133Y229466D02*
D03*
X510972Y201627D02*
D03*
X538811Y173788D02*
D03*
X566649Y145949D02*
D03*
X1152559Y214567D02*
D03*
X1189961Y252953D02*
D03*
X980315Y462599D02*
D03*
Y505906D02*
D03*
X651575Y531489D02*
D03*
X715846Y258563D02*
D03*
X312697Y437303D02*
D03*
X629921Y708661D02*
D03*
X708661Y748032D02*
D03*
X669291D02*
D03*
X629921D02*
D03*
X590551D02*
D03*
X511811Y354331D02*
D03*
X551181Y590551D02*
D03*
Y472441D02*
D03*
X688976Y393701D02*
D03*
Y354331D02*
D03*
X614173Y433071D02*
D03*
Y393701D02*
D03*
X649606Y354331D02*
D03*
X614173D02*
D03*
X551181Y748031D02*
D03*
X511811Y590551D02*
D03*
X673228Y702756D02*
D03*
X593819Y473740D02*
D03*
X791339Y39370D02*
D03*
Y78740D02*
D03*
Y118110D02*
D03*
X751968D02*
D03*
X712598D02*
D03*
X673228D02*
D03*
X633858D02*
D03*
X511811Y472441D02*
D03*
Y393701D02*
D03*
Y433071D02*
D03*
X594488Y118110D02*
D03*
X511811Y629921D02*
D03*
Y669291D02*
D03*
X350689Y582677D02*
D03*
X789685Y669291D02*
D03*
X511811Y748031D02*
D03*
X784449Y433071D02*
D03*
X511811Y708661D02*
D03*
X789685Y629921D02*
D03*
Y708661D02*
D03*
%TF.MD5,397dd68f83a11f0b958c21d5ccb180c2*%
M02*
