M48
;Layer_Color=9474304
;FILE_FORMAT=2:5
INCH,LZ
;TYPE=PLATED
T1F00S00C0.01000
%
T01
X0033241Y0034082
X0036025Y0031298
X0038809Y0028514
X0041592Y002573
X0044376Y0022947
X004716Y0020163
X0049944Y0017379
X0052728Y0014595
X0050787Y0030906
X0051181Y0035433
X0059252Y0031791
X0062205
X0065158
X006811
X0071063
X0071585Y0025856
X0071457Y0017126
X007126Y0011811
X0067323
X0063386
X0059449
X0055512
X0057677Y0017126
X0067785Y0020374
X0064961Y0023228
X0075197Y0011811
Y0007874
Y0003937
X0082776Y0010925
X0086614Y0007185
X0093701
X0092126Y0003347
X0097342Y0010925
X0099016Y0017126
X0112795
X0115256Y0021457
X0118996Y0025295
Y0032382
X0115256Y0036122
X0129035Y0035591
X0131988
X0134941
X0137894
X0133465Y0030906
X0134941Y0024449
X0131988
X0129035
X0137894
X0140354Y0017126
X0126575
X0119685Y0003347
X0133465
X0147244
X0161024
X0174803
X0171949Y0006791
X0180315Y0009941
Y0014075
X0188779Y0014075
Y0009941
X0188583Y0003347
X0202362
X0203543Y000935
Y0013484
X0198721Y0011811
X0198721Y0015256
X019439
X019439Y0011811
X0186811Y0024803
X0182283Y0024811
X0180315Y0035531
X0188779Y0035531
X019439Y003435
X0198721
X0203051
X0159941Y0035591
X0156988
X0154035
X0151083
X0147244Y0030906
X0151083Y0024449
X0154035
X0156988
X0159941
X0161024Y0030906
X016811Y0023917
X0105906Y0003347
X0078445Y0035433
X021437Y0030906
Y0026969
X0219783Y0011417
X0229921Y0003347
X0243701
X025748
X027126
X0285039
X0291929Y0017126
X027815
X027126Y0030906
X0285039
X025748
X026437Y0044685
X0250591
X0250739Y0057611
X0244739
X0238739
X0232739
X0226739
X0220739
X0214739
X0213976Y0051476
X0212458Y0062862
X0218458
X0224458
X0230458
X0236458
X0242458
X0248458
X0254458
X0260458
X0266458
X0272458
X0274739Y0057611
X0268739
X0262739
X0256739
X0281713Y0056835
X0286713
X0291713
X0296713
Y0063636
X0291713
X0286713
X0281713
X0206458Y0062862
X0200458
X0194458
X0188458
X0182458
X0176458
X0170458
X0164458
X0158458
X0152458
X0146458
X0140458
X0134458
X0128458
X0122458
X0116458
X0110458
X0104458
X0098458
X0092458
X0094739Y0057611
X0100739
X0106739
X0112739
X0118739
X0124739
X0130739
X0136739
X0142739
X0148739
X0154739
X0160739
X0166739
X0172739
X0178739
X0184739
X0190739
X0196739
X0202739
X0208739
X0201772Y0048524
Y004439
X0198721Y0037795
X019439
X0188779Y0039665
X0180315Y0039665
X0171949Y0042717
X0167913Y0044685
X0120276Y0042815
X0112795Y0044685
X0098032Y004626
Y0050591
X0094095Y0041929
X0078445Y0043307
Y003937
X0078347Y0058465
X0078969Y0062992
Y0066929
Y0070866
Y0074803
X0075032
X0071063Y0074803
X006811
X0065158
X0062205
X0059252
X0067323Y0070276
X0065158Y0053149
X0059382Y0047374
X0083415Y0058782
X0088831Y0056567
X0111811Y0071752
X0055118Y0074803
X0051181
Y0070866
Y0066929
Y0062992
Y0059055
X0055118
Y0047244
X0051181Y0047244
Y0043307
Y003937
X0047244Y0043307
X0043307
X003937
X0035433
X003127Y004373
X0030457Y0036866
X0035069Y0058268
X0035433Y0066929
X003937
X0043307
X0047244
M30
