M48
;Layer_Color=9474304
;FILE_FORMAT=2:5
INCH,LZ
;TYPE=PLATED
T1F00S00C0.01000
%
T01
X0037178Y0034082
X0039962Y0031298
X0042746Y0028514
X0045529Y002573
X0048313Y0022947
X0051097Y0020163
X0053881Y0017379
X0050787Y0030906
X0051181Y0035433
X0061417Y0035433
X0064961
X0068898
X0064567Y0030906
X0064961Y0023228
X0067785Y0020374
X0071457Y0017126
X007126Y0011811
X0067323
X0063386
X0059449
X0056665Y0014595
X0057677Y0017126
X0071585Y0025856
X0078445Y0035433
X0079134Y0011811
Y0007874
Y0003937
X0082776Y0010925
X0086614Y0007185
X0093701
X0092126Y0003347
X0097342Y0010925
X0099016Y0017126
X0112795
X0115256Y0021457
X0118996Y0025295
Y0032382
X0115256Y0036122
X0129035Y0035591
X0131988
X0134941
X0137894
X0133465Y0030906
X0134941Y0024449
X0131988
X0129035
X0137894
X0140354Y0017126
X0126575
X0119685Y0003347
X0133465
X0147244
X0161024
X0174803
X0171949Y0006791
X0180315Y0009941
Y0014075
X0188779Y0014075
Y0009941
X0188583Y0003347
X0202362
X0203543Y000935
Y0013484
X0198721Y0015256
X019439
X0186811Y0024803
X0182283Y0024811
X0180315Y0035531
X0188779Y0035531
X019439Y003435
X0198721
X0203051
X0159941Y0035591
X0156988
X0154035
X0151083
X0147244Y0030906
X0151083Y0024449
X0154035
X0156988
X0159941
X0161024Y0030906
X016811Y0023917
X0105906Y0003347
X0075197Y0011811
X0219783Y0011417
X0229921Y0003347
X0243701
X025748
X027126
X0285039
X0291929Y0017126
X027815
X027126Y0030906
X0285039
X025748
X021437Y0030906
Y0026969
X0213976Y0051476
X0217276Y0057448
X0224076
X0230875
X0237675
X0244476
X0251275
X0258075
X0264876
X0271675
X0278475
X0285276
X0292075
X0289646Y0063024
X0296446
X0282846
X0276046
X0269246
X0262446
X0255646
X0248846
X0242046
X0235246
X0228446
X0221646
X0214846
X0250591Y0044685
X026437
X0201772Y004439
Y0048524
X0203676Y0057448
X0196876
X0190076
X0183275
X0176476
X0169676
X0162875
X0156076
X0149276
X0142475
X0135676
X0128876
X0122075
X0115276
X0108475
X0101675
X0094876
X0092446Y0063024
X0099246
X0106046
X0112846
X0119646
X0126446
X0133246
X0140046
X0146846
X0153646
X0160446
X0167246
X0174046
X0180846
X0187646
X0194446
X0201246
X0208046
X0210475Y0057448
X0188779Y0039665
X0180315Y0039665
X0171949Y0042717
X0167913Y0044685
X0120276Y0042815
X0112795Y0044685
X0098032Y004626
Y0050591
X0094095Y0041929
X0078445Y0043307
Y003937
X0068898
X0061417
Y0043307
X0059382Y0047374
X0065158Y0053149
X0078347Y0058465
X0078969Y0062992
Y0066929
Y0070866
Y0074803
X0075032
X0070866Y0074803
X0066929
X0062992
Y0070866
X0067323Y0070276
X0059055Y0074803
X008414Y0059762
X0088254Y0055901
X0111811Y0071752
X0055118Y0074803
X0051181
Y0070866
Y0066929
Y0062992
Y0059055
X0055118
Y0047244
X0051181Y0047244
Y0043307
Y003937
X0047244Y0043307
X0043307
X003937
X0035433
X003127Y004373
X003161Y003965
X0034394Y0036866
X0035069Y0058268
M30
