%TF.GenerationSoftware,Altium Limited,Altium Designer,18.1.11 (251)*%
G04 Layer_Physical_Order=2*
G04 Layer_Color=16440176*
%FSLAX26Y26*%
%MOIN*%
%TF.FileFunction,Copper,L2,Inr,Signal*%
%TF.Part,Single*%
G01*
G75*
%TA.AperFunction,Conductor*%
%ADD11C,0.007874*%
%TA.AperFunction,ComponentPad*%
%ADD44O,0.177165X0.088583*%
%ADD45O,0.088583X0.177165*%
%ADD46O,0.098425X0.196850*%
%TA.AperFunction,ViaPad*%
%ADD47C,0.018000*%
G36*
X344262Y576377D02*
X343774Y576826D01*
X343238Y577228D01*
X342653Y577582D01*
X342019Y577889D01*
X341337Y578149D01*
X340606Y578362D01*
X339827Y578528D01*
X338998Y578646D01*
X338121Y578717D01*
X337196Y578740D01*
Y586614D01*
X338121Y586638D01*
X338998Y586709D01*
X339827Y586827D01*
X340606Y586992D01*
X341337Y587205D01*
X342019Y587465D01*
X342653Y587772D01*
X343238Y588126D01*
X343774Y588528D01*
X344262Y588977D01*
Y576377D01*
D02*
G37*
G36*
X326772Y531496D02*
X259842D01*
Y606299D01*
X326772D01*
Y531496D01*
D02*
G37*
G36*
X580882Y772109D02*
X581640Y770068D01*
X582213Y764108D01*
X577574Y761009D01*
X573596Y755055D01*
X572199Y748032D01*
X573596Y741008D01*
X577574Y735054D01*
X583528Y731076D01*
X590551Y729679D01*
X597574Y731076D01*
X603528Y735054D01*
X605792Y738441D01*
X606271Y738613D01*
X614201D01*
X614681Y738441D01*
X616944Y735054D01*
X620331Y732791D01*
X620503Y732312D01*
Y724381D01*
X620331Y723902D01*
X616944Y721639D01*
X612966Y715685D01*
X611569Y708661D01*
X612966Y701638D01*
X616944Y695684D01*
X622898Y691706D01*
X629921Y690309D01*
X636944Y691706D01*
X642899Y695684D01*
X646597Y701220D01*
X646877Y701638D01*
X646953Y701795D01*
X647283Y702469D01*
X655024Y702011D01*
X655365Y700296D01*
X656273Y695733D01*
X660251Y689779D01*
X666205Y685800D01*
X673228Y684403D01*
X680251Y685800D01*
X686206Y689779D01*
X690184Y695733D01*
X691581Y702756D01*
X690184Y709779D01*
X686206Y715733D01*
X680251Y719712D01*
X673228Y721109D01*
X666205Y719712D01*
X660251Y715733D01*
X656552Y710197D01*
X656273Y709779D01*
X656196Y709622D01*
X655867Y708948D01*
X648126Y709406D01*
X647785Y711121D01*
X646877Y715685D01*
X642899Y721639D01*
X639511Y723902D01*
X639340Y724381D01*
Y732312D01*
X639511Y732791D01*
X642899Y735054D01*
X645162Y738441D01*
X645641Y738613D01*
X653572D01*
X654051Y738441D01*
X656314Y735054D01*
X662268Y731076D01*
X669291Y729679D01*
X676314Y731076D01*
X682269Y735054D01*
X684532Y738441D01*
X685011Y738613D01*
X692941D01*
X693421Y738441D01*
X695684Y735054D01*
X701638Y731076D01*
X708661Y729679D01*
X715685Y731076D01*
X721639Y735054D01*
X725617Y741008D01*
X727014Y748032D01*
X725617Y755055D01*
X721639Y761009D01*
X717000Y764108D01*
X717572Y770068D01*
X718330Y772109D01*
X2976833Y772108D01*
Y649606D01*
X2992126D01*
Y555118D01*
X2976833D01*
Y15293D01*
X579270Y15294D01*
Y113189D01*
X578106Y119041D01*
X574790Y124003D01*
X261303Y437491D01*
X264364Y444882D01*
X287695D01*
X294344Y437303D01*
X295741Y430280D01*
X299720Y424326D01*
X305674Y420348D01*
X312697Y418950D01*
X319720Y420348D01*
X325674Y424326D01*
X329652Y430280D01*
X331050Y437303D01*
X337699Y444882D01*
X495394D01*
Y478953D01*
X495394Y486954D01*
X571378Y486953D01*
X573303Y484780D01*
X576503Y478953D01*
X575466Y473740D01*
X576863Y466717D01*
X580842Y460763D01*
X586796Y456784D01*
X593819Y455387D01*
X600842Y456784D01*
X606796Y460763D01*
X610774Y466717D01*
X612171Y473740D01*
X611135Y478953D01*
X614334Y484780D01*
X616260Y486953D01*
X618504D01*
Y576023D01*
X495394Y576024D01*
X495394Y584024D01*
X495394Y772109D01*
X580882D01*
D02*
G37*
%LPC*%
G36*
X1118110Y735872D02*
X1111087Y734475D01*
X1105133Y730497D01*
X1101155Y724543D01*
X1099758Y717520D01*
X1101155Y710496D01*
X1105133Y704543D01*
X1111087Y700564D01*
X1118110Y699167D01*
X1125133Y700564D01*
X1131087Y704543D01*
X1135066Y710496D01*
X1136463Y717520D01*
X1135066Y724543D01*
X1131087Y730497D01*
X1125133Y734475D01*
X1118110Y735872D01*
D02*
G37*
G36*
X2139764Y533116D02*
X2132741Y531719D01*
X2126787Y527741D01*
X2122808Y521787D01*
X2121411Y514764D01*
X2122808Y507741D01*
X2126787Y501787D01*
X2132741Y497808D01*
X2139764Y496411D01*
X2146787Y497808D01*
X2152741Y501787D01*
X2156719Y507741D01*
X2158116Y514764D01*
X2156719Y521787D01*
X2152741Y527741D01*
X2146787Y531719D01*
X2139764Y533116D01*
D02*
G37*
G36*
X1719488Y445518D02*
X1712465Y444121D01*
X1706511Y440142D01*
X1702532Y434188D01*
X1701135Y427165D01*
X1702532Y420142D01*
X1706511Y414188D01*
X1712465Y410210D01*
X1719488Y408813D01*
X1726511Y410210D01*
X1732465Y414188D01*
X1736444Y420142D01*
X1737841Y427165D01*
X1736444Y434188D01*
X1732465Y440142D01*
X1726511Y444121D01*
X1719488Y445518D01*
D02*
G37*
G36*
X940945Y437644D02*
X933922Y436247D01*
X927968Y432269D01*
X923989Y426315D01*
X922592Y419291D01*
X923989Y412268D01*
X927968Y406314D01*
X933922Y402336D01*
X940945Y400939D01*
X947968Y402336D01*
X953922Y406314D01*
X957900Y412268D01*
X959298Y419291D01*
X957900Y426315D01*
X953922Y432269D01*
X947968Y436247D01*
X940945Y437644D01*
D02*
G37*
G36*
X1378937Y374258D02*
X1371914Y372861D01*
X1365960Y368883D01*
X1362387D01*
X1356433Y372861D01*
X1349410Y374258D01*
X1342386Y372861D01*
X1336432Y368883D01*
X1332859D01*
X1326905Y372861D01*
X1319882Y374258D01*
X1312859Y372861D01*
X1306905Y368883D01*
X1303332D01*
X1297378Y372861D01*
X1290354Y374258D01*
X1283331Y372861D01*
X1277377Y368883D01*
X1273399Y362929D01*
X1272002Y355906D01*
X1273399Y348882D01*
X1277377Y342928D01*
X1283331Y338950D01*
X1290354Y337553D01*
X1297378Y338950D01*
X1303332Y342928D01*
X1306905D01*
X1312859Y338950D01*
X1319882Y337553D01*
X1326905Y338950D01*
X1332859Y342928D01*
X1336432D01*
X1342386Y338950D01*
X1349410Y337553D01*
X1356433Y338950D01*
X1362387Y342928D01*
X1365960D01*
X1371914Y338950D01*
X1378937Y337553D01*
X1385960Y338950D01*
X1391914Y342928D01*
X1395893Y348882D01*
X1397290Y355906D01*
X1395893Y362929D01*
X1391914Y368883D01*
X1385960Y372861D01*
X1378937Y374258D01*
D02*
G37*
G36*
X1987205Y361856D02*
X1980182Y360459D01*
X1974228Y356481D01*
X1970249Y350527D01*
X1969664Y347582D01*
X1969630Y347412D01*
X1961473D01*
X1961439Y347582D01*
X1960853Y350527D01*
X1956875Y356481D01*
X1950921Y360459D01*
X1943898Y361856D01*
X1936874Y360459D01*
X1930920Y356481D01*
X1926942Y350527D01*
X1925545Y343504D01*
X1926942Y336481D01*
X1930920Y330527D01*
X1936874Y326548D01*
X1943898Y325151D01*
X1950921Y326548D01*
X1956875Y330527D01*
X1960853Y336481D01*
X1961439Y339426D01*
X1961473Y339596D01*
X1969630D01*
X1969663Y339426D01*
X1970249Y336481D01*
X1974228Y330527D01*
X1980182Y326548D01*
X1987205Y325151D01*
X1994228Y326548D01*
X2000182Y330527D01*
X2004160Y336481D01*
X2005557Y343504D01*
X2004160Y350527D01*
X2000182Y356481D01*
X1994228Y360459D01*
X1987205Y361856D01*
D02*
G37*
G36*
X1152559Y379573D02*
X1145536Y378176D01*
X1139582Y374198D01*
X1135603Y368244D01*
X1134207Y361221D01*
X1135603Y354197D01*
X1139582Y348243D01*
X1145536Y344265D01*
X1152559Y342868D01*
X1159582Y344265D01*
X1165536Y348243D01*
X1169515Y354197D01*
X1170912Y361221D01*
X1169515Y368244D01*
X1165536Y374198D01*
X1159582Y378176D01*
X1152559Y379573D01*
D02*
G37*
G36*
X614173Y451423D02*
X607150Y450026D01*
X601196Y446048D01*
X597218Y440094D01*
X595821Y433071D01*
X597218Y426048D01*
X601196Y420094D01*
X604583Y417830D01*
X604755Y417351D01*
Y409421D01*
X604583Y408941D01*
X601196Y406678D01*
X597218Y400724D01*
X595821Y393701D01*
X597218Y386678D01*
X601196Y380724D01*
X604583Y378460D01*
X604755Y377981D01*
Y370051D01*
X604583Y369571D01*
X601196Y367308D01*
X597218Y361354D01*
X595821Y354331D01*
X597218Y347308D01*
X601196Y341353D01*
X607150Y337375D01*
X614173Y335978D01*
X621196Y337375D01*
X627150Y341353D01*
X636629D01*
X642583Y337375D01*
X649606Y335978D01*
X656630Y337375D01*
X662583Y341353D01*
X664847Y344741D01*
X665326Y344912D01*
X673256D01*
X673736Y344741D01*
X675999Y341353D01*
X681953Y337375D01*
X688976Y335978D01*
X696000Y337375D01*
X701954Y341353D01*
X705932Y347308D01*
X707329Y354331D01*
X705932Y361354D01*
X701954Y367308D01*
X698567Y369571D01*
X698395Y370051D01*
Y377981D01*
X698567Y378460D01*
X701954Y380724D01*
X705932Y386678D01*
X707329Y393701D01*
X705932Y400724D01*
X701954Y406678D01*
X696000Y410656D01*
X688976Y412053D01*
X681953Y410656D01*
X675999Y406678D01*
X672021Y400724D01*
X670624Y393701D01*
X672021Y386678D01*
X675999Y380724D01*
X679386Y378460D01*
X679558Y377981D01*
Y370051D01*
X679386Y369571D01*
X675999Y367308D01*
X673736Y363921D01*
X673256Y363749D01*
X665326D01*
X664847Y363921D01*
X662583Y367308D01*
X656630Y371286D01*
X649606Y372683D01*
X642583Y371286D01*
X636629Y367308D01*
X627150D01*
X623763Y369571D01*
X623592Y370051D01*
Y377981D01*
X623763Y378460D01*
X627150Y380724D01*
X631129Y386678D01*
X632526Y393701D01*
X631129Y400724D01*
X627150Y406678D01*
X623763Y408941D01*
X623592Y409421D01*
Y417351D01*
X623763Y417830D01*
X627150Y420094D01*
X631129Y426048D01*
X632526Y433071D01*
X631129Y440094D01*
X627150Y446048D01*
X621196Y450026D01*
X614173Y451423D01*
D02*
G37*
G36*
X1189961Y342171D02*
X1182937Y340774D01*
X1176983Y336796D01*
X1173005Y330842D01*
X1171608Y323819D01*
X1173005Y316796D01*
X1176983Y310842D01*
X1182937Y306863D01*
X1189961Y305466D01*
X1196984Y306863D01*
X1202938Y310842D01*
X1206916Y316796D01*
X1208313Y323819D01*
X1206916Y330842D01*
X1202938Y336796D01*
X1196984Y340774D01*
X1189961Y342171D01*
D02*
G37*
G36*
X1599409Y262841D02*
X1592386Y261444D01*
X1586432Y257465D01*
X1582859D01*
X1576905Y261444D01*
X1569882Y262841D01*
X1562859Y261444D01*
X1556905Y257465D01*
X1553331D01*
X1547377Y261444D01*
X1540354Y262841D01*
X1533331Y261444D01*
X1527377Y257465D01*
X1523804D01*
X1517850Y261444D01*
X1510827Y262841D01*
X1503803Y261444D01*
X1497849Y257465D01*
X1493871Y251511D01*
X1492474Y244488D01*
X1493871Y237465D01*
X1497849Y231511D01*
X1503803Y227533D01*
X1510827Y226136D01*
X1517850Y227533D01*
X1523804Y231511D01*
X1527377D01*
X1533331Y227533D01*
X1540354Y226136D01*
X1547377Y227533D01*
X1553331Y231511D01*
X1556905D01*
X1562859Y227533D01*
X1569882Y226136D01*
X1576905Y227533D01*
X1582859Y231511D01*
X1586432D01*
X1592386Y227533D01*
X1599409Y226136D01*
X1606433Y227533D01*
X1612387Y231511D01*
X1616365Y237465D01*
X1617762Y244488D01*
X1616365Y251511D01*
X1612387Y257465D01*
X1606433Y261444D01*
X1599409Y262841D01*
D02*
G37*
G36*
X715846Y276916D02*
X708823Y275519D01*
X702869Y271540D01*
X698891Y265586D01*
X697494Y258563D01*
X698891Y251540D01*
X702869Y245586D01*
X708823Y241607D01*
X715846Y240210D01*
X722870Y241607D01*
X728824Y245586D01*
X732802Y251540D01*
X734199Y258563D01*
X732802Y265586D01*
X728824Y271540D01*
X722870Y275519D01*
X715846Y276916D01*
D02*
G37*
G36*
X1987205Y170912D02*
X1980182Y169515D01*
X1974228Y165536D01*
X1970249Y159582D01*
X1969664Y156637D01*
X1969630Y156467D01*
X1961473D01*
X1961439Y156637D01*
X1960853Y159582D01*
X1956875Y165536D01*
X1950921Y169515D01*
X1943898Y170912D01*
X1936874Y169515D01*
X1930920Y165536D01*
X1926942Y159582D01*
X1925545Y152559D01*
X1926942Y145536D01*
X1930920Y139582D01*
X1936874Y135603D01*
X1943898Y134207D01*
X1950921Y135603D01*
X1956875Y139582D01*
X1960853Y145536D01*
X1961439Y148481D01*
X1961473Y148651D01*
X1969630D01*
X1969663Y148481D01*
X1970249Y145536D01*
X1974228Y139582D01*
X1980182Y135603D01*
X1987205Y134207D01*
X1994228Y135603D01*
X2000182Y139582D01*
X2004160Y145536D01*
X2005557Y152559D01*
X2004160Y159582D01*
X2000182Y165536D01*
X1994228Y169515D01*
X1987205Y170912D01*
D02*
G37*
G36*
X2197835Y132526D02*
X2190811Y131129D01*
X2184858Y127150D01*
X2180879Y121196D01*
X2179482Y114173D01*
X2180879Y107150D01*
X2184858Y101196D01*
X2190811Y97218D01*
X2197835Y95821D01*
X2204858Y97218D01*
X2210812Y101196D01*
X2214790Y107150D01*
X2216187Y114173D01*
X2214790Y121196D01*
X2210812Y127150D01*
X2204858Y131129D01*
X2197835Y132526D01*
D02*
G37*
G36*
X2433071Y301752D02*
X2418657Y299854D01*
X2405226Y294291D01*
X2393693Y285441D01*
X2384843Y273908D01*
X2379280Y260476D01*
X2377382Y246063D01*
Y147638D01*
X2379280Y133224D01*
X2384843Y119793D01*
X2393693Y108260D01*
X2405226Y99410D01*
X2418657Y93846D01*
X2433071Y91949D01*
X2447484Y93846D01*
X2460915Y99410D01*
X2472449Y108260D01*
X2481299Y119793D01*
X2486862Y133224D01*
X2488760Y147638D01*
Y246063D01*
X2486862Y260476D01*
X2481299Y273908D01*
X2472449Y285441D01*
X2460915Y294291D01*
X2447484Y299854D01*
X2433071Y301752D01*
D02*
G37*
G36*
X827756Y127605D02*
X820733Y126208D01*
X814779Y122229D01*
X810800Y116275D01*
X809403Y109252D01*
X810800Y102229D01*
X814779Y96275D01*
X820733Y92296D01*
X827756Y90899D01*
X834779Y92296D01*
X840733Y96275D01*
X844711Y102229D01*
X846108Y109252D01*
X844711Y116275D01*
X840733Y122229D01*
X834779Y126208D01*
X827756Y127605D01*
D02*
G37*
G36*
X866142Y90203D02*
X859119Y88806D01*
X853164Y84828D01*
X849186Y78874D01*
X847789Y71850D01*
X849186Y64827D01*
X853164Y58873D01*
X859119Y54895D01*
X866142Y53498D01*
X873165Y54895D01*
X879119Y58873D01*
X883097Y64827D01*
X884494Y71850D01*
X883097Y78874D01*
X879119Y84828D01*
X873165Y88806D01*
X866142Y90203D01*
D02*
G37*
G36*
X1719488Y86266D02*
X1712465Y84869D01*
X1706511Y80891D01*
X1702533Y74937D01*
X1701136Y67914D01*
X1702533Y60891D01*
X1706511Y54937D01*
X1712465Y50958D01*
X1719488Y49561D01*
X1726512Y50958D01*
X1732466Y54937D01*
X1736444Y60891D01*
X1737841Y67914D01*
X1736444Y74937D01*
X1732466Y80891D01*
X1726512Y84869D01*
X1719488Y86266D01*
D02*
G37*
%LPD*%
D11*
X318898Y582677D02*
X350689D01*
D44*
X2551181Y381890D02*
D03*
D45*
X2669291Y196850D02*
D03*
D46*
X2433071D02*
D03*
D47*
X1118110Y717520D02*
D03*
X2139764Y514764D02*
D03*
X1719488Y427165D02*
D03*
X2143701Y309055D02*
D03*
X2030512Y343504D02*
D03*
X1887795Y355315D02*
D03*
X1719488Y67914D02*
D03*
X1887795Y140748D02*
D03*
X1803150Y140748D02*
D03*
Y99409D02*
D03*
X1887795Y99410D02*
D03*
X2197835Y114173D02*
D03*
X2017717Y443898D02*
D03*
Y485236D02*
D03*
X2035433Y93504D02*
D03*
Y134842D02*
D03*
X1822835Y248106D02*
D03*
X1868110Y248032D02*
D03*
X1599409Y244488D02*
D03*
X1569882D02*
D03*
X1540354D02*
D03*
X1510827D02*
D03*
X1378937Y355906D02*
D03*
X1349410D02*
D03*
X1319882D02*
D03*
X1290354D02*
D03*
X1510827D02*
D03*
X1540354D02*
D03*
X1569882D02*
D03*
X1599410D02*
D03*
X1290354Y244488D02*
D03*
X1319882D02*
D03*
X1349410D02*
D03*
X1378937D02*
D03*
X1887795Y396654D02*
D03*
X1803150Y355315D02*
D03*
Y396653D02*
D03*
X2964460Y630244D02*
D03*
X2896460D02*
D03*
X2828460D02*
D03*
X2920755Y574480D02*
D03*
X2852755D02*
D03*
X2784755D02*
D03*
X841403Y597619D02*
D03*
X882537Y559014D02*
D03*
X948755Y574480D02*
D03*
X1016755D02*
D03*
X1084755D02*
D03*
X1152755D02*
D03*
X1220755D02*
D03*
X1288755D02*
D03*
X1356755D02*
D03*
X1424755D02*
D03*
X1492755D02*
D03*
X1560755D02*
D03*
X1628755D02*
D03*
X1696755D02*
D03*
X1764755D02*
D03*
X1832755D02*
D03*
X1900755D02*
D03*
X1968755D02*
D03*
X2036755D02*
D03*
X2104755D02*
D03*
X2172755D02*
D03*
X2240755D02*
D03*
X2308755D02*
D03*
X2376755D02*
D03*
X2444755D02*
D03*
X2512755D02*
D03*
X2580755D02*
D03*
X2648755D02*
D03*
X2716755D02*
D03*
X2760460Y630244D02*
D03*
X2692460D02*
D03*
X2624460D02*
D03*
X2556460D02*
D03*
X2488460D02*
D03*
X2420460D02*
D03*
X2352460D02*
D03*
X2284460D02*
D03*
X2216460D02*
D03*
X2148460D02*
D03*
X2080460D02*
D03*
X2012460D02*
D03*
X1944460D02*
D03*
X1876460D02*
D03*
X1808460D02*
D03*
X1740460D02*
D03*
X1672460D02*
D03*
X1604460D02*
D03*
X1536460D02*
D03*
X1468460D02*
D03*
X1400460D02*
D03*
X1332460D02*
D03*
X1264460D02*
D03*
X1196460D02*
D03*
X1128460D02*
D03*
X1060460D02*
D03*
X992460D02*
D03*
X924460D02*
D03*
X2850394Y309055D02*
D03*
X2919292Y171260D02*
D03*
X2850394Y33465D02*
D03*
X2712599Y309055D02*
D03*
X2781497Y171260D02*
D03*
X2712599Y33465D02*
D03*
X2643702Y446851D02*
D03*
X2574804Y309055D02*
D03*
Y33465D02*
D03*
X2505906Y446851D02*
D03*
X2437009Y33465D02*
D03*
X2299213D02*
D03*
X2023623D02*
D03*
X1885827D02*
D03*
X1748032D02*
D03*
X1679134Y446851D02*
D03*
X1610237Y309055D02*
D03*
Y33465D02*
D03*
X1472441Y309055D02*
D03*
Y33465D02*
D03*
X1334646Y309055D02*
D03*
X1403544Y171260D02*
D03*
X1334646Y33465D02*
D03*
X1265748Y171260D02*
D03*
X1196851Y33465D02*
D03*
X1127953Y446851D02*
D03*
Y171260D02*
D03*
X1059056Y33465D02*
D03*
X990158Y171260D02*
D03*
X921260Y33465D02*
D03*
X783465Y584646D02*
D03*
X645670Y309055D02*
D03*
X714567Y171260D02*
D03*
X507874Y309055D02*
D03*
X576772Y171260D02*
D03*
X1681102Y239173D02*
D03*
X2143701Y269685D02*
D03*
X784449Y393701D02*
D03*
Y354331D02*
D03*
X940945Y419291D02*
D03*
X1202756Y428150D02*
D03*
X750315Y748031D02*
D03*
X789685D02*
D03*
X677854Y203740D02*
D03*
X649606Y232284D02*
D03*
X1987205Y152559D02*
D03*
X1943898D02*
D03*
X1987205Y343504D02*
D03*
X1943898D02*
D03*
X1152559Y361221D02*
D03*
X1189961Y323819D02*
D03*
X827756Y109252D02*
D03*
X866142Y71850D02*
D03*
X937008D02*
D03*
X973425Y109252D02*
D03*
X354331Y433071D02*
D03*
X472441D02*
D03*
X433071D02*
D03*
X393701D02*
D03*
X316100Y396499D02*
D03*
X343938Y368660D02*
D03*
X371777Y340821D02*
D03*
X399616Y312982D02*
D03*
X427455Y285143D02*
D03*
X455294Y257305D02*
D03*
X483133Y229466D02*
D03*
X510972Y201627D02*
D03*
X538811Y173788D02*
D03*
X566649Y145949D02*
D03*
X1152559Y214567D02*
D03*
X1189961Y252953D02*
D03*
X980315Y462599D02*
D03*
Y505906D02*
D03*
X651575Y531489D02*
D03*
X715846Y258563D02*
D03*
X312697Y437303D02*
D03*
X629921Y708661D02*
D03*
X708661Y748032D02*
D03*
X669291D02*
D03*
X629921D02*
D03*
X590551D02*
D03*
X511811Y354331D02*
D03*
X551181Y590551D02*
D03*
Y472441D02*
D03*
X688976Y393701D02*
D03*
Y354331D02*
D03*
X614173Y433071D02*
D03*
Y393701D02*
D03*
X649606Y354331D02*
D03*
X614173D02*
D03*
X551181Y748031D02*
D03*
X511811Y590551D02*
D03*
X673228Y702756D02*
D03*
X593819Y473740D02*
D03*
X791339Y39370D02*
D03*
Y78740D02*
D03*
Y118110D02*
D03*
X751968D02*
D03*
X712598D02*
D03*
X673228D02*
D03*
X633858D02*
D03*
X511811Y472441D02*
D03*
Y393701D02*
D03*
Y433071D02*
D03*
X594488Y118110D02*
D03*
X511811Y629921D02*
D03*
Y669291D02*
D03*
X350689Y582677D02*
D03*
X789685Y669291D02*
D03*
X511811Y748031D02*
D03*
X784449Y433071D02*
D03*
X511811Y708661D02*
D03*
X789685Y629921D02*
D03*
Y708661D02*
D03*
%TF.MD5,7efe79e832b0e0052e28ff3efbba0fed*%
M02*
